<?xml version="1.0" encoding="UTF-8" standalone="no"?>
<!DOCTYPE svg PUBLIC "-//W3C//DTD SVG 1.1//EN"
 "http://www.w3.org/Graphics/SVG/1.1/DTD/svg11.dtd">
<!-- Generated by graphviz version 2.40.1 (20161225.0304)
 -->
<!-- Title: ipsec.h Pages: 1 -->
<svg width="2006pt" height="778pt"
 viewBox="0.00 0.00 2006.00 778.00" xmlns="http://www.w3.org/2000/svg" xmlns:xlink="http://www.w3.org/1999/xlink">
<g id="graph0" class="graph" transform="scale(1 1) rotate(0) translate(4 774)">
<title>ipsec.h</title>
<polygon fill="#ffffff" stroke="transparent" points="-4,4 -4,-774 2002,-774 2002,4 -4,4"/>
<!-- Node0 -->
<g id="node1" class="node">
<title>Node0</title>
<polygon fill="#bfbfbf" stroke="#000000" points="1270.5,-750.5 1270.5,-769.5 1321.5,-769.5 1321.5,-750.5 1270.5,-750.5"/>
<text text-anchor="middle" x="1296" y="-757.5" font-family="Helvetica,sans-Serif" font-size="10.00" fill="#000000">ipsec.h</text>
</g>
<!-- Node1 -->
<g id="node2" class="node">
<title>Node1</title>
<polygon fill="#ffffff" stroke="#bfbfbf" points="1177,-694.5 1177,-713.5 1285,-713.5 1285,-694.5 1177,-694.5"/>
<text text-anchor="middle" x="1231" y="-701.5" font-family="Helvetica,sans-Serif" font-size="10.00" fill="#000000">odp/api/abi/ipsec.h</text>
</g>
<!-- Node0&#45;&gt;Node1 -->
<g id="edge1" class="edge">
<title>Node0&#45;&gt;Node1</title>
<path fill="none" stroke="#191970" d="M1284.6779,-750.2455C1275.0777,-741.9746 1261.1108,-729.9416 1249.8305,-720.2232"/>
<polygon fill="#191970" stroke="#191970" points="1252.053,-717.5182 1242.1924,-713.6427 1247.484,-722.8214 1252.053,-717.5182"/>
</g>
<!-- Node2 -->
<g id="node3" class="node">
<title>Node2</title>
<g id="a_node3"><a xlink:href="api_2spec_2ipsec_8h.html" target="_top" xlink:title="ODP IPSEC API. ">
<polygon fill="#ffffff" stroke="#000000" points="1303,-694.5 1303,-713.5 1419,-713.5 1419,-694.5 1303,-694.5"/>
<text text-anchor="middle" x="1361" y="-701.5" font-family="Helvetica,sans-Serif" font-size="10.00" fill="#000000">odp/api/spec/ipsec.h</text>
</a>
</g>
</g>
<!-- Node0&#45;&gt;Node2 -->
<g id="edge2" class="edge">
<title>Node0&#45;&gt;Node2</title>
<path fill="none" stroke="#191970" d="M1307.3221,-750.2455C1316.9223,-741.9746 1330.8892,-729.9416 1342.1695,-720.2232"/>
<polygon fill="#191970" stroke="#191970" points="1344.516,-722.8214 1349.8076,-713.6427 1339.947,-717.5182 1344.516,-722.8214"/>
</g>
<!-- Node3 -->
<g id="node4" class="node">
<title>Node3</title>
<g id="a_node4"><a xlink:href="visibility__begin_8h_source.html" target="_top" xlink:title="odp/visibility_begin.h">
<polygon fill="#ffffff" stroke="#000000" points="426.5,-.5 426.5,-19.5 547.5,-19.5 547.5,-.5 426.5,-.5"/>
<text text-anchor="middle" x="487" y="-7.5" font-family="Helvetica,sans-Serif" font-size="10.00" fill="#000000">odp/visibility_begin.h</text>
</a>
</g>
</g>
<!-- Node2&#45;&gt;Node3 -->
<g id="edge3" class="edge">
<title>Node2&#45;&gt;Node3</title>
<path fill="none" stroke="#191970" d="M1302.9382,-694.9842C1299.9186,-694.6249 1296.9255,-694.2934 1294,-694 1150.4471,-679.603 0,-730.7731 0,-586.5 0,-586.5 0,-586.5 0,-122 0,-85.1996 17.9488,-74.0829 50,-56 81.1191,-38.443 300.7305,-21.9474 416.2835,-14.3625"/>
<polygon fill="#191970" stroke="#191970" points="416.7022,-17.8427 426.4537,-13.7003 416.2474,-10.8575 416.7022,-17.8427"/>
</g>
<!-- Node4 -->
<g id="node5" class="node">
<title>Node4</title>
<g id="a_node5"><a xlink:href="api_2crypto_8h.html" target="_top" xlink:title="ODP crypto. ">
<polygon fill="#ffffff" stroke="#000000" points="388.5,-515.5 388.5,-534.5 483.5,-534.5 483.5,-515.5 388.5,-515.5"/>
<text text-anchor="middle" x="436" y="-522.5" font-family="Helvetica,sans-Serif" font-size="10.00" fill="#000000">odp/api/crypto.h</text>
</a>
</g>
</g>
<!-- Node2&#45;&gt;Node4 -->
<g id="edge4" class="edge">
<title>Node2&#45;&gt;Node4</title>
<path fill="none" stroke="#191970" d="M1302.9153,-695.1837C1299.9017,-694.7723 1296.9162,-694.3751 1294,-694 1117.3886,-671.2829 653.6985,-688.4039 498,-602 473.9419,-588.6491 455.7017,-561.8237 445.4273,-543.6354"/>
<polygon fill="#191970" stroke="#191970" points="448.3678,-541.7132 440.5524,-534.5598 442.2011,-545.0256 448.3678,-541.7132"/>
</g>
<!-- Node12 -->
<g id="node13" class="node">
<title>Node12</title>
<g id="a_node13"><a xlink:href="visibility__end_8h_source.html" target="_top" xlink:title="odp/visibility_end.h">
<polygon fill="#ffffff" stroke="#000000" points="1638,-.5 1638,-19.5 1750,-19.5 1750,-.5 1638,-.5"/>
<text text-anchor="middle" x="1694" y="-7.5" font-family="Helvetica,sans-Serif" font-size="10.00" fill="#000000">odp/visibility_end.h</text>
</a>
</g>
</g>
<!-- Node2&#45;&gt;Node12 -->
<g id="edge115" class="edge">
<title>Node2&#45;&gt;Node12</title>
<path fill="none" stroke="#191970" d="M1419.3263,-703.1053C1540.5941,-700.589 1815.8858,-691.2808 1903,-658 1952.3647,-639.1409 1998,-639.3445 1998,-586.5 1998,-586.5 1998,-586.5 1998,-122 1998,-87.9282 1987.0342,-75.3642 1959,-56 1927.5717,-34.2914 1828.0848,-21.5426 1760.3631,-15.1677"/>
<polygon fill="#191970" stroke="#191970" points="1760.4761,-11.6635 1750.1983,-14.236 1759.8371,-18.6342 1760.4761,-11.6635"/>
</g>
<!-- Node33 -->
<g id="node27" class="node">
<title>Node33</title>
<g id="a_node27"><a xlink:href="support_8h.html" target="_top" xlink:title="ODP support API &#45; platform specific header. ">
<polygon fill="#ffffff" stroke="#000000" points="1476.5,-403.5 1476.5,-422.5 1577.5,-422.5 1577.5,-403.5 1476.5,-403.5"/>
<text text-anchor="middle" x="1527" y="-410.5" font-family="Helvetica,sans-Serif" font-size="10.00" fill="#000000">odp/api/support.h</text>
</a>
</g>
</g>
<!-- Node2&#45;&gt;Node33 -->
<g id="edge63" class="edge">
<title>Node2&#45;&gt;Node33</title>
<path fill="none" stroke="#191970" d="M1402.7753,-694.4506C1452.821,-680.2472 1530,-648.3214 1530,-586.5 1530,-586.5 1530,-586.5 1530,-525 1530,-492.7 1528.7378,-455.1791 1527.8508,-432.8005"/>
<polygon fill="#191970" stroke="#191970" points="1531.3387,-432.4334 1527.4298,-422.5861 1524.3447,-432.7217 1531.3387,-432.4334"/>
</g>
<!-- Node38 -->
<g id="node35" class="node">
<title>Node38</title>
<g id="a_node35"><a xlink:href="api_2packet__io_8h.html" target="_top" xlink:title="ODP Packet IO. ">
<polygon fill="#ffffff" stroke="#000000" points="1092,-515.5 1092,-534.5 1204,-534.5 1204,-515.5 1092,-515.5"/>
<text text-anchor="middle" x="1148" y="-522.5" font-family="Helvetica,sans-Serif" font-size="10.00" fill="#000000">odp/api/packet_io.h</text>
</a>
</g>
</g>
<!-- Node2&#45;&gt;Node38 -->
<g id="edge64" class="edge">
<title>Node2&#45;&gt;Node38</title>
<path fill="none" stroke="#191970" d="M1349.5482,-694.3762C1314.8759,-665.2384 1210.7631,-577.7445 1167.3444,-541.2565"/>
<polygon fill="#191970" stroke="#191970" points="1169.4159,-538.4256 1159.5084,-534.6714 1164.9123,-543.7845 1169.4159,-538.4256"/>
</g>
<!-- Node45 -->
<g id="node42" class="node">
<title>Node45</title>
<g id="a_node42"><a xlink:href="protocols_8h.html" target="_top" xlink:title="ODP protocols. ">
<polygon fill="#ffffff" stroke="#000000" points="1784,-638.5 1784,-657.5 1894,-657.5 1894,-638.5 1784,-638.5"/>
<text text-anchor="middle" x="1839" y="-645.5" font-family="Helvetica,sans-Serif" font-size="10.00" fill="#000000">odp/api/protocols.h</text>
</a>
</g>
</g>
<!-- Node2&#45;&gt;Node45 -->
<g id="edge87" class="edge">
<title>Node2&#45;&gt;Node45</title>
<path fill="none" stroke="#191970" d="M1419.1343,-697.1893C1508.705,-686.6957 1679.8956,-666.6398 1773.6433,-655.6569"/>
<polygon fill="#191970" stroke="#191970" points="1774.3267,-659.1008 1783.8515,-654.4609 1773.5121,-652.1484 1774.3267,-659.1008"/>
</g>
<!-- Node47 -->
<g id="node44" class="node">
<title>Node47</title>
<g id="a_node44"><a xlink:href="api_2classification_8h.html" target="_top" xlink:title="ODP classification descriptor. ">
<polygon fill="#ffffff" stroke="#000000" points="970,-638.5 970,-657.5 1098,-657.5 1098,-638.5 970,-638.5"/>
<text text-anchor="middle" x="1034" y="-645.5" font-family="Helvetica,sans-Serif" font-size="10.00" fill="#000000">odp/api/classification.h</text>
</a>
</g>
</g>
<!-- Node2&#45;&gt;Node47 -->
<g id="edge91" class="edge">
<title>Node2&#45;&gt;Node47</title>
<path fill="none" stroke="#191970" d="M1305.1582,-694.4369C1248.2542,-684.6918 1160.0304,-669.5832 1099.7764,-659.2645"/>
<polygon fill="#191970" stroke="#191970" points="1100.0588,-655.7619 1089.6114,-657.5237 1098.8771,-662.6615 1100.0588,-655.7619"/>
</g>
<!-- Node51 -->
<g id="node48" class="node">
<title>Node51</title>
<g id="a_node48"><a xlink:href="api_2traffic__mngr_8h.html" target="_top" xlink:title="ODP Traffic manager. ">
<polygon fill="#ffffff" stroke="#000000" points="1608.5,-638.5 1608.5,-657.5 1731.5,-657.5 1731.5,-638.5 1608.5,-638.5"/>
<text text-anchor="middle" x="1670" y="-645.5" font-family="Helvetica,sans-Serif" font-size="10.00" fill="#000000">odp/api/traffic_mngr.h</text>
</a>
</g>
</g>
<!-- Node2&#45;&gt;Node51 -->
<g id="edge108" class="edge">
<title>Node2&#45;&gt;Node51</title>
<path fill="none" stroke="#191970" d="M1413.7679,-694.4369C1467.4285,-684.712 1550.5627,-669.6456 1607.491,-659.3285"/>
<polygon fill="#191970" stroke="#191970" points="1608.2342,-662.7509 1617.4497,-657.5237 1606.9859,-655.8631 1608.2342,-662.7509"/>
</g>
<!-- Node5 -->
<g id="node6" class="node">
<title>Node5</title>
<g id="a_node6"><a xlink:href="api_2std__types_8h.html" target="_top" xlink:title="Standard C language types and definitions for ODP. ">
<polygon fill="#ffffff" stroke="#000000" points="1310,-235.5 1310,-254.5 1422,-254.5 1422,-235.5 1310,-235.5"/>
<text text-anchor="middle" x="1366" y="-242.5" font-family="Helvetica,sans-Serif" font-size="10.00" fill="#000000">odp/api/std_types.h</text>
</a>
</g>
</g>
<!-- Node4&#45;&gt;Node5 -->
<g id="edge5" class="edge">
<title>Node4&#45;&gt;Node5</title>
<path fill="none" stroke="#191970" d="M483.6145,-523.3243C637.2358,-517.7424 1113.6304,-498.9981 1180,-479 1227.6631,-464.6384 1249.8842,-464.7464 1277,-423 1295.5009,-394.5167 1272.1497,-378.4396 1285,-347 1299.0614,-312.5974 1328.4543,-280.3261 1347.6968,-261.6297"/>
<polygon fill="#191970" stroke="#191970" points="1350.1537,-264.1233 1355.0056,-254.7048 1345.3392,-259.0419 1350.1537,-264.1233"/>
</g>
<!-- Node13 -->
<g id="node14" class="node">
<title>Node13</title>
<polygon fill="#ffffff" stroke="#bfbfbf" points="544,-347.5 544,-366.5 660,-366.5 660,-347.5 544,-347.5"/>
<text text-anchor="middle" x="602" y="-354.5" font-family="Helvetica,sans-Serif" font-size="10.00" fill="#000000">odp/api/abi/packet.h</text>
</g>
<!-- Node4&#45;&gt;Node13 -->
<g id="edge16" class="edge">
<title>Node4&#45;&gt;Node13</title>
<path fill="none" stroke="#191970" d="M445.4005,-515.4862C472.4364,-488.1246 550.6657,-408.9528 585.2357,-373.9663"/>
<polygon fill="#191970" stroke="#191970" points="587.7501,-376.4012 592.2891,-366.8279 582.7708,-371.4812 587.7501,-376.4012"/>
</g>
<!-- Node14 -->
<g id="node15" class="node">
<title>Node14</title>
<polygon fill="#ffffff" stroke="#bfbfbf" points="104.5,-459.5 104.5,-478.5 217.5,-478.5 217.5,-459.5 104.5,-459.5"/>
<text text-anchor="middle" x="161" y="-466.5" font-family="Helvetica,sans-Serif" font-size="10.00" fill="#000000">odp/api/abi/crypto.h</text>
</g>
<!-- Node4&#45;&gt;Node14 -->
<g id="edge17" class="edge">
<title>Node4&#45;&gt;Node14</title>
<path fill="none" stroke="#191970" d="M389.0383,-515.4369C341.5787,-505.7724 268.2134,-490.8326 217.5777,-480.5213"/>
<polygon fill="#191970" stroke="#191970" points="218.2653,-477.0895 207.768,-478.5237 216.8685,-483.9488 218.2653,-477.0895"/>
</g>
<!-- Node15 -->
<g id="node16" class="node">
<title>Node15</title>
<polygon fill="#ffffff" stroke="#bfbfbf" points="294,-347.5 294,-366.5 404,-366.5 404,-347.5 294,-347.5"/>
<text text-anchor="middle" x="349" y="-354.5" font-family="Helvetica,sans-Serif" font-size="10.00" fill="#000000">odp/api/abi/buffer.h</text>
</g>
<!-- Node4&#45;&gt;Node15 -->
<g id="edge18" class="edge">
<title>Node4&#45;&gt;Node15</title>
<path fill="none" stroke="#191970" d="M413.1306,-515.4231C381.575,-500.7942 325.9792,-469.582 303,-423 293.9497,-404.6538 310.3136,-385.696 325.9731,-372.832"/>
<polygon fill="#191970" stroke="#191970" points="328.1621,-375.5639 333.9595,-366.6959 323.8973,-370.0131 328.1621,-375.5639"/>
</g>
<!-- Node16 -->
<g id="node17" class="node">
<title>Node16</title>
<polygon fill="#ffffff" stroke="#bfbfbf" points="422,-347.5 422,-366.5 526,-366.5 526,-347.5 422,-347.5"/>
<text text-anchor="middle" x="474" y="-354.5" font-family="Helvetica,sans-Serif" font-size="10.00" fill="#000000">odp/api/abi/pool.h</text>
</g>
<!-- Node4&#45;&gt;Node16 -->
<g id="edge19" class="edge">
<title>Node4&#45;&gt;Node16</title>
<path fill="none" stroke="#191970" d="M438.1519,-515.4862C444.1848,-488.8144 461.3533,-412.9117 469.5452,-376.695"/>
<polygon fill="#191970" stroke="#191970" points="472.9845,-377.3537 471.777,-366.8279 466.157,-375.8093 472.9845,-377.3537"/>
</g>
<!-- Node17 -->
<g id="node18" class="node">
<title>Node17</title>
<g id="a_node18"><a xlink:href="api_2queue_8h.html" target="_top" xlink:title="ODP queue. ">
<polygon fill="#ffffff" stroke="#000000" points="312.5,-403.5 312.5,-422.5 407.5,-422.5 407.5,-403.5 312.5,-403.5"/>
<text text-anchor="middle" x="360" y="-410.5" font-family="Helvetica,sans-Serif" font-size="10.00" fill="#000000">odp/api/queue.h</text>
</a>
</g>
</g>
<!-- Node4&#45;&gt;Node17 -->
<g id="edge20" class="edge">
<title>Node4&#45;&gt;Node17</title>
<path fill="none" stroke="#191970" d="M429.5203,-515.4509C416.8444,-496.7707 388.584,-455.1238 372.266,-431.0761"/>
<polygon fill="#191970" stroke="#191970" points="374.9745,-428.8344 366.4633,-422.5249 369.1822,-432.7649 374.9745,-428.8344"/>
</g>
<!-- Node37 -->
<g id="node26" class="node">
<title>Node37</title>
<g id="a_node26"><a xlink:href="api_2spec_2crypto_8h.html" target="_top" xlink:title="ODP crypto. ">
<polygon fill="#ffffff" stroke="#000000" points="818.5,-459.5 818.5,-478.5 939.5,-478.5 939.5,-459.5 818.5,-459.5"/>
<text text-anchor="middle" x="879" y="-466.5" font-family="Helvetica,sans-Serif" font-size="10.00" fill="#000000">odp/api/spec/crypto.h</text>
</a>
</g>
</g>
<!-- Node4&#45;&gt;Node37 -->
<g id="edge38" class="edge">
<title>Node4&#45;&gt;Node37</title>
<path fill="none" stroke="#191970" d="M483.8297,-518.9538C562.0016,-509.072 717.5131,-489.4137 808.4022,-477.9243"/>
<polygon fill="#191970" stroke="#191970" points="808.8617,-481.3942 818.3438,-476.6676 807.9838,-474.4494 808.8617,-481.3942"/>
</g>
<!-- Node6 -->
<g id="node7" class="node">
<title>Node6</title>
<polygon fill="#ffffff" stroke="#bfbfbf" points="1297,-174 1297,-193 1427,-193 1427,-174 1297,-174"/>
<text text-anchor="middle" x="1362" y="-181" font-family="Helvetica,sans-Serif" font-size="10.00" fill="#000000">odp/api/abi/std_types.h</text>
</g>
<!-- Node5&#45;&gt;Node6 -->
<g id="edge6" class="edge">
<title>Node5&#45;&gt;Node6</title>
<path fill="none" stroke="#191970" d="M1365.375,-235.3906C1364.8205,-226.8657 1363.9928,-214.1392 1363.2958,-203.4235"/>
<polygon fill="#191970" stroke="#191970" points="1366.7756,-202.9966 1362.6338,-193.2449 1359.7903,-203.451 1366.7756,-202.9966"/>
</g>
<!-- Node7 -->
<g id="node8" class="node">
<title>Node7</title>
<g id="a_node8"><a xlink:href="api_2spec_2std__types_8h.html" target="_top" xlink:title="Standard C language types and definitions for ODP. ">
<polygon fill="#ffffff" stroke="#000000" points="1483.5,-174 1483.5,-193 1620.5,-193 1620.5,-174 1483.5,-174"/>
<text text-anchor="middle" x="1552" y="-181" font-family="Helvetica,sans-Serif" font-size="10.00" fill="#000000">odp/api/spec/std_types.h</text>
</a>
</g>
</g>
<!-- Node5&#45;&gt;Node7 -->
<g id="edge7" class="edge">
<title>Node5&#45;&gt;Node7</title>
<path fill="none" stroke="#191970" d="M1395.0625,-235.3906C1426.8662,-224.8749 1478.0051,-207.966 1513.2144,-196.3243"/>
<polygon fill="#191970" stroke="#191970" points="1514.7459,-199.5043 1523.1416,-193.0419 1512.5483,-192.8582 1514.7459,-199.5043"/>
</g>
<!-- Node7&#45;&gt;Node3 -->
<g id="edge8" class="edge">
<title>Node7&#45;&gt;Node3</title>
<path fill="none" stroke="#191970" d="M1505.5654,-173.9085C1381.7038,-148.3008 1052.074,-79.9911 1041,-76 1023.0452,-69.529 1021.3063,-61.397 1003,-56 921.4807,-31.9667 679.0986,-18.348 557.7962,-12.8652"/>
<polygon fill="#191970" stroke="#191970" points="557.6514,-9.3553 547.5054,-12.4064 557.3396,-16.3484 557.6514,-9.3553"/>
</g>
<!-- Node8 -->
<g id="node9" class="node">
<title>Node8</title>
<polygon fill="#ffffff" stroke="#bfbfbf" points="1530.5,-112.5 1530.5,-131.5 1583.5,-131.5 1583.5,-112.5 1530.5,-112.5"/>
<text text-anchor="middle" x="1557" y="-119.5" font-family="Helvetica,sans-Serif" font-size="10.00" fill="#000000">stdint.h</text>
</g>
<!-- Node7&#45;&gt;Node8 -->
<g id="edge9" class="edge">
<title>Node7&#45;&gt;Node8</title>
<path fill="none" stroke="#191970" d="M1552.7813,-173.8906C1553.4743,-165.3657 1554.509,-152.6392 1555.3802,-141.9235"/>
<polygon fill="#191970" stroke="#191970" points="1558.8858,-141.9956 1556.2077,-131.7449 1551.9088,-141.4283 1558.8858,-141.9956"/>
</g>
<!-- Node9 -->
<g id="node10" class="node">
<title>Node9</title>
<g id="a_node10"><a xlink:href="api_2align_8h.html" target="_top" xlink:title="ODP alignments. ">
<polygon fill="#ffffff" stroke="#000000" points="1337.5,-112.5 1337.5,-131.5 1426.5,-131.5 1426.5,-112.5 1337.5,-112.5"/>
<text text-anchor="middle" x="1382" y="-119.5" font-family="Helvetica,sans-Serif" font-size="10.00" fill="#000000">odp/api/align.h</text>
</a>
</g>
</g>
<!-- Node7&#45;&gt;Node9 -->
<g id="edge10" class="edge">
<title>Node7&#45;&gt;Node9</title>
<path fill="none" stroke="#191970" d="M1525.4375,-173.8906C1496.4944,-163.42 1450.0306,-146.6111 1417.8644,-134.9745"/>
<polygon fill="#191970" stroke="#191970" points="1418.9702,-131.6526 1408.376,-131.5419 1416.5889,-138.2351 1418.9702,-131.6526"/>
</g>
<!-- Node7&#45;&gt;Node12 -->
<g id="edge15" class="edge">
<title>Node7&#45;&gt;Node12</title>
<path fill="none" stroke="#191970" d="M1567.5894,-173.9588C1593.5136,-157.2974 1645.4522,-120.4051 1674,-76 1683.0939,-61.8548 1688.2294,-43.3642 1691.0126,-29.5543"/>
<polygon fill="#191970" stroke="#191970" points="1694.4681,-30.1129 1692.7711,-19.6549 1687.576,-28.8886 1694.4681,-30.1129"/>
</g>
<!-- Node10 -->
<g id="node11" class="node">
<title>Node10</title>
<polygon fill="#ffffff" stroke="#bfbfbf" points="1328.5,-56.5 1328.5,-75.5 1435.5,-75.5 1435.5,-56.5 1328.5,-56.5"/>
<text text-anchor="middle" x="1382" y="-63.5" font-family="Helvetica,sans-Serif" font-size="10.00" fill="#000000">odp/api/abi/align.h</text>
</g>
<!-- Node9&#45;&gt;Node10 -->
<g id="edge11" class="edge">
<title>Node9&#45;&gt;Node10</title>
<path fill="none" stroke="#191970" d="M1382,-112.2455C1382,-104.9382 1382,-94.6944 1382,-85.7046"/>
<polygon fill="#191970" stroke="#191970" points="1385.5001,-85.6426 1382,-75.6427 1378.5001,-85.6427 1385.5001,-85.6426"/>
</g>
<!-- Node11 -->
<g id="node12" class="node">
<title>Node11</title>
<g id="a_node12"><a xlink:href="api_2spec_2align_8h.html" target="_top" xlink:title="ODP alignments. ">
<polygon fill="#ffffff" stroke="#000000" points="1196,-56.5 1196,-75.5 1310,-75.5 1310,-56.5 1196,-56.5"/>
<text text-anchor="middle" x="1253" y="-63.5" font-family="Helvetica,sans-Serif" font-size="10.00" fill="#000000">odp/api/spec/align.h</text>
</a>
</g>
</g>
<!-- Node9&#45;&gt;Node11 -->
<g id="edge12" class="edge">
<title>Node9&#45;&gt;Node11</title>
<path fill="none" stroke="#191970" d="M1359.8241,-112.3733C1339.0234,-103.3435 1307.7083,-89.7494 1284.3542,-79.6111"/>
<polygon fill="#191970" stroke="#191970" points="1285.4532,-76.2727 1274.8865,-75.5011 1282.6657,-82.6938 1285.4532,-76.2727"/>
</g>
<!-- Node11&#45;&gt;Node3 -->
<g id="edge13" class="edge">
<title>Node11&#45;&gt;Node3</title>
<path fill="none" stroke="#191970" d="M1195.6579,-57.1238C1192.3938,-56.7176 1189.1573,-56.3389 1186,-56 957.2379,-31.4432 684.8529,-18.06 558.2475,-12.7466"/>
<polygon fill="#191970" stroke="#191970" points="558.0565,-9.2358 547.9198,-12.3176 557.7659,-16.2297 558.0565,-9.2358"/>
</g>
<!-- Node11&#45;&gt;Node12 -->
<g id="edge14" class="edge">
<title>Node11&#45;&gt;Node12</title>
<path fill="none" stroke="#191970" d="M1310.2231,-57.2285C1313.1903,-56.8054 1316.1296,-56.3934 1319,-56 1426.8386,-41.2193 1552.4424,-26.2722 1627.4669,-17.585"/>
<polygon fill="#191970" stroke="#191970" points="1628.1782,-21.0262 1637.7104,-16.4015 1627.3747,-14.0725 1628.1782,-21.0262"/>
</g>
<!-- Node17&#45;&gt;Node5 -->
<g id="edge21" class="edge">
<title>Node17&#45;&gt;Node5</title>
<path fill="none" stroke="#191970" d="M334.6813,-403.4299C305.5912,-391.099 264.3634,-368.6635 285,-347 341.8553,-287.3154 946.3655,-332.2867 1026,-311 1044.8189,-305.9696 1046.4653,-296.9934 1065,-291 1143.379,-265.6551 1237.8629,-254.1214 1299.8061,-248.9758"/>
<polygon fill="#191970" stroke="#191970" points="1300.1506,-252.4595 1309.8403,-248.1746 1299.5934,-245.4817 1300.1506,-252.4595"/>
</g>
<!-- Node17&#45;&gt;Node15 -->
<g id="edge24" class="edge">
<title>Node17&#45;&gt;Node15</title>
<path fill="none" stroke="#191970" d="M358.0839,-403.2455C356.6486,-395.9382 354.6364,-385.6944 352.8705,-376.7046"/>
<polygon fill="#191970" stroke="#191970" points="356.256,-375.7805 350.8941,-366.6427 349.3873,-377.1298 356.256,-375.7805"/>
</g>
<!-- Node17&#45;&gt;Node16 -->
<g id="edge25" class="edge">
<title>Node17&#45;&gt;Node16</title>
<path fill="none" stroke="#191970" d="M379.5973,-403.3733C397.7331,-394.4644 424.9135,-381.1127 445.4587,-371.0203"/>
<polygon fill="#191970" stroke="#191970" points="447.2261,-374.0517 454.6584,-366.5011 444.1397,-367.7688 447.2261,-374.0517"/>
</g>
<!-- Node18 -->
<g id="node19" class="node">
<title>Node18</title>
<polygon fill="#ffffff" stroke="#bfbfbf" points="180,-112.5 180,-131.5 290,-131.5 290,-112.5 180,-112.5"/>
<text text-anchor="middle" x="235" y="-119.5" font-family="Helvetica,sans-Serif" font-size="10.00" fill="#000000">odp/api/abi/event.h</text>
</g>
<!-- Node17&#45;&gt;Node18 -->
<g id="edge22" class="edge">
<title>Node17&#45;&gt;Node18</title>
<path fill="none" stroke="#191970" d="M313.5468,-403.4442C263.2129,-390.056 190,-360.3769 190,-301 190,-301 190,-301 190,-245 190,-206.0036 210.1958,-164.0545 223.5282,-140.6102"/>
<polygon fill="#191970" stroke="#191970" points="226.6828,-142.1508 228.7429,-131.7582 220.6515,-138.5977 226.6828,-142.1508"/>
</g>
<!-- Node19 -->
<g id="node20" class="node">
<title>Node19</title>
<polygon fill="#ffffff" stroke="#bfbfbf" points="934.5,-347.5 934.5,-366.5 1047.5,-366.5 1047.5,-347.5 934.5,-347.5"/>
<text text-anchor="middle" x="991" y="-354.5" font-family="Helvetica,sans-Serif" font-size="10.00" fill="#000000">odp/api/abi/queue.h</text>
</g>
<!-- Node17&#45;&gt;Node19 -->
<g id="edge23" class="edge">
<title>Node17&#45;&gt;Node19</title>
<path fill="none" stroke="#191970" d="M407.5189,-408.9681C499.7757,-401.1128 709.5861,-383.1143 886,-367 898.3747,-365.8697 911.5667,-364.6359 924.2733,-363.433"/>
<polygon fill="#191970" stroke="#191970" points="924.7105,-366.9073 934.3348,-362.4775 924.0486,-359.9387 924.7105,-366.9073"/>
</g>
<!-- Node20 -->
<g id="node21" class="node">
<title>Node20</title>
<g id="a_node21"><a xlink:href="api_2spec_2queue_8h.html" target="_top" xlink:title="ODP queue. ">
<polygon fill="#ffffff" stroke="#000000" points="404,-235.5 404,-254.5 524,-254.5 524,-235.5 404,-235.5"/>
<text text-anchor="middle" x="464" y="-242.5" font-family="Helvetica,sans-Serif" font-size="10.00" fill="#000000">odp/api/spec/queue.h</text>
</a>
</g>
</g>
<!-- Node17&#45;&gt;Node20 -->
<g id="edge26" class="edge">
<title>Node17&#45;&gt;Node20</title>
<path fill="none" stroke="#191970" d="M313.2901,-403.4649C276.4549,-393.5969 234.0494,-375.5568 252,-347 283.9935,-296.103 349.2782,-270.0145 398.9964,-257.0322"/>
<polygon fill="#191970" stroke="#191970" points="399.8625,-260.4235 408.718,-254.607 398.1682,-253.6316 399.8625,-260.4235"/>
</g>
<!-- Node20&#45;&gt;Node3 -->
<g id="edge27" class="edge">
<title>Node20&#45;&gt;Node3</title>
<path fill="none" stroke="#191970" d="M463.1006,-235.4298C460.7169,-207.4591 455.3135,-123.5579 469,-56 470.8677,-46.7808 474.4394,-37.0169 477.912,-28.8677"/>
<polygon fill="#191970" stroke="#191970" points="481.1849,-30.1247 482.122,-19.5714 474.8083,-27.237 481.1849,-30.1247"/>
</g>
<!-- Node20&#45;&gt;Node12 -->
<g id="edge37" class="edge">
<title>Node20&#45;&gt;Node12</title>
<path fill="none" stroke="#191970" d="M524.0357,-243.443C759.1298,-237.2442 1605.457,-213.9328 1629,-199 1681.039,-165.9928 1677.9055,-135.7469 1693,-76 1696.821,-60.8758 1696.8612,-43.1746 1696.061,-29.9133"/>
<polygon fill="#191970" stroke="#191970" points="1699.5194,-29.26 1695.2154,-19.5787 1692.5427,-29.8309 1699.5194,-29.26"/>
</g>
<!-- Node21 -->
<g id="node22" class="node">
<title>Node21</title>
<g id="a_node22"><a xlink:href="api_2event_8h.html" target="_top" xlink:title="ODP event. ">
<polygon fill="#ffffff" stroke="#ff0000" points="256,-174 256,-193 348,-193 348,-174 256,-174"/>
<text text-anchor="middle" x="302" y="-181" font-family="Helvetica,sans-Serif" font-size="10.00" fill="#000000">odp/api/event.h</text>
</a>
</g>
</g>
<!-- Node20&#45;&gt;Node21 -->
<g id="edge28" class="edge">
<title>Node20&#45;&gt;Node21</title>
<path fill="none" stroke="#191970" d="M438.6875,-235.3906C411.2253,-224.9652 367.2105,-208.2559 336.5737,-196.6252"/>
<polygon fill="#191970" stroke="#191970" points="337.726,-193.319 327.1348,-193.0419 335.2415,-199.8633 337.726,-193.319"/>
</g>
<!-- Node29 -->
<g id="node23" class="node">
<title>Node29</title>
<g id="a_node23"><a xlink:href="queue__types_8h.html" target="_top" xlink:title="ODP queue types. ">
<polygon fill="#ffffff" stroke="#ff0000" points="475.5,-168.5 475.5,-198.5 586.5,-198.5 586.5,-168.5 475.5,-168.5"/>
<text text-anchor="start" x="483.5" y="-186.5" font-family="Helvetica,sans-Serif" font-size="10.00" fill="#000000">odp/api/spec/queue</text>
<text text-anchor="middle" x="531" y="-175.5" font-family="Helvetica,sans-Serif" font-size="10.00" fill="#000000">_types.h</text>
</a>
</g>
</g>
<!-- Node20&#45;&gt;Node29 -->
<g id="edge30" class="edge">
<title>Node20&#45;&gt;Node29</title>
<path fill="none" stroke="#191970" d="M474.4688,-235.3906C483.2005,-227.3756 495.9785,-215.6466 507.1779,-205.3666"/>
<polygon fill="#191970" stroke="#191970" points="509.6097,-207.8853 514.61,-198.5446 504.8762,-202.7284 509.6097,-207.8853"/>
</g>
<!-- Node21&#45;&gt;Node18 -->
<g id="edge29" class="edge">
<title>Node21&#45;&gt;Node18</title>
<path fill="none" stroke="#191970" d="M291.5313,-173.8906C281.2663,-164.4683 265.4097,-149.9134 253.0994,-138.6137"/>
<polygon fill="#191970" stroke="#191970" points="255.3501,-135.9287 245.6163,-131.7449 250.6166,-141.0856 255.3501,-135.9287"/>
</g>
<!-- Node29&#45;&gt;Node3 -->
<g id="edge31" class="edge">
<title>Node29&#45;&gt;Node3</title>
<path fill="none" stroke="#191970" d="M518.5381,-168.4237C510.7659,-158.5108 500.9544,-145.0104 494,-132 481.4694,-108.5575 477.7428,-102.1548 473,-76 470.1306,-60.1761 474.3659,-42.3415 478.9105,-29.2045"/>
<polygon fill="#191970" stroke="#191970" points="482.2023,-30.395 482.4917,-19.8041 475.6609,-27.9029 482.2023,-30.395"/>
</g>
<!-- Node29&#45;&gt;Node12 -->
<g id="edge36" class="edge">
<title>Node29&#45;&gt;Node12</title>
<path fill="none" stroke="#191970" d="M586.5489,-180.9118C780.3477,-171.8093 1415.8374,-141.3176 1435,-132 1475.496,-112.3092 1463.4173,-79.217 1502,-56 1540.0138,-33.1254 1588.6693,-21.6225 1627.488,-15.8398"/>
<polygon fill="#191970" stroke="#191970" points="1628.2242,-19.2711 1637.6445,-14.4225 1627.2567,-12.3382 1628.2242,-19.2711"/>
</g>
<!-- Node35 -->
<g id="node24" class="node">
<title>Node35</title>
<g id="a_node24"><a xlink:href="deprecated_8h.html" target="_top" xlink:title="Control deprecated API definitions. ">
<polygon fill="#ffffff" stroke="#000000" points="503.5,-112.5 503.5,-131.5 622.5,-131.5 622.5,-112.5 503.5,-112.5"/>
<text text-anchor="middle" x="563" y="-119.5" font-family="Helvetica,sans-Serif" font-size="10.00" fill="#000000">odp/api/deprecated.h</text>
</a>
</g>
</g>
<!-- Node29&#45;&gt;Node35 -->
<g id="edge32" class="edge">
<title>Node29&#45;&gt;Node35</title>
<path fill="none" stroke="#191970" d="M538.9101,-168.2977C543.2132,-160.0277 548.5758,-149.7215 553.1482,-140.9339"/>
<polygon fill="#191970" stroke="#191970" points="556.3654,-142.3335 557.8764,-131.8469 550.1557,-139.1024 556.3654,-142.3335"/>
</g>
<!-- Node36 -->
<g id="node25" class="node">
<title>Node36</title>
<g id="a_node25"><a xlink:href="spec_2deprecated_8h.html" target="_top" xlink:title="Macro for deprecated API definitions. ">
<polygon fill="#ffffff" stroke="#000000" points="515.5,-56.5 515.5,-75.5 660.5,-75.5 660.5,-56.5 515.5,-56.5"/>
<text text-anchor="middle" x="588" y="-63.5" font-family="Helvetica,sans-Serif" font-size="10.00" fill="#000000">odp/api/spec/deprecated.h</text>
</a>
</g>
</g>
<!-- Node35&#45;&gt;Node36 -->
<g id="edge33" class="edge">
<title>Node35&#45;&gt;Node36</title>
<path fill="none" stroke="#191970" d="M567.3547,-112.2455C570.7244,-104.6973 575.493,-94.0158 579.5983,-84.8197"/>
<polygon fill="#191970" stroke="#191970" points="582.8147,-86.2009 583.6952,-75.6427 576.4227,-83.3473 582.8147,-86.2009"/>
</g>
<!-- Node36&#45;&gt;Node3 -->
<g id="edge34" class="edge">
<title>Node36&#45;&gt;Node3</title>
<path fill="none" stroke="#191970" d="M570.4071,-56.2455C554.621,-47.4928 531.2361,-34.527 513.2413,-24.5496"/>
<polygon fill="#191970" stroke="#191970" points="514.8341,-21.4308 504.3913,-19.6427 511.4397,-27.5528 514.8341,-21.4308"/>
</g>
<!-- Node36&#45;&gt;Node12 -->
<g id="edge35" class="edge">
<title>Node36&#45;&gt;Node12</title>
<path fill="none" stroke="#191970" d="M660.8299,-56.7368C663.5866,-56.4725 666.3173,-56.2255 669,-56 1029.8435,-25.6752 1463.9445,-14.505 1627.4178,-11.1907"/>
<polygon fill="#191970" stroke="#191970" points="1627.8623,-14.6826 1637.7904,-10.9836 1627.7225,-7.684 1627.8623,-14.6826"/>
</g>
<!-- Node37&#45;&gt;Node3 -->
<g id="edge39" class="edge">
<title>Node37&#45;&gt;Node3</title>
<path fill="none" stroke="#191970" d="M818.2466,-464.6719C666.7151,-453.8426 283.2173,-426.2108 270,-423 156.2907,-395.3771 76,-362.0164 76,-245 76,-245 76,-245 76,-122 76,-90.7875 75.5382,-75.3866 100,-56 124.2477,-36.7831 311.4073,-21.544 416.303,-14.4086"/>
<polygon fill="#191970" stroke="#191970" points="416.7567,-17.8861 426.4993,-13.7229 416.287,-10.9019 416.7567,-17.8861"/>
</g>
<!-- Node37&#45;&gt;Node12 -->
<g id="edge62" class="edge">
<title>Node37&#45;&gt;Node12</title>
<path fill="none" stroke="#191970" d="M903.7086,-459.4749C966.3593,-435.7888 1136.964,-374.1841 1285,-347 1340.2194,-336.86 1748.0902,-349.4498 1789,-311 1871.7076,-233.2658 1873.8469,-144.6785 1803,-56 1790.3358,-40.1483 1771.2157,-29.6808 1752.5076,-22.8025"/>
<polygon fill="#191970" stroke="#191970" points="1753.3926,-19.4073 1742.7984,-19.5233 1751.1527,-26.0392 1753.3926,-19.4073"/>
</g>
<!-- Node37&#45;&gt;Node35 -->
<g id="edge40" class="edge">
<title>Node37&#45;&gt;Node35</title>
<path fill="none" stroke="#191970" d="M846.4141,-459.3982C824.8475,-451.9161 796.8124,-439.9326 776,-423 724.1395,-380.8073 688,-367.856 688,-301 688,-301 688,-301 688,-245 688,-192.7366 631.7958,-155.2584 594.7625,-136.2364"/>
<polygon fill="#191970" stroke="#191970" points="595.863,-132.8762 585.3475,-131.5817 592.7606,-139.1512 595.863,-132.8762"/>
</g>
<!-- Node37&#45;&gt;Node33 -->
<g id="edge41" class="edge">
<title>Node37&#45;&gt;Node33</title>
<path fill="none" stroke="#191970" d="M939.671,-463.7568C1063.1515,-453.0857 1342.4292,-428.9506 1466.1011,-418.2629"/>
<polygon fill="#191970" stroke="#191970" points="1466.4939,-421.7421 1476.1554,-417.394 1465.8912,-414.7681 1466.4939,-421.7421"/>
</g>
<!-- Node23 -->
<g id="node29" class="node">
<title>Node23</title>
<g id="a_node29"><a xlink:href="api_2packet_8h.html" target="_top" xlink:title="ODP packet descriptor. ">
<polygon fill="#ffffff" stroke="#000000" points="785,-403.5 785,-422.5 883,-422.5 883,-403.5 785,-403.5"/>
<text text-anchor="middle" x="834" y="-410.5" font-family="Helvetica,sans-Serif" font-size="10.00" fill="#000000">odp/api/packet.h</text>
</a>
</g>
</g>
<!-- Node37&#45;&gt;Node23 -->
<g id="edge45" class="edge">
<title>Node37&#45;&gt;Node23</title>
<path fill="none" stroke="#191970" d="M871.1616,-459.2455C864.838,-451.3761 855.7776,-440.101 848.1864,-430.6542"/>
<polygon fill="#191970" stroke="#191970" points="850.7408,-428.2454 841.7486,-422.6427 845.2842,-432.6302 850.7408,-428.2454"/>
</g>
<!-- Node34 -->
<g id="node28" class="node">
<title>Node34</title>
<g id="a_node28"><a xlink:href="spec_2support_8h.html" target="_top" xlink:title="ODP support API. ">
<polygon fill="#ffffff" stroke="#000000" points="1050.5,-56.5 1050.5,-75.5 1177.5,-75.5 1177.5,-56.5 1050.5,-56.5"/>
<text text-anchor="middle" x="1114" y="-63.5" font-family="Helvetica,sans-Serif" font-size="10.00" fill="#000000">odp/api/spec/support.h</text>
</a>
</g>
</g>
<!-- Node33&#45;&gt;Node34 -->
<g id="edge42" class="edge">
<title>Node33&#45;&gt;Node34</title>
<path fill="none" stroke="#191970" d="M1513.3111,-403.3665C1495.0207,-390.4997 1461.5937,-367.0026 1433,-347 1374.4042,-306.0096 1355.7075,-301.0518 1301,-255 1232.3103,-197.1783 1160.0432,-118.1089 1129.2922,-83.4636"/>
<polygon fill="#191970" stroke="#191970" points="1131.6382,-80.8326 1122.3961,-75.6525 1126.3907,-85.4655 1131.6382,-80.8326"/>
</g>
<!-- Node34&#45;&gt;Node3 -->
<g id="edge43" class="edge">
<title>Node34&#45;&gt;Node3</title>
<path fill="none" stroke="#191970" d="M1050.176,-57.5856C1045.3818,-57.0246 1040.616,-56.489 1036,-56 864.5588,-37.8366 662.3736,-22.4463 557.7292,-14.9285"/>
<polygon fill="#191970" stroke="#191970" points="557.8289,-11.4268 547.6045,-14.2038 557.3291,-18.4089 557.8289,-11.4268"/>
</g>
<!-- Node34&#45;&gt;Node12 -->
<g id="edge44" class="edge">
<title>Node34&#45;&gt;Node12</title>
<path fill="none" stroke="#191970" d="M1177.6798,-57.1025C1180.8296,-56.7171 1183.9496,-56.3471 1187,-56 1344.5947,-38.066 1530.3896,-22.6705 1627.4004,-15.0677"/>
<polygon fill="#191970" stroke="#191970" points="1627.9483,-18.5356 1637.6456,-14.2679 1627.4035,-11.5569 1627.9483,-18.5356"/>
</g>
<!-- Node23&#45;&gt;Node5 -->
<g id="edge46" class="edge">
<title>Node23&#45;&gt;Node5</title>
<path fill="none" stroke="#191970" d="M843.6533,-403.4883C859.2813,-388.7135 891.7414,-360.5427 925,-347 1026.9316,-305.4942 1062.9759,-336.6639 1170,-311 1228.3332,-297.0119 1294.0063,-273.1715 1332.5942,-258.296"/>
<polygon fill="#191970" stroke="#191970" points="1334.2133,-261.4219 1342.2656,-254.5363 1331.677,-254.8975 1334.2133,-261.4219"/>
</g>
<!-- Node23&#45;&gt;Node13 -->
<g id="edge49" class="edge">
<title>Node23&#45;&gt;Node13</title>
<path fill="none" stroke="#191970" d="M794.3814,-403.4369C754.8432,-393.8932 693.9931,-379.2052 651.3418,-368.9101"/>
<polygon fill="#191970" stroke="#191970" points="651.9973,-365.4679 641.4552,-366.5237 650.3548,-372.2724 651.9973,-365.4679"/>
</g>
<!-- Node23&#45;&gt;Node15 -->
<g id="edge51" class="edge">
<title>Node23&#45;&gt;Node15</title>
<path fill="none" stroke="#191970" d="M784.9726,-408.3843C708.2009,-400.9939 554.7053,-385.564 414.2254,-367.1138"/>
<polygon fill="#191970" stroke="#191970" points="414.507,-363.6206 404.1346,-365.7802 413.5898,-370.5603 414.507,-363.6206"/>
</g>
<!-- Node23&#45;&gt;Node16 -->
<g id="edge52" class="edge">
<title>Node23&#45;&gt;Node16</title>
<path fill="none" stroke="#191970" d="M784.7718,-405.5782C727.5186,-396.9127 629.8806,-382.0303 536.1703,-367.175"/>
<polygon fill="#191970" stroke="#191970" points="536.6631,-363.7095 526.238,-365.5983 535.5655,-370.623 536.6631,-363.7095"/>
</g>
<!-- Node23&#45;&gt;Node18 -->
<g id="edge47" class="edge">
<title>Node23&#45;&gt;Node18</title>
<path fill="none" stroke="#191970" d="M814.7508,-403.3496C784.5251,-388.6494 723.7241,-360.8929 669,-347 535.8446,-313.1957 486.0322,-370.0687 362,-311 297.5862,-280.3238 279.7309,-262.3945 247,-199 237.81,-181.2004 235.2363,-158.233 234.6997,-142.0297"/>
<polygon fill="#191970" stroke="#191970" points="238.1957,-141.5645 234.6036,-131.5972 231.196,-141.6291 238.1957,-141.5645"/>
</g>
<!-- Node23&#45;&gt;Node19 -->
<g id="edge50" class="edge">
<title>Node23&#45;&gt;Node19</title>
<path fill="none" stroke="#191970" d="M860.9893,-403.3733C886.8699,-394.1419 926.1248,-380.1402 954.7289,-369.9375"/>
<polygon fill="#191970" stroke="#191970" points="956.12,-373.1573 964.3629,-366.5011 953.7683,-366.5642 956.12,-373.1573"/>
</g>
<!-- Node24 -->
<g id="node30" class="node">
<title>Node24</title>
<polygon fill="#ffffff" stroke="#bfbfbf" points="1294,-347.5 1294,-366.5 1424,-366.5 1424,-347.5 1294,-347.5"/>
<text text-anchor="middle" x="1359" y="-354.5" font-family="Helvetica,sans-Serif" font-size="10.00" fill="#000000">odp/api/abi/packet_io.h</text>
</g>
<!-- Node23&#45;&gt;Node24 -->
<g id="edge48" class="edge">
<title>Node23&#45;&gt;Node24</title>
<path fill="none" stroke="#191970" d="M883.3907,-407.7317C975.6262,-397.8932 1174.564,-376.6732 1283.653,-365.037"/>
<polygon fill="#191970" stroke="#191970" points="1284.3506,-368.4825 1293.9229,-363.9416 1283.6081,-361.522 1284.3506,-368.4825"/>
</g>
<!-- Node25 -->
<g id="node31" class="node">
<title>Node25</title>
<g id="a_node31"><a xlink:href="api_2spec_2packet_8h.html" target="_top" xlink:title="ODP packet descriptor. ">
<polygon fill="#ffffff" stroke="#000000" points="754.5,-347.5 754.5,-366.5 877.5,-366.5 877.5,-347.5 754.5,-347.5"/>
<text text-anchor="middle" x="816" y="-354.5" font-family="Helvetica,sans-Serif" font-size="10.00" fill="#000000">odp/api/spec/packet.h</text>
</a>
</g>
</g>
<!-- Node23&#45;&gt;Node25 -->
<g id="edge53" class="edge">
<title>Node23&#45;&gt;Node25</title>
<path fill="none" stroke="#191970" d="M830.8646,-403.2455C828.49,-395.8579 825.1507,-385.4689 822.2385,-376.4087"/>
<polygon fill="#191970" stroke="#191970" points="825.4917,-375.0919 819.0994,-366.6427 818.8275,-377.234 825.4917,-375.0919"/>
</g>
<!-- Node25&#45;&gt;Node3 -->
<g id="edge54" class="edge">
<title>Node25&#45;&gt;Node3</title>
<path fill="none" stroke="#191970" d="M754.4526,-351.2648C648.5743,-339.9869 439.0563,-311.0049 395,-255 337.7328,-182.2013 430.0147,-69.9807 469.9796,-27.2892"/>
<polygon fill="#191970" stroke="#191970" points="472.6298,-29.5817 477.0007,-19.9305 467.5653,-24.7495 472.6298,-29.5817"/>
</g>
<!-- Node25&#45;&gt;Node12 -->
<g id="edge61" class="edge">
<title>Node25&#45;&gt;Node12</title>
<path fill="none" stroke="#191970" d="M821.5338,-347.4299C829.925,-333.5702 847.0229,-307.7425 867,-291 908.1379,-256.523 922.2307,-249.1749 974,-235 1047.7244,-214.8136 1596.4433,-239.9294 1661,-199 1710.5604,-167.5784 1702.8178,-134.3553 1709,-76 1709.9365,-67.1606 1710.3952,-64.7787 1709,-56 1707.5699,-47.0016 1704.6588,-37.3703 1701.7784,-29.2579"/>
<polygon fill="#191970" stroke="#191970" points="1704.9537,-27.7599 1698.1368,-19.6493 1698.408,-30.2407 1704.9537,-27.7599"/>
</g>
<!-- Node26 -->
<g id="node32" class="node">
<title>Node26</title>
<g id="a_node32"><a xlink:href="api_2time_8h.html" target="_top" xlink:title="ODP time. ">
<polygon fill="#ffffff" stroke="#000000" points="1074.5,-291.5 1074.5,-310.5 1161.5,-310.5 1161.5,-291.5 1074.5,-291.5"/>
<text text-anchor="middle" x="1118" y="-298.5" font-family="Helvetica,sans-Serif" font-size="10.00" fill="#000000">odp/api/time.h</text>
</a>
</g>
</g>
<!-- Node25&#45;&gt;Node26 -->
<g id="edge55" class="edge">
<title>Node25&#45;&gt;Node26</title>
<path fill="none" stroke="#191970" d="M867.5725,-347.4369C922.4465,-337.2616 1008.8563,-321.2386 1064.4674,-310.9266"/>
<polygon fill="#191970" stroke="#191970" points="1065.2841,-314.3349 1074.4783,-309.0702 1064.0078,-307.4522 1065.2841,-314.3349"/>
</g>
<!-- Node26&#45;&gt;Node5 -->
<g id="edge56" class="edge">
<title>Node26&#45;&gt;Node5</title>
<path fill="none" stroke="#191970" d="M1160.3509,-291.4369C1202.7942,-281.8529 1268.2119,-267.0812 1313.8313,-256.78"/>
<polygon fill="#191970" stroke="#191970" points="1314.8403,-260.1404 1323.8237,-254.5237 1313.2984,-253.3123 1314.8403,-260.1404"/>
</g>
<!-- Node27 -->
<g id="node33" class="node">
<title>Node27</title>
<polygon fill="#ffffff" stroke="#bfbfbf" points="983.5,-235.5 983.5,-254.5 1088.5,-254.5 1088.5,-235.5 983.5,-235.5"/>
<text text-anchor="middle" x="1036" y="-242.5" font-family="Helvetica,sans-Serif" font-size="10.00" fill="#000000">odp/api/abi/time.h</text>
</g>
<!-- Node26&#45;&gt;Node27 -->
<g id="edge57" class="edge">
<title>Node26&#45;&gt;Node27</title>
<path fill="none" stroke="#191970" d="M1103.7167,-291.2455C1091.253,-282.7337 1072.9549,-270.2375 1058.5208,-260.3801"/>
<polygon fill="#191970" stroke="#191970" points="1060.3515,-257.392 1050.1196,-254.6427 1056.4038,-263.1726 1060.3515,-257.392"/>
</g>
<!-- Node28 -->
<g id="node34" class="node">
<title>Node28</title>
<g id="a_node34"><a xlink:href="api_2spec_2time_8h.html" target="_top" xlink:title="ODP time. ">
<polygon fill="#ffffff" stroke="#000000" points="678.5,-56.5 678.5,-75.5 791.5,-75.5 791.5,-56.5 678.5,-56.5"/>
<text text-anchor="middle" x="735" y="-63.5" font-family="Helvetica,sans-Serif" font-size="10.00" fill="#000000">odp/api/spec/time.h</text>
</a>
</g>
</g>
<!-- Node26&#45;&gt;Node28 -->
<g id="edge58" class="edge">
<title>Node26&#45;&gt;Node28</title>
<path fill="none" stroke="#191970" d="M1116.8973,-291.1352C1114.9373,-277.3731 1109.7748,-252.1729 1097,-235 1065.5086,-192.6669 1045.6969,-192.5602 999,-168 923.6238,-128.356 829.2943,-95.6365 776.2307,-78.6384"/>
<polygon fill="#191970" stroke="#191970" points="777.0917,-75.2396 766.5014,-75.5501 774.9738,-81.9116 777.0917,-75.2396"/>
</g>
<!-- Node28&#45;&gt;Node3 -->
<g id="edge59" class="edge">
<title>Node28&#45;&gt;Node3</title>
<path fill="none" stroke="#191970" d="M692.6491,-56.4369C650.2058,-46.8529 584.7881,-32.0812 539.1687,-21.78"/>
<polygon fill="#191970" stroke="#191970" points="539.7016,-18.3123 529.1763,-19.5237 538.1597,-25.1404 539.7016,-18.3123"/>
</g>
<!-- Node28&#45;&gt;Node12 -->
<g id="edge60" class="edge">
<title>Node28&#45;&gt;Node12</title>
<path fill="none" stroke="#191970" d="M791.6374,-60.1176C806.9947,-58.6418 823.6251,-57.1523 839,-56 1132.5733,-33.9984 1483.6175,-18.5084 1627.5173,-12.6225"/>
<polygon fill="#191970" stroke="#191970" points="1628.078,-16.1026 1637.9273,-12.1987 1627.7932,-9.1084 1628.078,-16.1026"/>
</g>
<!-- Node38&#45;&gt;Node5 -->
<g id="edge65" class="edge">
<title>Node38&#45;&gt;Node5</title>
<path fill="none" stroke="#191970" d="M1204.0596,-518.5368C1260.3307,-511.1365 1342.2595,-497.5922 1368,-479 1421.0115,-440.71 1451.7366,-409.6521 1433,-347 1423.0586,-313.7577 1398.4182,-281.305 1381.9532,-262.2353"/>
<polygon fill="#191970" stroke="#191970" points="1384.511,-259.8445 1375.2548,-254.6894 1379.2759,-264.4915 1384.511,-259.8445"/>
</g>
<!-- Node38&#45;&gt;Node13 -->
<g id="edge68" class="edge">
<title>Node38&#45;&gt;Node13</title>
<path fill="none" stroke="#191970" d="M1091.9171,-519.9279C1009.5852,-512.0516 860.2243,-496.0072 809,-479 784.6438,-470.9134 730.1222,-436.0087 708,-423 679.3505,-406.1529 646.9988,-385.8134 625.6544,-372.2067"/>
<polygon fill="#191970" stroke="#191970" points="627.2601,-369.0791 616.9495,-366.6416 623.4896,-374.9769 627.2601,-369.0791"/>
</g>
<!-- Node38&#45;&gt;Node16 -->
<g id="edge66" class="edge">
<title>Node38&#45;&gt;Node16</title>
<path fill="none" stroke="#191970" d="M1091.8419,-521.1634C1000.7113,-514.4486 824.881,-499.3231 766,-479 749.7885,-473.4045 748.3672,-466.614 733,-459 657.2877,-421.4869 564.1811,-387.6359 512.7575,-369.9433"/>
<polygon fill="#191970" stroke="#191970" points="513.6406,-366.5464 503.0461,-366.6239 511.3766,-373.1701 513.6406,-366.5464"/>
</g>
<!-- Node38&#45;&gt;Node19 -->
<g id="edge70" class="edge">
<title>Node38&#45;&gt;Node19</title>
<path fill="none" stroke="#191970" d="M1091.7281,-515.6584C1068.1923,-509.072 1042.339,-497.8998 1025,-479 998.8448,-450.4903 992.5818,-403.5343 991.2223,-376.9593"/>
<polygon fill="#191970" stroke="#191970" points="994.7098,-376.5094 990.8923,-366.6262 987.7134,-376.7329 994.7098,-376.5094"/>
</g>
<!-- Node38&#45;&gt;Node24 -->
<g id="edge69" class="edge">
<title>Node38&#45;&gt;Node24</title>
<path fill="none" stroke="#191970" d="M1204.3624,-519.3855C1256.7381,-512.9201 1329.38,-500.3447 1348,-479 1372.7096,-450.6745 1368.5423,-403.306 1363.5942,-376.6927"/>
<polygon fill="#191970" stroke="#191970" points="1366.9731,-375.7501 1361.5077,-366.6738 1360.1201,-377.1774 1366.9731,-375.7501"/>
</g>
<!-- Node39 -->
<g id="node36" class="node">
<title>Node39</title>
<polygon fill="#ffffff" stroke="#bfbfbf" points="578,-459.5 578,-478.5 724,-478.5 724,-459.5 578,-459.5"/>
<text text-anchor="middle" x="651" y="-466.5" font-family="Helvetica,sans-Serif" font-size="10.00" fill="#000000">odp/api/abi/classification.h</text>
</g>
<!-- Node38&#45;&gt;Node39 -->
<g id="edge67" class="edge">
<title>Node38&#45;&gt;Node39</title>
<path fill="none" stroke="#191970" d="M1091.9563,-518.7609C1012.9975,-509.9596 864.5041,-493.3669 738,-479 736.7254,-478.8552 735.4403,-478.7092 734.1468,-478.562"/>
<polygon fill="#191970" stroke="#191970" points="734.4318,-475.0719 724.0997,-477.4168 733.639,-482.0269 734.4318,-475.0719"/>
</g>
<!-- Node40 -->
<g id="node37" class="node">
<title>Node40</title>
<g id="a_node37"><a xlink:href="api_2spec_2packet__io_8h.html" target="_top" xlink:title="ODP Packet IO. ">
<polygon fill="#ffffff" stroke="#000000" points="1034.5,-459.5 1034.5,-478.5 1171.5,-478.5 1171.5,-459.5 1034.5,-459.5"/>
<text text-anchor="middle" x="1103" y="-466.5" font-family="Helvetica,sans-Serif" font-size="10.00" fill="#000000">odp/api/spec/packet_io.h</text>
</a>
</g>
</g>
<!-- Node38&#45;&gt;Node40 -->
<g id="edge71" class="edge">
<title>Node38&#45;&gt;Node40</title>
<path fill="none" stroke="#191970" d="M1140.1616,-515.2455C1133.838,-507.3761 1124.7776,-496.101 1117.1864,-486.6542"/>
<polygon fill="#191970" stroke="#191970" points="1119.7408,-484.2454 1110.7486,-478.6427 1114.2842,-488.6302 1119.7408,-484.2454"/>
</g>
<!-- Node40&#45;&gt;Node3 -->
<g id="edge72" class="edge">
<title>Node40&#45;&gt;Node3</title>
<path fill="none" stroke="#191970" d="M1034.3354,-464.4416C1007.4167,-462.6882 976.2628,-460.7004 948,-459 804.7027,-450.3787 440.7547,-463.3992 303,-423 278.7457,-415.887 221.3396,-385.3903 204,-367 141.6845,-300.9085 114,-274.3367 114,-183.5 114,-183.5 114,-183.5 114,-122 114,-90.7875 113.6622,-75.5421 138,-56 159.265,-38.9253 320.5451,-23.298 416.251,-15.4007"/>
<polygon fill="#191970" stroke="#191970" points="416.7597,-18.8709 426.4416,-14.5685 416.1899,-11.8941 416.7597,-18.8709"/>
</g>
<!-- Node40&#45;&gt;Node12 -->
<g id="edge86" class="edge">
<title>Node40&#45;&gt;Node12</title>
<path fill="none" stroke="#191970" d="M1154.7464,-459.4646C1309.7401,-430.6495 1763.1681,-344.4101 1822,-311 1856.9967,-291.1257 1884,-285.2462 1884,-245 1884,-245 1884,-245 1884,-122 1884,-90.7875 1882.9191,-77.1882 1860,-56 1844.969,-42.1042 1798.5433,-29.9157 1758.5985,-21.5823"/>
<polygon fill="#191970" stroke="#191970" points="1759.103,-18.1132 1748.6057,-19.548 1757.7065,-24.9726 1759.103,-18.1132"/>
</g>
<!-- Node40&#45;&gt;Node17 -->
<g id="edge79" class="edge">
<title>Node40&#45;&gt;Node17</title>
<path fill="none" stroke="#191970" d="M1034.4321,-463.832C889.3039,-452.8937 553.3284,-427.5712 418.017,-417.3727"/>
<polygon fill="#191970" stroke="#191970" points="418.0919,-413.8686 407.8571,-416.607 417.5657,-420.8488 418.0919,-413.8686"/>
</g>
<!-- Node40&#45;&gt;Node35 -->
<g id="edge73" class="edge">
<title>Node40&#45;&gt;Node35</title>
<path fill="none" stroke="#191970" d="M1102.3387,-459.2748C1100.1991,-435.9407 1091.3704,-376.5298 1056,-347 990.359,-292.198 945.3647,-345.2194 867,-311 768.836,-268.1349 766.1873,-220.8176 673,-168 649.8874,-154.9 622.3016,-143.3734 600.537,-135.1351"/>
<polygon fill="#191970" stroke="#191970" points="601.5766,-131.7876 590.9836,-131.5875 599.1397,-138.3498 601.5766,-131.7876"/>
</g>
<!-- Node40&#45;&gt;Node23 -->
<g id="edge85" class="edge">
<title>Node40&#45;&gt;Node23</title>
<path fill="none" stroke="#191970" d="M1057.0629,-459.4369C1010.7355,-449.7925 939.1732,-434.8948 889.6531,-424.5858"/>
<polygon fill="#191970" stroke="#191970" points="890.2511,-421.1353 879.7476,-422.5237 888.8244,-427.9884 890.2511,-421.1353"/>
</g>
<!-- Node40&#45;&gt;Node26 -->
<g id="edge84" class="edge">
<title>Node40&#45;&gt;Node26</title>
<path fill="none" stroke="#191970" d="M1107.0966,-459.2947C1115.2928,-438.766 1132.55,-389.349 1128,-347 1127.0637,-338.285 1125.1567,-328.7985 1123.2568,-320.7166"/>
<polygon fill="#191970" stroke="#191970" points="1126.5899,-319.6187 1120.7621,-310.7707 1119.8002,-321.3218 1126.5899,-319.6187"/>
</g>
<!-- Node41 -->
<g id="node38" class="node">
<title>Node41</title>
<g id="a_node38"><a xlink:href="packet__io__stats_8h.html" target="_top" xlink:title="ODP packet IO stats. ">
<polygon fill="#ffffff" stroke="#000000" points="876.5,-291.5 876.5,-310.5 1017.5,-310.5 1017.5,-291.5 876.5,-291.5"/>
<text text-anchor="middle" x="947" y="-298.5" font-family="Helvetica,sans-Serif" font-size="10.00" fill="#000000">odp/api/packet_io_stats.h</text>
</a>
</g>
</g>
<!-- Node40&#45;&gt;Node41 -->
<g id="edge74" class="edge">
<title>Node40&#45;&gt;Node41</title>
<path fill="none" stroke="#191970" d="M1105.1329,-459.4606C1109.5483,-437.0413 1117.1508,-380.3789 1090,-347 1078.8789,-333.3278 1039.6405,-321.2702 1005.0744,-312.9333"/>
<polygon fill="#191970" stroke="#191970" points="1005.5409,-309.4479 995.0063,-310.5752 1003.9446,-316.2635 1005.5409,-309.4479"/>
</g>
<!-- Node43 -->
<g id="node40" class="node">
<title>Node43</title>
<g id="a_node40"><a xlink:href="reassembly_8h.html" target="_top" xlink:title="ODP REASSEMBLY API &#45; platform specific header. ">
<polygon fill="#ffffff" stroke="#000000" points="1148,-403.5 1148,-422.5 1268,-422.5 1268,-403.5 1148,-403.5"/>
<text text-anchor="middle" x="1208" y="-410.5" font-family="Helvetica,sans-Serif" font-size="10.00" fill="#000000">odp/api/reassembly.h</text>
</a>
</g>
</g>
<!-- Node40&#45;&gt;Node43 -->
<g id="edge80" class="edge">
<title>Node40&#45;&gt;Node43</title>
<path fill="none" stroke="#191970" d="M1121.2896,-459.2455C1137.7762,-450.4527 1162.2352,-437.4079 1180.9765,-427.4125"/>
<polygon fill="#191970" stroke="#191970" points="1182.7435,-430.4368 1189.92,-422.6427 1179.4494,-424.2604 1182.7435,-430.4368"/>
</g>
<!-- Node42 -->
<g id="node39" class="node">
<title>Node42</title>
<g id="a_node39"><a xlink:href="spec_2packet__io__stats_8h.html" target="_top" xlink:title="ODP Packet IO statistics. ">
<polygon fill="#ffffff" stroke="#000000" points="876,-168.5 876,-198.5 990,-198.5 990,-168.5 876,-168.5"/>
<text text-anchor="start" x="884" y="-186.5" font-family="Helvetica,sans-Serif" font-size="10.00" fill="#000000">odp/api/spec/packet</text>
<text text-anchor="middle" x="933" y="-175.5" font-family="Helvetica,sans-Serif" font-size="10.00" fill="#000000">_io_stats.h</text>
</a>
</g>
</g>
<!-- Node41&#45;&gt;Node42 -->
<g id="edge75" class="edge">
<title>Node41&#45;&gt;Node42</title>
<path fill="none" stroke="#191970" d="M945.8543,-291.3845C943.7286,-273.544 939.1104,-234.7839 936.028,-208.9138"/>
<polygon fill="#191970" stroke="#191970" points="939.4714,-208.23 934.8128,-198.7143 932.5206,-209.0582 939.4714,-208.23"/>
</g>
<!-- Node42&#45;&gt;Node3 -->
<g id="edge76" class="edge">
<title>Node42&#45;&gt;Node3</title>
<path fill="none" stroke="#191970" d="M875.6166,-169.8356C760.7157,-142.37 512.7494,-82.5259 506,-76 493.5678,-63.9795 489.1239,-44.3959 487.6072,-29.6767"/>
<polygon fill="#191970" stroke="#191970" points="491.0913,-29.32 486.9342,-19.5748 484.1068,-29.7854 491.0913,-29.32"/>
</g>
<!-- Node42&#45;&gt;Node12 -->
<g id="edge78" class="edge">
<title>Node42&#45;&gt;Node12</title>
<path fill="none" stroke="#191970" d="M990.1423,-181.0767C1121.6811,-175.0775 1437.7246,-158.1039 1478,-132 1510.5672,-110.892 1490.2909,-79.7302 1521,-56 1538.2456,-42.6736 1588.5232,-30.1419 1630.4614,-21.5343"/>
<polygon fill="#191970" stroke="#191970" points="1631.2526,-24.9453 1640.3657,-19.5414 1629.8717,-18.0829 1631.2526,-24.9453"/>
</g>
<!-- Node42&#45;&gt;Node35 -->
<g id="edge77" class="edge">
<title>Node42&#45;&gt;Node35</title>
<path fill="none" stroke="#191970" d="M875.711,-170.6725C871.0792,-169.7333 866.4655,-168.8301 862,-168 783.9007,-153.482 693.7152,-140.0619 632.9871,-131.5102"/>
<polygon fill="#191970" stroke="#191970" points="633.1403,-127.9975 622.7513,-130.0756 632.1687,-134.9298 633.1403,-127.9975"/>
</g>
<!-- Node44 -->
<g id="node41" class="node">
<title>Node44</title>
<g id="a_node41"><a xlink:href="spec_2reassembly_8h.html" target="_top" xlink:title="ODP REASSEMBLY API. ">
<polygon fill="#ffffff" stroke="#000000" points="848,-56.5 848,-75.5 994,-75.5 994,-56.5 848,-56.5"/>
<text text-anchor="middle" x="921" y="-63.5" font-family="Helvetica,sans-Serif" font-size="10.00" fill="#000000">odp/api/spec/reassembly.h</text>
</a>
</g>
</g>
<!-- Node43&#45;&gt;Node44 -->
<g id="edge81" class="edge">
<title>Node43&#45;&gt;Node44</title>
<path fill="none" stroke="#191970" d="M1205.421,-403.4945C1200.4439,-384.2857 1190,-339.4032 1190,-301 1190,-301 1190,-301 1190,-183.5 1190,-136.9833 1053.2102,-97.0585 974.7203,-77.9786"/>
<polygon fill="#191970" stroke="#191970" points="975.0586,-74.4608 964.5185,-75.536 973.4286,-81.2684 975.0586,-74.4608"/>
</g>
<!-- Node44&#45;&gt;Node3 -->
<g id="edge82" class="edge">
<title>Node44&#45;&gt;Node3</title>
<path fill="none" stroke="#191970" d="M847.8686,-56.5637C767.0167,-46.1312 637.6683,-29.4411 557.7741,-19.1321"/>
<polygon fill="#191970" stroke="#191970" points="558.1676,-15.654 547.8019,-17.8454 557.2718,-22.5964 558.1676,-15.654"/>
</g>
<!-- Node44&#45;&gt;Node12 -->
<g id="edge83" class="edge">
<title>Node44&#45;&gt;Node12</title>
<path fill="none" stroke="#191970" d="M994.2845,-59.7428C1009.7112,-58.4677 1025.8881,-57.1619 1041,-56 1255.2149,-39.53 1509.1448,-22.3002 1627.3195,-14.4141"/>
<polygon fill="#191970" stroke="#191970" points="1627.8986,-17.8833 1637.6436,-13.7259 1627.4329,-10.8988 1627.8986,-17.8833"/>
</g>
<!-- Node46 -->
<g id="node43" class="node">
<title>Node46</title>
<g id="a_node43"><a xlink:href="spec_2protocols_8h.html" target="_top" xlink:title="ODP protocols. ">
<polygon fill="#ffffff" stroke="#000000" points="1530.5,-56.5 1530.5,-75.5 1665.5,-75.5 1665.5,-56.5 1530.5,-56.5"/>
<text text-anchor="middle" x="1598" y="-63.5" font-family="Helvetica,sans-Serif" font-size="10.00" fill="#000000">odp/api/spec/protocols.h</text>
</a>
</g>
</g>
<!-- Node45&#45;&gt;Node46 -->
<g id="edge88" class="edge">
<title>Node45&#45;&gt;Node46</title>
<path fill="none" stroke="#191970" d="M1843.1368,-638.3507C1846.8231,-629.1921 1851.9433,-614.9416 1854,-602 1856.1625,-588.393 1855.568,-584.6883 1854,-571 1839.4611,-444.0764 1846.399,-405.133 1789,-291 1744.0542,-201.6292 1656.5751,-117.7104 1617.5784,-82.9069"/>
<polygon fill="#191970" stroke="#191970" points="1619.4167,-79.8614 1609.6017,-75.872 1614.7866,-85.1114 1619.4167,-79.8614"/>
</g>
<!-- Node46&#45;&gt;Node3 -->
<g id="edge89" class="edge">
<title>Node46&#45;&gt;Node3</title>
<path fill="none" stroke="#191970" d="M1530.1672,-61.3484C1503.3362,-59.573 1472.221,-57.5944 1444,-56 1112.6932,-37.2822 716.5862,-19.8026 557.867,-12.9981"/>
<polygon fill="#191970" stroke="#191970" points="557.8995,-9.4964 547.7589,-12.5655 557.6001,-16.49 557.8995,-9.4964"/>
</g>
<!-- Node46&#45;&gt;Node12 -->
<g id="edge90" class="edge">
<title>Node46&#45;&gt;Node12</title>
<path fill="none" stroke="#191970" d="M1614.7219,-56.2455C1629.5889,-47.5731 1651.5466,-34.7645 1668.5858,-24.825"/>
<polygon fill="#191970" stroke="#191970" points="1670.5955,-27.7047 1677.4697,-19.6427 1667.0683,-21.6582 1670.5955,-27.7047"/>
</g>
<!-- Node47&#45;&gt;Node5 -->
<g id="edge92" class="edge">
<title>Node47&#45;&gt;Node5</title>
<path fill="none" stroke="#191970" d="M1098.1936,-645.4456C1220.6714,-640.0479 1478.4751,-625.9684 1511,-602 1587.0887,-545.9283 1629.1412,-487.0974 1586,-403 1547.2853,-327.5314 1453.9083,-279.973 1402.1177,-258.4605"/>
<polygon fill="#191970" stroke="#191970" points="1403.2307,-255.1351 1392.6482,-254.6252 1400.6029,-261.6232 1403.2307,-255.1351"/>
</g>
<!-- Node47&#45;&gt;Node13 -->
<g id="edge95" class="edge">
<title>Node47&#45;&gt;Node13</title>
<path fill="none" stroke="#191970" d="M988.3248,-638.481C880.9042,-615.0543 617.6333,-551.2298 569,-479 547.1713,-446.5802 571.696,-400.2109 588.6368,-375"/>
<polygon fill="#191970" stroke="#191970" points="591.5577,-376.9307 594.4351,-366.734 585.827,-372.9107 591.5577,-376.9307"/>
</g>
<!-- Node47&#45;&gt;Node16 -->
<g id="edge93" class="edge">
<title>Node47&#45;&gt;Node16</title>
<path fill="none" stroke="#191970" d="M969.9746,-644.0081C909.0739,-638.8309 815.5073,-627.2579 738,-602 676.1988,-581.8604 659.3928,-574.7966 608,-535 548.9887,-489.304 502.8086,-411.3707 483.6415,-375.756"/>
<polygon fill="#191970" stroke="#191970" points="486.53,-373.73 478.7688,-366.5179 480.3385,-376.9958 486.53,-373.73"/>
</g>
<!-- Node47&#45;&gt;Node19 -->
<g id="edge97" class="edge">
<title>Node47&#45;&gt;Node19</title>
<path fill="none" stroke="#191970" d="M1024.5438,-638.4265C1006.2942,-618.8872 968,-572.2566 968,-525 968,-525 968,-525 968,-469 968,-435.906 977.7548,-398.4151 984.5588,-376.2901"/>
<polygon fill="#191970" stroke="#191970" points="987.8974,-377.3405 987.6063,-366.7497 981.2294,-375.2105 987.8974,-377.3405"/>
</g>
<!-- Node47&#45;&gt;Node24 -->
<g id="edge96" class="edge">
<title>Node47&#45;&gt;Node24</title>
<path fill="none" stroke="#191970" d="M1077.1894,-638.4853C1148.9139,-620.3737 1292.1854,-573.9758 1368,-479 1389.4272,-452.1573 1389.8911,-436.4273 1382,-403 1379.7294,-393.3814 1375.1225,-383.4809 1370.6241,-375.3404"/>
<polygon fill="#191970" stroke="#191970" points="1373.633,-373.5524 1365.5397,-366.7151 1367.6027,-377.1071 1373.633,-373.5524"/>
</g>
<!-- Node47&#45;&gt;Node39 -->
<g id="edge94" class="edge">
<title>Node47&#45;&gt;Node39</title>
<path fill="none" stroke="#191970" d="M1013.4083,-638.3762C949.7644,-608.6314 756.0011,-518.0736 681.0482,-483.0434"/>
<polygon fill="#191970" stroke="#191970" points="682.2349,-479.7347 671.6936,-478.6714 679.271,-486.0763 682.2349,-479.7347"/>
</g>
<!-- Node48 -->
<g id="node45" class="node">
<title>Node48</title>
<g id="a_node45"><a xlink:href="api_2spec_2classification_8h.html" target="_top" xlink:title="ODP classification descriptor. ">
<polygon fill="#ffffff" stroke="#000000" points="1348,-577 1348,-596 1502,-596 1502,-577 1348,-577"/>
<text text-anchor="middle" x="1425" y="-584" font-family="Helvetica,sans-Serif" font-size="10.00" fill="#000000">odp/api/spec/classification.h</text>
</a>
</g>
</g>
<!-- Node47&#45;&gt;Node48 -->
<g id="edge98" class="edge">
<title>Node47&#45;&gt;Node48</title>
<path fill="none" stroke="#191970" d="M1098.1295,-638.481C1158.9047,-629.3855 1252.7259,-615.1518 1334,-602 1342.3007,-600.6568 1351.0215,-599.213 1359.6415,-597.7664"/>
<polygon fill="#191970" stroke="#191970" points="1360.4045,-601.1873 1369.6831,-596.0728 1359.2403,-594.2848 1360.4045,-601.1873"/>
</g>
<!-- Node48&#45;&gt;Node3 -->
<g id="edge99" class="edge">
<title>Node48&#45;&gt;Node3</title>
<path fill="none" stroke="#191970" d="M1347.7502,-585.9492C1066.9634,-583.6424 114.1744,-573.0328 62,-535 36.7775,-516.6139 38,-500.2125 38,-469 38,-469 38,-469 38,-122 38,-87.4675 49.8084,-74.4483 79,-56 106.8008,-38.4306 306.5474,-22.2871 415.8856,-14.6441"/>
<polygon fill="#191970" stroke="#191970" points="416.4415,-18.1141 426.1757,-13.9313 415.9577,-11.1309 416.4415,-18.1141"/>
</g>
<!-- Node48&#45;&gt;Node12 -->
<g id="edge107" class="edge">
<title>Node48&#45;&gt;Node12</title>
<path fill="none" stroke="#191970" d="M1475.3901,-576.9915C1601.7419,-549.9358 1922,-460.1394 1922,-245 1922,-245 1922,-245 1922,-122 1922,-87.9282 1910.3712,-76.2905 1883,-56 1863.5386,-41.5731 1806.5275,-28.8687 1760.1681,-20.4876"/>
<polygon fill="#191970" stroke="#191970" points="1760.6116,-17.0117 1750.1543,-18.7135 1759.3904,-23.9044 1760.6116,-17.0117"/>
</g>
<!-- Node48&#45;&gt;Node33 -->
<g id="edge101" class="edge">
<title>Node48&#45;&gt;Node33</title>
<path fill="none" stroke="#191970" d="M1412.1029,-576.8678C1395.1478,-562.9945 1369.0591,-536.673 1383,-515 1403.8738,-482.5489 1430.3808,-501.1137 1462,-479 1481.8302,-465.1313 1500.8049,-444.7646 1513.0791,-430.3298"/>
<polygon fill="#191970" stroke="#191970" points="1515.793,-432.5401 1519.4874,-422.6103 1510.407,-428.069 1515.793,-432.5401"/>
</g>
<!-- Node48&#45;&gt;Node38 -->
<g id="edge100" class="edge">
<title>Node48&#45;&gt;Node38</title>
<path fill="none" stroke="#191970" d="M1382.0227,-576.9581C1333.1986,-566.1181 1253.4959,-548.4224 1200.8951,-536.7439"/>
<polygon fill="#191970" stroke="#191970" points="1201.5991,-533.315 1191.0781,-534.5643 1200.0818,-540.1486 1201.5991,-533.315"/>
</g>
<!-- Node49 -->
<g id="node46" class="node">
<title>Node49</title>
<g id="a_node46"><a xlink:href="threshold_8h.html" target="_top" xlink:title="ODP threshold API &#45; platform specific header. ">
<polygon fill="#ffffff" stroke="#000000" points="1392,-515.5 1392,-534.5 1502,-534.5 1502,-515.5 1392,-515.5"/>
<text text-anchor="middle" x="1447" y="-522.5" font-family="Helvetica,sans-Serif" font-size="10.00" fill="#000000">odp/api/threshold.h</text>
</a>
</g>
</g>
<!-- Node48&#45;&gt;Node49 -->
<g id="edge102" class="edge">
<title>Node48&#45;&gt;Node49</title>
<path fill="none" stroke="#191970" d="M1428.4375,-576.8906C1431.5513,-568.1862 1436.232,-555.1015 1440.114,-544.2494"/>
<polygon fill="#191970" stroke="#191970" points="1443.4412,-545.3394 1443.514,-534.7449 1436.8503,-542.9817 1443.4412,-545.3394"/>
</g>
<!-- Node50 -->
<g id="node47" class="node">
<title>Node50</title>
<g id="a_node47"><a xlink:href="spec_2threshold_8h.html" target="_top" xlink:title="ODP threshold descriptor. ">
<polygon fill="#ffffff" stroke="#000000" points="1644,-291.5 1644,-310.5 1780,-310.5 1780,-291.5 1644,-291.5"/>
<text text-anchor="middle" x="1712" y="-298.5" font-family="Helvetica,sans-Serif" font-size="10.00" fill="#000000">odp/api/spec/threshold.h</text>
</a>
</g>
</g>
<!-- Node49&#45;&gt;Node50 -->
<g id="edge103" class="edge">
<title>Node49&#45;&gt;Node50</title>
<path fill="none" stroke="#191970" d="M1461.2881,-515.4724C1487.0266,-498.1032 1542.5453,-459.6881 1586,-423 1627.5965,-387.8808 1672.5486,-342.3096 1695.8803,-318.0152"/>
<polygon fill="#191970" stroke="#191970" points="1698.5511,-320.2863 1702.9279,-310.6377 1693.4895,-315.451 1698.5511,-320.2863"/>
</g>
<!-- Node50&#45;&gt;Node3 -->
<g id="edge104" class="edge">
<title>Node50&#45;&gt;Node3</title>
<path fill="none" stroke="#191970" d="M1682.5232,-291.3741C1636.2482,-275.6134 1544.5577,-241.7361 1474,-199 1455.3571,-187.7082 1455.914,-176.8596 1436,-168 1420.6696,-161.1796 854.9619,-81.1725 839,-76 820.469,-69.995 818.5518,-61.9403 800,-56 719.3161,-30.1649 622.2286,-18.7627 557.7966,-13.7801"/>
<polygon fill="#191970" stroke="#191970" points="557.9752,-10.2838 547.7436,-13.0343 557.4572,-17.2646 557.9752,-10.2838"/>
</g>
<!-- Node50&#45;&gt;Node5 -->
<g id="edge105" class="edge">
<title>Node50&#45;&gt;Node5</title>
<path fill="none" stroke="#191970" d="M1652.9136,-291.4369C1591.6299,-281.5181 1496.0149,-266.0429 1432.2176,-255.7173"/>
<polygon fill="#191970" stroke="#191970" points="1432.6926,-252.2487 1422.2618,-254.106 1431.5742,-259.1588 1432.6926,-252.2487"/>
</g>
<!-- Node50&#45;&gt;Node12 -->
<g id="edge106" class="edge">
<title>Node50&#45;&gt;Node12</title>
<path fill="none" stroke="#191970" d="M1720.0002,-291.3876C1747.5662,-257.0399 1834.2146,-138.0586 1784,-56 1774.6591,-40.7354 1758.4772,-30.3326 1742.3874,-23.3404"/>
<polygon fill="#191970" stroke="#191970" points="1743.5629,-20.0414 1732.977,-19.6067 1740.9813,-26.548 1743.5629,-20.0414"/>
</g>
<!-- Node52 -->
<g id="node49" class="node">
<title>Node52</title>
<polygon fill="#ffffff" stroke="#bfbfbf" points="1743,-571.5 1743,-601.5 1845,-601.5 1845,-571.5 1743,-571.5"/>
<text text-anchor="start" x="1751" y="-589.5" font-family="Helvetica,sans-Serif" font-size="10.00" fill="#000000">odp/api/abi/traffic</text>
<text text-anchor="middle" x="1794" y="-578.5" font-family="Helvetica,sans-Serif" font-size="10.00" fill="#000000">_mngr.h</text>
</g>
<!-- Node51&#45;&gt;Node52 -->
<g id="edge109" class="edge">
<title>Node51&#45;&gt;Node52</title>
<path fill="none" stroke="#191970" d="M1689.375,-638.3906C1706.7784,-629.7591 1732.8666,-616.8202 1754.6379,-606.0224"/>
<polygon fill="#191970" stroke="#191970" points="1756.2626,-609.1234 1763.6662,-601.5446 1753.1524,-602.8523 1756.2626,-609.1234"/>
</g>
<!-- Node53 -->
<g id="node50" class="node">
<title>Node53</title>
<g id="a_node50"><a xlink:href="api_2spec_2traffic__mngr_8h.html" target="_top" xlink:title="Copyright (c) 2015&#45;2018, Linaro Limited All rights reserved. ">
<polygon fill="#ffffff" stroke="#000000" points="1615,-571.5 1615,-601.5 1725,-601.5 1725,-571.5 1615,-571.5"/>
<text text-anchor="start" x="1623" y="-589.5" font-family="Helvetica,sans-Serif" font-size="10.00" fill="#000000">odp/api/spec/traffic</text>
<text text-anchor="middle" x="1670" y="-578.5" font-family="Helvetica,sans-Serif" font-size="10.00" fill="#000000">_mngr.h</text>
</a>
</g>
</g>
<!-- Node51&#45;&gt;Node53 -->
<g id="edge110" class="edge">
<title>Node51&#45;&gt;Node53</title>
<path fill="none" stroke="#191970" d="M1670,-638.3906C1670,-631.2234 1670,-621.0862 1670,-611.671"/>
<polygon fill="#191970" stroke="#191970" points="1673.5001,-611.5446 1670,-601.5446 1666.5001,-611.5446 1673.5001,-611.5446"/>
</g>
<!-- Node53&#45;&gt;Node3 -->
<g id="edge111" class="edge">
<title>Node53&#45;&gt;Node3</title>
<path fill="none" stroke="#191970" d="M1614.8837,-580.2326C1584.3161,-576.9819 1545.5967,-573.234 1511,-571 1008.6807,-538.5633 879.1416,-591.8786 379,-535 242.0583,-519.4263 76,-606.8244 76,-469 76,-469 76,-469 76,-413 76,-305.5526 152,-290.9474 152,-183.5 152,-183.5 152,-183.5 152,-122 152,-66.7699 317.8499,-33.8129 416.1607,-19.1287"/>
<polygon fill="#191970" stroke="#191970" points="416.9471,-22.5509 426.334,-17.6382 415.9323,-15.6249 416.9471,-22.5509"/>
</g>
<!-- Node53&#45;&gt;Node5 -->
<g id="edge112" class="edge">
<title>Node53&#45;&gt;Node5</title>
<path fill="none" stroke="#191970" d="M1671.0745,-571.2019C1673.5984,-522.353 1674.3629,-368.7756 1592,-291 1569.3429,-269.6048 1490.6871,-257.2213 1432.506,-250.8005"/>
<polygon fill="#191970" stroke="#191970" points="1432.5791,-247.2885 1422.2642,-249.7078 1431.8364,-254.249 1432.5791,-247.2885"/>
</g>
<!-- Node53&#45;&gt;Node12 -->
<g id="edge114" class="edge">
<title>Node53&#45;&gt;Node12</title>
<path fill="none" stroke="#191970" d="M1697.8064,-571.4517C1770.3911,-529.9165 1960,-406.0073 1960,-245 1960,-245 1960,-245 1960,-122 1960,-90.7875 1959.7732,-76.2252 1936,-56 1910.043,-33.9169 1822.6089,-21.501 1760.3059,-15.2747"/>
<polygon fill="#191970" stroke="#191970" points="1760.4399,-11.7714 1750.1492,-14.2917 1759.7655,-18.7388 1760.4399,-11.7714"/>
</g>
<!-- Node53&#45;&gt;Node38 -->
<g id="edge113" class="edge">
<title>Node53&#45;&gt;Node38</title>
<path fill="none" stroke="#191970" d="M1614.631,-579.9766C1517.8826,-568.5781 1318.4741,-545.0846 1214.4453,-532.8283"/>
<polygon fill="#191970" stroke="#191970" points="1214.7184,-529.3364 1204.3775,-531.6422 1213.8993,-536.2883 1214.7184,-529.3364"/>
</g>
</g>
</svg>
