<?xml version="1.0" encoding="UTF-8" standalone="no"?>
<!DOCTYPE svg PUBLIC "-//W3C//DTD SVG 1.1//EN"
 "http://www.w3.org/Graphics/SVG/1.1/DTD/svg11.dtd">
<!-- Generated by graphviz version 2.40.1 (20161225.0304)
 -->
<!-- Title: classification.h Pages: 1 -->
<svg width="1626pt" height="890pt"
 viewBox="0.00 0.00 1626.00 890.00" xmlns="http://www.w3.org/2000/svg" xmlns:xlink="http://www.w3.org/1999/xlink">
<g id="graph0" class="graph" transform="scale(1 1) rotate(0) translate(4 886)">
<title>classification.h</title>
<polygon fill="#ffffff" stroke="transparent" points="-4,4 -4,-886 1622,-886 1622,4 -4,4"/>
<!-- Node0 -->
<g id="node1" class="node">
<title>Node0</title>
<polygon fill="#bfbfbf" stroke="#000000" points="689.5,-862.5 689.5,-881.5 778.5,-881.5 778.5,-862.5 689.5,-862.5"/>
<text text-anchor="middle" x="734" y="-869.5" font-family="Helvetica,sans-Serif" font-size="10.00" fill="#000000">classification.h</text>
</g>
<!-- Node1 -->
<g id="node2" class="node">
<title>Node1</title>
<g id="a_node2"><a xlink:href="api_2std__types_8h.html" target="_top" xlink:title="Standard C language types and definitions for ODP. ">
<polygon fill="#ffffff" stroke="#000000" points="1166,-235.5 1166,-254.5 1278,-254.5 1278,-235.5 1166,-235.5"/>
<text text-anchor="middle" x="1222" y="-242.5" font-family="Helvetica,sans-Serif" font-size="10.00" fill="#000000">odp/api/std_types.h</text>
</a>
</g>
</g>
<!-- Node0&#45;&gt;Node1 -->
<g id="edge1" class="edge">
<title>Node0&#45;&gt;Node1</title>
<path fill="none" stroke="#191970" d="M778.59,-870.839C953.0757,-865.715 1580,-841.625 1580,-760 1580,-760 1580,-760 1580,-648 1580,-566.0485 1504,-561.9515 1504,-480 1504,-480 1504,-480 1504,-424 1504,-393.4754 1505.1881,-380.8953 1485,-358 1480.908,-353.3592 1323.9384,-287.5195 1254.4884,-258.5332"/>
<polygon fill="#191970" stroke="#191970" points="1255.4821,-255.1555 1244.9054,-254.5356 1252.787,-261.6159 1255.4821,-255.1555"/>
</g>
<!-- Node10 -->
<g id="node11" class="node">
<title>Node10</title>
<polygon fill="#ffffff" stroke="#bfbfbf" points="1200,-358.5 1200,-377.5 1304,-377.5 1304,-358.5 1200,-358.5"/>
<text text-anchor="middle" x="1252" y="-365.5" font-family="Helvetica,sans-Serif" font-size="10.00" fill="#000000">odp/api/abi/pool.h</text>
</g>
<!-- Node0&#45;&gt;Node10 -->
<g id="edge12" class="edge">
<title>Node0&#45;&gt;Node10</title>
<path fill="none" stroke="#191970" d="M778.6221,-868.2097C869.0578,-858.3463 1076.1177,-824.4001 1203,-714 1299.96,-629.6353 1270.0013,-447.958 1256.7828,-387.7984"/>
<polygon fill="#191970" stroke="#191970" points="1260.1225,-386.7031 1254.4741,-377.7395 1253.2999,-388.2691 1260.1225,-386.7031"/>
</g>
<!-- Node11 -->
<g id="node12" class="node">
<title>Node11</title>
<polygon fill="#ffffff" stroke="#bfbfbf" points="138,-694.5 138,-713.5 284,-713.5 284,-694.5 138,-694.5"/>
<text text-anchor="middle" x="211" y="-701.5" font-family="Helvetica,sans-Serif" font-size="10.00" fill="#000000">odp/api/abi/classification.h</text>
</g>
<!-- Node0&#45;&gt;Node11 -->
<g id="edge13" class="edge">
<title>Node0&#45;&gt;Node11</title>
<path fill="none" stroke="#191970" d="M689.2998,-867.7572C608.0153,-858.7193 432.0235,-832.998 298,-770 271.4083,-757.5005 245.1271,-735.9454 228.5269,-720.8806"/>
<polygon fill="#191970" stroke="#191970" points="230.4851,-717.9222 220.7781,-713.6767 225.7188,-723.0489 230.4851,-717.9222"/>
</g>
<!-- Node12 -->
<g id="node13" class="node">
<title>Node12</title>
<polygon fill="#ffffff" stroke="#bfbfbf" points="1360,-358.5 1360,-377.5 1476,-377.5 1476,-358.5 1360,-358.5"/>
<text text-anchor="middle" x="1418" y="-365.5" font-family="Helvetica,sans-Serif" font-size="10.00" fill="#000000">odp/api/abi/packet.h</text>
</g>
<!-- Node0&#45;&gt;Node12 -->
<g id="edge14" class="edge">
<title>Node0&#45;&gt;Node12</title>
<path fill="none" stroke="#191970" d="M778.7342,-869.5258C932.2146,-860.4489 1428,-826.0187 1428,-760 1428,-760 1428,-760 1428,-480 1428,-447.5831 1423.7925,-410.0969 1420.8359,-387.7572"/>
<polygon fill="#191970" stroke="#191970" points="1424.2637,-386.992 1419.4328,-377.5627 1417.3291,-387.9466 1424.2637,-386.992"/>
</g>
<!-- Node13 -->
<g id="node14" class="node">
<title>Node13</title>
<polygon fill="#ffffff" stroke="#bfbfbf" points="66,-358.5 66,-377.5 196,-377.5 196,-358.5 66,-358.5"/>
<text text-anchor="middle" x="131" y="-365.5" font-family="Helvetica,sans-Serif" font-size="10.00" fill="#000000">odp/api/abi/packet_io.h</text>
</g>
<!-- Node0&#45;&gt;Node13 -->
<g id="edge15" class="edge">
<title>Node0&#45;&gt;Node13</title>
<path fill="none" stroke="#191970" d="M689.2546,-869.6146C579.9505,-863.5385 301.6839,-846.4997 211,-826 129.1087,-807.4879 34,-843.9577 34,-760 34,-760 34,-760 34,-536 34,-473.5066 84.9607,-413.3446 113.0072,-384.9664"/>
<polygon fill="#191970" stroke="#191970" points="115.5831,-387.3418 120.2487,-377.8296 110.6695,-382.3562 115.5831,-387.3418"/>
</g>
<!-- Node14 -->
<g id="node15" class="node">
<title>Node14</title>
<polygon fill="#ffffff" stroke="#bfbfbf" points="290.5,-358.5 290.5,-377.5 403.5,-377.5 403.5,-358.5 290.5,-358.5"/>
<text text-anchor="middle" x="347" y="-365.5" font-family="Helvetica,sans-Serif" font-size="10.00" fill="#000000">odp/api/abi/queue.h</text>
</g>
<!-- Node0&#45;&gt;Node14 -->
<g id="edge16" class="edge">
<title>Node0&#45;&gt;Node14</title>
<path fill="none" stroke="#191970" d="M689.1235,-868.7001C546.0459,-857.5861 110,-818.8845 110,-760 110,-760 110,-760 110,-648 110,-518.9706 258.4382,-418.8002 320.3652,-382.6243"/>
<polygon fill="#191970" stroke="#191970" points="322.2541,-385.5758 329.1865,-377.5638 318.7708,-379.504 322.2541,-385.5758"/>
</g>
<!-- Node15 -->
<g id="node16" class="node">
<title>Node15</title>
<g id="a_node16"><a xlink:href="api_2spec_2classification_8h.html" target="_top" xlink:title="ODP classification descriptor. ">
<polygon fill="#ffffff" stroke="#000000" points="657,-806.5 657,-825.5 811,-825.5 811,-806.5 657,-806.5"/>
<text text-anchor="middle" x="734" y="-813.5" font-family="Helvetica,sans-Serif" font-size="10.00" fill="#000000">odp/api/spec/classification.h</text>
</a>
</g>
</g>
<!-- Node0&#45;&gt;Node15 -->
<g id="edge17" class="edge">
<title>Node0&#45;&gt;Node15</title>
<path fill="none" stroke="#191970" d="M734,-862.2455C734,-854.9382 734,-844.6944 734,-835.7046"/>
<polygon fill="#191970" stroke="#191970" points="737.5001,-835.6426 734,-825.6427 730.5001,-835.6427 737.5001,-835.6426"/>
</g>
<!-- Node2 -->
<g id="node3" class="node">
<title>Node2</title>
<polygon fill="#ffffff" stroke="#bfbfbf" points="1152,-174 1152,-193 1282,-193 1282,-174 1152,-174"/>
<text text-anchor="middle" x="1217" y="-181" font-family="Helvetica,sans-Serif" font-size="10.00" fill="#000000">odp/api/abi/std_types.h</text>
</g>
<!-- Node1&#45;&gt;Node2 -->
<g id="edge2" class="edge">
<title>Node1&#45;&gt;Node2</title>
<path fill="none" stroke="#191970" d="M1221.2188,-235.3906C1220.5257,-226.8657 1219.491,-214.1392 1218.6198,-203.4235"/>
<polygon fill="#191970" stroke="#191970" points="1222.0912,-202.9283 1217.7923,-193.2449 1215.1142,-203.4956 1222.0912,-202.9283"/>
</g>
<!-- Node3 -->
<g id="node4" class="node">
<title>Node3</title>
<g id="a_node4"><a xlink:href="api_2spec_2std__types_8h.html" target="_top" xlink:title="Standard C language types and definitions for ODP. ">
<polygon fill="#ffffff" stroke="#000000" points="1338.5,-174 1338.5,-193 1475.5,-193 1475.5,-174 1338.5,-174"/>
<text text-anchor="middle" x="1407" y="-181" font-family="Helvetica,sans-Serif" font-size="10.00" fill="#000000">odp/api/spec/std_types.h</text>
</a>
</g>
</g>
<!-- Node1&#45;&gt;Node3 -->
<g id="edge3" class="edge">
<title>Node1&#45;&gt;Node3</title>
<path fill="none" stroke="#191970" d="M1250.9063,-235.3906C1282.539,-224.8749 1333.403,-207.966 1368.4229,-196.3243"/>
<polygon fill="#191970" stroke="#191970" points="1369.9115,-199.5178 1378.2967,-193.0419 1367.7032,-192.8753 1369.9115,-199.5178"/>
</g>
<!-- Node4 -->
<g id="node5" class="node">
<title>Node4</title>
<g id="a_node5"><a xlink:href="visibility__begin_8h_source.html" target="_top" xlink:title="odp/visibility_begin.h">
<polygon fill="#ffffff" stroke="#000000" points="1118.5,-.5 1118.5,-19.5 1239.5,-19.5 1239.5,-.5 1118.5,-.5"/>
<text text-anchor="middle" x="1179" y="-7.5" font-family="Helvetica,sans-Serif" font-size="10.00" fill="#000000">odp/visibility_begin.h</text>
</a>
</g>
</g>
<!-- Node3&#45;&gt;Node4 -->
<g id="edge4" class="edge">
<title>Node3&#45;&gt;Node4</title>
<path fill="none" stroke="#191970" d="M1417.921,-173.7122C1427.6731,-164.1761 1441.274,-148.7068 1447,-132 1453.1988,-113.9135 1451.9685,-66.8443 1442,-56 1416.7124,-28.4909 1318.9643,-17.3865 1250.0537,-12.9349"/>
<polygon fill="#191970" stroke="#191970" points="1249.8779,-9.4177 1239.6828,-12.3006 1249.4505,-16.4046 1249.8779,-9.4177"/>
</g>
<!-- Node5 -->
<g id="node6" class="node">
<title>Node5</title>
<polygon fill="#ffffff" stroke="#bfbfbf" points="1384.5,-112.5 1384.5,-131.5 1437.5,-131.5 1437.5,-112.5 1384.5,-112.5"/>
<text text-anchor="middle" x="1411" y="-119.5" font-family="Helvetica,sans-Serif" font-size="10.00" fill="#000000">stdint.h</text>
</g>
<!-- Node3&#45;&gt;Node5 -->
<g id="edge5" class="edge">
<title>Node3&#45;&gt;Node5</title>
<path fill="none" stroke="#191970" d="M1407.625,-173.8906C1408.1795,-165.3657 1409.0072,-152.6392 1409.7042,-141.9235"/>
<polygon fill="#191970" stroke="#191970" points="1413.2097,-141.951 1410.3662,-131.7449 1406.2244,-141.4966 1413.2097,-141.951"/>
</g>
<!-- Node6 -->
<g id="node7" class="node">
<title>Node6</title>
<g id="a_node7"><a xlink:href="api_2align_8h.html" target="_top" xlink:title="ODP alignments. ">
<polygon fill="#ffffff" stroke="#000000" points="1200.5,-112.5 1200.5,-131.5 1289.5,-131.5 1289.5,-112.5 1200.5,-112.5"/>
<text text-anchor="middle" x="1245" y="-119.5" font-family="Helvetica,sans-Serif" font-size="10.00" fill="#000000">odp/api/align.h</text>
</a>
</g>
</g>
<!-- Node3&#45;&gt;Node6 -->
<g id="edge6" class="edge">
<title>Node3&#45;&gt;Node6</title>
<path fill="none" stroke="#191970" d="M1381.6875,-173.8906C1354.2253,-163.4652 1310.2105,-146.7559 1279.5737,-135.1252"/>
<polygon fill="#191970" stroke="#191970" points="1280.726,-131.819 1270.1348,-131.5419 1278.2415,-138.3633 1280.726,-131.819"/>
</g>
<!-- Node9 -->
<g id="node10" class="node">
<title>Node9</title>
<g id="a_node10"><a xlink:href="visibility__end_8h_source.html" target="_top" xlink:title="odp/visibility_end.h">
<polygon fill="#ffffff" stroke="#000000" points="305,-.5 305,-19.5 417,-19.5 417,-.5 305,-.5"/>
<text text-anchor="middle" x="361" y="-7.5" font-family="Helvetica,sans-Serif" font-size="10.00" fill="#000000">odp/visibility_end.h</text>
</a>
</g>
</g>
<!-- Node3&#45;&gt;Node9 -->
<g id="edge11" class="edge">
<title>Node3&#45;&gt;Node9</title>
<path fill="none" stroke="#191970" d="M1364.0902,-173.9591C1244.3207,-147.4224 907.8706,-73.5419 796,-56 666.0497,-35.6231 512.8113,-21.762 427.2874,-14.9278"/>
<polygon fill="#191970" stroke="#191970" points="427.4445,-11.4294 417.1995,-14.1293 426.8921,-18.4076 427.4445,-11.4294"/>
</g>
<!-- Node7 -->
<g id="node8" class="node">
<title>Node7</title>
<polygon fill="#ffffff" stroke="#bfbfbf" points="1254.5,-56.5 1254.5,-75.5 1361.5,-75.5 1361.5,-56.5 1254.5,-56.5"/>
<text text-anchor="middle" x="1308" y="-63.5" font-family="Helvetica,sans-Serif" font-size="10.00" fill="#000000">odp/api/abi/align.h</text>
</g>
<!-- Node6&#45;&gt;Node7 -->
<g id="edge7" class="edge">
<title>Node6&#45;&gt;Node7</title>
<path fill="none" stroke="#191970" d="M1255.9738,-112.2455C1265.1882,-104.0549 1278.5532,-92.1749 1289.4297,-82.5069"/>
<polygon fill="#191970" stroke="#191970" points="1292.0032,-84.9023 1297.152,-75.6427 1287.3526,-79.6704 1292.0032,-84.9023"/>
</g>
<!-- Node8 -->
<g id="node9" class="node">
<title>Node8</title>
<g id="a_node9"><a xlink:href="api_2spec_2align_8h.html" target="_top" xlink:title="ODP alignments. ">
<polygon fill="#ffffff" stroke="#000000" points="1122,-56.5 1122,-75.5 1236,-75.5 1236,-56.5 1122,-56.5"/>
<text text-anchor="middle" x="1179" y="-63.5" font-family="Helvetica,sans-Serif" font-size="10.00" fill="#000000">odp/api/spec/align.h</text>
</a>
</g>
</g>
<!-- Node6&#45;&gt;Node8 -->
<g id="edge8" class="edge">
<title>Node6&#45;&gt;Node8</title>
<path fill="none" stroke="#191970" d="M1233.5037,-112.2455C1223.7558,-103.9746 1209.5741,-91.9416 1198.1202,-82.2232"/>
<polygon fill="#191970" stroke="#191970" points="1200.2541,-79.4437 1190.3646,-75.6427 1195.7253,-84.7813 1200.2541,-79.4437"/>
</g>
<!-- Node8&#45;&gt;Node4 -->
<g id="edge9" class="edge">
<title>Node8&#45;&gt;Node4</title>
<path fill="none" stroke="#191970" d="M1179,-56.2455C1179,-48.9382 1179,-38.6944 1179,-29.7046"/>
<polygon fill="#191970" stroke="#191970" points="1182.5001,-29.6426 1179,-19.6427 1175.5001,-29.6427 1182.5001,-29.6426"/>
</g>
<!-- Node8&#45;&gt;Node9 -->
<g id="edge10" class="edge">
<title>Node8&#45;&gt;Node9</title>
<path fill="none" stroke="#191970" d="M1121.8083,-60.2338C1106.3034,-58.7577 1089.5155,-57.239 1074,-56 836.4719,-37.0314 553.942,-20.6286 427.6963,-13.6218"/>
<polygon fill="#191970" stroke="#191970" points="427.6022,-10.1114 417.4241,-13.0533 427.2154,-17.1007 427.6022,-10.1114"/>
</g>
<!-- Node15&#45;&gt;Node4 -->
<g id="edge18" class="edge">
<title>Node15&#45;&gt;Node4</title>
<path fill="none" stroke="#191970" d="M811.2431,-814.3249C963.6718,-810.4307 1298.0079,-798.8076 1409,-770 1513.1071,-742.9794 1618,-755.5565 1618,-648 1618,-648 1618,-648 1618,-122 1618,-84.6561 1598.5753,-74.2597 1566,-56 1513.3965,-26.5136 1346.4144,-15.7876 1249.8438,-11.9923"/>
<polygon fill="#191970" stroke="#191970" points="1249.702,-8.4845 1239.5769,-11.6044 1249.4377,-15.4795 1249.702,-8.4845"/>
</g>
<!-- Node15&#45;&gt;Node9 -->
<g id="edge94" class="edge">
<title>Node15&#45;&gt;Node9</title>
<path fill="none" stroke="#191970" d="M656.7646,-812.6425C482.1363,-802.948 72,-767.463 72,-648 72,-648 72,-648 72,-536 72,-454.7651 0,-449.2349 0,-368 0,-368 0,-368 0,-122 0,-60.9549 190.681,-29.4833 294.8785,-16.8428"/>
<polygon fill="#191970" stroke="#191970" points="295.4723,-20.2969 304.9898,-15.6422 294.6469,-13.3458 295.4723,-20.2969"/>
</g>
<!-- Node16 -->
<g id="node17" class="node">
<title>Node16</title>
<g id="a_node17"><a xlink:href="api_2packet__io_8h.html" target="_top" xlink:title="ODP Packet IO. ">
<polygon fill="#ffffff" stroke="#000000" points="678,-750.5 678,-769.5 790,-769.5 790,-750.5 678,-750.5"/>
<text text-anchor="middle" x="734" y="-757.5" font-family="Helvetica,sans-Serif" font-size="10.00" fill="#000000">odp/api/packet_io.h</text>
</a>
</g>
</g>
<!-- Node15&#45;&gt;Node16 -->
<g id="edge19" class="edge">
<title>Node15&#45;&gt;Node16</title>
<path fill="none" stroke="#191970" d="M734,-806.2455C734,-798.9382 734,-788.6944 734,-779.7046"/>
<polygon fill="#191970" stroke="#191970" points="737.5001,-779.6426 734,-769.6427 730.5001,-779.6427 737.5001,-779.6426"/>
</g>
<!-- Node37 -->
<g id="node38" class="node">
<title>Node37</title>
<g id="a_node38"><a xlink:href="support_8h.html" target="_top" xlink:title="ODP support API &#45; platform specific header. ">
<polygon fill="#ffffff" stroke="#000000" points="465.5,-112.5 465.5,-131.5 566.5,-131.5 566.5,-112.5 465.5,-112.5"/>
<text text-anchor="middle" x="516" y="-119.5" font-family="Helvetica,sans-Serif" font-size="10.00" fill="#000000">odp/api/support.h</text>
</a>
</g>
</g>
<!-- Node15&#45;&gt;Node37 -->
<g id="edge88" class="edge">
<title>Node15&#45;&gt;Node37</title>
<path fill="none" stroke="#191970" d="M695.5095,-806.4396C627.0438,-789.2443 479.7505,-751.3954 357,-714 347.7399,-711.179 199.2497,-664.4147 192,-658 140.267,-612.2255 72.3866,-445.3414 57,-378 16.2448,-199.6296 320.9636,-143.623 454.9399,-127.726"/>
<polygon fill="#191970" stroke="#191970" points="455.5192,-131.1825 465.0542,-126.5637 454.72,-124.2283 455.5192,-131.1825"/>
</g>
<!-- Node41 -->
<g id="node42" class="node">
<title>Node41</title>
<g id="a_node42"><a xlink:href="threshold_8h.html" target="_top" xlink:title="ODP threshold API &#45; platform specific header. ">
<polygon fill="#ffffff" stroke="#000000" points="1290,-750.5 1290,-769.5 1400,-769.5 1400,-750.5 1290,-750.5"/>
<text text-anchor="middle" x="1345" y="-757.5" font-family="Helvetica,sans-Serif" font-size="10.00" fill="#000000">odp/api/threshold.h</text>
</a>
</g>
</g>
<!-- Node15&#45;&gt;Node41 -->
<g id="edge89" class="edge">
<title>Node15&#45;&gt;Node41</title>
<path fill="none" stroke="#191970" d="M811.074,-808.9359C932.404,-797.8157 1165.8101,-776.4233 1279.5206,-766.0014"/>
<polygon fill="#191970" stroke="#191970" points="1280.1744,-769.4562 1289.8132,-765.058 1279.5355,-762.4854 1280.1744,-769.4562"/>
</g>
<!-- Node16&#45;&gt;Node1 -->
<g id="edge20" class="edge">
<title>Node16&#45;&gt;Node1</title>
<path fill="none" stroke="#191970" d="M790.187,-758.4972C892.4243,-755.0422 1104.4541,-744.3506 1171,-714 1285.8567,-661.6155 1332,-606.2387 1332,-480 1332,-480 1332,-480 1332,-368 1332,-318.5084 1281.9057,-279.7997 1249.3279,-259.859"/>
<polygon fill="#191970" stroke="#191970" points="1251.0502,-256.8114 1240.66,-254.7391 1247.4901,-262.8385 1251.0502,-256.8114"/>
</g>
<!-- Node16&#45;&gt;Node10 -->
<g id="edge21" class="edge">
<title>Node16&#45;&gt;Node10</title>
<path fill="none" stroke="#191970" d="M790.4682,-758.7479C918.1421,-754.3869 1218,-734.8951 1218,-648 1218,-648 1218,-648 1218,-480 1218,-445.9677 1232.5515,-408.5293 1242.6151,-386.7067"/>
<polygon fill="#191970" stroke="#191970" points="1245.819,-388.1198 1246.9832,-377.5891 1239.5061,-385.0954 1245.819,-388.1198"/>
</g>
<!-- Node16&#45;&gt;Node11 -->
<g id="edge22" class="edge">
<title>Node16&#45;&gt;Node11</title>
<path fill="none" stroke="#191970" d="M677.5329,-753.9538C585.2885,-744.0768 401.8253,-724.4325 294.5012,-712.9409"/>
<polygon fill="#191970" stroke="#191970" points="294.6742,-709.4395 284.3583,-711.8548 293.9288,-716.3997 294.6742,-709.4395"/>
</g>
<!-- Node16&#45;&gt;Node12 -->
<g id="edge23" class="edge">
<title>Node16&#45;&gt;Node12</title>
<path fill="none" stroke="#191970" d="M790.1933,-758.1327C919.5482,-753.4162 1230.3491,-739.5425 1270,-714 1346.2831,-664.8597 1370,-626.7407 1370,-536 1370,-536 1370,-536 1370,-480 1370,-444.4341 1390.7017,-407.2782 1404.9145,-385.9597"/>
<polygon fill="#191970" stroke="#191970" points="1407.8933,-387.8059 1410.7098,-377.5923 1402.1387,-383.8202 1407.8933,-387.8059"/>
</g>
<!-- Node16&#45;&gt;Node13 -->
<g id="edge24" class="edge">
<title>Node16&#45;&gt;Node13</title>
<path fill="none" stroke="#191970" d="M677.6414,-750.68C545.8129,-728.6583 227.1461,-674.0537 210,-658 169.736,-620.3011 142.098,-447.0992 133.691,-387.9015"/>
<polygon fill="#191970" stroke="#191970" points="137.1105,-387.0794 132.268,-377.656 130.1771,-388.0424 137.1105,-387.0794"/>
</g>
<!-- Node16&#45;&gt;Node14 -->
<g id="edge25" class="edge">
<title>Node16&#45;&gt;Node14</title>
<path fill="none" stroke="#191970" d="M687.7376,-750.4334C610.5995,-733.5909 460.5449,-696.7418 424,-658 386.2171,-617.9458 358.3263,-446.2786 349.756,-387.6871"/>
<polygon fill="#191970" stroke="#191970" points="353.1863,-386.9509 348.3023,-377.549 346.2572,-387.9445 353.1863,-386.9509"/>
</g>
<!-- Node17 -->
<g id="node18" class="node">
<title>Node17</title>
<g id="a_node18"><a xlink:href="api_2spec_2packet__io_8h.html" target="_top" xlink:title="ODP Packet IO. ">
<polygon fill="#ffffff" stroke="#000000" points="665.5,-694.5 665.5,-713.5 802.5,-713.5 802.5,-694.5 665.5,-694.5"/>
<text text-anchor="middle" x="734" y="-701.5" font-family="Helvetica,sans-Serif" font-size="10.00" fill="#000000">odp/api/spec/packet_io.h</text>
</a>
</g>
</g>
<!-- Node16&#45;&gt;Node17 -->
<g id="edge26" class="edge">
<title>Node16&#45;&gt;Node17</title>
<path fill="none" stroke="#191970" d="M734,-750.2455C734,-742.9382 734,-732.6944 734,-723.7046"/>
<polygon fill="#191970" stroke="#191970" points="737.5001,-723.6426 734,-713.6427 730.5001,-723.6427 737.5001,-723.6426"/>
</g>
<!-- Node17&#45;&gt;Node4 -->
<g id="edge27" class="edge">
<title>Node17&#45;&gt;Node4</title>
<path fill="none" stroke="#191970" d="M802.5881,-700.9761C867.5072,-696.4969 966.9638,-685.4083 1049,-658 1304.0442,-572.7897 1580,-636.9021 1580,-368 1580,-368 1580,-368 1580,-122 1580,-87.6999 1568.7594,-74.692 1540,-56 1493.5184,-25.7895 1341.1273,-15.3817 1249.8696,-11.8234"/>
<polygon fill="#191970" stroke="#191970" points="1249.7236,-8.3156 1239.6004,-11.4417 1249.4635,-15.3108 1249.7236,-8.3156"/>
</g>
<!-- Node17&#45;&gt;Node9 -->
<g id="edge87" class="edge">
<title>Node17&#45;&gt;Node9</title>
<path fill="none" stroke="#191970" d="M665.3778,-700.5258C592.9134,-695.6131 475.843,-684.1181 378,-658 306.0539,-638.7948 224,-666.4653 224,-592 224,-592 224,-592 224,-424 224,-393.4754 221.6538,-383.5813 205,-358 162.3107,-292.4264 70,-323.2449 70,-245 70,-245 70,-245 70,-122 70,-74.87 110.4544,-76.2757 153,-56 197.7226,-34.6869 252.5929,-23.0835 294.746,-16.864"/>
<polygon fill="#191970" stroke="#191970" points="295.487,-20.2942 304.9007,-15.4329 294.5101,-13.3627 295.487,-20.2942"/>
</g>
<!-- Node18 -->
<g id="node19" class="node">
<title>Node18</title>
<g id="a_node19"><a xlink:href="deprecated_8h.html" target="_top" xlink:title="Control deprecated API definitions. ">
<polygon fill="#ffffff" stroke="#000000" points="737.5,-112.5 737.5,-131.5 856.5,-131.5 856.5,-112.5 737.5,-112.5"/>
<text text-anchor="middle" x="797" y="-119.5" font-family="Helvetica,sans-Serif" font-size="10.00" fill="#000000">odp/api/deprecated.h</text>
</a>
</g>
</g>
<!-- Node17&#45;&gt;Node18 -->
<g id="edge28" class="edge">
<title>Node17&#45;&gt;Node18</title>
<path fill="none" stroke="#191970" d="M689.1512,-694.4626C663.7849,-687.4502 632.5349,-675.9502 609,-658 499.0944,-574.1744 463.1945,-480.6166 527,-358 545.4124,-322.6164 643.1167,-280.2435 674,-255 701.9921,-232.1198 708.2913,-225.392 733,-199 751.2435,-179.5137 770.6289,-155.6988 783.2218,-139.76"/>
<polygon fill="#191970" stroke="#191970" points="786.0526,-141.8219 789.4686,-131.7929 780.544,-137.5027 786.0526,-141.8219"/>
</g>
<!-- Node20 -->
<g id="node21" class="node">
<title>Node20</title>
<g id="a_node21"><a xlink:href="packet__io__stats_8h.html" target="_top" xlink:title="ODP packet IO stats. ">
<polygon fill="#ffffff" stroke="#000000" points="731.5,-638.5 731.5,-657.5 872.5,-657.5 872.5,-638.5 731.5,-638.5"/>
<text text-anchor="middle" x="802" y="-645.5" font-family="Helvetica,sans-Serif" font-size="10.00" fill="#000000">odp/api/packet_io_stats.h</text>
</a>
</g>
</g>
<!-- Node17&#45;&gt;Node20 -->
<g id="edge32" class="edge">
<title>Node17&#45;&gt;Node20</title>
<path fill="none" stroke="#191970" d="M745.8447,-694.2455C755.888,-685.9746 770.4995,-673.9416 782.3004,-664.2232"/>
<polygon fill="#191970" stroke="#191970" points="784.7967,-666.7015 790.291,-657.6427 780.3467,-661.298 784.7967,-666.7015"/>
</g>
<!-- Node22 -->
<g id="node23" class="node">
<title>Node22</title>
<g id="a_node23"><a xlink:href="api_2queue_8h.html" target="_top" xlink:title="ODP queue. ">
<polygon fill="#ffffff" stroke="#000000" points="618.5,-638.5 618.5,-657.5 713.5,-657.5 713.5,-638.5 618.5,-638.5"/>
<text text-anchor="middle" x="666" y="-645.5" font-family="Helvetica,sans-Serif" font-size="10.00" fill="#000000">odp/api/queue.h</text>
</a>
</g>
</g>
<!-- Node17&#45;&gt;Node22 -->
<g id="edge37" class="edge">
<title>Node17&#45;&gt;Node22</title>
<path fill="none" stroke="#191970" d="M722.1553,-694.2455C712.112,-685.9746 697.5005,-673.9416 685.6996,-664.2232"/>
<polygon fill="#191970" stroke="#191970" points="687.6533,-661.298 677.709,-657.6427 683.2033,-666.7015 687.6533,-661.298"/>
</g>
<!-- Node28 -->
<g id="node29" class="node">
<title>Node28</title>
<g id="a_node29"><a xlink:href="api_2packet_8h.html" target="_top" xlink:title="ODP packet descriptor. ">
<polygon fill="#ffffff" stroke="#000000" points="875,-414.5 875,-433.5 973,-433.5 973,-414.5 875,-414.5"/>
<text text-anchor="middle" x="924" y="-421.5" font-family="Helvetica,sans-Serif" font-size="10.00" fill="#000000">odp/api/packet.h</text>
</a>
</g>
</g>
<!-- Node17&#45;&gt;Node28 -->
<g id="edge86" class="edge">
<title>Node17&#45;&gt;Node28</title>
<path fill="none" stroke="#191970" d="M802.3162,-694.4737C897.3741,-679.2683 1058,-645.6388 1058,-592 1058,-592 1058,-592 1058,-536 1058,-485.8615 1002.0869,-453.7644 962.4958,-437.3216"/>
<polygon fill="#191970" stroke="#191970" points="963.6614,-434.0186 953.076,-433.5723 961.0727,-440.5223 963.6614,-434.0186"/>
</g>
<!-- Node30 -->
<g id="node31" class="node">
<title>Node30</title>
<g id="a_node31"><a xlink:href="api_2time_8h.html" target="_top" xlink:title="ODP time. ">
<polygon fill="#ffffff" stroke="#000000" points="961.5,-297 961.5,-316 1048.5,-316 1048.5,-297 961.5,-297"/>
<text text-anchor="middle" x="1005" y="-304" font-family="Helvetica,sans-Serif" font-size="10.00" fill="#000000">odp/api/time.h</text>
</a>
</g>
</g>
<!-- Node17&#45;&gt;Node30 -->
<g id="edge85" class="edge">
<title>Node17&#45;&gt;Node30</title>
<path fill="none" stroke="#191970" d="M802.6354,-696.0609C870.8389,-687.5185 970.2713,-673.1118 1006,-658 1051.6845,-638.6773 1096,-641.6029 1096,-592 1096,-592 1096,-592 1096,-480 1096,-416.5373 1047.6606,-353.4189 1021.4448,-323.8544"/>
<polygon fill="#191970" stroke="#191970" points="1023.7161,-321.1502 1014.3959,-316.112 1018.54,-325.8628 1023.7161,-321.1502"/>
</g>
<!-- Node39 -->
<g id="node40" class="node">
<title>Node39</title>
<g id="a_node40"><a xlink:href="reassembly_8h.html" target="_top" xlink:title="ODP REASSEMBLY API &#45; platform specific header. ">
<polygon fill="#ffffff" stroke="#000000" points="252,-582.5 252,-601.5 372,-601.5 372,-582.5 252,-582.5"/>
<text text-anchor="middle" x="312" y="-589.5" font-family="Helvetica,sans-Serif" font-size="10.00" fill="#000000">odp/api/reassembly.h</text>
</a>
</g>
</g>
<!-- Node17&#45;&gt;Node39 -->
<g id="edge81" class="edge">
<title>Node17&#45;&gt;Node39</title>
<path fill="none" stroke="#191970" d="M665.2559,-696.908C587.8444,-688.3759 467.2167,-673.2829 424,-658 389.7763,-645.8973 354.3463,-622.9498 332.7351,-607.562"/>
<polygon fill="#191970" stroke="#191970" points="334.7781,-604.7201 324.6287,-601.6804 330.6673,-610.3859 334.7781,-604.7201"/>
</g>
<!-- Node19 -->
<g id="node20" class="node">
<title>Node19</title>
<g id="a_node20"><a xlink:href="spec_2deprecated_8h.html" target="_top" xlink:title="Macro for deprecated API definitions. ">
<polygon fill="#ffffff" stroke="#000000" points="920.5,-56.5 920.5,-75.5 1065.5,-75.5 1065.5,-56.5 920.5,-56.5"/>
<text text-anchor="middle" x="993" y="-63.5" font-family="Helvetica,sans-Serif" font-size="10.00" fill="#000000">odp/api/spec/deprecated.h</text>
</a>
</g>
</g>
<!-- Node18&#45;&gt;Node19 -->
<g id="edge29" class="edge">
<title>Node18&#45;&gt;Node19</title>
<path fill="none" stroke="#191970" d="M830.6936,-112.3733C863.7087,-102.9404 914.1573,-88.5265 950.0386,-78.2747"/>
<polygon fill="#191970" stroke="#191970" points="951.0924,-81.6137 959.7461,-75.5011 949.1693,-74.8831 951.0924,-81.6137"/>
</g>
<!-- Node19&#45;&gt;Node4 -->
<g id="edge30" class="edge">
<title>Node19&#45;&gt;Node4</title>
<path fill="none" stroke="#191970" d="M1024.9745,-56.3733C1056.1713,-46.9807 1103.771,-32.6496 1137.7932,-22.4064"/>
<polygon fill="#191970" stroke="#191970" points="1138.8763,-25.7355 1147.4427,-19.5011 1136.8582,-19.0327 1138.8763,-25.7355"/>
</g>
<!-- Node19&#45;&gt;Node9 -->
<g id="edge31" class="edge">
<title>Node19&#45;&gt;Node9</title>
<path fill="none" stroke="#191970" d="M920.1931,-59.5488C796.4039,-48.5801 546.7582,-26.4596 427.4408,-15.8872"/>
<polygon fill="#191970" stroke="#191970" points="427.6164,-12.3891 417.3465,-14.9927 426.9985,-19.3618 427.6164,-12.3891"/>
</g>
<!-- Node21 -->
<g id="node22" class="node">
<title>Node21</title>
<g id="a_node22"><a xlink:href="spec_2packet__io__stats_8h.html" target="_top" xlink:title="ODP Packet IO statistics. ">
<polygon fill="#ffffff" stroke="#000000" points="802,-168.5 802,-198.5 916,-198.5 916,-168.5 802,-168.5"/>
<text text-anchor="start" x="810" y="-186.5" font-family="Helvetica,sans-Serif" font-size="10.00" fill="#000000">odp/api/spec/packet</text>
<text text-anchor="middle" x="859" y="-175.5" font-family="Helvetica,sans-Serif" font-size="10.00" fill="#000000">_io_stats.h</text>
</a>
</g>
</g>
<!-- Node20&#45;&gt;Node21 -->
<g id="edge33" class="edge">
<title>Node20&#45;&gt;Node21</title>
<path fill="none" stroke="#191970" d="M802,-638.4116C802,-619.0538 802,-573.9167 802,-536 802,-536 802,-536 802,-306.5 802,-269.1436 823.9115,-230.8271 840.5638,-207.1014"/>
<polygon fill="#191970" stroke="#191970" points="843.5823,-208.9015 846.6318,-198.7551 837.9205,-204.7852 843.5823,-208.9015"/>
</g>
<!-- Node21&#45;&gt;Node4 -->
<g id="edge34" class="edge">
<title>Node21&#45;&gt;Node4</title>
<path fill="none" stroke="#191970" d="M916.1443,-180.6331C1019.0025,-174.8453 1230.943,-159.8781 1299,-132 1317.7571,-124.3166 1362.0944,-94.2087 1371,-76 1374.9053,-68.015 1376.5047,-62.9793 1371,-56 1355.8894,-36.8415 1298.2011,-24.7652 1249.9676,-17.8192"/>
<polygon fill="#191970" stroke="#191970" points="1250.2233,-14.3213 1239.8373,-16.4142 1249.2616,-21.2549 1250.2233,-14.3213"/>
</g>
<!-- Node21&#45;&gt;Node9 -->
<g id="edge36" class="edge">
<title>Node21&#45;&gt;Node9</title>
<path fill="none" stroke="#191970" d="M865.9197,-168.4435C872.0949,-152.491 878.2971,-127.5093 865,-112 830.8987,-72.2252 682.2051,-90.9797 632,-76 611.4158,-69.8583 608.4354,-62.6201 588,-56 535.1876,-38.8915 473.3182,-26.8575 427.5202,-19.4005"/>
<polygon fill="#191970" stroke="#191970" points="427.8425,-15.9077 417.4157,-17.7869 426.7386,-22.8201 427.8425,-15.9077"/>
</g>
<!-- Node21&#45;&gt;Node18 -->
<g id="edge35" class="edge">
<title>Node21&#45;&gt;Node18</title>
<path fill="none" stroke="#191970" d="M843.6742,-168.2977C834.7093,-159.4052 823.3712,-148.1586 814.1149,-138.9769"/>
<polygon fill="#191970" stroke="#191970" points="816.4915,-136.4045 806.927,-131.8469 811.5618,-141.3742 816.4915,-136.4045"/>
</g>
<!-- Node22&#45;&gt;Node1 -->
<g id="edge38" class="edge">
<title>Node22&#45;&gt;Node1</title>
<path fill="none" stroke="#191970" d="M706.0621,-638.4519C782.7305,-619.7227 946.9529,-577.2695 996,-546 1111.455,-472.3928 1189.3145,-317.6344 1213.7763,-263.8766"/>
<polygon fill="#191970" stroke="#191970" points="1217.0703,-265.0838 1217.952,-254.5257 1210.6786,-262.2295 1217.0703,-265.0838"/>
</g>
<!-- Node22&#45;&gt;Node10 -->
<g id="edge42" class="edge">
<title>Node22&#45;&gt;Node10</title>
<path fill="none" stroke="#191970" d="M713.6262,-639.2887C716.4567,-638.8352 719.2641,-638.4017 722,-638 824.7359,-622.9148 1178,-639.8375 1178,-536 1178,-536 1178,-536 1178,-480 1178,-448.4726 1186.434,-440.1803 1204,-414 1211.4609,-402.8803 1222.0176,-392.3918 1231.3318,-384.2462"/>
<polygon fill="#191970" stroke="#191970" points="1233.6801,-386.8446 1239.0881,-377.734 1229.179,-381.4836 1233.6801,-386.8446"/>
</g>
<!-- Node22&#45;&gt;Node14 -->
<g id="edge40" class="edge">
<title>Node22&#45;&gt;Node14</title>
<path fill="none" stroke="#191970" d="M642.876,-638.4782C595.2067,-617.8432 484.8849,-564.7636 418,-490 402.8062,-473.0165 372.2172,-416.3223 356.6199,-386.578"/>
<polygon fill="#191970" stroke="#191970" points="359.6761,-384.8689 351.9491,-377.6202 353.4692,-388.1054 359.6761,-384.8689"/>
</g>
<!-- Node23 -->
<g id="node24" class="node">
<title>Node23</title>
<polygon fill="#ffffff" stroke="#bfbfbf" points="536,-358.5 536,-377.5 646,-377.5 646,-358.5 536,-358.5"/>
<text text-anchor="middle" x="591" y="-365.5" font-family="Helvetica,sans-Serif" font-size="10.00" fill="#000000">odp/api/abi/event.h</text>
</g>
<!-- Node22&#45;&gt;Node23 -->
<g id="edge39" class="edge">
<title>Node22&#45;&gt;Node23</title>
<path fill="none" stroke="#191970" d="M630.4402,-638.3459C612.2535,-631.4075 591.7363,-620.0179 581,-602 539.5536,-532.4437 568.6341,-429.5184 583.6014,-387.2181"/>
<polygon fill="#191970" stroke="#191970" points="586.8882,-388.4208 587.051,-377.8272 580.3175,-386.0071 586.8882,-388.4208"/>
</g>
<!-- Node24 -->
<g id="node25" class="node">
<title>Node24</title>
<polygon fill="#ffffff" stroke="#bfbfbf" points="664,-358.5 664,-377.5 774,-377.5 774,-358.5 664,-358.5"/>
<text text-anchor="middle" x="719" y="-365.5" font-family="Helvetica,sans-Serif" font-size="10.00" fill="#000000">odp/api/abi/buffer.h</text>
</g>
<!-- Node22&#45;&gt;Node24 -->
<g id="edge41" class="edge">
<title>Node22&#45;&gt;Node24</title>
<path fill="none" stroke="#191970" d="M681.1591,-638.4621C693.0995,-630.1988 709.2976,-617.1991 719,-602 735.4243,-576.2708 738,-566.5246 738,-536 738,-536 738,-536 738,-480 738,-447.2688 730.0148,-409.9052 724.3978,-387.6716"/>
<polygon fill="#191970" stroke="#191970" points="727.7289,-386.5763 721.8035,-377.7934 720.9585,-388.3545 727.7289,-386.5763"/>
</g>
<!-- Node25 -->
<g id="node26" class="node">
<title>Node25</title>
<g id="a_node26"><a xlink:href="api_2spec_2queue_8h.html" target="_top" xlink:title="ODP queue. ">
<polygon fill="#ffffff" stroke="#000000" points="590,-582.5 590,-601.5 710,-601.5 710,-582.5 590,-582.5"/>
<text text-anchor="middle" x="650" y="-589.5" font-family="Helvetica,sans-Serif" font-size="10.00" fill="#000000">odp/api/spec/queue.h</text>
</a>
</g>
</g>
<!-- Node22&#45;&gt;Node25 -->
<g id="edge43" class="edge">
<title>Node22&#45;&gt;Node25</title>
<path fill="none" stroke="#191970" d="M663.213,-638.2455C661.1023,-630.8579 658.134,-620.4689 655.5453,-611.4087"/>
<polygon fill="#191970" stroke="#191970" points="658.8677,-610.2964 652.755,-601.6427 652.137,-612.2195 658.8677,-610.2964"/>
</g>
<!-- Node25&#45;&gt;Node4 -->
<g id="edge44" class="edge">
<title>Node25&#45;&gt;Node4</title>
<path fill="none" stroke="#191970" d="M709.7236,-582.4823C775.5418,-569.8022 882.3568,-542.5749 960,-490 986.9052,-471.7815 986.5154,-459.2227 1007,-434 1026.9546,-409.4299 1034.4471,-404.9792 1051,-378 1065.3503,-354.6108 1065.8163,-347.0582 1077,-322 1107.3491,-253.9999 1085.0297,-214.739 1143,-168 1208.5493,-115.1505 1254.4652,-171.1707 1329,-132 1360.437,-115.4788 1372.2644,-108.7501 1386,-76 1389.4379,-67.8029 1391.562,-62.9337 1386,-56 1368.9849,-34.7886 1302.6753,-22.7397 1249.6297,-16.3421"/>
<polygon fill="#191970" stroke="#191970" points="1249.892,-12.8492 1239.5556,-15.1746 1249.0861,-19.8026 1249.892,-12.8492"/>
</g>
<!-- Node25&#45;&gt;Node9 -->
<g id="edge80" class="edge">
<title>Node25&#45;&gt;Node9</title>
<path fill="none" stroke="#191970" d="M636.941,-582.2119C625.1333,-573.1883 607.4393,-559.2291 593,-546 507.4797,-467.6475 509.8157,-420.3292 412,-358 370.3953,-331.4891 351.0028,-344.3054 307,-322 210.8866,-273.2792 108,-291.2567 108,-183.5 108,-183.5 108,-183.5 108,-122 108,-78.5313 234.4552,-40.5456 308.5626,-22.0167"/>
<polygon fill="#191970" stroke="#191970" points="309.7799,-25.3217 318.6535,-19.5328 308.1067,-18.5245 309.7799,-25.3217"/>
</g>
<!-- Node26 -->
<g id="node27" class="node">
<title>Node26</title>
<g id="a_node27"><a xlink:href="api_2event_8h.html" target="_top" xlink:title="ODP event. ">
<polygon fill="#ffffff" stroke="#000000" points="618,-526.5 618,-545.5 710,-545.5 710,-526.5 618,-526.5"/>
<text text-anchor="middle" x="664" y="-533.5" font-family="Helvetica,sans-Serif" font-size="10.00" fill="#000000">odp/api/event.h</text>
</a>
</g>
</g>
<!-- Node25&#45;&gt;Node26 -->
<g id="edge45" class="edge">
<title>Node25&#45;&gt;Node26</title>
<path fill="none" stroke="#191970" d="M652.4386,-582.2455C654.2855,-574.8579 656.8828,-564.4689 659.1478,-555.4087"/>
<polygon fill="#191970" stroke="#191970" points="662.5594,-556.193 661.5893,-545.6427 655.7684,-554.4952 662.5594,-556.193"/>
</g>
<!-- Node33 -->
<g id="node34" class="node">
<title>Node33</title>
<g id="a_node34"><a xlink:href="queue__types_8h.html" target="_top" xlink:title="ODP queue types. ">
<polygon fill="#ffffff" stroke="#000000" points="441.5,-291.5 441.5,-321.5 552.5,-321.5 552.5,-291.5 441.5,-291.5"/>
<text text-anchor="start" x="449.5" y="-309.5" font-family="Helvetica,sans-Serif" font-size="10.00" fill="#000000">odp/api/spec/queue</text>
<text text-anchor="middle" x="497" y="-298.5" font-family="Helvetica,sans-Serif" font-size="10.00" fill="#000000">_types.h</text>
</a>
</g>
</g>
<!-- Node25&#45;&gt;Node33 -->
<g id="edge67" class="edge">
<title>Node25&#45;&gt;Node33</title>
<path fill="none" stroke="#191970" d="M640.0323,-582.4267C631.1523,-573.5476 618.1801,-559.68 609,-546 560.2369,-473.3336 521.9871,-376.0699 505.6363,-331.1472"/>
<polygon fill="#191970" stroke="#191970" points="508.895,-329.8658 502.2194,-321.6386 502.3075,-332.2331 508.895,-329.8658"/>
</g>
<!-- Node26&#45;&gt;Node23 -->
<g id="edge46" class="edge">
<title>Node26&#45;&gt;Node23</title>
<path fill="none" stroke="#191970" d="M659.866,-526.4862C648.2265,-499.6994 615.0103,-423.2565 599.3554,-387.2289"/>
<polygon fill="#191970" stroke="#191970" points="602.4658,-385.6046 595.2704,-377.8279 596.0457,-388.3943 602.4658,-385.6046"/>
</g>
<!-- Node27 -->
<g id="node28" class="node">
<title>Node27</title>
<g id="a_node28"><a xlink:href="api_2spec_2event_8h.html" target="_top" xlink:title="ODP event. ">
<polygon fill="#ffffff" stroke="#000000" points="833,-470.5 833,-489.5 951,-489.5 951,-470.5 833,-470.5"/>
<text text-anchor="middle" x="892" y="-477.5" font-family="Helvetica,sans-Serif" font-size="10.00" fill="#000000">odp/api/spec/event.h</text>
</a>
</g>
</g>
<!-- Node26&#45;&gt;Node27 -->
<g id="edge47" class="edge">
<title>Node26&#45;&gt;Node27</title>
<path fill="none" stroke="#191970" d="M702.9355,-526.4369C741.792,-516.8932 801.593,-502.2052 843.5089,-491.9101"/>
<polygon fill="#191970" stroke="#191970" points="844.3486,-495.308 853.2251,-489.5237 842.6788,-488.51 844.3486,-495.308"/>
</g>
<!-- Node27&#45;&gt;Node4 -->
<g id="edge48" class="edge">
<title>Node27&#45;&gt;Node4</title>
<path fill="none" stroke="#191970" d="M918.9726,-470.4429C938.0829,-462.7224 963.5071,-450.4373 982,-434 1026.7766,-394.2006 1033.7383,-377.2072 1057,-322 1103.9111,-210.6658 1046.3067,-156.7371 1113,-56 1121.748,-42.7865 1135.7062,-32.2498 1148.5378,-24.6126"/>
<polygon fill="#191970" stroke="#191970" points="1150.5601,-27.4925 1157.5915,-19.5672 1147.1525,-21.3779 1150.5601,-27.4925"/>
</g>
<!-- Node27&#45;&gt;Node9 -->
<g id="edge66" class="edge">
<title>Node27&#45;&gt;Node9</title>
<path fill="none" stroke="#191970" d="M886.7499,-470.1514C873.2697,-445.9984 834.8243,-383.9131 783,-358 615.8253,-274.4096 533.7488,-400.2307 364,-322 247.3448,-268.2381 178.8674,-162.281 251,-56 261.7399,-40.1757 279.0552,-29.782 296.8008,-22.9601"/>
<polygon fill="#191970" stroke="#191970" points="298.3716,-26.1193 306.6647,-19.5258 296.0699,-19.5085 298.3716,-26.1193"/>
</g>
<!-- Node27&#45;&gt;Node28 -->
<g id="edge49" class="edge">
<title>Node27&#45;&gt;Node28</title>
<path fill="none" stroke="#191970" d="M897.574,-470.2455C901.9331,-462.617 908.1211,-451.7881 913.4133,-442.5267"/>
<polygon fill="#191970" stroke="#191970" points="916.5673,-444.0616 918.4899,-433.6427 910.4896,-440.5886 916.5673,-444.0616"/>
</g>
<!-- Node28&#45;&gt;Node1 -->
<g id="edge50" class="edge">
<title>Node28&#45;&gt;Node1</title>
<path fill="none" stroke="#191970" d="M940.0218,-414.3762C989.1368,-384.8742 1137.8473,-295.5481 1197.1739,-259.9123"/>
<polygon fill="#191970" stroke="#191970" points="1199.1288,-262.821 1205.899,-254.6714 1195.5244,-256.8203 1199.1288,-262.821"/>
</g>
<!-- Node28&#45;&gt;Node10 -->
<g id="edge56" class="edge">
<title>Node28&#45;&gt;Node10</title>
<path fill="none" stroke="#191970" d="M973.1049,-415.6162C1030.8323,-405.7603 1126.7278,-389.3879 1189.6542,-378.6444"/>
<polygon fill="#191970" stroke="#191970" points="1190.5765,-382.0377 1199.8448,-376.9045 1189.3983,-375.1375 1190.5765,-382.0377"/>
</g>
<!-- Node28&#45;&gt;Node12 -->
<g id="edge53" class="edge">
<title>Node28&#45;&gt;Node12</title>
<path fill="none" stroke="#191970" d="M973.1726,-418.4258C1061.8871,-408.3691 1248.8606,-387.1737 1349.8471,-375.7258"/>
<polygon fill="#191970" stroke="#191970" points="1350.398,-379.1859 1359.9401,-374.5817 1349.6095,-372.2304 1350.398,-379.1859"/>
</g>
<!-- Node28&#45;&gt;Node13 -->
<g id="edge52" class="edge">
<title>Node28&#45;&gt;Node13</title>
<path fill="none" stroke="#191970" d="M874.9927,-420.5392C740.923,-411.0715 367.3983,-384.694 206.4116,-373.3254"/>
<polygon fill="#191970" stroke="#191970" points="206.3416,-369.8118 196.1198,-372.5986 205.8484,-376.7944 206.3416,-369.8118"/>
</g>
<!-- Node28&#45;&gt;Node14 -->
<g id="edge54" class="edge">
<title>Node28&#45;&gt;Node14</title>
<path fill="none" stroke="#191970" d="M874.8053,-419.2255C771.3684,-409.1865 531.2452,-385.8817 413.9275,-374.4956"/>
<polygon fill="#191970" stroke="#191970" points="413.9393,-370.9803 403.6479,-373.4979 413.263,-377.9476 413.9393,-370.9803"/>
</g>
<!-- Node28&#45;&gt;Node23 -->
<g id="edge51" class="edge">
<title>Node28&#45;&gt;Node23</title>
<path fill="none" stroke="#191970" d="M874.8647,-415.737C816.9059,-405.9902 720.3422,-389.7512 656.1755,-378.9604"/>
<polygon fill="#191970" stroke="#191970" points="656.6082,-375.4841 646.1662,-377.2772 655.4473,-382.3872 656.6082,-375.4841"/>
</g>
<!-- Node28&#45;&gt;Node24 -->
<g id="edge55" class="edge">
<title>Node28&#45;&gt;Node24</title>
<path fill="none" stroke="#191970" d="M888.7592,-414.3733C854.0806,-404.9001 801.0117,-390.4032 763.4538,-380.1435"/>
<polygon fill="#191970" stroke="#191970" points="764.3498,-376.7601 753.7809,-377.5011 762.5051,-383.5126 764.3498,-376.7601"/>
</g>
<!-- Node29 -->
<g id="node30" class="node">
<title>Node29</title>
<g id="a_node30"><a xlink:href="api_2spec_2packet_8h.html" target="_top" xlink:title="ODP packet descriptor. ">
<polygon fill="#ffffff" stroke="#000000" points="868.5,-358.5 868.5,-377.5 991.5,-377.5 991.5,-358.5 868.5,-358.5"/>
<text text-anchor="middle" x="930" y="-365.5" font-family="Helvetica,sans-Serif" font-size="10.00" fill="#000000">odp/api/spec/packet.h</text>
</a>
</g>
</g>
<!-- Node28&#45;&gt;Node29 -->
<g id="edge57" class="edge">
<title>Node28&#45;&gt;Node29</title>
<path fill="none" stroke="#191970" d="M925.0451,-414.2455C925.828,-406.9382 926.9256,-396.6944 927.8888,-387.7046"/>
<polygon fill="#191970" stroke="#191970" points="931.3815,-387.9587 928.9669,-377.6427 924.4214,-387.2129 931.3815,-387.9587"/>
</g>
<!-- Node29&#45;&gt;Node4 -->
<g id="edge58" class="edge">
<title>Node29&#45;&gt;Node4</title>
<path fill="none" stroke="#191970" d="M927.2763,-358.209C921.0573,-333.4759 908.8505,-268.1033 943,-235 1029.6721,-150.9833 1402.5222,-287.1378 1485,-199 1513.97,-168.042 1528.6667,-121.2617 1459,-56 1429.4701,-28.3373 1322.5429,-17.2351 1249.7085,-12.8306"/>
<polygon fill="#191970" stroke="#191970" points="1249.8538,-9.3332 1239.6691,-12.2525 1249.4513,-16.3217 1249.8538,-9.3332"/>
</g>
<!-- Node29&#45;&gt;Node9 -->
<g id="edge65" class="edge">
<title>Node29&#45;&gt;Node9</title>
<path fill="none" stroke="#191970" d="M868.2266,-359.6318C863.4159,-359.0535 858.6307,-358.5019 854,-358 760.4296,-347.8583 518.8982,-358.152 432,-322 325.7234,-277.786 281.4329,-244.262 256,-132 251.8928,-113.8707 251.9589,-66.2848 259,-56 269.7406,-40.3113 287.178,-29.8951 304.6215,-23.0129"/>
<polygon fill="#191970" stroke="#191970" points="306.0454,-26.2204 314.2704,-19.5421 303.676,-19.6336 306.0454,-26.2204"/>
</g>
<!-- Node29&#45;&gt;Node30 -->
<g id="edge59" class="edge">
<title>Node29&#45;&gt;Node30</title>
<path fill="none" stroke="#191970" d="M941.7188,-358.3906C953.3188,-348.8786 971.2979,-334.1357 985.1321,-322.7917"/>
<polygon fill="#191970" stroke="#191970" points="987.6026,-325.2921 993.116,-316.2449 983.164,-319.8792 987.6026,-325.2921"/>
</g>
<!-- Node30&#45;&gt;Node1 -->
<g id="edge60" class="edge">
<title>Node30&#45;&gt;Node1</title>
<path fill="none" stroke="#191970" d="M1038.9063,-296.8906C1076.5679,-286.2169 1137.4702,-268.9566 1178.5885,-257.3033"/>
<polygon fill="#191970" stroke="#191970" points="1179.6651,-260.6361 1188.3318,-254.5419 1177.7564,-253.9013 1179.6651,-260.6361"/>
</g>
<!-- Node31 -->
<g id="node32" class="node">
<title>Node31</title>
<polygon fill="#ffffff" stroke="#bfbfbf" points="952.5,-235.5 952.5,-254.5 1057.5,-254.5 1057.5,-235.5 952.5,-235.5"/>
<text text-anchor="middle" x="1005" y="-242.5" font-family="Helvetica,sans-Serif" font-size="10.00" fill="#000000">odp/api/abi/time.h</text>
</g>
<!-- Node30&#45;&gt;Node31 -->
<g id="edge61" class="edge">
<title>Node30&#45;&gt;Node31</title>
<path fill="none" stroke="#191970" d="M1005,-296.8906C1005,-288.3657 1005,-275.6392 1005,-264.9235"/>
<polygon fill="#191970" stroke="#191970" points="1008.5001,-264.7448 1005,-254.7449 1001.5001,-264.7449 1008.5001,-264.7448"/>
</g>
<!-- Node32 -->
<g id="node33" class="node">
<title>Node32</title>
<g id="a_node33"><a xlink:href="api_2spec_2time_8h.html" target="_top" xlink:title="ODP time. ">
<polygon fill="#ffffff" stroke="#000000" points="674.5,-56.5 674.5,-75.5 787.5,-75.5 787.5,-56.5 674.5,-56.5"/>
<text text-anchor="middle" x="731" y="-63.5" font-family="Helvetica,sans-Serif" font-size="10.00" fill="#000000">odp/api/spec/time.h</text>
</a>
</g>
</g>
<!-- Node30&#45;&gt;Node32 -->
<g id="edge62" class="edge">
<title>Node30&#45;&gt;Node32</title>
<path fill="none" stroke="#191970" d="M979.9775,-296.9944C938.7092,-280.6452 854.7982,-244.5254 793,-199 759.5969,-174.3927 743.5861,-170.4494 728,-132 722.0751,-117.3838 723.3803,-99.4284 725.8581,-85.9375"/>
<polygon fill="#191970" stroke="#191970" points="729.3521,-86.345 728.0823,-75.8265 722.5156,-84.841 729.3521,-86.345"/>
</g>
<!-- Node32&#45;&gt;Node4 -->
<g id="edge63" class="edge">
<title>Node32&#45;&gt;Node4</title>
<path fill="none" stroke="#191970" d="M787.5684,-57.9364C792.4481,-57.2701 797.3101,-56.6163 802,-56 908.4567,-42.0096 1032.0213,-27.2052 1107.8548,-18.2832"/>
<polygon fill="#191970" stroke="#191970" points="1108.7085,-21.707 1118.2317,-17.064 1107.8916,-14.7548 1108.7085,-21.707"/>
</g>
<!-- Node32&#45;&gt;Node9 -->
<g id="edge64" class="edge">
<title>Node32&#45;&gt;Node9</title>
<path fill="none" stroke="#191970" d="M674.4022,-57.4338C607.9315,-47.3734 497.8214,-30.7081 427.3829,-20.0471"/>
<polygon fill="#191970" stroke="#191970" points="427.6993,-16.5553 417.2882,-18.5193 426.6518,-23.4764 427.6993,-16.5553"/>
</g>
<!-- Node33&#45;&gt;Node4 -->
<g id="edge68" class="edge">
<title>Node33&#45;&gt;Node4</title>
<path fill="none" stroke="#191970" d="M522.6913,-291.3585C538.5383,-281.6325 559.0111,-268.3576 576,-255 648.914,-197.671 647.3512,-157.813 728,-112 778.6407,-83.2333 798.4977,-93.6491 854,-76 879.5851,-67.8642 885.012,-62.7389 911,-56 976.8976,-38.9122 1053.594,-26.4793 1108.0131,-18.8792"/>
<polygon fill="#191970" stroke="#191970" points="1108.8193,-22.3013 1118.2484,-17.47 1107.8645,-15.3667 1108.8193,-22.3013"/>
</g>
<!-- Node33&#45;&gt;Node9 -->
<g id="edge79" class="edge">
<title>Node33&#45;&gt;Node9</title>
<path fill="none" stroke="#191970" d="M455.7159,-291.4106C415.1686,-274.6353 354.1415,-243.8575 317,-199 274.5078,-147.6802 237.3518,-112.9106 272,-56 281.3,-40.7246 297.4866,-30.2991 313.5276,-23.2919"/>
<polygon fill="#191970" stroke="#191970" points="314.9122,-26.5078 322.9024,-19.5503 312.3174,-20.0065 314.9122,-26.5078"/>
</g>
<!-- Node33&#45;&gt;Node18 -->
<g id="edge78" class="edge">
<title>Node33&#45;&gt;Node18</title>
<path fill="none" stroke="#191970" d="M552.8136,-293.9309C582.285,-285.7116 618.2069,-273.09 647,-255 693.0374,-226.0758 691.6687,-203.3239 733,-168 745.8903,-156.9832 761.2977,-145.8534 773.7648,-137.3014"/>
<polygon fill="#191970" stroke="#191970" points="775.9209,-140.0686 782.2451,-131.5683 772.0004,-134.2694 775.9209,-140.0686"/>
</g>
<!-- Node34 -->
<g id="node35" class="node">
<title>Node34</title>
<g id="a_node35"><a xlink:href="api_2schedule__types_8h.html" target="_top" xlink:title="ODP schedule. ">
<polygon fill="#ffffff" stroke="#000000" points="427,-235.5 427,-254.5 567,-254.5 567,-235.5 427,-235.5"/>
<text text-anchor="middle" x="497" y="-242.5" font-family="Helvetica,sans-Serif" font-size="10.00" fill="#000000">odp/api/schedule_types.h</text>
</a>
</g>
</g>
<!-- Node33&#45;&gt;Node34 -->
<g id="edge69" class="edge">
<title>Node33&#45;&gt;Node34</title>
<path fill="none" stroke="#191970" d="M497,-291.2977C497,-283.3834 497,-273.6043 497,-265.0759"/>
<polygon fill="#191970" stroke="#191970" points="500.5001,-264.8469 497,-254.8469 493.5001,-264.847 500.5001,-264.8469"/>
</g>
<!-- Node35 -->
<g id="node36" class="node">
<title>Node35</title>
<polygon fill="#ffffff" stroke="#bfbfbf" points="326.5,-168.5 326.5,-198.5 443.5,-198.5 443.5,-168.5 326.5,-168.5"/>
<text text-anchor="start" x="334.5" y="-186.5" font-family="Helvetica,sans-Serif" font-size="10.00" fill="#000000">odp/api/abi/schedule</text>
<text text-anchor="middle" x="385" y="-175.5" font-family="Helvetica,sans-Serif" font-size="10.00" fill="#000000">_types.h</text>
</g>
<!-- Node34&#45;&gt;Node35 -->
<g id="edge70" class="edge">
<title>Node34&#45;&gt;Node35</title>
<path fill="none" stroke="#191970" d="M479.5,-235.3906C463.9913,-226.8747 440.847,-214.166 421.3451,-203.4573"/>
<polygon fill="#191970" stroke="#191970" points="422.8484,-200.2899 412.3983,-198.5446 419.4791,-206.4257 422.8484,-200.2899"/>
</g>
<!-- Node36 -->
<g id="node37" class="node">
<title>Node36</title>
<g id="a_node37"><a xlink:href="api_2spec_2schedule__types_8h.html" target="_top" xlink:title="ODP schedule types. ">
<polygon fill="#ffffff" stroke="#000000" points="461.5,-168.5 461.5,-198.5 586.5,-198.5 586.5,-168.5 461.5,-168.5"/>
<text text-anchor="start" x="469.5" y="-186.5" font-family="Helvetica,sans-Serif" font-size="10.00" fill="#000000">odp/api/spec/schedule</text>
<text text-anchor="middle" x="524" y="-175.5" font-family="Helvetica,sans-Serif" font-size="10.00" fill="#000000">_types.h</text>
</a>
</g>
</g>
<!-- Node34&#45;&gt;Node36 -->
<g id="edge71" class="edge">
<title>Node34&#45;&gt;Node36</title>
<path fill="none" stroke="#191970" d="M501.2188,-235.3906C504.4669,-227.9922 509.1043,-217.4291 513.3483,-207.7623"/>
<polygon fill="#191970" stroke="#191970" points="516.5799,-209.108 517.3951,-198.5446 510.1703,-206.2941 516.5799,-209.108"/>
</g>
<!-- Node36&#45;&gt;Node4 -->
<g id="edge72" class="edge">
<title>Node36&#45;&gt;Node4</title>
<path fill="none" stroke="#191970" d="M557.356,-168.3957C591.5424,-153.1905 646.4235,-129.5393 695,-112 775.0011,-83.1143 795.0745,-74.9191 878,-56 955.9923,-38.2064 1046.9544,-25.3757 1108.3012,-17.8581"/>
<polygon fill="#191970" stroke="#191970" points="1108.7571,-21.3285 1118.264,-16.652 1107.9158,-14.3792 1108.7571,-21.3285"/>
</g>
<!-- Node36&#45;&gt;Node9 -->
<g id="edge77" class="edge">
<title>Node36&#45;&gt;Node9</title>
<path fill="none" stroke="#191970" d="M473.1709,-168.4185C408.1628,-147.9827 301.2912,-110.1234 279,-76 264.2485,-53.4184 293.765,-34.9365 321.4074,-23.3333"/>
<polygon fill="#191970" stroke="#191970" points="323.0232,-26.4579 331.031,-19.5206 320.4449,-19.95 323.0232,-26.4579"/>
</g>
<!-- Node36&#45;&gt;Node37 -->
<g id="edge73" class="edge">
<title>Node36&#45;&gt;Node37</title>
<path fill="none" stroke="#191970" d="M522.0225,-168.2977C520.9814,-160.2945 519.6923,-150.3843 518.5742,-141.7889"/>
<polygon fill="#191970" stroke="#191970" points="522.0417,-141.3119 517.2809,-131.8469 515.1002,-142.2149 522.0417,-141.3119"/>
</g>
<!-- Node38 -->
<g id="node39" class="node">
<title>Node38</title>
<g id="a_node39"><a xlink:href="spec_2support_8h.html" target="_top" xlink:title="ODP support API. ">
<polygon fill="#ffffff" stroke="#000000" points="452.5,-56.5 452.5,-75.5 579.5,-75.5 579.5,-56.5 452.5,-56.5"/>
<text text-anchor="middle" x="516" y="-63.5" font-family="Helvetica,sans-Serif" font-size="10.00" fill="#000000">odp/api/spec/support.h</text>
</a>
</g>
</g>
<!-- Node37&#45;&gt;Node38 -->
<g id="edge74" class="edge">
<title>Node37&#45;&gt;Node38</title>
<path fill="none" stroke="#191970" d="M516,-112.2455C516,-104.9382 516,-94.6944 516,-85.7046"/>
<polygon fill="#191970" stroke="#191970" points="519.5001,-85.6426 516,-75.6427 512.5001,-85.6427 519.5001,-85.6426"/>
</g>
<!-- Node38&#45;&gt;Node4 -->
<g id="edge75" class="edge">
<title>Node38&#45;&gt;Node4</title>
<path fill="none" stroke="#191970" d="M579.5712,-60.6305C703.7451,-50.1422 977.7258,-27.0005 1107.7857,-16.0151"/>
<polygon fill="#191970" stroke="#191970" points="1108.3599,-19.4791 1118.0298,-15.1498 1107.7707,-12.504 1108.3599,-19.4791"/>
</g>
<!-- Node38&#45;&gt;Node9 -->
<g id="edge76" class="edge">
<title>Node38&#45;&gt;Node9</title>
<path fill="none" stroke="#191970" d="M489.3546,-56.3733C463.8036,-47.1419 425.0488,-33.1402 396.8091,-22.9375"/>
<polygon fill="#191970" stroke="#191970" points="397.8921,-19.6074 387.2978,-19.5011 395.5135,-26.1909 397.8921,-19.6074"/>
</g>
<!-- Node40 -->
<g id="node41" class="node">
<title>Node40</title>
<g id="a_node41"><a xlink:href="spec_2reassembly_8h.html" target="_top" xlink:title="ODP REASSEMBLY API. ">
<polygon fill="#ffffff" stroke="#000000" points="288,-56.5 288,-75.5 434,-75.5 434,-56.5 288,-56.5"/>
<text text-anchor="middle" x="361" y="-63.5" font-family="Helvetica,sans-Serif" font-size="10.00" fill="#000000">odp/api/spec/reassembly.h</text>
</a>
</g>
</g>
<!-- Node39&#45;&gt;Node40 -->
<g id="edge82" class="edge">
<title>Node39&#45;&gt;Node40</title>
<path fill="none" stroke="#191970" d="M310.0744,-582.2427C304.2257,-552.0462 286.7197,-457.3802 281,-378 275.034,-295.2014 308.9698,-194.2143 317,-168 326.2297,-137.8702 341.602,-104.6494 351.5159,-84.5574"/>
<polygon fill="#191970" stroke="#191970" points="354.6654,-86.0845 356.0173,-75.5763 348.4075,-82.9479 354.6654,-86.0845"/>
</g>
<!-- Node40&#45;&gt;Node4 -->
<g id="edge83" class="edge">
<title>Node40&#45;&gt;Node4</title>
<path fill="none" stroke="#191970" d="M434.2946,-56.8446C437.2334,-56.5463 440.1438,-56.2632 443,-56 686.5964,-33.5538 976.5802,-18.9884 1107.9988,-13.0442"/>
<polygon fill="#191970" stroke="#191970" points="1108.49,-16.5257 1118.3228,-12.5802 1108.1757,-9.5328 1108.49,-16.5257"/>
</g>
<!-- Node40&#45;&gt;Node9 -->
<g id="edge84" class="edge">
<title>Node40&#45;&gt;Node9</title>
<path fill="none" stroke="#191970" d="M361,-56.2455C361,-48.9382 361,-38.6944 361,-29.7046"/>
<polygon fill="#191970" stroke="#191970" points="364.5001,-29.6426 361,-19.6427 357.5001,-29.6427 364.5001,-29.6426"/>
</g>
<!-- Node42 -->
<g id="node43" class="node">
<title>Node42</title>
<g id="a_node43"><a xlink:href="spec_2threshold_8h.html" target="_top" xlink:title="ODP threshold descriptor. ">
<polygon fill="#ffffff" stroke="#000000" points="1416,-297 1416,-316 1552,-316 1552,-297 1416,-297"/>
<text text-anchor="middle" x="1484" y="-304" font-family="Helvetica,sans-Serif" font-size="10.00" fill="#000000">odp/api/spec/threshold.h</text>
</a>
</g>
</g>
<!-- Node41&#45;&gt;Node42 -->
<g id="edge90" class="edge">
<title>Node41&#45;&gt;Node42</title>
<path fill="none" stroke="#191970" d="M1400.1374,-752.5741C1458.417,-741.2623 1542,-713.6034 1542,-648 1542,-648 1542,-648 1542,-424 1542,-385.2109 1516.2702,-345.9674 1499.085,-324.0823"/>
<polygon fill="#191970" stroke="#191970" points="1501.5881,-321.6133 1492.5581,-316.0716 1496.1613,-326.0349 1501.5881,-321.6133"/>
</g>
<!-- Node42&#45;&gt;Node1 -->
<g id="edge92" class="edge">
<title>Node42&#45;&gt;Node1</title>
<path fill="none" stroke="#191970" d="M1443.35,-296.9581C1397.3618,-286.1632 1322.4095,-268.5694 1272.6527,-256.8899"/>
<polygon fill="#191970" stroke="#191970" points="1273.2806,-253.4422 1262.7454,-254.5643 1271.6809,-260.257 1273.2806,-253.4422"/>
</g>
<!-- Node42&#45;&gt;Node4 -->
<g id="edge91" class="edge">
<title>Node42&#45;&gt;Node4</title>
<path fill="none" stroke="#191970" d="M1492.31,-296.7189C1508.3475,-276.8065 1542,-229.5379 1542,-183.5 1542,-183.5 1542,-183.5 1542,-122 1542,-90.7875 1542.3005,-75.5885 1518,-56 1497.5257,-39.4957 1343.1222,-23.8106 1249.904,-15.7108"/>
<polygon fill="#191970" stroke="#191970" points="1249.9519,-12.202 1239.6887,-14.8322 1249.352,-19.1763 1249.9519,-12.202"/>
</g>
<!-- Node42&#45;&gt;Node9 -->
<g id="edge93" class="edge">
<title>Node42&#45;&gt;Node9</title>
<path fill="none" stroke="#191970" d="M1469.349,-296.7179C1441.7222,-278.1747 1380.1945,-236.4119 1330,-199 1312.2467,-185.7678 1311.3179,-176.8009 1291,-168 1258.7447,-154.0282 698.5826,-86.384 665,-76 645.6302,-70.0107 643.2865,-62.2525 624,-56 558.7573,-34.849 481.0739,-22.7809 427.1261,-16.3619"/>
<polygon fill="#191970" stroke="#191970" points="427.337,-12.8631 417.0009,-15.1903 426.5323,-19.8167 427.337,-12.8631"/>
</g>
</g>
</svg>
