<?xml version="1.0" encoding="UTF-8" standalone="no"?>
<!DOCTYPE svg PUBLIC "-//W3C//DTD SVG 1.1//EN"
 "http://www.w3.org/Graphics/SVG/1.1/DTD/svg11.dtd">
<!-- Generated by graphviz version 2.40.1 (20161225.0304)
 -->
<!-- Title: packet_io.h Pages: 1 -->
<svg width="1696pt" height="722pt"
 viewBox="0.00 0.00 1696.11 722.00" xmlns="http://www.w3.org/2000/svg" xmlns:xlink="http://www.w3.org/1999/xlink">
<g id="graph0" class="graph" transform="scale(1 1) rotate(0) translate(4 718)">
<title>packet_io.h</title>
<polygon fill="#ffffff" stroke="transparent" points="-4,4 -4,-718 1692.1064,-718 1692.1064,4 -4,4"/>
<!-- Node0 -->
<g id="node1" class="node">
<title>Node0</title>
<polygon fill="#bfbfbf" stroke="#000000" points="667.6064,-694.5 667.6064,-713.5 740.6064,-713.5 740.6064,-694.5 667.6064,-694.5"/>
<text text-anchor="middle" x="704.1064" y="-701.5" font-family="Helvetica,sans-Serif" font-size="10.00" fill="#000000">packet_io.h</text>
</g>
<!-- Node1 -->
<g id="node2" class="node">
<title>Node1</title>
<g id="a_node2"><a xlink:href="visibility__begin_8h_source.html" target="_top" xlink:title="odp/visibility_begin.h">
<polygon fill="#ffffff" stroke="#000000" points="925.6064,-.5 925.6064,-19.5 1046.6064,-19.5 1046.6064,-.5 925.6064,-.5"/>
<text text-anchor="middle" x="986.1064" y="-7.5" font-family="Helvetica,sans-Serif" font-size="10.00" fill="#000000">odp/visibility_begin.h</text>
</a>
</g>
</g>
<!-- Node0&#45;&gt;Node1 -->
<g id="edge1" class="edge">
<title>Node0&#45;&gt;Node1</title>
<path fill="none" stroke="#191970" d="M740.8844,-703.754C919.5206,-702.0847 1688.1064,-689.2515 1688.1064,-592 1688.1064,-592 1688.1064,-592 1688.1064,-122 1688.1064,-58.5538 1235.1636,-24.7701 1056.9346,-13.9324"/>
<polygon fill="#191970" stroke="#191970" points="1057.0629,-10.4339 1046.8708,-13.3272 1056.6426,-17.4213 1057.0629,-10.4339"/>
</g>
<!-- Node2 -->
<g id="node3" class="node">
<title>Node2</title>
<g id="a_node3"><a xlink:href="deprecated_8h.html" target="_top" xlink:title="Control deprecated API definitions. ">
<polygon fill="#ffffff" stroke="#000000" points="212.6064,-112.5 212.6064,-131.5 331.6064,-131.5 331.6064,-112.5 212.6064,-112.5"/>
<text text-anchor="middle" x="272.1064" y="-119.5" font-family="Helvetica,sans-Serif" font-size="10.00" fill="#000000">odp/api/deprecated.h</text>
</a>
</g>
</g>
<!-- Node0&#45;&gt;Node2 -->
<g id="edge2" class="edge">
<title>Node0&#45;&gt;Node2</title>
<path fill="none" stroke="#191970" d="M667.5994,-699.7542C552.0806,-685.8323 202.1064,-639.7173 202.1064,-592 202.1064,-592 202.1064,-592 202.1064,-306.5 202.1064,-241.9215 240.0589,-172.4129 260.0729,-140.2476"/>
<polygon fill="#191970" stroke="#191970" points="263.2188,-141.824 265.6464,-131.511 257.3174,-138.0592 263.2188,-141.824"/>
</g>
<!-- Node4 -->
<g id="node5" class="node">
<title>Node4</title>
<g id="a_node5"><a xlink:href="visibility__end_8h_source.html" target="_top" xlink:title="odp/visibility_end.h">
<polygon fill="#ffffff" stroke="#000000" points="172.1064,-.5 172.1064,-19.5 284.1064,-19.5 284.1064,-.5 172.1064,-.5"/>
<text text-anchor="middle" x="228.1064" y="-7.5" font-family="Helvetica,sans-Serif" font-size="10.00" fill="#000000">odp/visibility_end.h</text>
</a>
</g>
</g>
<!-- Node0&#45;&gt;Node4 -->
<g id="edge71" class="edge">
<title>Node0&#45;&gt;Node4</title>
<path fill="none" stroke="#191970" d="M667.4031,-703.8517C533.2359,-702.9959 74.5207,-697.2038 23.1064,-658 -1.5953,-639.1648 .1064,-623.0635 .1064,-592 .1064,-592 .1064,-592 .1064,-122 .1064,-79.2408 32.9917,-77.2332 70.1064,-56 98.4013,-39.8125 132.8614,-28.9166 162.3699,-21.8111"/>
<polygon fill="#191970" stroke="#191970" points="163.217,-25.2076 172.1713,-19.5445 161.6398,-18.3876 163.217,-25.2076"/>
</g>
<!-- Node5 -->
<g id="node6" class="node">
<title>Node5</title>
<g id="a_node6"><a xlink:href="packet__io__stats_8h.html" target="_top" xlink:title="ODP packet IO stats. ">
<polygon fill="#ffffff" stroke="#000000" points="32.6064,-638.5 32.6064,-657.5 173.6064,-657.5 173.6064,-638.5 32.6064,-638.5"/>
<text text-anchor="middle" x="103.1064" y="-645.5" font-family="Helvetica,sans-Serif" font-size="10.00" fill="#000000">odp/api/packet_io_stats.h</text>
</a>
</g>
</g>
<!-- Node0&#45;&gt;Node5 -->
<g id="edge6" class="edge">
<title>Node0&#45;&gt;Node5</title>
<path fill="none" stroke="#191970" d="M667.4729,-701.0913C582.9346,-694.3009 367.701,-676.5658 188.1064,-658 186.8177,-657.8668 185.5183,-657.731 184.2102,-657.5931"/>
<polygon fill="#191970" stroke="#191970" points="184.3686,-654.09 174.051,-656.498 183.6183,-661.0497 184.3686,-654.09"/>
</g>
<!-- Node7 -->
<g id="node8" class="node">
<title>Node7</title>
<g id="a_node8"><a xlink:href="api_2queue_8h.html" target="_top" xlink:title="ODP queue. ">
<polygon fill="#ffffff" stroke="#000000" points="767.6064,-638.5 767.6064,-657.5 862.6064,-657.5 862.6064,-638.5 767.6064,-638.5"/>
<text text-anchor="middle" x="815.1064" y="-645.5" font-family="Helvetica,sans-Serif" font-size="10.00" fill="#000000">odp/api/queue.h</text>
</a>
</g>
</g>
<!-- Node0&#45;&gt;Node7 -->
<g id="edge11" class="edge">
<title>Node0&#45;&gt;Node7</title>
<path fill="none" stroke="#191970" d="M723.1879,-694.3733C740.8465,-685.4644 767.3116,-672.1127 787.3161,-662.0203"/>
<polygon fill="#191970" stroke="#191970" points="788.9222,-665.1303 796.2738,-657.5011 785.7691,-658.8806 788.9222,-665.1303"/>
</g>
<!-- Node22 -->
<g id="node23" class="node">
<title>Node22</title>
<g id="a_node23"><a xlink:href="api_2packet_8h.html" target="_top" xlink:title="ODP packet descriptor. ">
<polygon fill="#ffffff" stroke="#000000" points="1104.1064,-414.5 1104.1064,-433.5 1202.1064,-433.5 1202.1064,-414.5 1104.1064,-414.5"/>
<text text-anchor="middle" x="1153.1064" y="-421.5" font-family="Helvetica,sans-Serif" font-size="10.00" fill="#000000">odp/api/packet.h</text>
</a>
</g>
</g>
<!-- Node0&#45;&gt;Node22 -->
<g id="edge70" class="edge">
<title>Node0&#45;&gt;Node22</title>
<path fill="none" stroke="#191970" d="M740.8266,-698.594C776.0203,-692.3633 829.8783,-680.0286 872.1064,-658 987.3819,-597.8656 1098.0572,-484.1855 1137.7158,-441.1194"/>
<polygon fill="#191970" stroke="#191970" points="1140.3256,-443.4518 1144.481,-433.7059 1135.1549,-438.7334 1140.3256,-443.4518"/>
</g>
<!-- Node26 -->
<g id="node27" class="node">
<title>Node26</title>
<g id="a_node27"><a xlink:href="api_2time_8h.html" target="_top" xlink:title="ODP time. ">
<polygon fill="#ffffff" stroke="#000000" points="1277.6064,-297 1277.6064,-316 1364.6064,-316 1364.6064,-297 1277.6064,-297"/>
<text text-anchor="middle" x="1321.1064" y="-304" font-family="Helvetica,sans-Serif" font-size="10.00" fill="#000000">odp/api/time.h</text>
</a>
</g>
</g>
<!-- Node0&#45;&gt;Node26 -->
<g id="edge69" class="edge">
<title>Node0&#45;&gt;Node26</title>
<path fill="none" stroke="#191970" d="M740.8256,-703.4011C910.698,-700.1553 1612.1064,-681.3439 1612.1064,-592 1612.1064,-592 1612.1064,-592 1612.1064,-424 1612.1064,-393.4754 1615.6723,-378.5555 1593.1064,-358 1561.8457,-329.5243 1445.0463,-315.8627 1375.0718,-310.1038"/>
<polygon fill="#191970" stroke="#191970" points="1374.9293,-306.5815 1364.6835,-309.2784 1374.3748,-313.5595 1374.9293,-306.5815"/>
</g>
<!-- Node35 -->
<g id="node36" class="node">
<title>Node35</title>
<g id="a_node36"><a xlink:href="reassembly_8h.html" target="_top" xlink:title="ODP REASSEMBLY API &#45; platform specific header. ">
<polygon fill="#ffffff" stroke="#000000" points="291.1064,-582.5 291.1064,-601.5 411.1064,-601.5 411.1064,-582.5 291.1064,-582.5"/>
<text text-anchor="middle" x="351.1064" y="-589.5" font-family="Helvetica,sans-Serif" font-size="10.00" fill="#000000">odp/api/reassembly.h</text>
</a>
</g>
</g>
<!-- Node0&#45;&gt;Node35 -->
<g id="edge65" class="edge">
<title>Node0&#45;&gt;Node35</title>
<path fill="none" stroke="#191970" d="M674.0098,-694.4509C610.4443,-674.2829 462.5032,-627.3441 391.0889,-604.6857"/>
<polygon fill="#191970" stroke="#191970" points="391.717,-601.2131 381.1268,-601.5249 389.6,-607.8853 391.717,-601.2131"/>
</g>
<!-- Node3 -->
<g id="node4" class="node">
<title>Node3</title>
<g id="a_node4"><a xlink:href="spec_2deprecated_8h.html" target="_top" xlink:title="Macro for deprecated API definitions. ">
<polygon fill="#ffffff" stroke="#000000" points="256.6064,-56.5 256.6064,-75.5 401.6064,-75.5 401.6064,-56.5 256.6064,-56.5"/>
<text text-anchor="middle" x="329.1064" y="-63.5" font-family="Helvetica,sans-Serif" font-size="10.00" fill="#000000">odp/api/spec/deprecated.h</text>
</a>
</g>
</g>
<!-- Node2&#45;&gt;Node3 -->
<g id="edge3" class="edge">
<title>Node2&#45;&gt;Node3</title>
<path fill="none" stroke="#191970" d="M282.035,-112.2455C290.2901,-104.1352 302.2273,-92.4075 312.0146,-82.7919"/>
<polygon fill="#191970" stroke="#191970" points="314.611,-85.1476 319.2915,-75.6427 309.7052,-80.1542 314.611,-85.1476"/>
</g>
<!-- Node3&#45;&gt;Node1 -->
<g id="edge4" class="edge">
<title>Node3&#45;&gt;Node1</title>
<path fill="none" stroke="#191970" d="M401.6114,-59.82C528.5281,-49.0021 789.3875,-26.7675 915.1823,-16.0453"/>
<polygon fill="#191970" stroke="#191970" points="915.7987,-19.5055 925.4653,-15.1688 915.2041,-12.5308 915.7987,-19.5055"/>
</g>
<!-- Node3&#45;&gt;Node4 -->
<g id="edge5" class="edge">
<title>Node3&#45;&gt;Node4</title>
<path fill="none" stroke="#191970" d="M311.5135,-56.2455C295.7273,-47.4928 272.3425,-34.527 254.3476,-24.5496"/>
<polygon fill="#191970" stroke="#191970" points="255.9405,-21.4308 245.4976,-19.6427 252.5461,-27.5528 255.9405,-21.4308"/>
</g>
<!-- Node6 -->
<g id="node7" class="node">
<title>Node6</title>
<g id="a_node7"><a xlink:href="spec_2packet__io__stats_8h.html" target="_top" xlink:title="ODP Packet IO statistics. ">
<polygon fill="#ffffff" stroke="#000000" points="66.1064,-168.5 66.1064,-198.5 180.1064,-198.5 180.1064,-168.5 66.1064,-168.5"/>
<text text-anchor="start" x="74.1064" y="-186.5" font-family="Helvetica,sans-Serif" font-size="10.00" fill="#000000">odp/api/spec/packet</text>
<text text-anchor="middle" x="123.1064" y="-175.5" font-family="Helvetica,sans-Serif" font-size="10.00" fill="#000000">_io_stats.h</text>
</a>
</g>
</g>
<!-- Node5&#45;&gt;Node6 -->
<g id="edge7" class="edge">
<title>Node5&#45;&gt;Node6</title>
<path fill="none" stroke="#191970" d="M105.542,-638.4856C110.2427,-619.2608 120.1064,-574.351 120.1064,-536 120.1064,-536 120.1064,-536 120.1064,-306.5 120.1064,-272.6352 121.2569,-233.5414 122.133,-208.6832"/>
<polygon fill="#191970" stroke="#191970" points="125.6322,-208.7668 122.4993,-198.6457 118.6368,-208.5114 125.6322,-208.7668"/>
</g>
<!-- Node6&#45;&gt;Node1 -->
<g id="edge8" class="edge">
<title>Node6&#45;&gt;Node1</title>
<path fill="none" stroke="#191970" d="M180.228,-176.1256C315.3542,-158.3146 651.3698,-111.7801 759.1064,-76 777.5932,-69.8604 779.8543,-62.8058 798.1064,-56 838.5402,-40.9231 885.7189,-29.3967 922.6993,-21.6527"/>
<polygon fill="#191970" stroke="#191970" points="923.7538,-25.0093 932.8452,-19.569 922.3455,-18.1524 923.7538,-25.0093"/>
</g>
<!-- Node6&#45;&gt;Node2 -->
<g id="edge9" class="edge">
<title>Node6&#45;&gt;Node2</title>
<path fill="none" stroke="#191970" d="M159.5559,-168.4554C183.9807,-158.374 215.8645,-145.2139 239.4584,-135.4755"/>
<polygon fill="#191970" stroke="#191970" points="241.1084,-138.5809 249.0166,-131.5303 238.4377,-132.1104 241.1084,-138.5809"/>
</g>
<!-- Node6&#45;&gt;Node4 -->
<g id="edge10" class="edge">
<title>Node6&#45;&gt;Node4</title>
<path fill="none" stroke="#191970" d="M113.7213,-168.2039C99.336,-142.5788 75.911,-90.4055 100.1064,-56 109.3604,-42.8409 145.0237,-30.6585 176.3625,-22.1408"/>
<polygon fill="#191970" stroke="#191970" points="177.5698,-25.4422 186.3465,-19.5075 175.7846,-18.6736 177.5698,-25.4422"/>
</g>
<!-- Node8 -->
<g id="node9" class="node">
<title>Node8</title>
<g id="a_node9"><a xlink:href="api_2std__types_8h.html" target="_top" xlink:title="Standard C language types and definitions for ODP. ">
<polygon fill="#ffffff" stroke="#000000" points="1396.1064,-235.5 1396.1064,-254.5 1508.1064,-254.5 1508.1064,-235.5 1396.1064,-235.5"/>
<text text-anchor="middle" x="1452.1064" y="-242.5" font-family="Helvetica,sans-Serif" font-size="10.00" fill="#000000">odp/api/std_types.h</text>
</a>
</g>
</g>
<!-- Node7&#45;&gt;Node8 -->
<g id="edge12" class="edge">
<title>Node7&#45;&gt;Node8</title>
<path fill="none" stroke="#191970" d="M862.6949,-645.597C1039.7284,-635.3827 1650.1064,-588.2557 1650.1064,-424 1650.1064,-424 1650.1064,-424 1650.1064,-368 1650.1064,-303.7321 1573.9064,-271.8665 1516.0495,-256.9343"/>
<polygon fill="#191970" stroke="#191970" points="1516.7577,-253.5042 1506.2107,-254.5098 1515.0828,-260.3009 1516.7577,-253.5042"/>
</g>
<!-- Node15 -->
<g id="node16" class="node">
<title>Node15</title>
<polygon fill="#ffffff" stroke="#bfbfbf" points="630.1064,-358.5 630.1064,-377.5 740.1064,-377.5 740.1064,-358.5 630.1064,-358.5"/>
<text text-anchor="middle" x="685.1064" y="-365.5" font-family="Helvetica,sans-Serif" font-size="10.00" fill="#000000">odp/api/abi/event.h</text>
</g>
<!-- Node7&#45;&gt;Node15 -->
<g id="edge23" class="edge">
<title>Node7&#45;&gt;Node15</title>
<path fill="none" stroke="#191970" d="M809.4993,-638.4834C798.929,-619.6141 777.1064,-575.8343 777.1064,-536 777.1064,-536 777.1064,-536 777.1064,-480 777.1064,-437.5397 737.1363,-402.3942 709.8874,-383.3678"/>
<polygon fill="#191970" stroke="#191970" points="711.8063,-380.4405 701.5541,-377.768 707.902,-386.2506 711.8063,-380.4405"/>
</g>
<!-- Node16 -->
<g id="node17" class="node">
<title>Node16</title>
<polygon fill="#ffffff" stroke="#bfbfbf" points="758.6064,-358.5 758.6064,-377.5 871.6064,-377.5 871.6064,-358.5 758.6064,-358.5"/>
<text text-anchor="middle" x="815.1064" y="-365.5" font-family="Helvetica,sans-Serif" font-size="10.00" fill="#000000">odp/api/abi/queue.h</text>
</g>
<!-- Node7&#45;&gt;Node16 -->
<g id="edge24" class="edge">
<title>Node7&#45;&gt;Node16</title>
<path fill="none" stroke="#191970" d="M815.1064,-638.4116C815.1064,-619.0538 815.1064,-573.9167 815.1064,-536 815.1064,-536 815.1064,-536 815.1064,-480 815.1064,-447.7116 815.1064,-410.1872 815.1064,-387.8048"/>
<polygon fill="#191970" stroke="#191970" points="818.6065,-387.5883 815.1064,-377.5884 811.6065,-387.5884 818.6065,-387.5883"/>
</g>
<!-- Node17 -->
<g id="node18" class="node">
<title>Node17</title>
<polygon fill="#ffffff" stroke="#bfbfbf" points="890.1064,-358.5 890.1064,-377.5 1000.1064,-377.5 1000.1064,-358.5 890.1064,-358.5"/>
<text text-anchor="middle" x="945.1064" y="-365.5" font-family="Helvetica,sans-Serif" font-size="10.00" fill="#000000">odp/api/abi/buffer.h</text>
</g>
<!-- Node7&#45;&gt;Node17 -->
<g id="edge25" class="edge">
<title>Node7&#45;&gt;Node17</title>
<path fill="none" stroke="#191970" d="M829.3558,-638.4404C853.3214,-621.092 899.1064,-581.9375 899.1064,-536 899.1064,-536 899.1064,-536 899.1064,-480 899.1064,-444.66 918.9455,-407.4332 932.5661,-386.0395"/>
<polygon fill="#191970" stroke="#191970" points="935.5243,-387.9114 938.1199,-377.6394 929.6851,-384.0507 935.5243,-387.9114"/>
</g>
<!-- Node18 -->
<g id="node19" class="node">
<title>Node18</title>
<polygon fill="#ffffff" stroke="#bfbfbf" points="1480.1064,-358.5 1480.1064,-377.5 1584.1064,-377.5 1584.1064,-358.5 1480.1064,-358.5"/>
<text text-anchor="middle" x="1532.1064" y="-365.5" font-family="Helvetica,sans-Serif" font-size="10.00" fill="#000000">odp/api/abi/pool.h</text>
</g>
<!-- Node7&#45;&gt;Node18 -->
<g id="edge26" class="edge">
<title>Node7&#45;&gt;Node18</title>
<path fill="none" stroke="#191970" d="M839.7871,-638.3618C947.196,-596.4169 1374.0687,-429.7163 1498.1289,-381.2687"/>
<polygon fill="#191970" stroke="#191970" points="1499.4877,-384.4956 1507.5294,-377.5977 1496.9413,-377.9752 1499.4877,-384.4956"/>
</g>
<!-- Node19 -->
<g id="node20" class="node">
<title>Node19</title>
<g id="a_node20"><a xlink:href="api_2spec_2queue_8h.html" target="_top" xlink:title="ODP queue. ">
<polygon fill="#ffffff" stroke="#000000" points="504.1064,-582.5 504.1064,-601.5 624.1064,-601.5 624.1064,-582.5 504.1064,-582.5"/>
<text text-anchor="middle" x="564.1064" y="-589.5" font-family="Helvetica,sans-Serif" font-size="10.00" fill="#000000">odp/api/spec/queue.h</text>
</a>
</g>
</g>
<!-- Node7&#45;&gt;Node19 -->
<g id="edge27" class="edge">
<title>Node7&#45;&gt;Node19</title>
<path fill="none" stroke="#191970" d="M772.2431,-638.4369C729.1962,-628.8328 662.7991,-614.0191 616.6153,-603.7152"/>
<polygon fill="#191970" stroke="#191970" points="617.315,-600.2853 606.7928,-601.5237 615.7907,-607.1173 617.315,-600.2853"/>
</g>
<!-- Node9 -->
<g id="node10" class="node">
<title>Node9</title>
<polygon fill="#ffffff" stroke="#bfbfbf" points="1449.1064,-174 1449.1064,-193 1579.1064,-193 1579.1064,-174 1449.1064,-174"/>
<text text-anchor="middle" x="1514.1064" y="-181" font-family="Helvetica,sans-Serif" font-size="10.00" fill="#000000">odp/api/abi/std_types.h</text>
</g>
<!-- Node8&#45;&gt;Node9 -->
<g id="edge13" class="edge">
<title>Node8&#45;&gt;Node9</title>
<path fill="none" stroke="#191970" d="M1461.7939,-235.3906C1471.2023,-226.0581 1485.687,-211.6902 1497.0313,-200.4374"/>
<polygon fill="#191970" stroke="#191970" points="1499.6474,-202.7722 1504.2823,-193.2449 1494.7178,-197.8024 1499.6474,-202.7722"/>
</g>
<!-- Node10 -->
<g id="node11" class="node">
<title>Node10</title>
<g id="a_node11"><a xlink:href="api_2spec_2std__types_8h.html" target="_top" xlink:title="Standard C language types and definitions for ODP. ">
<polygon fill="#ffffff" stroke="#000000" points="1293.6064,-174 1293.6064,-193 1430.6064,-193 1430.6064,-174 1293.6064,-174"/>
<text text-anchor="middle" x="1362.1064" y="-181" font-family="Helvetica,sans-Serif" font-size="10.00" fill="#000000">odp/api/spec/std_types.h</text>
</a>
</g>
</g>
<!-- Node8&#45;&gt;Node10 -->
<g id="edge14" class="edge">
<title>Node8&#45;&gt;Node10</title>
<path fill="none" stroke="#191970" d="M1438.0439,-235.3906C1423.7778,-225.6421 1401.4713,-210.3994 1384.7191,-198.9521"/>
<polygon fill="#191970" stroke="#191970" points="1386.3013,-195.7941 1376.0701,-193.0419 1382.3519,-201.5736 1386.3013,-195.7941"/>
</g>
<!-- Node10&#45;&gt;Node1 -->
<g id="edge15" class="edge">
<title>Node10&#45;&gt;Node1</title>
<path fill="none" stroke="#191970" d="M1367.635,-173.7156C1380.1235,-150.1715 1407.1722,-89.8103 1377.1064,-56 1356.2337,-32.5278 1163.7393,-19.0467 1056.8503,-13.3106"/>
<polygon fill="#191970" stroke="#191970" points="1056.9525,-9.8112 1046.7821,-12.7796 1056.5838,-16.8015 1056.9525,-9.8112"/>
</g>
<!-- Node10&#45;&gt;Node4 -->
<g id="edge22" class="edge">
<title>Node10&#45;&gt;Node4</title>
<path fill="none" stroke="#191970" d="M1293.3658,-175.7456C1084.3465,-152.1231 469.3396,-82.2775 449.1064,-76 430.8783,-70.3446 428.9318,-62.8191 411.1064,-56 371.6724,-40.9146 325.5611,-29.3595 289.4908,-21.6036"/>
<polygon fill="#191970" stroke="#191970" points="290.1044,-18.156 279.5973,-19.517 288.6597,-25.0054 290.1044,-18.156"/>
</g>
<!-- Node11 -->
<g id="node12" class="node">
<title>Node11</title>
<polygon fill="#ffffff" stroke="#bfbfbf" points="1424.6064,-112.5 1424.6064,-131.5 1477.6064,-131.5 1477.6064,-112.5 1424.6064,-112.5"/>
<text text-anchor="middle" x="1451.1064" y="-119.5" font-family="Helvetica,sans-Serif" font-size="10.00" fill="#000000">stdint.h</text>
</g>
<!-- Node10&#45;&gt;Node11 -->
<g id="edge16" class="edge">
<title>Node10&#45;&gt;Node11</title>
<path fill="none" stroke="#191970" d="M1376.0126,-173.8906C1390.1202,-164.1421 1412.1788,-148.8994 1428.7448,-137.4521"/>
<polygon fill="#191970" stroke="#191970" points="1431.0606,-140.1063 1437.2978,-131.5419 1427.0811,-134.3474 1431.0606,-140.1063"/>
</g>
<!-- Node12 -->
<g id="node13" class="node">
<title>Node12</title>
<g id="a_node13"><a xlink:href="api_2align_8h.html" target="_top" xlink:title="ODP alignments. ">
<polygon fill="#ffffff" stroke="#000000" points="1269.6064,-112.5 1269.6064,-131.5 1358.6064,-131.5 1358.6064,-112.5 1269.6064,-112.5"/>
<text text-anchor="middle" x="1314.1064" y="-119.5" font-family="Helvetica,sans-Serif" font-size="10.00" fill="#000000">odp/api/align.h</text>
</a>
</g>
</g>
<!-- Node10&#45;&gt;Node12 -->
<g id="edge17" class="edge">
<title>Node10&#45;&gt;Node12</title>
<path fill="none" stroke="#191970" d="M1354.6064,-173.8906C1347.5325,-164.8273 1336.7521,-151.0149 1328.0917,-139.9188"/>
<polygon fill="#191970" stroke="#191970" points="1330.624,-137.4746 1321.7121,-131.7449 1325.1057,-141.7815 1330.624,-137.4746"/>
</g>
<!-- Node13 -->
<g id="node14" class="node">
<title>Node13</title>
<polygon fill="#ffffff" stroke="#bfbfbf" points="1260.6064,-56.5 1260.6064,-75.5 1367.6064,-75.5 1367.6064,-56.5 1260.6064,-56.5"/>
<text text-anchor="middle" x="1314.1064" y="-63.5" font-family="Helvetica,sans-Serif" font-size="10.00" fill="#000000">odp/api/abi/align.h</text>
</g>
<!-- Node12&#45;&gt;Node13 -->
<g id="edge18" class="edge">
<title>Node12&#45;&gt;Node13</title>
<path fill="none" stroke="#191970" d="M1314.1064,-112.2455C1314.1064,-104.9382 1314.1064,-94.6944 1314.1064,-85.7046"/>
<polygon fill="#191970" stroke="#191970" points="1317.6065,-85.6426 1314.1064,-75.6427 1310.6065,-85.6427 1317.6065,-85.6426"/>
</g>
<!-- Node14 -->
<g id="node15" class="node">
<title>Node14</title>
<g id="a_node15"><a xlink:href="api_2spec_2align_8h.html" target="_top" xlink:title="ODP alignments. ">
<polygon fill="#ffffff" stroke="#000000" points="1014.1064,-56.5 1014.1064,-75.5 1128.1064,-75.5 1128.1064,-56.5 1014.1064,-56.5"/>
<text text-anchor="middle" x="1071.1064" y="-63.5" font-family="Helvetica,sans-Serif" font-size="10.00" fill="#000000">odp/api/spec/align.h</text>
</a>
</g>
</g>
<!-- Node12&#45;&gt;Node14 -->
<g id="edge19" class="edge">
<title>Node12&#45;&gt;Node14</title>
<path fill="none" stroke="#191970" d="M1272.6093,-112.4369C1231.0217,-102.8529 1166.9229,-88.0812 1122.2232,-77.78"/>
<polygon fill="#191970" stroke="#191970" points="1122.9629,-74.3588 1112.4323,-75.5237 1121.3909,-81.18 1122.9629,-74.3588"/>
</g>
<!-- Node14&#45;&gt;Node1 -->
<g id="edge20" class="edge">
<title>Node14&#45;&gt;Node1</title>
<path fill="none" stroke="#191970" d="M1056.3005,-56.2455C1043.3808,-47.7337 1024.4133,-35.2375 1009.4511,-25.3801"/>
<polygon fill="#191970" stroke="#191970" points="1011.0187,-22.2216 1000.7426,-19.6427 1007.1676,-28.067 1011.0187,-22.2216"/>
</g>
<!-- Node14&#45;&gt;Node4 -->
<g id="edge21" class="edge">
<title>Node14&#45;&gt;Node4</title>
<path fill="none" stroke="#191970" d="M1013.7643,-61.8992C987.9009,-60.0657 956.9686,-57.8952 929.1064,-56 695.9476,-40.1403 419.0968,-22.2513 294.5841,-14.2561"/>
<polygon fill="#191970" stroke="#191970" points="294.6523,-10.7533 284.4486,-13.6055 294.2038,-17.739 294.6523,-10.7533"/>
</g>
<!-- Node19&#45;&gt;Node1 -->
<g id="edge28" class="edge">
<title>Node19&#45;&gt;Node1</title>
<path fill="none" stroke="#191970" d="M564.1064,-582.4116C564.1064,-563.0538 564.1064,-517.9167 564.1064,-480 564.1064,-480 564.1064,-480 564.1064,-424 564.1064,-388.9903 581.2804,-381.6368 607.1064,-358 803.9371,-177.8542 999.7146,-304.7321 1137.1064,-76 1158.7445,-39.9765 1105.8446,-23.5634 1056.8164,-16.1164"/>
<polygon fill="#191970" stroke="#191970" points="1057.1543,-12.6296 1046.764,-14.7015 1056.1785,-19.5612 1057.1543,-12.6296"/>
</g>
<!-- Node19&#45;&gt;Node4 -->
<g id="edge64" class="edge">
<title>Node19&#45;&gt;Node4</title>
<path fill="none" stroke="#191970" d="M537.8385,-582.3837C447.9042,-547.7721 152.6501,-419.7675 57.1064,-199 38.5918,-156.2195 63.7087,-81.5832 88.1064,-56 100.3599,-43.151 140.4808,-30.7128 174.6486,-22.017"/>
<polygon fill="#191970" stroke="#191970" points="175.6994,-25.3624 184.5604,-19.5545 174.0115,-18.5689 175.6994,-25.3624"/>
</g>
<!-- Node20 -->
<g id="node21" class="node">
<title>Node20</title>
<g id="a_node21"><a xlink:href="api_2event_8h.html" target="_top" xlink:title="ODP event. ">
<polygon fill="#ffffff" stroke="#000000" points="605.1064,-526.5 605.1064,-545.5 697.1064,-545.5 697.1064,-526.5 605.1064,-526.5"/>
<text text-anchor="middle" x="651.1064" y="-533.5" font-family="Helvetica,sans-Serif" font-size="10.00" fill="#000000">odp/api/event.h</text>
</a>
</g>
</g>
<!-- Node19&#45;&gt;Node20 -->
<g id="edge29" class="edge">
<title>Node19&#45;&gt;Node20</title>
<path fill="none" stroke="#191970" d="M579.2606,-582.2455C592.6091,-573.6534 612.265,-561.0014 627.6446,-551.1018"/>
<polygon fill="#191970" stroke="#191970" points="629.6115,-553.9982 636.1258,-545.6427 625.8227,-548.1121 629.6115,-553.9982"/>
</g>
<!-- Node29 -->
<g id="node30" class="node">
<title>Node29</title>
<g id="a_node30"><a xlink:href="queue__types_8h.html" target="_top" xlink:title="ODP queue types. ">
<polygon fill="#ffffff" stroke="#000000" points="470.6064,-291.5 470.6064,-321.5 581.6064,-321.5 581.6064,-291.5 470.6064,-291.5"/>
<text text-anchor="start" x="478.6064" y="-309.5" font-family="Helvetica,sans-Serif" font-size="10.00" fill="#000000">odp/api/spec/queue</text>
<text text-anchor="middle" x="526.1064" y="-298.5" font-family="Helvetica,sans-Serif" font-size="10.00" fill="#000000">_types.h</text>
</a>
</g>
</g>
<!-- Node19&#45;&gt;Node29 -->
<g id="edge51" class="edge">
<title>Node19&#45;&gt;Node29</title>
<path fill="none" stroke="#191970" d="M558.4993,-582.4834C547.929,-563.6141 526.1064,-519.8343 526.1064,-480 526.1064,-480 526.1064,-480 526.1064,-424 526.1064,-392.3014 526.1064,-355.7926 526.1064,-331.9922"/>
<polygon fill="#191970" stroke="#191970" points="529.6065,-331.7101 526.1064,-321.7101 522.6065,-331.7102 529.6065,-331.7101"/>
</g>
<!-- Node20&#45;&gt;Node15 -->
<g id="edge30" class="edge">
<title>Node20&#45;&gt;Node15</title>
<path fill="none" stroke="#191970" d="M675.9319,-526.4395C691.3942,-519.0336 710.0176,-507.1213 719.1064,-490 737.2982,-455.7304 714.2574,-410.7399 698.1829,-386.09"/>
<polygon fill="#191970" stroke="#191970" points="700.9895,-383.9933 692.4638,-377.7034 695.2062,-387.9372 700.9895,-383.9933"/>
</g>
<!-- Node21 -->
<g id="node22" class="node">
<title>Node21</title>
<g id="a_node22"><a xlink:href="api_2spec_2event_8h.html" target="_top" xlink:title="ODP event. ">
<polygon fill="#ffffff" stroke="#000000" points="592.1064,-470.5 592.1064,-489.5 710.1064,-489.5 710.1064,-470.5 592.1064,-470.5"/>
<text text-anchor="middle" x="651.1064" y="-477.5" font-family="Helvetica,sans-Serif" font-size="10.00" fill="#000000">odp/api/spec/event.h</text>
</a>
</g>
</g>
<!-- Node20&#45;&gt;Node21 -->
<g id="edge31" class="edge">
<title>Node20&#45;&gt;Node21</title>
<path fill="none" stroke="#191970" d="M651.1064,-526.2455C651.1064,-518.9382 651.1064,-508.6944 651.1064,-499.7046"/>
<polygon fill="#191970" stroke="#191970" points="654.6065,-499.6426 651.1064,-489.6427 647.6065,-499.6427 654.6065,-499.6426"/>
</g>
<!-- Node21&#45;&gt;Node1 -->
<g id="edge32" class="edge">
<title>Node21&#45;&gt;Node1</title>
<path fill="none" stroke="#191970" d="M643.6433,-470.1751C627.4866,-447.6359 592.9141,-391.5745 621.1064,-358 650.8493,-322.5787 781.258,-333.3109 826.1064,-322 917.8218,-298.8691 950.5894,-309.2023 1028.1064,-255 1111.3281,-196.8086 1136.6897,-171.8928 1170.1064,-76 1173.0314,-67.6062 1175.5767,-63.0063 1170.1064,-56 1155.9473,-37.8654 1102.4167,-25.822 1056.7184,-18.6237"/>
<polygon fill="#191970" stroke="#191970" points="1057.2166,-15.1593 1046.8042,-17.1169 1056.1647,-22.0798 1057.2166,-15.1593"/>
</g>
<!-- Node21&#45;&gt;Node4 -->
<g id="edge50" class="edge">
<title>Node21&#45;&gt;Node4</title>
<path fill="none" stroke="#191970" d="M627.9538,-470.4949C558.041,-440.7158 346.5611,-342.58 227.1064,-199 185.5141,-149.0078 175.5415,-117.6946 196.1064,-56 199.5404,-45.6979 206.0637,-35.6341 212.3294,-27.5596"/>
<polygon fill="#191970" stroke="#191970" points="215.1873,-29.596 218.8688,-19.6614 209.7955,-25.1318 215.1873,-29.596"/>
</g>
<!-- Node21&#45;&gt;Node22 -->
<g id="edge33" class="edge">
<title>Node21&#45;&gt;Node22</title>
<path fill="none" stroke="#191970" d="M710.1683,-473.4114C806.6943,-462.6436 997.1583,-441.3966 1093.8258,-430.613"/>
<polygon fill="#191970" stroke="#191970" points="1094.4598,-434.064 1104.0101,-429.4769 1093.6837,-427.1072 1094.4598,-434.064"/>
</g>
<!-- Node22&#45;&gt;Node8 -->
<g id="edge34" class="edge">
<title>Node22&#45;&gt;Node8</title>
<path fill="none" stroke="#191970" d="M1202.2013,-422.7078C1273.8045,-419.7399 1401.784,-409.985 1433.1064,-378 1462.6409,-347.8406 1459.9126,-293.8544 1455.777,-264.8022"/>
<polygon fill="#191970" stroke="#191970" points="1459.1883,-263.973 1454.1279,-254.6648 1452.2791,-265.0971 1459.1883,-263.973"/>
</g>
<!-- Node22&#45;&gt;Node15 -->
<g id="edge35" class="edge">
<title>Node22&#45;&gt;Node15</title>
<path fill="none" stroke="#191970" d="M1104.0219,-419.021C1029.9137,-411.3664 884.7923,-395.8433 750.4665,-378.0011"/>
<polygon fill="#191970" stroke="#191970" points="750.7789,-374.5118 740.4036,-376.6573 749.8523,-381.4502 750.7789,-374.5118"/>
</g>
<!-- Node22&#45;&gt;Node16 -->
<g id="edge38" class="edge">
<title>Node22&#45;&gt;Node16</title>
<path fill="none" stroke="#191970" d="M1103.9583,-415.8571C1045.3893,-406.1534 947.2527,-389.8941 881.8528,-379.0586"/>
<polygon fill="#191970" stroke="#191970" points="882.0863,-375.5496 871.6487,-377.368 880.9421,-382.4555 882.0863,-375.5496"/>
</g>
<!-- Node22&#45;&gt;Node17 -->
<g id="edge39" class="edge">
<title>Node22&#45;&gt;Node17</title>
<path fill="none" stroke="#191970" d="M1117.3499,-414.3733C1082.1637,-404.9001 1028.3183,-390.4032 990.2107,-380.1435"/>
<polygon fill="#191970" stroke="#191970" points="990.9623,-376.7213 980.3962,-377.5011 989.1425,-383.4806 990.9623,-376.7213"/>
</g>
<!-- Node22&#45;&gt;Node18 -->
<g id="edge40" class="edge">
<title>Node22&#45;&gt;Node18</title>
<path fill="none" stroke="#191970" d="M1202.1792,-416.857C1263.8141,-407.8695 1372.8077,-391.9238 1466.1064,-378 1467.3636,-377.8124 1468.6343,-377.6225 1469.9149,-377.4308"/>
<polygon fill="#191970" stroke="#191970" points="1470.5012,-380.8821 1479.8708,-375.9364 1469.4621,-373.9597 1470.5012,-380.8821"/>
</g>
<!-- Node23 -->
<g id="node24" class="node">
<title>Node23</title>
<polygon fill="#ffffff" stroke="#bfbfbf" points="1160.1064,-358.5 1160.1064,-377.5 1290.1064,-377.5 1290.1064,-358.5 1160.1064,-358.5"/>
<text text-anchor="middle" x="1225.1064" y="-365.5" font-family="Helvetica,sans-Serif" font-size="10.00" fill="#000000">odp/api/abi/packet_io.h</text>
</g>
<!-- Node22&#45;&gt;Node23 -->
<g id="edge36" class="edge">
<title>Node22&#45;&gt;Node23</title>
<path fill="none" stroke="#191970" d="M1165.6478,-414.2455C1176.3851,-405.8943 1192.0537,-393.7076 1204.611,-383.9408"/>
<polygon fill="#191970" stroke="#191970" points="1206.9639,-386.5449 1212.7086,-377.6427 1202.6663,-381.0194 1206.9639,-386.5449"/>
</g>
<!-- Node24 -->
<g id="node25" class="node">
<title>Node24</title>
<polygon fill="#ffffff" stroke="#bfbfbf" points="1308.1064,-358.5 1308.1064,-377.5 1424.1064,-377.5 1424.1064,-358.5 1308.1064,-358.5"/>
<text text-anchor="middle" x="1366.1064" y="-365.5" font-family="Helvetica,sans-Serif" font-size="10.00" fill="#000000">odp/api/abi/packet.h</text>
</g>
<!-- Node22&#45;&gt;Node24 -->
<g id="edge37" class="edge">
<title>Node22&#45;&gt;Node24</title>
<path fill="none" stroke="#191970" d="M1189.7224,-414.3733C1225.7543,-404.9001 1280.8941,-390.4032 1319.9177,-380.1435"/>
<polygon fill="#191970" stroke="#191970" points="1321.1868,-383.4289 1329.9682,-377.5011 1319.4068,-376.6589 1321.1868,-383.4289"/>
</g>
<!-- Node25 -->
<g id="node26" class="node">
<title>Node25</title>
<g id="a_node26"><a xlink:href="api_2spec_2packet_8h.html" target="_top" xlink:title="ODP packet descriptor. ">
<polygon fill="#ffffff" stroke="#000000" points="1018.6064,-358.5 1018.6064,-377.5 1141.6064,-377.5 1141.6064,-358.5 1018.6064,-358.5"/>
<text text-anchor="middle" x="1080.1064" y="-365.5" font-family="Helvetica,sans-Serif" font-size="10.00" fill="#000000">odp/api/spec/packet.h</text>
</a>
</g>
</g>
<!-- Node22&#45;&gt;Node25 -->
<g id="edge41" class="edge">
<title>Node22&#45;&gt;Node25</title>
<path fill="none" stroke="#191970" d="M1140.3907,-414.2455C1129.5043,-405.8943 1113.6181,-393.7076 1100.8864,-383.9408"/>
<polygon fill="#191970" stroke="#191970" points="1102.7409,-380.9523 1092.6763,-377.6427 1098.4803,-386.5063 1102.7409,-380.9523"/>
</g>
<!-- Node25&#45;&gt;Node1 -->
<g id="edge42" class="edge">
<title>Node25&#45;&gt;Node1</title>
<path fill="none" stroke="#191970" d="M1111.2326,-358.4664C1155.7022,-342.6878 1232.1064,-306.6131 1232.1064,-245 1232.1064,-245 1232.1064,-245 1232.1064,-122 1232.1064,-90.7875 1231.7121,-76.4203 1208.1064,-56 1185.7575,-36.6669 1113.2511,-24.1878 1057.1147,-17.1735"/>
<polygon fill="#191970" stroke="#191970" points="1057.1878,-13.6567 1046.839,-15.9269 1056.3447,-20.6058 1057.1878,-13.6567"/>
</g>
<!-- Node25&#45;&gt;Node4 -->
<g id="edge49" class="edge">
<title>Node25&#45;&gt;Node4</title>
<path fill="none" stroke="#191970" d="M1018.5669,-359.0477C1015.37,-358.6718 1012.2019,-358.3194 1009.1064,-358 887.9312,-345.4965 577.9425,-359.7061 462.1064,-322 394.2301,-299.9055 233.9513,-196.3735 203.1064,-132 186.766,-97.8976 204.423,-53.4465 217.2498,-28.7057"/>
<polygon fill="#191970" stroke="#191970" points="220.4569,-30.1352 222.175,-19.6806 214.3123,-26.782 220.4569,-30.1352"/>
</g>
<!-- Node25&#45;&gt;Node26 -->
<g id="edge43" class="edge">
<title>Node25&#45;&gt;Node26</title>
<path fill="none" stroke="#191970" d="M1117.4982,-358.4581C1159.5353,-347.7308 1227.8824,-330.2895 1273.6509,-318.61"/>
<polygon fill="#191970" stroke="#191970" points="1274.8028,-321.9283 1283.6268,-316.0643 1273.0719,-315.1457 1274.8028,-321.9283"/>
</g>
<!-- Node26&#45;&gt;Node8 -->
<g id="edge44" class="edge">
<title>Node26&#45;&gt;Node8</title>
<path fill="none" stroke="#191970" d="M1341.5751,-296.8906C1363.3015,-286.6908 1397.8399,-270.4763 1422.5249,-258.8875"/>
<polygon fill="#191970" stroke="#191970" points="1424.2166,-261.9598 1431.7813,-254.5419 1421.2418,-255.6234 1424.2166,-261.9598"/>
</g>
<!-- Node27 -->
<g id="node28" class="node">
<title>Node27</title>
<polygon fill="#ffffff" stroke="#bfbfbf" points="1268.6064,-235.5 1268.6064,-254.5 1373.6064,-254.5 1373.6064,-235.5 1268.6064,-235.5"/>
<text text-anchor="middle" x="1321.1064" y="-242.5" font-family="Helvetica,sans-Serif" font-size="10.00" fill="#000000">odp/api/abi/time.h</text>
</g>
<!-- Node26&#45;&gt;Node27 -->
<g id="edge45" class="edge">
<title>Node26&#45;&gt;Node27</title>
<path fill="none" stroke="#191970" d="M1321.1064,-296.8906C1321.1064,-288.3657 1321.1064,-275.6392 1321.1064,-264.9235"/>
<polygon fill="#191970" stroke="#191970" points="1324.6065,-264.7448 1321.1064,-254.7449 1317.6065,-264.7449 1324.6065,-264.7448"/>
</g>
<!-- Node28 -->
<g id="node29" class="node">
<title>Node28</title>
<g id="a_node29"><a xlink:href="api_2spec_2time_8h.html" target="_top" xlink:title="ODP time. ">
<polygon fill="#ffffff" stroke="#000000" points="806.6064,-56.5 806.6064,-75.5 919.6064,-75.5 919.6064,-56.5 806.6064,-56.5"/>
<text text-anchor="middle" x="863.1064" y="-63.5" font-family="Helvetica,sans-Serif" font-size="10.00" fill="#000000">odp/api/spec/time.h</text>
</a>
</g>
</g>
<!-- Node26&#45;&gt;Node28 -->
<g id="edge46" class="edge">
<title>Node26&#45;&gt;Node28</title>
<path fill="none" stroke="#191970" d="M1302.8696,-296.9237C1232.062,-259.742 975.1086,-124.8134 890.401,-80.3327"/>
<polygon fill="#191970" stroke="#191970" points="891.876,-77.154 881.3952,-75.6037 888.6216,-83.3516 891.876,-77.154"/>
</g>
<!-- Node28&#45;&gt;Node1 -->
<g id="edge47" class="edge">
<title>Node28&#45;&gt;Node1</title>
<path fill="none" stroke="#191970" d="M884.2508,-56.3733C903.9955,-47.3838 933.6762,-33.8706 955.9118,-23.7471"/>
<polygon fill="#191970" stroke="#191970" points="957.587,-26.8302 965.2378,-19.5011 954.6864,-20.4594 957.587,-26.8302"/>
</g>
<!-- Node28&#45;&gt;Node4 -->
<g id="edge48" class="edge">
<title>Node28&#45;&gt;Node4</title>
<path fill="none" stroke="#191970" d="M806.441,-60.4535C791.0838,-58.977 774.4604,-57.4032 759.1064,-56 591.8415,-40.7138 394.8148,-23.9784 294.3235,-15.5341"/>
<polygon fill="#191970" stroke="#191970" points="294.5743,-12.0429 284.3165,-14.6938 293.9885,-19.0184 294.5743,-12.0429"/>
</g>
<!-- Node29&#45;&gt;Node1 -->
<g id="edge52" class="edge">
<title>Node29&#45;&gt;Node1</title>
<path fill="none" stroke="#191970" d="M576.7943,-291.4163C664.5641,-262.9185 845.7247,-193.2737 953.1064,-76 965.5156,-62.4476 974.379,-43.3621 979.7743,-29.1985"/>
<polygon fill="#191970" stroke="#191970" points="983.1702,-30.0949 983.2253,-19.5002 976.5753,-27.7481 983.1702,-30.0949"/>
</g>
<!-- Node29&#45;&gt;Node2 -->
<g id="edge62" class="edge">
<title>Node29&#45;&gt;Node2</title>
<path fill="none" stroke="#191970" d="M470.3065,-293.5898C442.7242,-285.454 409.9103,-273.0123 384.1064,-255 338.715,-223.3148 300.8841,-168.7784 283.0733,-140.3868"/>
<polygon fill="#191970" stroke="#191970" points="285.8424,-138.2074 277.6288,-131.515 279.8763,-141.8687 285.8424,-138.2074"/>
</g>
<!-- Node29&#45;&gt;Node4 -->
<g id="edge63" class="edge">
<title>Node29&#45;&gt;Node4</title>
<path fill="none" stroke="#191970" d="M498.832,-291.3497C483.3239,-282.0079 464.0739,-269.1329 449.1064,-255 391.1974,-200.3204 405.9222,-158.284 341.1064,-112 299.2435,-82.1064 262.2361,-116.952 231.1064,-76 221.2476,-63.0305 221.4048,-44.1365 223.4988,-29.8841"/>
<polygon fill="#191970" stroke="#191970" points="227.0149,-30.128 225.439,-19.651 220.1374,-28.8239 227.0149,-30.128"/>
</g>
<!-- Node30 -->
<g id="node31" class="node">
<title>Node30</title>
<g id="a_node31"><a xlink:href="api_2schedule__types_8h.html" target="_top" xlink:title="ODP schedule. ">
<polygon fill="#ffffff" stroke="#000000" points="458.1064,-235.5 458.1064,-254.5 598.1064,-254.5 598.1064,-235.5 458.1064,-235.5"/>
<text text-anchor="middle" x="528.1064" y="-242.5" font-family="Helvetica,sans-Serif" font-size="10.00" fill="#000000">odp/api/schedule_types.h</text>
</a>
</g>
</g>
<!-- Node29&#45;&gt;Node30 -->
<g id="edge53" class="edge">
<title>Node29&#45;&gt;Node30</title>
<path fill="none" stroke="#191970" d="M526.6007,-291.2977C526.8581,-283.3834 527.1761,-273.6043 527.4535,-265.0759"/>
<polygon fill="#191970" stroke="#191970" points="530.9592,-264.9554 527.7861,-254.8469 523.9629,-264.7279 530.9592,-264.9554"/>
</g>
<!-- Node31 -->
<g id="node32" class="node">
<title>Node31</title>
<polygon fill="#ffffff" stroke="#bfbfbf" points="469.6064,-168.5 469.6064,-198.5 586.6064,-198.5 586.6064,-168.5 469.6064,-168.5"/>
<text text-anchor="start" x="477.6064" y="-186.5" font-family="Helvetica,sans-Serif" font-size="10.00" fill="#000000">odp/api/abi/schedule</text>
<text text-anchor="middle" x="528.1064" y="-175.5" font-family="Helvetica,sans-Serif" font-size="10.00" fill="#000000">_types.h</text>
</g>
<!-- Node30&#45;&gt;Node31 -->
<g id="edge54" class="edge">
<title>Node30&#45;&gt;Node31</title>
<path fill="none" stroke="#191970" d="M528.1064,-235.3906C528.1064,-228.2234 528.1064,-218.0862 528.1064,-208.671"/>
<polygon fill="#191970" stroke="#191970" points="531.6065,-208.5446 528.1064,-198.5446 524.6065,-208.5446 531.6065,-208.5446"/>
</g>
<!-- Node32 -->
<g id="node33" class="node">
<title>Node32</title>
<g id="a_node33"><a xlink:href="api_2spec_2schedule__types_8h.html" target="_top" xlink:title="ODP schedule types. ">
<polygon fill="#ffffff" stroke="#000000" points="606.6064,-168.5 606.6064,-198.5 731.6064,-198.5 731.6064,-168.5 606.6064,-168.5"/>
<text text-anchor="start" x="614.6064" y="-186.5" font-family="Helvetica,sans-Serif" font-size="10.00" fill="#000000">odp/api/spec/schedule</text>
<text text-anchor="middle" x="669.1064" y="-175.5" font-family="Helvetica,sans-Serif" font-size="10.00" fill="#000000">_types.h</text>
</a>
</g>
</g>
<!-- Node30&#45;&gt;Node32 -->
<g id="edge55" class="edge">
<title>Node30&#45;&gt;Node32</title>
<path fill="none" stroke="#191970" d="M550.1376,-235.3906C570.192,-226.6435 600.3881,-213.4728 625.3398,-202.5897"/>
<polygon fill="#191970" stroke="#191970" points="626.8471,-205.7507 634.6139,-198.5446 624.0485,-199.3345 626.8471,-205.7507"/>
</g>
<!-- Node32&#45;&gt;Node1 -->
<g id="edge56" class="edge">
<title>Node32&#45;&gt;Node1</title>
<path fill="none" stroke="#191970" d="M725.6809,-168.4731C781.0892,-151.9163 866.1353,-121.4563 929.1064,-76 947.405,-62.7909 963.7195,-42.5875 974.1564,-28.0135"/>
<polygon fill="#191970" stroke="#191970" points="977.043,-29.9928 979.8605,-19.7795 971.2889,-26.0066 977.043,-29.9928"/>
</g>
<!-- Node32&#45;&gt;Node4 -->
<g id="edge61" class="edge">
<title>Node32&#45;&gt;Node4</title>
<path fill="none" stroke="#191970" d="M618.1319,-168.4013C566.4383,-153.3063 484.0281,-129.8355 412.1064,-112 339.2545,-93.9338 301.8897,-127.3085 247.1064,-76 234.4846,-64.1788 230.0658,-44.5687 228.6067,-29.789"/>
<polygon fill="#191970" stroke="#191970" points="232.0896,-29.4032 227.9809,-19.6375 225.1029,-29.834 232.0896,-29.4032"/>
</g>
<!-- Node33 -->
<g id="node34" class="node">
<title>Node33</title>
<g id="a_node34"><a xlink:href="support_8h.html" target="_top" xlink:title="ODP support API &#45; platform specific header. ">
<polygon fill="#ffffff" stroke="#000000" points="619.6064,-112.5 619.6064,-131.5 720.6064,-131.5 720.6064,-112.5 619.6064,-112.5"/>
<text text-anchor="middle" x="670.1064" y="-119.5" font-family="Helvetica,sans-Serif" font-size="10.00" fill="#000000">odp/api/support.h</text>
</a>
</g>
</g>
<!-- Node32&#45;&gt;Node33 -->
<g id="edge57" class="edge">
<title>Node32&#45;&gt;Node33</title>
<path fill="none" stroke="#191970" d="M669.3535,-168.2977C669.4822,-160.3834 669.6412,-150.6043 669.7799,-142.0759"/>
<polygon fill="#191970" stroke="#191970" points="673.2831,-141.9025 669.9462,-131.8469 666.284,-141.7887 673.2831,-141.9025"/>
</g>
<!-- Node34 -->
<g id="node35" class="node">
<title>Node34</title>
<g id="a_node35"><a xlink:href="spec_2support_8h.html" target="_top" xlink:title="ODP support API. ">
<polygon fill="#ffffff" stroke="#000000" points="622.6064,-56.5 622.6064,-75.5 749.6064,-75.5 749.6064,-56.5 622.6064,-56.5"/>
<text text-anchor="middle" x="686.1064" y="-63.5" font-family="Helvetica,sans-Serif" font-size="10.00" fill="#000000">odp/api/spec/support.h</text>
</a>
</g>
</g>
<!-- Node33&#45;&gt;Node34 -->
<g id="edge58" class="edge">
<title>Node33&#45;&gt;Node34</title>
<path fill="none" stroke="#191970" d="M672.8933,-112.2455C675.0041,-104.8579 677.9724,-94.4689 680.561,-85.4087"/>
<polygon fill="#191970" stroke="#191970" points="683.9694,-86.2195 683.3513,-75.6427 677.2387,-84.2964 683.9694,-86.2195"/>
</g>
<!-- Node34&#45;&gt;Node1 -->
<g id="edge59" class="edge">
<title>Node34&#45;&gt;Node1</title>
<path fill="none" stroke="#191970" d="M737.3373,-56.4369C789.3272,-46.7321 869.8137,-31.708 925.0744,-21.3926"/>
<polygon fill="#191970" stroke="#191970" points="925.8988,-24.7993 935.0867,-19.5237 924.6142,-17.9182 925.8988,-24.7993"/>
</g>
<!-- Node34&#45;&gt;Node4 -->
<g id="edge60" class="edge">
<title>Node34&#45;&gt;Node4</title>
<path fill="none" stroke="#191970" d="M622.4137,-57.2092C619.2673,-56.7956 616.1515,-56.3905 613.1064,-56 501.2813,-41.6614 370.991,-26.3958 294.2577,-17.5531"/>
<polygon fill="#191970" stroke="#191970" points="294.5873,-14.068 284.2527,-16.4016 293.7868,-21.0221 294.5873,-14.068"/>
</g>
<!-- Node36 -->
<g id="node37" class="node">
<title>Node36</title>
<g id="a_node37"><a xlink:href="spec_2reassembly_8h.html" target="_top" xlink:title="ODP REASSEMBLY API. ">
<polygon fill="#ffffff" stroke="#000000" points="458.1064,-56.5 458.1064,-75.5 604.1064,-75.5 604.1064,-56.5 458.1064,-56.5"/>
<text text-anchor="middle" x="531.1064" y="-63.5" font-family="Helvetica,sans-Serif" font-size="10.00" fill="#000000">odp/api/spec/reassembly.h</text>
</a>
</g>
</g>
<!-- Node35&#45;&gt;Node36 -->
<g id="edge66" class="edge">
<title>Node35&#45;&gt;Node36</title>
<path fill="none" stroke="#191970" d="M352.2223,-582.3747C357.2988,-540.2432 380.0241,-368.2366 427.1064,-235 438.2322,-203.5154 444.0663,-196.7176 461.1064,-168 479.2593,-137.4068 503.2251,-103.7029 517.8829,-83.7202"/>
<polygon fill="#191970" stroke="#191970" points="520.7809,-85.6878 523.9082,-75.565 515.1508,-81.5281 520.7809,-85.6878"/>
</g>
<!-- Node36&#45;&gt;Node1 -->
<g id="edge67" class="edge">
<title>Node36&#45;&gt;Node1</title>
<path fill="none" stroke="#191970" d="M604.21,-57.0026C689.9049,-46.4556 830.9394,-29.0975 915.5288,-18.6865"/>
<polygon fill="#191970" stroke="#191970" points="916.0598,-22.1476 925.5573,-17.4522 915.2046,-15.2 916.0598,-22.1476"/>
</g>
<!-- Node36&#45;&gt;Node4 -->
<g id="edge68" class="edge">
<title>Node36&#45;&gt;Node4</title>
<path fill="none" stroke="#191970" d="M479.3631,-56.4369C426.8533,-46.7321 345.562,-31.708 289.7486,-21.3926"/>
<polygon fill="#191970" stroke="#191970" points="290.1058,-17.8994 279.6362,-19.5237 288.8336,-24.7829 290.1058,-17.8994"/>
</g>
</g>
</svg>
