<?xml version="1.0" encoding="UTF-8" standalone="no"?>
<!DOCTYPE svg PUBLIC "-//W3C//DTD SVG 1.1//EN"
 "http://www.w3.org/Graphics/SVG/1.1/DTD/svg11.dtd">
<!-- Generated by graphviz version 2.40.1 (20161225.0304)
 -->
<!-- Title: ipsec.h Pages: 1 -->
<svg width="2254pt" height="946pt"
 viewBox="0.00 0.00 2254.00 946.00" xmlns="http://www.w3.org/2000/svg" xmlns:xlink="http://www.w3.org/1999/xlink">
<g id="graph0" class="graph" transform="scale(1 1) rotate(0) translate(4 942)">
<title>ipsec.h</title>
<polygon fill="#ffffff" stroke="transparent" points="-4,4 -4,-942 2250,-942 2250,4 -4,4"/>
<!-- Node0 -->
<g id="node1" class="node">
<title>Node0</title>
<polygon fill="#bfbfbf" stroke="#000000" points="1301.5,-918.5 1301.5,-937.5 1352.5,-937.5 1352.5,-918.5 1301.5,-918.5"/>
<text text-anchor="middle" x="1327" y="-925.5" font-family="Helvetica,sans-Serif" font-size="10.00" fill="#000000">ipsec.h</text>
</g>
<!-- Node1 -->
<g id="node2" class="node">
<title>Node1</title>
<g id="a_node2"><a xlink:href="visibility__begin_8h_source.html" target="_top" xlink:title="odp/visibility_begin.h">
<polygon fill="#ffffff" stroke="#000000" points="617.5,-.5 617.5,-19.5 738.5,-19.5 738.5,-.5 617.5,-.5"/>
<text text-anchor="middle" x="678" y="-7.5" font-family="Helvetica,sans-Serif" font-size="10.00" fill="#000000">odp/visibility_begin.h</text>
</a>
</g>
</g>
<!-- Node0&#45;&gt;Node1 -->
<g id="edge1" class="edge">
<title>Node0&#45;&gt;Node1</title>
<path fill="none" stroke="#191970" d="M1301.3551,-927.538C1141.2407,-924.5802 281.9555,-907.6049 168,-882 88.8264,-864.2103 0,-891.6476 0,-810.5 0,-810.5 0,-810.5 0,-122 0,-58.3885 65.8884,-73.6577 127,-56 215.2172,-30.5103 479.3203,-17.4278 607.1458,-12.4441"/>
<polygon fill="#191970" stroke="#191970" points="607.3665,-15.9383 617.2247,-12.0569 607.0977,-8.9435 607.3665,-15.9383"/>
</g>
<!-- Node2 -->
<g id="node3" class="node">
<title>Node2</title>
<g id="a_node3"><a xlink:href="api_2crypto_8h.html" target="_top" xlink:title="ODP crypto. ">
<polygon fill="#ffffff" stroke="#000000" points="572.5,-683.5 572.5,-702.5 667.5,-702.5 667.5,-683.5 572.5,-683.5"/>
<text text-anchor="middle" x="620" y="-690.5" font-family="Helvetica,sans-Serif" font-size="10.00" fill="#000000">odp/api/crypto.h</text>
</a>
</g>
</g>
<!-- Node0&#45;&gt;Node2 -->
<g id="edge2" class="edge">
<title>Node0&#45;&gt;Node2</title>
<path fill="none" stroke="#191970" d="M1301.4172,-926.6734C1196.6496,-920.82 801.1323,-894.4882 700,-826 659.0666,-798.2793 635.7152,-741.9802 625.769,-712.3036"/>
<polygon fill="#191970" stroke="#191970" points="629.0728,-711.1433 622.7034,-702.6768 622.4029,-713.2674 629.0728,-711.1433"/>
</g>
<!-- Node10 -->
<g id="node11" class="node">
<title>Node10</title>
<g id="a_node11"><a xlink:href="visibility__end_8h_source.html" target="_top" xlink:title="odp/visibility_end.h">
<polygon fill="#ffffff" stroke="#000000" points="1751,-.5 1751,-19.5 1863,-19.5 1863,-.5 1751,-.5"/>
<text text-anchor="middle" x="1807" y="-7.5" font-family="Helvetica,sans-Serif" font-size="10.00" fill="#000000">odp/visibility_end.h</text>
</a>
</g>
</g>
<!-- Node0&#45;&gt;Node10 -->
<g id="edge118" class="edge">
<title>Node0&#45;&gt;Node10</title>
<path fill="none" stroke="#191970" d="M1352.5385,-927.4937C1500.9637,-924.2229 2246,-903.1883 2246,-810.5 2246,-810.5 2246,-810.5 2246,-122 2246,-87.6999 2234.8706,-74.5197 2206,-56 2178.6371,-38.4475 1979.4117,-22.0577 1873.2318,-14.4508"/>
<polygon fill="#191970" stroke="#191970" points="1873.4786,-10.9596 1863.2557,-13.7423 1872.9826,-17.942 1873.4786,-10.9596"/>
</g>
<!-- Node31 -->
<g id="node33" class="node">
<title>Node31</title>
<g id="a_node33"><a xlink:href="support_8h.html" target="_top" xlink:title="ODP support API &#45; platform specific header. ">
<polygon fill="#ffffff" stroke="#000000" points="1458.5,-403.5 1458.5,-422.5 1559.5,-422.5 1559.5,-403.5 1458.5,-403.5"/>
<text text-anchor="middle" x="1509" y="-410.5" font-family="Helvetica,sans-Serif" font-size="10.00" fill="#000000">odp/api/support.h</text>
</a>
</g>
</g>
<!-- Node0&#45;&gt;Node31 -->
<g id="edge66" class="edge">
<title>Node0&#45;&gt;Node31</title>
<path fill="none" stroke="#191970" d="M1352.7912,-921.3024C1414.9626,-904.4021 1568,-857.9792 1568,-810.5 1568,-810.5 1568,-810.5 1568,-637 1568,-558.7028 1533.8742,-469.9377 1517.5299,-431.9143"/>
<polygon fill="#191970" stroke="#191970" points="1520.6593,-430.3357 1513.4346,-422.5862 1514.2498,-433.1497 1520.6593,-430.3357"/>
</g>
<!-- Node36 -->
<g id="node35" class="node">
<title>Node36</title>
<g id="a_node35"><a xlink:href="api_2packet__io_8h.html" target="_top" xlink:title="ODP Packet IO. ">
<polygon fill="#ffffff" stroke="#000000" points="810,-739.5 810,-758.5 922,-758.5 922,-739.5 810,-739.5"/>
<text text-anchor="middle" x="866" y="-746.5" font-family="Helvetica,sans-Serif" font-size="10.00" fill="#000000">odp/api/packet_io.h</text>
</a>
</g>
</g>
<!-- Node0&#45;&gt;Node36 -->
<g id="edge67" class="edge">
<title>Node0&#45;&gt;Node36</title>
<path fill="none" stroke="#191970" d="M1302.2146,-918.3762C1225.0503,-888.4143 988.9728,-796.7486 900.2155,-762.2854"/>
<polygon fill="#191970" stroke="#191970" points="901.2163,-758.9195 890.6275,-758.5625 898.6825,-765.4448 901.2163,-758.9195"/>
</g>
<!-- Node43 -->
<g id="node42" class="node">
<title>Node43</title>
<g id="a_node42"><a xlink:href="protocols_8h.html" target="_top" xlink:title="ODP protocols. ">
<polygon fill="#ffffff" stroke="#000000" points="1761,-862.5 1761,-881.5 1871,-881.5 1871,-862.5 1761,-862.5"/>
<text text-anchor="middle" x="1816" y="-869.5" font-family="Helvetica,sans-Serif" font-size="10.00" fill="#000000">odp/api/protocols.h</text>
</a>
</g>
</g>
<!-- Node0&#45;&gt;Node43 -->
<g id="edge90" class="edge">
<title>Node0&#45;&gt;Node43</title>
<path fill="none" stroke="#191970" d="M1352.6023,-925.068C1426.372,-916.62 1641.0721,-892.0326 1750.3909,-879.5135"/>
<polygon fill="#191970" stroke="#191970" points="1751.0961,-882.9557 1760.6329,-878.3406 1750.2996,-876.0012 1751.0961,-882.9557"/>
</g>
<!-- Node45 -->
<g id="node44" class="node">
<title>Node45</title>
<g id="a_node44"><a xlink:href="api_2classification_8h.html" target="_top" xlink:title="ODP classification descriptor. ">
<polygon fill="#ffffff" stroke="#000000" points="177,-862.5 177,-881.5 305,-881.5 305,-862.5 177,-862.5"/>
<text text-anchor="middle" x="241" y="-869.5" font-family="Helvetica,sans-Serif" font-size="10.00" fill="#000000">odp/api/classification.h</text>
</a>
</g>
</g>
<!-- Node0&#45;&gt;Node45 -->
<g id="edge94" class="edge">
<title>Node0&#45;&gt;Node45</title>
<path fill="none" stroke="#191970" d="M1301.4907,-926.6846C1166.5015,-919.7238 533.4568,-887.0806 315.194,-875.8258"/>
<polygon fill="#191970" stroke="#191970" points="315.2847,-872.326 305.1177,-875.3063 314.9241,-879.3167 315.2847,-872.326"/>
</g>
<!-- Node49 -->
<g id="node48" class="node">
<title>Node49</title>
<g id="a_node48"><a xlink:href="api_2traffic__mngr_8h.html" target="_top" xlink:title="ODP Traffic manager. ">
<polygon fill="#ffffff" stroke="#000000" points="1310.5,-862.5 1310.5,-881.5 1433.5,-881.5 1433.5,-862.5 1310.5,-862.5"/>
<text text-anchor="middle" x="1372" y="-869.5" font-family="Helvetica,sans-Serif" font-size="10.00" fill="#000000">odp/api/traffic_mngr.h</text>
</a>
</g>
</g>
<!-- Node0&#45;&gt;Node49 -->
<g id="edge111" class="edge">
<title>Node0&#45;&gt;Node49</title>
<path fill="none" stroke="#191970" d="M1334.8384,-918.2455C1341.162,-910.3761 1350.2224,-899.101 1357.8136,-889.6542"/>
<polygon fill="#191970" stroke="#191970" points="1360.7158,-891.6302 1364.2514,-881.6427 1355.2592,-887.2454 1360.7158,-891.6302"/>
</g>
<!-- Node3 -->
<g id="node4" class="node">
<title>Node3</title>
<g id="a_node4"><a xlink:href="api_2std__types_8h.html" target="_top" xlink:title="Standard C language types and definitions for ODP. ">
<polygon fill="#ffffff" stroke="#000000" points="951,-235.5 951,-254.5 1063,-254.5 1063,-235.5 951,-235.5"/>
<text text-anchor="middle" x="1007" y="-242.5" font-family="Helvetica,sans-Serif" font-size="10.00" fill="#000000">odp/api/std_types.h</text>
</a>
</g>
</g>
<!-- Node2&#45;&gt;Node3 -->
<g id="edge3" class="edge">
<title>Node2&#45;&gt;Node3</title>
<path fill="none" stroke="#191970" d="M572.1957,-684.5931C529.645,-676.2637 471.5047,-662.5304 454,-647 349.1786,-554.0009 262.9579,-450.8867 357,-347 411.1047,-287.2314 641.5267,-336.5233 718,-311 734.2679,-305.5705 734.9574,-297.0628 751,-291 812.8756,-267.616 887.7593,-255.9317 940.5052,-250.2141"/>
<polygon fill="#191970" stroke="#191970" points="941.1647,-253.6645 950.7488,-249.1484 940.4403,-246.702 941.1647,-253.6645"/>
</g>
<!-- Node11 -->
<g id="node12" class="node">
<title>Node11</title>
<polygon fill="#ffffff" stroke="#bfbfbf" points="664,-347.5 664,-366.5 780,-366.5 780,-347.5 664,-347.5"/>
<text text-anchor="middle" x="722" y="-354.5" font-family="Helvetica,sans-Serif" font-size="10.00" fill="#000000">odp/api/abi/packet.h</text>
</g>
<!-- Node2&#45;&gt;Node11 -->
<g id="edge14" class="edge">
<title>Node2&#45;&gt;Node11</title>
<path fill="none" stroke="#191970" d="M620,-683.4116C620,-664.0538 620,-618.9167 620,-581 620,-581 620,-581 620,-525 620,-461.6859 673.5876,-401.8929 703.0797,-373.7799"/>
<polygon fill="#191970" stroke="#191970" points="705.7448,-376.0817 710.6945,-366.7141 700.9834,-370.9504 705.7448,-376.0817"/>
</g>
<!-- Node12 -->
<g id="node13" class="node">
<title>Node12</title>
<polygon fill="#ffffff" stroke="#bfbfbf" points="478.5,-627.5 478.5,-646.5 591.5,-646.5 591.5,-627.5 478.5,-627.5"/>
<text text-anchor="middle" x="535" y="-634.5" font-family="Helvetica,sans-Serif" font-size="10.00" fill="#000000">odp/api/abi/crypto.h</text>
</g>
<!-- Node2&#45;&gt;Node12 -->
<g id="edge15" class="edge">
<title>Node2&#45;&gt;Node12</title>
<path fill="none" stroke="#191970" d="M605.1941,-683.2455C592.2744,-674.7337 573.3069,-662.2375 558.3448,-652.3801"/>
<polygon fill="#191970" stroke="#191970" points="559.9124,-649.2216 549.6362,-646.6427 556.0613,-655.067 559.9124,-649.2216"/>
</g>
<!-- Node13 -->
<g id="node14" class="node">
<title>Node13</title>
<polygon fill="#ffffff" stroke="#bfbfbf" points="536,-347.5 536,-366.5 646,-366.5 646,-347.5 536,-347.5"/>
<text text-anchor="middle" x="591" y="-354.5" font-family="Helvetica,sans-Serif" font-size="10.00" fill="#000000">odp/api/abi/buffer.h</text>
</g>
<!-- Node2&#45;&gt;Node13 -->
<g id="edge16" class="edge">
<title>Node2&#45;&gt;Node13</title>
<path fill="none" stroke="#191970" d="M572.398,-684.8339C532.9776,-676.9869 481.4787,-663.8463 469,-647 401.0919,-555.3235 525.2129,-420.1919 573.2141,-373.5452"/>
<polygon fill="#191970" stroke="#191970" points="575.6684,-376.041 580.4768,-366.6001 570.8305,-370.9818 575.6684,-376.041"/>
</g>
<!-- Node14 -->
<g id="node15" class="node">
<title>Node14</title>
<polygon fill="#ffffff" stroke="#bfbfbf" points="1078,-347.5 1078,-366.5 1182,-366.5 1182,-347.5 1078,-347.5"/>
<text text-anchor="middle" x="1130" y="-354.5" font-family="Helvetica,sans-Serif" font-size="10.00" fill="#000000">odp/api/abi/pool.h</text>
</g>
<!-- Node2&#45;&gt;Node14 -->
<g id="edge17" class="edge">
<title>Node2&#45;&gt;Node14</title>
<path fill="none" stroke="#191970" d="M667.505,-686.8387C710.4924,-680.2568 774.9966,-667.8444 828,-647 844.3153,-640.5837 845.6676,-633.3727 862,-627 932.7333,-599.4005 968.3564,-636.6869 1029,-591 1100.35,-537.2472 1121.9783,-422.7418 1127.9336,-376.7385"/>
<polygon fill="#191970" stroke="#191970" points="1131.4342,-376.9386 1129.1307,-366.5973 1124.4824,-376.118 1131.4342,-376.9386"/>
</g>
<!-- Node15 -->
<g id="node16" class="node">
<title>Node15</title>
<g id="a_node16"><a xlink:href="api_2queue_8h.html" target="_top" xlink:title="ODP queue. ">
<polygon fill="#ffffff" stroke="#000000" points="724.5,-627.5 724.5,-646.5 819.5,-646.5 819.5,-627.5 724.5,-627.5"/>
<text text-anchor="middle" x="772" y="-634.5" font-family="Helvetica,sans-Serif" font-size="10.00" fill="#000000">odp/api/queue.h</text>
</a>
</g>
</g>
<!-- Node2&#45;&gt;Node15 -->
<g id="edge18" class="edge">
<title>Node2&#45;&gt;Node15</title>
<path fill="none" stroke="#191970" d="M646.1297,-683.3733C671.0768,-674.1822 708.8592,-660.2624 736.5206,-650.0713"/>
<polygon fill="#191970" stroke="#191970" points="738.0378,-653.2424 746.2112,-646.5011 735.6178,-646.674 738.0378,-653.2424"/>
</g>
<!-- Node35 -->
<g id="node32" class="node">
<title>Node35</title>
<g id="a_node32"><a xlink:href="api_2spec_2crypto_8h.html" target="_top" xlink:title="ODP crypto. ">
<polygon fill="#ffffff" stroke="#000000" points="1242.5,-459.5 1242.5,-478.5 1363.5,-478.5 1363.5,-459.5 1242.5,-459.5"/>
<text text-anchor="middle" x="1303" y="-466.5" font-family="Helvetica,sans-Serif" font-size="10.00" fill="#000000">odp/api/spec/crypto.h</text>
</a>
</g>
</g>
<!-- Node2&#45;&gt;Node35 -->
<g id="edge57" class="edge">
<title>Node2&#45;&gt;Node35</title>
<path fill="none" stroke="#191970" d="M667.9524,-684.8781C716.9209,-676.3517 795.0432,-662.106 862,-647 957.9033,-625.3635 985.5584,-629.5474 1076,-591 1135.4631,-565.656 1142.8138,-545.1316 1200,-515 1222.7813,-502.9964 1249.3321,-491.1886 1269.7708,-482.5419"/>
<polygon fill="#191970" stroke="#191970" points="1271.3979,-485.655 1279.27,-478.5641 1268.6941,-479.1983 1271.3979,-485.655"/>
</g>
<!-- Node4 -->
<g id="node5" class="node">
<title>Node4</title>
<polygon fill="#ffffff" stroke="#bfbfbf" points="942,-174 942,-193 1072,-193 1072,-174 942,-174"/>
<text text-anchor="middle" x="1007" y="-181" font-family="Helvetica,sans-Serif" font-size="10.00" fill="#000000">odp/api/abi/std_types.h</text>
</g>
<!-- Node3&#45;&gt;Node4 -->
<g id="edge4" class="edge">
<title>Node3&#45;&gt;Node4</title>
<path fill="none" stroke="#191970" d="M1007,-235.3906C1007,-226.8657 1007,-214.1392 1007,-203.4235"/>
<polygon fill="#191970" stroke="#191970" points="1010.5001,-203.2448 1007,-193.2449 1003.5001,-203.2449 1010.5001,-203.2448"/>
</g>
<!-- Node5 -->
<g id="node6" class="node">
<title>Node5</title>
<g id="a_node6"><a xlink:href="api_2spec_2std__types_8h.html" target="_top" xlink:title="Standard C language types and definitions for ODP. ">
<polygon fill="#ffffff" stroke="#000000" points="777.5,-174 777.5,-193 914.5,-193 914.5,-174 777.5,-174"/>
<text text-anchor="middle" x="846" y="-181" font-family="Helvetica,sans-Serif" font-size="10.00" fill="#000000">odp/api/spec/std_types.h</text>
</a>
</g>
</g>
<!-- Node3&#45;&gt;Node5 -->
<g id="edge5" class="edge">
<title>Node3&#45;&gt;Node5</title>
<path fill="none" stroke="#191970" d="M981.8438,-235.3906C954.551,-224.9652 910.808,-208.2559 880.3603,-196.6252"/>
<polygon fill="#191970" stroke="#191970" points="881.5702,-193.3408 870.9796,-193.0419 879.0723,-199.8799 881.5702,-193.3408"/>
</g>
<!-- Node5&#45;&gt;Node1 -->
<g id="edge6" class="edge">
<title>Node5&#45;&gt;Node1</title>
<path fill="none" stroke="#191970" d="M791.3077,-173.9624C747.6825,-165.1096 691.6932,-150.5198 678,-132 655.8533,-102.047 664.1367,-55.6679 671.4914,-29.57"/>
<polygon fill="#191970" stroke="#191970" points="674.9218,-30.3201 674.4952,-19.7339 668.227,-28.2756 674.9218,-30.3201"/>
</g>
<!-- Node6 -->
<g id="node7" class="node">
<title>Node6</title>
<polygon fill="#ffffff" stroke="#bfbfbf" points="687.5,-112.5 687.5,-131.5 740.5,-131.5 740.5,-112.5 687.5,-112.5"/>
<text text-anchor="middle" x="714" y="-119.5" font-family="Helvetica,sans-Serif" font-size="10.00" fill="#000000">stdint.h</text>
</g>
<!-- Node5&#45;&gt;Node6 -->
<g id="edge7" class="edge">
<title>Node5&#45;&gt;Node6</title>
<path fill="none" stroke="#191970" d="M825.375,-173.8906C803.4827,-163.6908 768.6807,-147.4763 743.8073,-135.8875"/>
<polygon fill="#191970" stroke="#191970" points="745.0228,-132.5926 734.4802,-131.5419 742.0665,-138.9377 745.0228,-132.5926"/>
</g>
<!-- Node7 -->
<g id="node8" class="node">
<title>Node7</title>
<g id="a_node8"><a xlink:href="api_2align_8h.html" target="_top" xlink:title="ODP alignments. ">
<polygon fill="#ffffff" stroke="#000000" points="801.5,-112.5 801.5,-131.5 890.5,-131.5 890.5,-112.5 801.5,-112.5"/>
<text text-anchor="middle" x="846" y="-119.5" font-family="Helvetica,sans-Serif" font-size="10.00" fill="#000000">odp/api/align.h</text>
</a>
</g>
</g>
<!-- Node5&#45;&gt;Node7 -->
<g id="edge8" class="edge">
<title>Node5&#45;&gt;Node7</title>
<path fill="none" stroke="#191970" d="M846,-173.8906C846,-165.3657 846,-152.6392 846,-141.9235"/>
<polygon fill="#191970" stroke="#191970" points="849.5001,-141.7448 846,-131.7449 842.5001,-141.7449 849.5001,-141.7448"/>
</g>
<!-- Node5&#45;&gt;Node10 -->
<g id="edge13" class="edge">
<title>Node5&#45;&gt;Node10</title>
<path fill="none" stroke="#191970" d="M891.0265,-173.9606C988.1204,-153.161 1214.3547,-103.4026 1288,-76 1306.2568,-69.2069 1308.3045,-61.4712 1327,-56 1402.7704,-33.8261 1627.4457,-19.3563 1740.4802,-13.2748"/>
<polygon fill="#191970" stroke="#191970" points="1740.9321,-16.7558 1750.7321,-12.7298 1740.5604,-9.7657 1740.9321,-16.7558"/>
</g>
<!-- Node8 -->
<g id="node9" class="node">
<title>Node8</title>
<polygon fill="#ffffff" stroke="#bfbfbf" points="725.5,-56.5 725.5,-75.5 832.5,-75.5 832.5,-56.5 725.5,-56.5"/>
<text text-anchor="middle" x="779" y="-63.5" font-family="Helvetica,sans-Serif" font-size="10.00" fill="#000000">odp/api/abi/align.h</text>
</g>
<!-- Node7&#45;&gt;Node8 -->
<g id="edge9" class="edge">
<title>Node7&#45;&gt;Node8</title>
<path fill="none" stroke="#191970" d="M834.3295,-112.2455C824.4339,-103.9746 810.0373,-91.9416 798.4099,-82.2232"/>
<polygon fill="#191970" stroke="#191970" points="800.4542,-79.3703 790.5368,-75.6427 795.965,-84.7413 800.4542,-79.3703"/>
</g>
<!-- Node9 -->
<g id="node10" class="node">
<title>Node9</title>
<g id="a_node10"><a xlink:href="api_2spec_2align_8h.html" target="_top" xlink:title="ODP alignments. ">
<polygon fill="#ffffff" stroke="#000000" points="889,-56.5 889,-75.5 1003,-75.5 1003,-56.5 889,-56.5"/>
<text text-anchor="middle" x="946" y="-63.5" font-family="Helvetica,sans-Serif" font-size="10.00" fill="#000000">odp/api/spec/align.h</text>
</a>
</g>
</g>
<!-- Node7&#45;&gt;Node9 -->
<g id="edge10" class="edge">
<title>Node7&#45;&gt;Node9</title>
<path fill="none" stroke="#191970" d="M863.4187,-112.2455C879.0485,-103.4928 902.2019,-90.527 920.0185,-80.5496"/>
<polygon fill="#191970" stroke="#191970" points="921.766,-83.5825 928.7809,-75.6427 918.3457,-77.475 921.766,-83.5825"/>
</g>
<!-- Node9&#45;&gt;Node1 -->
<g id="edge11" class="edge">
<title>Node9&#45;&gt;Node1</title>
<path fill="none" stroke="#191970" d="M900.2337,-56.4369C854.0785,-46.7925 782.7822,-31.8948 733.4463,-21.5858"/>
<polygon fill="#191970" stroke="#191970" points="734.0821,-18.1431 723.5776,-19.5237 732.6502,-24.9951 734.0821,-18.1431"/>
</g>
<!-- Node9&#45;&gt;Node10 -->
<g id="edge12" class="edge">
<title>Node9&#45;&gt;Node10</title>
<path fill="none" stroke="#191970" d="M1003.1959,-57.0028C1006.1702,-56.6386 1009.1184,-56.301 1012,-56 1281.3645,-27.8617 1604.0047,-15.8515 1740.6555,-11.7631"/>
<polygon fill="#191970" stroke="#191970" points="1741.0602,-15.2528 1750.9527,-11.4595 1740.8539,-8.2558 1741.0602,-15.2528"/>
</g>
<!-- Node15&#45;&gt;Node3 -->
<g id="edge19" class="edge">
<title>Node15&#45;&gt;Node3</title>
<path fill="none" stroke="#191970" d="M752.259,-627.4624C679.2362,-590.9875 433.3824,-456.8646 527,-347 559.6993,-308.6258 701.6477,-321.3044 751,-311 771.4861,-306.7227 892.7233,-275.0395 960.753,-257.1722"/>
<polygon fill="#191970" stroke="#191970" points="962.0061,-260.4618 970.7883,-254.5353 960.2271,-253.6916 962.0061,-260.4618"/>
</g>
<!-- Node15&#45;&gt;Node13 -->
<g id="edge22" class="edge">
<title>Node15&#45;&gt;Node13</title>
<path fill="none" stroke="#191970" d="M765.7696,-627.3618C739.4983,-586.7211 637.5184,-428.9622 602.7156,-375.1236"/>
<polygon fill="#191970" stroke="#191970" points="605.5724,-373.0957 597.2042,-366.5977 599.6937,-376.8959 605.5724,-373.0957"/>
</g>
<!-- Node15&#45;&gt;Node14 -->
<g id="edge23" class="edge">
<title>Node15&#45;&gt;Node14</title>
<path fill="none" stroke="#191970" d="M819.6996,-628.6318C885.6539,-616.9095 997.4892,-596.4237 1005,-591 1036.4636,-568.2796 1028.6665,-548.651 1048,-515 1057.2276,-498.9388 1060.1868,-495.2923 1069,-479 1088.52,-442.9147 1109.5575,-399.7953 1121.1183,-375.6896"/>
<polygon fill="#191970" stroke="#191970" points="1124.3087,-377.1307 1125.4607,-366.5987 1117.9922,-374.1136 1124.3087,-377.1307"/>
</g>
<!-- Node16 -->
<g id="node17" class="node">
<title>Node16</title>
<polygon fill="#ffffff" stroke="#bfbfbf" points="874,-347.5 874,-366.5 984,-366.5 984,-347.5 874,-347.5"/>
<text text-anchor="middle" x="929" y="-354.5" font-family="Helvetica,sans-Serif" font-size="10.00" fill="#000000">odp/api/abi/event.h</text>
</g>
<!-- Node15&#45;&gt;Node16 -->
<g id="edge20" class="edge">
<title>Node15&#45;&gt;Node16</title>
<path fill="none" stroke="#191970" d="M773.055,-627.4338C776.4739,-599.5922 789.1209,-516.9166 824,-459 845.7196,-422.9347 883.2967,-390.8341 907.1141,-372.6688"/>
<polygon fill="#191970" stroke="#191970" points="909.2909,-375.4115 915.2115,-366.6253 905.104,-369.8017 909.2909,-375.4115"/>
</g>
<!-- Node17 -->
<g id="node18" class="node">
<title>Node17</title>
<polygon fill="#ffffff" stroke="#bfbfbf" points="366.5,-347.5 366.5,-366.5 479.5,-366.5 479.5,-347.5 366.5,-347.5"/>
<text text-anchor="middle" x="423" y="-354.5" font-family="Helvetica,sans-Serif" font-size="10.00" fill="#000000">odp/api/abi/queue.h</text>
</g>
<!-- Node15&#45;&gt;Node17 -->
<g id="edge21" class="edge">
<title>Node15&#45;&gt;Node17</title>
<path fill="none" stroke="#191970" d="M738.7603,-627.4453C712.3865,-619.3028 674.9398,-606.4749 644,-591 603.5391,-570.763 592.0871,-565.8523 559,-535 504.6351,-484.3072 455.6387,-410.0875 434.2991,-375.7297"/>
<polygon fill="#191970" stroke="#191970" points="437.022,-373.4749 428.8095,-366.7812 431.0553,-377.1353 437.022,-373.4749"/>
</g>
<!-- Node18 -->
<g id="node19" class="node">
<title>Node18</title>
<g id="a_node19"><a xlink:href="api_2spec_2queue_8h.html" target="_top" xlink:title="ODP queue. ">
<polygon fill="#ffffff" stroke="#000000" points="876,-571.5 876,-590.5 996,-590.5 996,-571.5 876,-571.5"/>
<text text-anchor="middle" x="936" y="-578.5" font-family="Helvetica,sans-Serif" font-size="10.00" fill="#000000">odp/api/spec/queue.h</text>
</a>
</g>
</g>
<!-- Node15&#45;&gt;Node18 -->
<g id="edge24" class="edge">
<title>Node15&#45;&gt;Node18</title>
<path fill="none" stroke="#191970" d="M800.1926,-627.3733C827.3453,-618.1016 868.5907,-604.0178 898.5025,-593.804"/>
<polygon fill="#191970" stroke="#191970" points="899.8428,-597.0449 908.1753,-590.5011 897.5808,-590.4204 899.8428,-597.0449"/>
</g>
<!-- Node18&#45;&gt;Node1 -->
<g id="edge25" class="edge">
<title>Node18&#45;&gt;Node1</title>
<path fill="none" stroke="#191970" d="M926.2236,-571.2941C917.4724,-562.3259 904.5817,-548.4018 895,-535 839.2119,-456.9701 868.5523,-400.5949 789,-347 651.7903,-254.561 431,-410.4432 431,-245 431,-245 431,-245 431,-122 431,-75.5625 470.7464,-77.3209 512,-56 543.0446,-39.9554 580.3349,-28.9738 611.7008,-21.7762"/>
<polygon fill="#191970" stroke="#191970" points="612.6542,-25.15 621.661,-19.5706 611.1408,-18.3155 612.6542,-25.15"/>
</g>
<!-- Node18&#45;&gt;Node10 -->
<g id="edge56" class="edge">
<title>Node18&#45;&gt;Node10</title>
<path fill="none" stroke="#191970" d="M996.2821,-580.0729C1174.9231,-576.9884 1693.3942,-565.484 1763,-535 1990.7515,-435.2557 2210.764,-247.3469 2052,-56 2029.6705,-29.0879 1937.9006,-17.8223 1873.2595,-13.1734"/>
<polygon fill="#191970" stroke="#191970" points="1873.3477,-9.6714 1863.1327,-12.4827 1872.8714,-16.6552 1873.3477,-9.6714"/>
</g>
<!-- Node19 -->
<g id="node20" class="node">
<title>Node19</title>
<g id="a_node20"><a xlink:href="api_2event_8h.html" target="_top" xlink:title="ODP event. ">
<polygon fill="#ffffff" stroke="#000000" points="904,-515.5 904,-534.5 996,-534.5 996,-515.5 904,-515.5"/>
<text text-anchor="middle" x="950" y="-522.5" font-family="Helvetica,sans-Serif" font-size="10.00" fill="#000000">odp/api/event.h</text>
</a>
</g>
</g>
<!-- Node18&#45;&gt;Node19 -->
<g id="edge26" class="edge">
<title>Node18&#45;&gt;Node19</title>
<path fill="none" stroke="#191970" d="M938.4386,-571.2455C940.2855,-563.8579 942.8828,-553.4689 945.1478,-544.4087"/>
<polygon fill="#191970" stroke="#191970" points="948.5594,-545.193 947.5893,-534.6427 941.7684,-543.4952 948.5594,-545.193"/>
</g>
<!-- Node27 -->
<g id="node28" class="node">
<title>Node27</title>
<g id="a_node28"><a xlink:href="queue__types_8h.html" target="_top" xlink:title="ODP queue types. ">
<polygon fill="#ffffff" stroke="#000000" points="1408.5,-168.5 1408.5,-198.5 1519.5,-198.5 1519.5,-168.5 1408.5,-168.5"/>
<text text-anchor="start" x="1416.5" y="-186.5" font-family="Helvetica,sans-Serif" font-size="10.00" fill="#000000">odp/api/spec/queue</text>
<text text-anchor="middle" x="1464" y="-175.5" font-family="Helvetica,sans-Serif" font-size="10.00" fill="#000000">_types.h</text>
</a>
</g>
</g>
<!-- Node18&#45;&gt;Node27 -->
<g id="edge48" class="edge">
<title>Node18&#45;&gt;Node27</title>
<path fill="none" stroke="#191970" d="M972.1913,-571.4809C1022.958,-558.236 1118.268,-533.7625 1200,-515 1276.1209,-497.5256 1313.9609,-531.261 1372,-479 1452.1077,-406.8674 1463.1598,-266.3063 1464.193,-208.8722"/>
<polygon fill="#191970" stroke="#191970" points="1467.6956,-208.569 1464.2835,-198.5386 1460.6959,-208.5076 1467.6956,-208.569"/>
</g>
<!-- Node19&#45;&gt;Node16 -->
<g id="edge27" class="edge">
<title>Node19&#45;&gt;Node16</title>
<path fill="none" stroke="#191970" d="M944.2617,-515.3883C932.7813,-495.0366 908.6109,-445.9361 915,-403 916.3327,-394.0439 919.0494,-384.419 921.7381,-376.3"/>
<polygon fill="#191970" stroke="#191970" points="925.1067,-377.272 925.1376,-366.6772 918.5064,-374.9402 925.1067,-377.272"/>
</g>
<!-- Node20 -->
<g id="node21" class="node">
<title>Node20</title>
<g id="a_node21"><a xlink:href="api_2spec_2event_8h.html" target="_top" xlink:title="ODP event. ">
<polygon fill="#ffffff" stroke="#000000" points="942,-459.5 942,-478.5 1060,-478.5 1060,-459.5 942,-459.5"/>
<text text-anchor="middle" x="1001" y="-466.5" font-family="Helvetica,sans-Serif" font-size="10.00" fill="#000000">odp/api/spec/event.h</text>
</a>
</g>
</g>
<!-- Node19&#45;&gt;Node20 -->
<g id="edge28" class="edge">
<title>Node19&#45;&gt;Node20</title>
<path fill="none" stroke="#191970" d="M958.8835,-515.2455C966.1966,-507.2155 976.7391,-495.6394 985.4467,-486.0781"/>
<polygon fill="#191970" stroke="#191970" points="988.0727,-488.3928 992.2183,-478.6427 982.8972,-483.6795 988.0727,-488.3928"/>
</g>
<!-- Node20&#45;&gt;Node1 -->
<g id="edge29" class="edge">
<title>Node20&#45;&gt;Node1</title>
<path fill="none" stroke="#191970" d="M1009.7861,-459.2709C1017.0686,-450.5036 1026.8705,-436.8915 1031,-423 1041.7609,-386.8009 1025.6563,-365.9667 993,-347 802.1487,-236.1538 507,-465.7059 507,-245 507,-245 507,-245 507,-122 507,-90.7875 508.4331,-77.5628 531,-56 544.4753,-43.1242 586.86,-30.6318 622.6757,-21.9229"/>
<polygon fill="#191970" stroke="#191970" points="623.6547,-25.2878 632.574,-19.5697 622.0356,-18.4776 623.6547,-25.2878"/>
</g>
<!-- Node20&#45;&gt;Node10 -->
<g id="edge47" class="edge">
<title>Node20&#45;&gt;Node10</title>
<path fill="none" stroke="#191970" d="M1045.6557,-459.4489C1227.1875,-419.526 1904.5828,-259.5297 1998,-76 2002.0322,-68.0783 2003.5006,-62.9826 1998,-56 1982.5318,-36.3642 1922.1628,-24.1338 1873.3802,-17.2659"/>
<polygon fill="#191970" stroke="#191970" points="1873.5463,-13.7565 1863.1667,-15.881 1872.6057,-20.693 1873.5463,-13.7565"/>
</g>
<!-- Node21 -->
<g id="node22" class="node">
<title>Node21</title>
<g id="a_node22"><a xlink:href="api_2packet_8h.html" target="_top" xlink:title="ODP packet descriptor. ">
<polygon fill="#ffffff" stroke="#000000" points="924,-403.5 924,-422.5 1022,-422.5 1022,-403.5 924,-403.5"/>
<text text-anchor="middle" x="973" y="-410.5" font-family="Helvetica,sans-Serif" font-size="10.00" fill="#000000">odp/api/packet.h</text>
</a>
</g>
</g>
<!-- Node20&#45;&gt;Node21 -->
<g id="edge30" class="edge">
<title>Node20&#45;&gt;Node21</title>
<path fill="none" stroke="#191970" d="M996.1228,-459.2455C992.3487,-451.6973 987.0079,-441.0158 982.4099,-431.8197"/>
<polygon fill="#191970" stroke="#191970" points="985.424,-430.0217 977.8213,-422.6427 979.163,-433.1522 985.424,-430.0217"/>
</g>
<!-- Node21&#45;&gt;Node3 -->
<g id="edge31" class="edge">
<title>Node21&#45;&gt;Node3</title>
<path fill="none" stroke="#191970" d="M978.1592,-403.4327C982.8223,-394.3321 989.4788,-380.1207 993,-367 1002.4455,-331.804 1005.519,-289.2188 1006.5187,-264.8028"/>
<polygon fill="#191970" stroke="#191970" points="1010.0212,-264.7817 1006.8546,-254.6711 1003.025,-264.5496 1010.0212,-264.7817"/>
</g>
<!-- Node21&#45;&gt;Node11 -->
<g id="edge34" class="edge">
<title>Node21&#45;&gt;Node11</title>
<path fill="none" stroke="#191970" d="M930.1368,-403.4369C887.0898,-393.8328 820.6927,-379.0191 774.509,-368.7152"/>
<polygon fill="#191970" stroke="#191970" points="775.2087,-365.2853 764.6865,-366.5237 773.6843,-372.1173 775.2087,-365.2853"/>
</g>
<!-- Node21&#45;&gt;Node13 -->
<g id="edge36" class="edge">
<title>Node21&#45;&gt;Node13</title>
<path fill="none" stroke="#191970" d="M923.9455,-406.08C863.4734,-397.5102 757.278,-382.3338 656.2277,-367.1724"/>
<polygon fill="#191970" stroke="#191970" points="656.561,-363.6833 646.1519,-365.6581 655.5206,-370.6056 656.561,-363.6833"/>
</g>
<!-- Node21&#45;&gt;Node14 -->
<g id="edge37" class="edge">
<title>Node21&#45;&gt;Node14</title>
<path fill="none" stroke="#191970" d="M999.9893,-403.3733C1025.8699,-394.1419 1065.1248,-380.1402 1093.7289,-369.9375"/>
<polygon fill="#191970" stroke="#191970" points="1095.12,-373.1573 1103.3629,-366.5011 1092.7683,-366.5642 1095.12,-373.1573"/>
</g>
<!-- Node21&#45;&gt;Node16 -->
<g id="edge32" class="edge">
<title>Node21&#45;&gt;Node16</title>
<path fill="none" stroke="#191970" d="M965.3358,-403.2455C959.1527,-395.3761 950.2937,-384.101 942.8711,-374.6542"/>
<polygon fill="#191970" stroke="#191970" points="945.5068,-372.3435 936.5764,-366.6427 940.0025,-376.6683 945.5068,-372.3435"/>
</g>
<!-- Node21&#45;&gt;Node17 -->
<g id="edge35" class="edge">
<title>Node21&#45;&gt;Node17</title>
<path fill="none" stroke="#191970" d="M923.7071,-407.9811C824.7567,-397.9061 601.8555,-375.2107 489.8713,-363.8087"/>
<polygon fill="#191970" stroke="#191970" points="490.0179,-360.3056 479.7148,-362.7746 489.3088,-367.2696 490.0179,-360.3056"/>
</g>
<!-- Node22 -->
<g id="node23" class="node">
<title>Node22</title>
<polygon fill="#ffffff" stroke="#bfbfbf" points="142,-347.5 142,-366.5 272,-366.5 272,-347.5 142,-347.5"/>
<text text-anchor="middle" x="207" y="-354.5" font-family="Helvetica,sans-Serif" font-size="10.00" fill="#000000">odp/api/abi/packet_io.h</text>
</g>
<!-- Node21&#45;&gt;Node22 -->
<g id="edge33" class="edge">
<title>Node21&#45;&gt;Node22</title>
<path fill="none" stroke="#191970" d="M923.918,-409.4118C793.6241,-399.8864 438.3511,-373.9134 282.2583,-362.5019"/>
<polygon fill="#191970" stroke="#191970" points="282.4979,-359.0102 272.2693,-361.7716 281.9875,-365.9915 282.4979,-359.0102"/>
</g>
<!-- Node23 -->
<g id="node24" class="node">
<title>Node23</title>
<g id="a_node24"><a xlink:href="api_2spec_2packet_8h.html" target="_top" xlink:title="ODP packet descriptor. ">
<polygon fill="#ffffff" stroke="#000000" points="1276.5,-347.5 1276.5,-366.5 1399.5,-366.5 1399.5,-347.5 1276.5,-347.5"/>
<text text-anchor="middle" x="1338" y="-354.5" font-family="Helvetica,sans-Serif" font-size="10.00" fill="#000000">odp/api/spec/packet.h</text>
</a>
</g>
</g>
<!-- Node21&#45;&gt;Node23 -->
<g id="edge38" class="edge">
<title>Node21&#45;&gt;Node23</title>
<path fill="none" stroke="#191970" d="M1022.2255,-405.4476C1085.1349,-395.7957 1194.5,-379.0164 1266.5709,-367.959"/>
<polygon fill="#191970" stroke="#191970" points="1267.1307,-371.4141 1276.4842,-366.438 1266.069,-364.4951 1267.1307,-371.4141"/>
</g>
<!-- Node23&#45;&gt;Node1 -->
<g id="edge39" class="edge">
<title>Node23&#45;&gt;Node1</title>
<path fill="none" stroke="#191970" d="M1319.1916,-347.4381C1267.369,-321.2441 1122.9903,-249.3289 1072,-235 941.0182,-198.1926 895.9323,-245.307 768,-199 716.6498,-180.413 693.1505,-178.796 665,-132 647.5507,-102.9931 653.7236,-89.2638 660,-56 661.7441,-46.7566 665.2981,-36.9893 668.7909,-28.844"/>
<polygon fill="#191970" stroke="#191970" points="672.0628,-30.1052 673.0415,-19.5556 665.6976,-27.1923 672.0628,-30.1052"/>
</g>
<!-- Node23&#45;&gt;Node10 -->
<g id="edge46" class="edge">
<title>Node23&#45;&gt;Node10</title>
<path fill="none" stroke="#191970" d="M1373.9291,-347.4824C1479.0952,-319.2762 1780.5581,-235.81 1807,-199 1843.9375,-147.579 1825.1937,-66.3017 1813.721,-29.3872"/>
<polygon fill="#191970" stroke="#191970" points="1817.0291,-28.2422 1810.5967,-19.8236 1810.3752,-30.4161 1817.0291,-28.2422"/>
</g>
<!-- Node24 -->
<g id="node25" class="node">
<title>Node24</title>
<g id="a_node25"><a xlink:href="api_2time_8h.html" target="_top" xlink:title="ODP time. ">
<polygon fill="#ffffff" stroke="#000000" points="1294.5,-291.5 1294.5,-310.5 1381.5,-310.5 1381.5,-291.5 1294.5,-291.5"/>
<text text-anchor="middle" x="1338" y="-298.5" font-family="Helvetica,sans-Serif" font-size="10.00" fill="#000000">odp/api/time.h</text>
</a>
</g>
</g>
<!-- Node23&#45;&gt;Node24 -->
<g id="edge40" class="edge">
<title>Node23&#45;&gt;Node24</title>
<path fill="none" stroke="#191970" d="M1338,-347.2455C1338,-339.9382 1338,-329.6944 1338,-320.7046"/>
<polygon fill="#191970" stroke="#191970" points="1341.5001,-320.6426 1338,-310.6427 1334.5001,-320.6427 1341.5001,-320.6426"/>
</g>
<!-- Node24&#45;&gt;Node3 -->
<g id="edge41" class="edge">
<title>Node24&#45;&gt;Node3</title>
<path fill="none" stroke="#191970" d="M1294.3872,-293.6214C1237.9816,-284.0785 1139.1897,-267.3644 1073.4257,-256.2382"/>
<polygon fill="#191970" stroke="#191970" points="1073.6099,-252.7197 1063.1661,-254.5024 1072.4421,-259.6216 1073.6099,-252.7197"/>
</g>
<!-- Node25 -->
<g id="node26" class="node">
<title>Node25</title>
<polygon fill="#ffffff" stroke="#bfbfbf" points="1304.5,-235.5 1304.5,-254.5 1409.5,-254.5 1409.5,-235.5 1304.5,-235.5"/>
<text text-anchor="middle" x="1357" y="-242.5" font-family="Helvetica,sans-Serif" font-size="10.00" fill="#000000">odp/api/abi/time.h</text>
</g>
<!-- Node24&#45;&gt;Node25 -->
<g id="edge42" class="edge">
<title>Node24&#45;&gt;Node25</title>
<path fill="none" stroke="#191970" d="M1341.3095,-291.2455C1343.8433,-283.7776 1347.4177,-273.2427 1350.515,-264.1137"/>
<polygon fill="#191970" stroke="#191970" points="1353.8298,-265.237 1353.7284,-254.6427 1347.2009,-262.9879 1353.8298,-265.237"/>
</g>
<!-- Node26 -->
<g id="node27" class="node">
<title>Node26</title>
<g id="a_node27"><a xlink:href="api_2spec_2time_8h.html" target="_top" xlink:title="ODP time. ">
<polygon fill="#ffffff" stroke="#000000" points="1166.5,-56.5 1166.5,-75.5 1279.5,-75.5 1279.5,-56.5 1166.5,-56.5"/>
<text text-anchor="middle" x="1223" y="-63.5" font-family="Helvetica,sans-Serif" font-size="10.00" fill="#000000">odp/api/spec/time.h</text>
</a>
</g>
</g>
<!-- Node24&#45;&gt;Node26 -->
<g id="edge43" class="edge">
<title>Node24&#45;&gt;Node26</title>
<path fill="none" stroke="#191970" d="M1326.8311,-291.3729C1317.306,-282.671 1303.7961,-269.0975 1295,-255 1259.611,-198.282 1237.0361,-121.3876 1227.7897,-85.7009"/>
<polygon fill="#191970" stroke="#191970" points="1231.0923,-84.4828 1225.2566,-75.6401 1224.3042,-86.192 1231.0923,-84.4828"/>
</g>
<!-- Node26&#45;&gt;Node1 -->
<g id="edge44" class="edge">
<title>Node26&#45;&gt;Node1</title>
<path fill="none" stroke="#191970" d="M1166.1455,-57.1841C1163.0541,-56.7677 1159.9904,-56.3699 1157,-56 1012.3542,-38.1101 842.3985,-23.2402 748.8061,-15.5826"/>
<polygon fill="#191970" stroke="#191970" points="748.8589,-12.0754 738.6078,-14.752 748.2906,-19.0523 748.8589,-12.0754"/>
</g>
<!-- Node26&#45;&gt;Node10 -->
<g id="edge45" class="edge">
<title>Node26&#45;&gt;Node10</title>
<path fill="none" stroke="#191970" d="M1279.5483,-57.7731C1284.4323,-57.1422 1289.3008,-56.5413 1294,-56 1454.01,-37.5697 1642.8222,-22.3016 1740.6884,-14.8702"/>
<polygon fill="#191970" stroke="#191970" points="1741.024,-18.3549 1750.7317,-14.1109 1740.4962,-11.3748 1741.024,-18.3549"/>
</g>
<!-- Node27&#45;&gt;Node1 -->
<g id="edge49" class="edge">
<title>Node27&#45;&gt;Node1</title>
<path fill="none" stroke="#191970" d="M1408.2717,-180.9951C1257.5035,-173.9701 849.0689,-153.2049 792,-132 752.6702,-117.3863 743.9513,-107.2909 716,-76 703.3836,-61.8762 692.9892,-42.8959 686.28,-28.915"/>
<polygon fill="#191970" stroke="#191970" points="689.4267,-27.3805 682.0669,-19.7593 683.0677,-30.3067 689.4267,-27.3805"/>
</g>
<!-- Node27&#45;&gt;Node10 -->
<g id="edge55" class="edge">
<title>Node27&#45;&gt;Node10</title>
<path fill="none" stroke="#191970" d="M1472.214,-168.1285C1490.1497,-134.6198 1531.427,-57.8284 1534,-56 1566.3946,-32.9797 1670.8528,-20.5056 1740.756,-14.5584"/>
<polygon fill="#191970" stroke="#191970" points="1741.1284,-18.0396 1750.8061,-13.7278 1740.5518,-11.0634 1741.1284,-18.0396"/>
</g>
<!-- Node28 -->
<g id="node29" class="node">
<title>Node28</title>
<g id="a_node29"><a xlink:href="api_2schedule__types_8h.html" target="_top" xlink:title="ODP schedule. ">
<polygon fill="#ffffff" stroke="#ff0000" points="1342,-112.5 1342,-131.5 1482,-131.5 1482,-112.5 1342,-112.5"/>
<text text-anchor="middle" x="1412" y="-119.5" font-family="Helvetica,sans-Serif" font-size="10.00" fill="#000000">odp/api/schedule_types.h</text>
</a>
</g>
</g>
<!-- Node27&#45;&gt;Node28 -->
<g id="edge50" class="edge">
<title>Node27&#45;&gt;Node28</title>
<path fill="none" stroke="#191970" d="M1451.1461,-168.2977C1443.7776,-159.5831 1434.4974,-148.6075 1426.8223,-139.5302"/>
<polygon fill="#191970" stroke="#191970" points="1429.4552,-137.2233 1420.3259,-131.8469 1424.1098,-141.743 1429.4552,-137.2233"/>
</g>
<!-- Node33 -->
<g id="node30" class="node">
<title>Node33</title>
<g id="a_node30"><a xlink:href="deprecated_8h.html" target="_top" xlink:title="Control deprecated API definitions. ">
<polygon fill="#ffffff" stroke="#000000" points="1589.5,-112.5 1589.5,-131.5 1708.5,-131.5 1708.5,-112.5 1589.5,-112.5"/>
<text text-anchor="middle" x="1649" y="-119.5" font-family="Helvetica,sans-Serif" font-size="10.00" fill="#000000">odp/api/deprecated.h</text>
</a>
</g>
</g>
<!-- Node27&#45;&gt;Node33 -->
<g id="edge51" class="edge">
<title>Node27&#45;&gt;Node33</title>
<path fill="none" stroke="#191970" d="M1509.2561,-168.4554C1540.3946,-158.104 1581.2969,-144.5067 1610.7955,-134.7004"/>
<polygon fill="#191970" stroke="#191970" points="1611.9463,-138.0063 1620.3316,-131.5303 1609.738,-131.3637 1611.9463,-138.0063"/>
</g>
<!-- Node34 -->
<g id="node31" class="node">
<title>Node34</title>
<g id="a_node31"><a xlink:href="spec_2deprecated_8h.html" target="_top" xlink:title="Macro for deprecated API definitions. ">
<polygon fill="#ffffff" stroke="#000000" points="1576.5,-56.5 1576.5,-75.5 1721.5,-75.5 1721.5,-56.5 1576.5,-56.5"/>
<text text-anchor="middle" x="1649" y="-63.5" font-family="Helvetica,sans-Serif" font-size="10.00" fill="#000000">odp/api/spec/deprecated.h</text>
</a>
</g>
</g>
<!-- Node33&#45;&gt;Node34 -->
<g id="edge52" class="edge">
<title>Node33&#45;&gt;Node34</title>
<path fill="none" stroke="#191970" d="M1649,-112.2455C1649,-104.9382 1649,-94.6944 1649,-85.7046"/>
<polygon fill="#191970" stroke="#191970" points="1652.5001,-85.6426 1649,-75.6427 1645.5001,-85.6427 1652.5001,-85.6426"/>
</g>
<!-- Node34&#45;&gt;Node1 -->
<g id="edge53" class="edge">
<title>Node34&#45;&gt;Node1</title>
<path fill="none" stroke="#191970" d="M1576.2464,-61.2932C1549.4507,-59.5866 1518.8477,-57.6691 1491,-56 1216.6864,-39.559 890.2087,-21.5639 748.9446,-13.8542"/>
<polygon fill="#191970" stroke="#191970" points="748.8667,-10.3448 738.6909,-13.2949 748.4854,-17.3344 748.8667,-10.3448"/>
</g>
<!-- Node34&#45;&gt;Node10 -->
<g id="edge54" class="edge">
<title>Node34&#45;&gt;Node10</title>
<path fill="none" stroke="#191970" d="M1676.1612,-56.3733C1702.2067,-47.1419 1741.7116,-33.1402 1770.4979,-22.9375"/>
<polygon fill="#191970" stroke="#191970" points="1771.937,-26.1408 1780.1933,-19.5011 1769.5985,-19.5429 1771.937,-26.1408"/>
</g>
<!-- Node35&#45;&gt;Node1 -->
<g id="edge58" class="edge">
<title>Node35&#45;&gt;Node1</title>
<path fill="none" stroke="#191970" d="M1298.1157,-459.4457C1284.9042,-434.8367 1245.7373,-369.628 1191,-347 1126.5117,-320.341 618.5257,-354.5476 564,-311 540.1487,-291.9509 545,-275.5246 545,-245 545,-245 545,-245 545,-122 545,-72.0478 600.5705,-39.8768 639.8708,-23.371"/>
<polygon fill="#191970" stroke="#191970" points="641.4966,-26.4897 649.4682,-19.5108 638.8844,-19.9953 641.4966,-26.4897"/>
</g>
<!-- Node35&#45;&gt;Node10 -->
<g id="edge65" class="edge">
<title>Node35&#45;&gt;Node10</title>
<path fill="none" stroke="#191970" d="M1321.4322,-459.275C1348.6809,-445.2224 1401.6081,-419.1567 1449,-403 1514.7108,-380.5981 1534.6641,-387.4769 1601,-367 1809.4728,-302.6474 1927.9873,-323.7903 2032,-132 2048.1029,-102.3077 2053.3589,-82.1674 2032,-56 2012.2188,-31.7654 1932.147,-19.9573 1873.1305,-14.4472"/>
<polygon fill="#191970" stroke="#191970" points="1873.3868,-10.9563 1863.1152,-13.553 1872.7642,-17.9285 1873.3868,-10.9563"/>
</g>
<!-- Node35&#45;&gt;Node21 -->
<g id="edge64" class="edge">
<title>Node35&#45;&gt;Node21</title>
<path fill="none" stroke="#191970" d="M1246.6459,-459.4369C1186.9576,-449.3079 1093.1229,-433.3845 1032.3287,-423.0679"/>
<polygon fill="#191970" stroke="#191970" points="1032.567,-419.5584 1022.1224,-421.3359 1031.3958,-426.4597 1032.567,-419.5584"/>
</g>
<!-- Node35&#45;&gt;Node33 -->
<g id="edge59" class="edge">
<title>Node35&#45;&gt;Node33</title>
<path fill="none" stroke="#191970" d="M1306.0883,-459.0581C1311.0222,-444.7353 1322.0033,-418.3362 1340,-403 1440.1713,-317.6372 1618,-432.6096 1618,-301 1618,-301 1618,-301 1618,-245 1618,-207.2091 1631.9298,-164.8135 1641.1141,-140.9678"/>
<polygon fill="#191970" stroke="#191970" points="1644.3666,-142.2605 1644.8192,-131.6753 1637.8644,-139.6679 1644.3666,-142.2605"/>
</g>
<!-- Node35&#45;&gt;Node31 -->
<g id="edge60" class="edge">
<title>Node35&#45;&gt;Node31</title>
<path fill="none" stroke="#191970" d="M1338.4127,-459.3733C1373.2605,-449.9001 1426.5882,-435.4032 1464.3293,-425.1435"/>
<polygon fill="#191970" stroke="#191970" points="1465.3178,-428.5019 1474.0494,-422.5011 1463.4815,-421.747 1465.3178,-428.5019"/>
</g>
<!-- Node32 -->
<g id="node34" class="node">
<title>Node32</title>
<g id="a_node34"><a xlink:href="spec_2support_8h.html" target="_top" xlink:title="ODP support API. ">
<polygon fill="#ffffff" stroke="#000000" points="1021.5,-56.5 1021.5,-75.5 1148.5,-75.5 1148.5,-56.5 1021.5,-56.5"/>
<text text-anchor="middle" x="1085" y="-63.5" font-family="Helvetica,sans-Serif" font-size="10.00" fill="#000000">odp/api/spec/support.h</text>
</a>
</g>
</g>
<!-- Node31&#45;&gt;Node32 -->
<g id="edge61" class="edge">
<title>Node31&#45;&gt;Node32</title>
<path fill="none" stroke="#191970" d="M1496.9392,-403.4101C1478.6653,-389.2894 1442.4339,-362.8659 1408,-347 1356.2674,-323.1635 1332.474,-342.4749 1285,-311 1191.6295,-249.0961 1120.0512,-130.2436 1094.837,-84.5383"/>
<polygon fill="#191970" stroke="#191970" points="1097.8918,-82.8294 1090.0452,-75.7102 1091.7396,-86.1687 1097.8918,-82.8294"/>
</g>
<!-- Node32&#45;&gt;Node1 -->
<g id="edge62" class="edge">
<title>Node32&#45;&gt;Node1</title>
<path fill="none" stroke="#191970" d="M1021.4063,-57.25C947.4813,-47.0785 825.8149,-30.3382 748.9026,-19.7556"/>
<polygon fill="#191970" stroke="#191970" points="749.2058,-16.2645 738.822,-18.3686 748.2516,-23.1991 749.2058,-16.2645"/>
</g>
<!-- Node32&#45;&gt;Node10 -->
<g id="edge63" class="edge">
<title>Node32&#45;&gt;Node10</title>
<path fill="none" stroke="#191970" d="M1148.5749,-56.9336C1151.4203,-56.6024 1154.2387,-56.2891 1157,-56 1369.7021,-33.7282 1622.7175,-19.2653 1740.5173,-13.2235"/>
<polygon fill="#191970" stroke="#191970" points="1741,-16.7035 1750.809,-12.6994 1740.6439,-9.7126 1741,-16.7035"/>
</g>
<!-- Node36&#45;&gt;Node3 -->
<g id="edge68" class="edge">
<title>Node36&#45;&gt;Node3</title>
<path fill="none" stroke="#191970" d="M863.1248,-739.4554C850.1444,-695.8238 798.1872,-515.077 811,-459 823.3093,-405.1269 829.4599,-389.317 865,-347 897.5517,-308.2413 947.9448,-276.6984 979.1257,-259.4155"/>
<polygon fill="#191970" stroke="#191970" points="981.0274,-262.3657 988.1447,-254.5175 977.6866,-256.2143 981.0274,-262.3657"/>
</g>
<!-- Node36&#45;&gt;Node11 -->
<g id="edge71" class="edge">
<title>Node36&#45;&gt;Node11</title>
<path fill="none" stroke="#191970" d="M819.5468,-739.4442C769.2129,-726.056 696,-696.3769 696,-637 696,-637 696,-637 696,-469 696,-435.7204 707.0271,-398.2857 714.7187,-376.2224"/>
<polygon fill="#191970" stroke="#191970" points="718.0487,-377.3059 718.1636,-366.7117 711.4671,-374.9219 718.0487,-377.3059"/>
</g>
<!-- Node36&#45;&gt;Node14 -->
<g id="edge69" class="edge">
<title>Node36&#45;&gt;Node14</title>
<path fill="none" stroke="#191970" d="M922.1387,-740.5165C1011.4721,-725.416 1176,-690.3616 1176,-637 1176,-637 1176,-637 1176,-581 1176,-504.0355 1149.6204,-415.1807 1136.8145,-376.581"/>
<polygon fill="#191970" stroke="#191970" points="1139.983,-375.0258 1133.4575,-366.679 1133.3536,-377.2734 1139.983,-375.0258"/>
</g>
<!-- Node36&#45;&gt;Node17 -->
<g id="edge73" class="edge">
<title>Node36&#45;&gt;Node17</title>
<path fill="none" stroke="#191970" d="M809.7451,-745.9093C747.9531,-741.2713 646.4094,-729.9604 563,-703 550.044,-698.8122 461.9008,-658.0893 454,-647 393.6336,-562.2721 410.1969,-426.7465 419.0894,-376.5382"/>
<polygon fill="#191970" stroke="#191970" points="422.5369,-377.1429 420.9388,-366.6693 415.6567,-375.8535 422.5369,-377.1429"/>
</g>
<!-- Node36&#45;&gt;Node22 -->
<g id="edge72" class="edge">
<title>Node36&#45;&gt;Node22</title>
<path fill="none" stroke="#191970" d="M809.7505,-743.9931C724.9806,-736.0475 568.6883,-719.7302 515,-703 496.4024,-697.2046 494.287,-689.7115 476,-683 410.014,-658.7825 375.2383,-692.8947 322,-647 278.5476,-609.5414 228.2592,-435.4869 212.205,-376.5615"/>
<polygon fill="#191970" stroke="#191970" points="215.5209,-375.4147 209.5385,-366.6704 208.7621,-377.2368 215.5209,-375.4147"/>
</g>
<!-- Node37 -->
<g id="node36" class="node">
<title>Node37</title>
<polygon fill="#ffffff" stroke="#bfbfbf" points="288,-683.5 288,-702.5 434,-702.5 434,-683.5 288,-683.5"/>
<text text-anchor="middle" x="361" y="-690.5" font-family="Helvetica,sans-Serif" font-size="10.00" fill="#000000">odp/api/abi/classification.h</text>
</g>
<!-- Node36&#45;&gt;Node37 -->
<g id="edge70" class="edge">
<title>Node36&#45;&gt;Node37</title>
<path fill="none" stroke="#191970" d="M809.54,-742.7391C720.6169,-732.8783 547.4615,-713.6769 444.244,-702.231"/>
<polygon fill="#191970" stroke="#191970" points="444.4958,-698.7376 434.171,-701.114 443.7243,-705.6949 444.4958,-698.7376"/>
</g>
<!-- Node38 -->
<g id="node37" class="node">
<title>Node38</title>
<g id="a_node37"><a xlink:href="api_2spec_2packet__io_8h.html" target="_top" xlink:title="ODP Packet IO. ">
<polygon fill="#ffffff" stroke="#000000" points="1596.5,-683.5 1596.5,-702.5 1733.5,-702.5 1733.5,-683.5 1596.5,-683.5"/>
<text text-anchor="middle" x="1665" y="-690.5" font-family="Helvetica,sans-Serif" font-size="10.00" fill="#000000">odp/api/spec/packet_io.h</text>
</a>
</g>
</g>
<!-- Node36&#45;&gt;Node38 -->
<g id="edge74" class="edge">
<title>Node36&#45;&gt;Node38</title>
<path fill="none" stroke="#191970" d="M922.1841,-745.0622C1061.8252,-735.2751 1424.9444,-709.8249 1586.0414,-698.534"/>
<polygon fill="#191970" stroke="#191970" points="1586.6252,-702.0018 1596.356,-697.8111 1586.1357,-695.0189 1586.6252,-702.0018"/>
</g>
<!-- Node38&#45;&gt;Node1 -->
<g id="edge75" class="edge">
<title>Node38&#45;&gt;Node1</title>
<path fill="none" stroke="#191970" d="M1596.1618,-691.2946C1392.1087,-686.0119 799.4526,-668.9464 715,-647 482.5792,-586.6018 300,-541.1403 300,-301 300,-301 300,-301 300,-122 300,-58.6138 497.8687,-28.3205 607.2874,-16.4146"/>
<polygon fill="#191970" stroke="#191970" points="607.6942,-19.8911 617.2678,-15.3528 606.9536,-12.9304 607.6942,-19.8911"/>
</g>
<!-- Node38&#45;&gt;Node10 -->
<g id="edge89" class="edge">
<title>Node38&#45;&gt;Node10</title>
<path fill="none" stroke="#191970" d="M1733.6565,-690.717C1863.4656,-684.5219 2132,-661.9263 2132,-581 2132,-581 2132,-581 2132,-122 2132,-82.9495 2108.0769,-75.071 2074,-56 2040.4726,-37.2366 1941.0071,-23.6883 1873.4122,-16.3401"/>
<polygon fill="#191970" stroke="#191970" points="1873.5824,-12.8384 1863.2674,-15.2576 1872.8396,-19.7989 1873.5824,-12.8384"/>
</g>
<!-- Node38&#45;&gt;Node15 -->
<g id="edge82" class="edge">
<title>Node38&#45;&gt;Node15</title>
<path fill="none" stroke="#191970" d="M1596.2775,-689.0779C1463.5896,-681.4463 1162.8847,-663.8657 910,-647 883.6802,-645.2446 854.5481,-643.1552 829.8593,-641.3413"/>
<polygon fill="#191970" stroke="#191970" points="829.802,-637.8276 819.5716,-640.5825 829.287,-644.8087 829.802,-637.8276"/>
</g>
<!-- Node38&#45;&gt;Node21 -->
<g id="edge88" class="edge">
<title>Node38&#45;&gt;Node21</title>
<path fill="none" stroke="#191970" d="M1596.4179,-689.3364C1411.8008,-678.7787 914.9897,-645.5141 867,-591 820.3086,-537.9606 907.7133,-461.4946 950.8921,-428.7974"/>
<polygon fill="#191970" stroke="#191970" points="953.1841,-431.455 959.1283,-422.6847 949.0123,-425.8339 953.1841,-431.455"/>
</g>
<!-- Node38&#45;&gt;Node24 -->
<g id="edge87" class="edge">
<title>Node38&#45;&gt;Node24</title>
<path fill="none" stroke="#191970" d="M1662.3113,-683.4408C1655.4732,-658.9208 1637.1053,-591.7295 1625,-535 1612.5725,-476.7606 1638.3461,-450.1724 1602,-403 1551.5384,-337.5076 1453.3572,-314.0431 1391.9882,-305.6522"/>
<polygon fill="#191970" stroke="#191970" points="1392.0861,-302.1364 1381.7234,-304.3421 1391.1998,-309.0801 1392.0861,-302.1364"/>
</g>
<!-- Node38&#45;&gt;Node33 -->
<g id="edge76" class="edge">
<title>Node38&#45;&gt;Node33</title>
<path fill="none" stroke="#191970" d="M1673.8568,-683.2457C1694.4452,-659.8283 1745.132,-597.7067 1763,-535 1774.2198,-495.6248 1681.817,-218.4909 1655.733,-141.6903"/>
<polygon fill="#191970" stroke="#191970" points="1658.9237,-140.2021 1652.386,-131.8648 1652.2975,-142.4593 1658.9237,-140.2021"/>
</g>
<!-- Node39 -->
<g id="node38" class="node">
<title>Node39</title>
<g id="a_node38"><a xlink:href="packet__io__stats_8h.html" target="_top" xlink:title="ODP packet IO stats. ">
<polygon fill="#ffffff" stroke="#000000" points="1810.5,-571.5 1810.5,-590.5 1951.5,-590.5 1951.5,-571.5 1810.5,-571.5"/>
<text text-anchor="middle" x="1881" y="-578.5" font-family="Helvetica,sans-Serif" font-size="10.00" fill="#000000">odp/api/packet_io_stats.h</text>
</a>
</g>
</g>
<!-- Node38&#45;&gt;Node39 -->
<g id="edge77" class="edge">
<title>Node38&#45;&gt;Node39</title>
<path fill="none" stroke="#191970" d="M1702.2023,-683.4201C1729.1868,-675.6534 1766.0506,-663.3211 1796,-647 1821.286,-633.2203 1846.9362,-612.1085 1863.3458,-597.4888"/>
<polygon fill="#191970" stroke="#191970" points="1865.9828,-599.8219 1871.0338,-590.5086 1861.2774,-594.6393 1865.9828,-599.8219"/>
</g>
<!-- Node41 -->
<g id="node40" class="node">
<title>Node41</title>
<g id="a_node40"><a xlink:href="reassembly_8h.html" target="_top" xlink:title="ODP REASSEMBLY API &#45; platform specific header. ">
<polygon fill="#ffffff" stroke="#000000" points="1634,-515.5 1634,-534.5 1754,-534.5 1754,-515.5 1634,-515.5"/>
<text text-anchor="middle" x="1694" y="-522.5" font-family="Helvetica,sans-Serif" font-size="10.00" fill="#000000">odp/api/reassembly.h</text>
</a>
</g>
</g>
<!-- Node38&#45;&gt;Node41 -->
<g id="edge83" class="edge">
<title>Node38&#45;&gt;Node41</title>
<path fill="none" stroke="#191970" d="M1666.6423,-683.4862C1671.2463,-656.8144 1684.3486,-580.9117 1690.6003,-544.695"/>
<polygon fill="#191970" stroke="#191970" points="1694.0514,-545.2775 1692.3035,-534.8279 1687.1534,-544.0868 1694.0514,-545.2775"/>
</g>
<!-- Node40 -->
<g id="node39" class="node">
<title>Node40</title>
<g id="a_node39"><a xlink:href="spec_2packet__io__stats_8h.html" target="_top" xlink:title="ODP Packet IO statistics. ">
<polygon fill="#ffffff" stroke="#000000" points="1684,-168.5 1684,-198.5 1798,-198.5 1798,-168.5 1684,-168.5"/>
<text text-anchor="start" x="1692" y="-186.5" font-family="Helvetica,sans-Serif" font-size="10.00" fill="#000000">odp/api/spec/packet</text>
<text text-anchor="middle" x="1741" y="-175.5" font-family="Helvetica,sans-Serif" font-size="10.00" fill="#000000">_io_stats.h</text>
</a>
</g>
</g>
<!-- Node39&#45;&gt;Node40 -->
<g id="edge78" class="edge">
<title>Node39&#45;&gt;Node40</title>
<path fill="none" stroke="#191970" d="M1876.5734,-571.3458C1868.2284,-552.2352 1851,-508.052 1851,-469 1851,-469 1851,-469 1851,-301 1851,-257.8339 1810.9467,-223.9786 1779.1784,-203.915"/>
<polygon fill="#191970" stroke="#191970" points="1780.841,-200.8297 1770.478,-198.6255 1777.2045,-206.8111 1780.841,-200.8297"/>
</g>
<!-- Node40&#45;&gt;Node1 -->
<g id="edge79" class="edge">
<title>Node40&#45;&gt;Node1</title>
<path fill="none" stroke="#191970" d="M1745.2603,-168.2706C1751.7729,-141.2941 1760.475,-85.2106 1730,-56 1694.6008,-22.0695 979.4454,-12.7015 748.9362,-10.5583"/>
<polygon fill="#191970" stroke="#191970" points="748.687,-7.0559 738.6555,-10.4645 748.6231,-14.0556 748.687,-7.0559"/>
</g>
<!-- Node40&#45;&gt;Node10 -->
<g id="edge81" class="edge">
<title>Node40&#45;&gt;Node10</title>
<path fill="none" stroke="#191970" d="M1748.1717,-168.315C1752.8843,-158.1316 1759.0672,-144.37 1764,-132 1778.283,-96.1823 1792.7503,-53.5287 1800.7293,-29.3221"/>
<polygon fill="#191970" stroke="#191970" points="1804.1306,-30.1816 1803.9148,-19.589 1797.4779,-28.0042 1804.1306,-30.1816"/>
</g>
<!-- Node40&#45;&gt;Node33 -->
<g id="edge80" class="edge">
<title>Node40&#45;&gt;Node33</title>
<path fill="none" stroke="#191970" d="M1718.2584,-168.2977C1704.2033,-158.9022 1686.217,-146.8787 1672.0964,-137.4395"/>
<polygon fill="#191970" stroke="#191970" points="1673.7143,-134.311 1663.4556,-131.6633 1669.8241,-140.1305 1673.7143,-134.311"/>
</g>
<!-- Node42 -->
<g id="node41" class="node">
<title>Node42</title>
<g id="a_node41"><a xlink:href="spec_2reassembly_8h.html" target="_top" xlink:title="ODP REASSEMBLY API. ">
<polygon fill="#ffffff" stroke="#000000" points="1336,-56.5 1336,-75.5 1482,-75.5 1482,-56.5 1336,-56.5"/>
<text text-anchor="middle" x="1409" y="-63.5" font-family="Helvetica,sans-Serif" font-size="10.00" fill="#000000">odp/api/spec/reassembly.h</text>
</a>
</g>
</g>
<!-- Node41&#45;&gt;Node42 -->
<g id="edge84" class="edge">
<title>Node41&#45;&gt;Node42</title>
<path fill="none" stroke="#191970" d="M1694,-515.4116C1694,-496.0538 1694,-450.9167 1694,-413 1694,-413 1694,-413 1694,-357 1694,-208.2677 1518.0915,-288.0983 1399,-199 1360.1383,-169.9256 1309.1689,-154.2804 1333,-112 1341.138,-97.5618 1355.8355,-87.1395 1370.1516,-79.9057"/>
<polygon fill="#191970" stroke="#191970" points="1371.8319,-82.9846 1379.4315,-75.6024 1368.887,-76.6342 1371.8319,-82.9846"/>
</g>
<!-- Node42&#45;&gt;Node1 -->
<g id="edge85" class="edge">
<title>Node42&#45;&gt;Node1</title>
<path fill="none" stroke="#191970" d="M1335.7428,-59.8605C1319.9949,-58.5645 1303.4446,-57.2205 1288,-56 1092.9304,-40.5844 862.6742,-23.5308 748.9255,-15.1822"/>
<polygon fill="#191970" stroke="#191970" points="748.8468,-11.6671 738.6175,-14.4261 748.3347,-18.6484 748.8468,-11.6671"/>
</g>
<!-- Node42&#45;&gt;Node10 -->
<g id="edge86" class="edge">
<title>Node42&#45;&gt;Node10</title>
<path fill="none" stroke="#191970" d="M1476.9664,-56.4369C1550.7581,-46.0541 1667.8221,-29.5828 1740.8816,-19.3031"/>
<polygon fill="#191970" stroke="#191970" points="1741.4747,-22.7542 1750.8895,-17.8949 1740.4993,-15.8225 1741.4747,-22.7542"/>
</g>
<!-- Node44 -->
<g id="node43" class="node">
<title>Node44</title>
<g id="a_node43"><a xlink:href="spec_2protocols_8h.html" target="_top" xlink:title="ODP protocols. ">
<polygon fill="#ffffff" stroke="#000000" points="1854.5,-56.5 1854.5,-75.5 1989.5,-75.5 1989.5,-56.5 1854.5,-56.5"/>
<text text-anchor="middle" x="1922" y="-63.5" font-family="Helvetica,sans-Serif" font-size="10.00" fill="#000000">odp/api/spec/protocols.h</text>
</a>
</g>
</g>
<!-- Node43&#45;&gt;Node44 -->
<g id="edge91" class="edge">
<title>Node43&#45;&gt;Node44</title>
<path fill="none" stroke="#191970" d="M1851.9905,-862.474C1900.2666,-847.2647 1980,-812.5286 1980,-749 1980,-749 1980,-749 1980,-183.5 1980,-144.7109 1954.2702,-105.4674 1937.085,-83.5823"/>
<polygon fill="#191970" stroke="#191970" points="1939.5881,-81.1133 1930.5581,-75.5716 1934.1613,-85.5349 1939.5881,-81.1133"/>
</g>
<!-- Node44&#45;&gt;Node1 -->
<g id="edge92" class="edge">
<title>Node44&#45;&gt;Node1</title>
<path fill="none" stroke="#191970" d="M1854.3576,-61.4076C1826.3953,-59.5901 1793.643,-57.5657 1764,-56 1381.0695,-35.7742 921.8107,-18.6748 748.6623,-12.4819"/>
<polygon fill="#191970" stroke="#191970" points="748.7768,-8.9838 738.6583,-12.1248 748.5271,-15.9794 748.7768,-8.9838"/>
</g>
<!-- Node44&#45;&gt;Node10 -->
<g id="edge93" class="edge">
<title>Node44&#45;&gt;Node10</title>
<path fill="none" stroke="#191970" d="M1902.2308,-56.3733C1883.8531,-47.4241 1856.2688,-33.9917 1835.5107,-23.8835"/>
<polygon fill="#191970" stroke="#191970" points="1837.0343,-20.7325 1826.5112,-19.5011 1833.9696,-27.026 1837.0343,-20.7325"/>
</g>
<!-- Node45&#45;&gt;Node3 -->
<g id="edge95" class="edge">
<title>Node45&#45;&gt;Node3</title>
<path fill="none" stroke="#191970" d="M204.3812,-862.4146C155.7708,-847.2207 76,-812.5982 76,-749 76,-749 76,-749 76,-413 76,-377.7457 90.0212,-365.5509 120,-347 189.5228,-303.9793 746.8844,-262.5912 940.7897,-249.3634"/>
<polygon fill="#191970" stroke="#191970" points="941.1044,-252.8502 950.8442,-248.6806 940.63,-245.8663 941.1044,-252.8502"/>
</g>
<!-- Node45&#45;&gt;Node11 -->
<g id="edge98" class="edge">
<title>Node45&#45;&gt;Node11</title>
<path fill="none" stroke="#191970" d="M240.6106,-862.4776C239.8637,-833.2037 240.9601,-742.8959 279,-683 334.2653,-595.9819 611.4151,-423.8605 696.8718,-372.081"/>
<polygon fill="#191970" stroke="#191970" points="698.9033,-374.9429 705.6525,-366.7759 695.2834,-368.9515 698.9033,-374.9429"/>
</g>
<!-- Node45&#45;&gt;Node14 -->
<g id="edge96" class="edge">
<title>Node45&#45;&gt;Node14</title>
<path fill="none" stroke="#191970" d="M305.3982,-870.5337C419.9534,-867.2084 666.4257,-856.8146 872,-826 1004.1076,-806.1977 1043.9643,-815.5235 1165,-759 1208.9752,-738.4637 1252,-741.5341 1252,-693 1252,-693 1252,-693 1252,-581 1252,-494.4982 1180.9668,-409.5845 1147.3036,-374.2"/>
<polygon fill="#191970" stroke="#191970" points="1149.4636,-371.4007 1139.9838,-366.6696 1144.4441,-376.2798 1149.4636,-371.4007"/>
</g>
<!-- Node45&#45;&gt;Node17 -->
<g id="edge100" class="edge">
<title>Node45&#45;&gt;Node17</title>
<path fill="none" stroke="#191970" d="M232.6728,-862.3636C225.3207,-853.4422 214.7498,-839.5477 208,-826 192.0148,-793.9155 184,-784.846 184,-749 184,-749 184,-749 184,-693 184,-544.564 340.801,-416.1491 400.391,-372.7064"/>
<polygon fill="#191970" stroke="#191970" points="402.6815,-375.3707 408.7652,-366.6966 398.6001,-369.6836 402.6815,-375.3707"/>
</g>
<!-- Node45&#45;&gt;Node22 -->
<g id="edge99" class="edge">
<title>Node45&#45;&gt;Node22</title>
<path fill="none" stroke="#191970" d="M218.4672,-862.4799C202.7842,-854.7773 182.5168,-842.4984 170,-826 148.3343,-797.4424 146,-784.846 146,-749 146,-749 146,-749 146,-637 146,-536.8036 183.7525,-420.9657 199.8579,-376.1074"/>
<polygon fill="#191970" stroke="#191970" points="203.221,-377.1014 203.3669,-366.5076 196.6464,-374.6982 203.221,-377.1014"/>
</g>
<!-- Node45&#45;&gt;Node37 -->
<g id="edge97" class="edge">
<title>Node45&#45;&gt;Node37</title>
<path fill="none" stroke="#191970" d="M247.4517,-862.3762C266.6598,-833.7241 323.6962,-748.6448 348.8506,-711.1229"/>
<polygon fill="#191970" stroke="#191970" points="351.8551,-712.9266 354.5164,-702.6714 346.0408,-709.0287 351.8551,-712.9266"/>
</g>
<!-- Node46 -->
<g id="node45" class="node">
<title>Node46</title>
<g id="a_node45"><a xlink:href="api_2spec_2classification_8h.html" target="_top" xlink:title="ODP classification descriptor. ">
<polygon fill="#ffffff" stroke="#000000" points="709,-801 709,-820 863,-820 863,-801 709,-801"/>
<text text-anchor="middle" x="786" y="-808" font-family="Helvetica,sans-Serif" font-size="10.00" fill="#000000">odp/api/spec/classification.h</text>
</a>
</g>
</g>
<!-- Node45&#45;&gt;Node46 -->
<g id="edge101" class="edge">
<title>Node45&#45;&gt;Node46</title>
<path fill="none" stroke="#191970" d="M305.1211,-864.7643C402.8054,-853.7412 589.1054,-832.7184 698.9385,-820.3244"/>
<polygon fill="#191970" stroke="#191970" points="699.452,-823.7887 708.9964,-819.1894 698.667,-816.8329 699.452,-823.7887"/>
</g>
<!-- Node46&#45;&gt;Node1 -->
<g id="edge102" class="edge">
<title>Node46&#45;&gt;Node1</title>
<path fill="none" stroke="#191970" d="M708.7682,-805.3521C517.6555,-788.0144 38,-714.4709 38,-413 38,-413 38,-413 38,-122 38,-64.7542 440.4307,-27.8712 607.0629,-15.0529"/>
<polygon fill="#191970" stroke="#191970" points="607.5082,-18.5292 617.2134,-14.2795 606.9763,-11.5495 607.5082,-18.5292"/>
</g>
<!-- Node46&#45;&gt;Node10 -->
<g id="edge110" class="edge">
<title>Node46&#45;&gt;Node10</title>
<path fill="none" stroke="#191970" d="M863.2981,-803.1035C1026.1221,-787.2384 1416.239,-747.7268 1742,-703 1937.9608,-676.0947 2170,-778.7992 2170,-581 2170,-581 2170,-581 2170,-122 2170,-80.8295 2141.6485,-74.759 2105,-56 2065.6681,-35.8675 1948.6297,-22.2842 1873.469,-15.3671"/>
<polygon fill="#191970" stroke="#191970" points="1873.4282,-11.8492 1863.1538,-14.4353 1872.7984,-18.8208 1873.4282,-11.8492"/>
</g>
<!-- Node46&#45;&gt;Node31 -->
<g id="edge104" class="edge">
<title>Node46&#45;&gt;Node31</title>
<path fill="none" stroke="#191970" d="M863.0121,-805.1523C986.236,-794.4547 1214,-764.95 1214,-693 1214,-693 1214,-693 1214,-581 1214,-488.2739 1315.5178,-525.0515 1396,-479 1426.3299,-461.6454 1461.0051,-441.32 1483.8557,-427.8583"/>
<polygon fill="#191970" stroke="#191970" points="1485.7489,-430.8051 1492.5849,-422.7107 1482.1932,-424.7754 1485.7489,-430.8051"/>
</g>
<!-- Node46&#45;&gt;Node36 -->
<g id="edge103" class="edge">
<title>Node46&#45;&gt;Node36</title>
<path fill="none" stroke="#191970" d="M798.5,-800.8906C811.0636,-791.2324 830.6423,-776.1812 845.4849,-764.771"/>
<polygon fill="#191970" stroke="#191970" points="847.7928,-767.4115 853.5878,-758.5419 843.5265,-761.8618 847.7928,-767.4115"/>
</g>
<!-- Node47 -->
<g id="node46" class="node">
<title>Node47</title>
<g id="a_node46"><a xlink:href="threshold_8h.html" target="_top" xlink:title="ODP threshold API &#45; platform specific header. ">
<polygon fill="#ffffff" stroke="#000000" points="465,-739.5 465,-758.5 575,-758.5 575,-739.5 465,-739.5"/>
<text text-anchor="middle" x="520" y="-746.5" font-family="Helvetica,sans-Serif" font-size="10.00" fill="#000000">odp/api/threshold.h</text>
</a>
</g>
</g>
<!-- Node46&#45;&gt;Node47 -->
<g id="edge105" class="edge">
<title>Node46&#45;&gt;Node47</title>
<path fill="none" stroke="#191970" d="M744.7294,-800.9581C698.0391,-790.1632 621.9425,-772.5694 571.426,-760.8899"/>
<polygon fill="#191970" stroke="#191970" points="571.8989,-757.4069 561.3675,-758.5643 570.322,-764.227 571.8989,-757.4069"/>
</g>
<!-- Node48 -->
<g id="node47" class="node">
<title>Node48</title>
<g id="a_node47"><a xlink:href="spec_2threshold_8h.html" target="_top" xlink:title="ODP threshold descriptor. ">
<polygon fill="#ffffff" stroke="#000000" points="573,-291.5 573,-310.5 709,-310.5 709,-291.5 573,-291.5"/>
<text text-anchor="middle" x="641" y="-298.5" font-family="Helvetica,sans-Serif" font-size="10.00" fill="#000000">odp/api/spec/threshold.h</text>
</a>
</g>
</g>
<!-- Node47&#45;&gt;Node48 -->
<g id="edge106" class="edge">
<title>Node47&#45;&gt;Node48</title>
<path fill="none" stroke="#191970" d="M511.5422,-739.3543C498.3491,-724.9159 471.4208,-697.8019 443,-683 386.0184,-653.3233 354.5925,-685.286 303,-647 241.4659,-601.3365 81.3178,-403.5735 133,-347 140.1608,-339.1615 421.8183,-317.2423 562.5831,-306.7452"/>
<polygon fill="#191970" stroke="#191970" points="563.1671,-310.2115 572.8798,-305.979 562.6476,-303.2308 563.1671,-310.2115"/>
</g>
<!-- Node48&#45;&gt;Node1 -->
<g id="edge107" class="edge">
<title>Node48&#45;&gt;Node1</title>
<path fill="none" stroke="#191970" d="M632.4419,-291.4284C616.3082,-272.355 583,-227.6334 583,-183.5 583,-183.5 583,-183.5 583,-122 583,-90.7875 587.5603,-80.4196 607,-56 617.554,-42.7424 633.0162,-32.0914 646.8188,-24.3904"/>
<polygon fill="#191970" stroke="#191970" points="648.8153,-27.2945 656.0286,-19.5344 645.5504,-21.1025 648.8153,-27.2945"/>
</g>
<!-- Node48&#45;&gt;Node3 -->
<g id="edge108" class="edge">
<title>Node48&#45;&gt;Node3</title>
<path fill="none" stroke="#191970" d="M703.5018,-291.4369C769.5294,-281.3343 873.2314,-265.4673 940.672,-255.1486"/>
<polygon fill="#191970" stroke="#191970" points="941.4058,-258.5771 950.7614,-253.6048 940.3471,-251.6576 941.4058,-258.5771"/>
</g>
<!-- Node48&#45;&gt;Node10 -->
<g id="edge109" class="edge">
<title>Node48&#45;&gt;Node10</title>
<path fill="none" stroke="#191970" d="M676.3561,-291.3813C732.2762,-276.593 844.7719,-248.5632 942,-235 1006.6083,-225.9872 1477.3972,-240.1681 1528,-199 1579.1016,-157.4262 1518.6623,-100.7573 1567,-56 1591.807,-33.0305 1678.7477,-20.832 1740.8423,-14.8959"/>
<polygon fill="#191970" stroke="#191970" points="1741.3305,-18.3658 1750.9667,-13.9619 1740.6875,-11.3954 1741.3305,-18.3658"/>
</g>
<!-- Node50 -->
<g id="node49" class="node">
<title>Node50</title>
<polygon fill="#ffffff" stroke="#bfbfbf" points="1438,-795.5 1438,-825.5 1540,-825.5 1540,-795.5 1438,-795.5"/>
<text text-anchor="start" x="1446" y="-813.5" font-family="Helvetica,sans-Serif" font-size="10.00" fill="#000000">odp/api/abi/traffic</text>
<text text-anchor="middle" x="1489" y="-802.5" font-family="Helvetica,sans-Serif" font-size="10.00" fill="#000000">_mngr.h</text>
</g>
<!-- Node49&#45;&gt;Node50 -->
<g id="edge112" class="edge">
<title>Node49&#45;&gt;Node50</title>
<path fill="none" stroke="#191970" d="M1390.2813,-862.3906C1406.5556,-853.8361 1430.8788,-841.0509 1451.3087,-830.3121"/>
<polygon fill="#191970" stroke="#191970" points="1453.1554,-833.2955 1460.3786,-825.5446 1449.8984,-827.0994 1453.1554,-833.2955"/>
</g>
<!-- Node51 -->
<g id="node50" class="node">
<title>Node51</title>
<g id="a_node50"><a xlink:href="api_2spec_2traffic__mngr_8h.html" target="_top" xlink:title="Copyright (c) 2015&#45;2018, Linaro Limited All rights reserved. ">
<polygon fill="#ffffff" stroke="#000000" points="1310,-795.5 1310,-825.5 1420,-825.5 1420,-795.5 1310,-795.5"/>
<text text-anchor="start" x="1318" y="-813.5" font-family="Helvetica,sans-Serif" font-size="10.00" fill="#000000">odp/api/spec/traffic</text>
<text text-anchor="middle" x="1365" y="-802.5" font-family="Helvetica,sans-Serif" font-size="10.00" fill="#000000">_mngr.h</text>
</a>
</g>
</g>
<!-- Node49&#45;&gt;Node51 -->
<g id="edge113" class="edge">
<title>Node49&#45;&gt;Node51</title>
<path fill="none" stroke="#191970" d="M1370.9063,-862.3906C1370.0905,-855.2234 1368.9366,-845.0862 1367.865,-835.671"/>
<polygon fill="#191970" stroke="#191970" points="1371.3209,-835.0846 1366.7124,-825.5446 1364.3658,-835.8763 1371.3209,-835.0846"/>
</g>
<!-- Node51&#45;&gt;Node1 -->
<g id="edge114" class="edge">
<title>Node51&#45;&gt;Node1</title>
<path fill="none" stroke="#191970" d="M1420.4016,-795.9896C1468.3359,-779.6945 1530,-748.0363 1530,-693 1530,-693 1530,-693 1530,-637 1530,-531.6376 1628.9669,-488.9318 1568,-403 1529.7353,-349.0667 1344.6011,-339.6479 1285,-311 1185.2057,-263.0328 1177.0708,-223.0468 1081,-168 995.7554,-119.1564 968.3993,-118.8708 880,-76 862.4728,-67.4998 859.1299,-63.125 841,-56 804.9148,-41.8187 762.7584,-30.0423 730.3586,-21.9558"/>
<polygon fill="#191970" stroke="#191970" points="731.1806,-18.5537 720.6343,-19.5661 729.5101,-25.3515 731.1806,-18.5537"/>
</g>
<!-- Node51&#45;&gt;Node3 -->
<g id="edge115" class="edge">
<title>Node51&#45;&gt;Node3</title>
<path fill="none" stroke="#191970" d="M1380.0757,-795.2684C1399.2773,-774.181 1430,-734.0301 1430,-693 1430,-693 1430,-693 1430,-469 1430,-442.1109 1244.7683,-359.5734 1221,-347 1156.8724,-313.0765 1079.5968,-277.5106 1037.6826,-258.6473"/>
<polygon fill="#191970" stroke="#191970" points="1039.1111,-255.4521 1028.5545,-254.5519 1036.2456,-261.8387 1039.1111,-255.4521"/>
</g>
<!-- Node51&#45;&gt;Node10 -->
<g id="edge117" class="edge">
<title>Node51&#45;&gt;Node10</title>
<path fill="none" stroke="#191970" d="M1420.0771,-796.7634C1423.0889,-796.1366 1426.0777,-795.5436 1429,-795 1514.8224,-779.0365 2208,-780.2944 2208,-693 2208,-693 2208,-693 2208,-122 2208,-90.7875 2208.4317,-75.4246 2184,-56 2160.2047,-37.0813 1975.051,-21.5484 1873.3652,-14.3409"/>
<polygon fill="#191970" stroke="#191970" points="1873.414,-10.8359 1863.1937,-13.628 1872.9245,-17.8187 1873.414,-10.8359"/>
</g>
<!-- Node51&#45;&gt;Node36 -->
<g id="edge116" class="edge">
<title>Node51&#45;&gt;Node36</title>
<path fill="none" stroke="#191970" d="M1309.7475,-797.5038C1305.1097,-796.591 1300.482,-795.7406 1296,-795 1168.0528,-773.8567 1017.0062,-760.3036 932.2792,-753.7237"/>
<polygon fill="#191970" stroke="#191970" points="932.5201,-750.2319 922.2814,-752.9558 931.984,-757.2114 932.5201,-750.2319"/>
</g>
</g>
</svg>
