<?xml version="1.0" encoding="UTF-8" standalone="no"?>
<!DOCTYPE svg PUBLIC "-//W3C//DTD SVG 1.1//EN"
 "http://www.w3.org/Graphics/SVG/1.1/DTD/svg11.dtd">
<!-- Generated by graphviz version 2.40.1 (20161225.0304)
 -->
<!-- Title: traffic_mngr.h Pages: 1 -->
<svg width="1728pt" height="834pt"
 viewBox="0.00 0.00 1728.40 834.00" xmlns="http://www.w3.org/2000/svg" xmlns:xlink="http://www.w3.org/1999/xlink">
<g id="graph0" class="graph" transform="scale(1 1) rotate(0) translate(4 830)">
<title>traffic_mngr.h</title>
<polygon fill="#ffffff" stroke="transparent" points="-4,4 -4,-830 1724.4032,-830 1724.4032,4 -4,4"/>
<!-- Node0 -->
<g id="node1" class="node">
<title>Node0</title>
<polygon fill="#bfbfbf" stroke="#000000" points="1460,-806.5 1460,-825.5 1544,-825.5 1544,-806.5 1460,-806.5"/>
<text text-anchor="middle" x="1502" y="-813.5" font-family="Helvetica,sans-Serif" font-size="10.00" fill="#000000">traffic_mngr.h</text>
</g>
<!-- Node1 -->
<g id="node2" class="node">
<title>Node1</title>
<g id="a_node2"><a xlink:href="visibility__begin_8h_source.html" target="_top" xlink:title="odp/visibility_begin.h">
<polygon fill="#ffffff" stroke="#000000" points="982.5,-.5 982.5,-19.5 1103.5,-19.5 1103.5,-.5 982.5,-.5"/>
<text text-anchor="middle" x="1043" y="-7.5" font-family="Helvetica,sans-Serif" font-size="10.00" fill="#000000">odp/visibility_begin.h</text>
</a>
</g>
</g>
<!-- Node0&#45;&gt;Node1 -->
<g id="edge1" class="edge">
<title>Node0&#45;&gt;Node1</title>
<path fill="none" stroke="#191970" d="M1544.0634,-806.8553C1592.9488,-793.4628 1667,-763.3764 1667,-704 1667,-704 1667,-704 1667,-122 1667,-110.2396 1863.0695,-143.4418 1499,-56 1427.7971,-38.8986 1223.2527,-22.609 1113.9189,-14.8044"/>
<polygon fill="#191970" stroke="#191970" points="1113.8656,-11.292 1103.6431,-14.0759 1113.3705,-18.2744 1113.8656,-11.292"/>
</g>
<!-- Node2 -->
<g id="node3" class="node">
<title>Node2</title>
<g id="a_node3"><a xlink:href="api_2std__types_8h.html" target="_top" xlink:title="Standard C language types and definitions for ODP. ">
<polygon fill="#ffffff" stroke="#000000" points="1459,-235.5 1459,-254.5 1571,-254.5 1571,-235.5 1459,-235.5"/>
<text text-anchor="middle" x="1515" y="-242.5" font-family="Helvetica,sans-Serif" font-size="10.00" fill="#000000">odp/api/std_types.h</text>
</a>
</g>
</g>
<!-- Node0&#45;&gt;Node2 -->
<g id="edge2" class="edge">
<title>Node0&#45;&gt;Node2</title>
<path fill="none" stroke="#191970" d="M1517.482,-806.436C1541.3875,-790.6402 1586.366,-756.5722 1604,-714 1607.4016,-705.7877 1604.2696,-702.8848 1604,-694 1601.1098,-598.7574 1591,-575.2864 1591,-480 1591,-480 1591,-480 1591,-368 1591,-324.4388 1556.0757,-283.4145 1533.5765,-261.5053"/>
<polygon fill="#191970" stroke="#191970" points="1535.8962,-258.8822 1526.2141,-254.5801 1531.1001,-263.981 1535.8962,-258.8822"/>
</g>
<!-- Node9 -->
<g id="node10" class="node">
<title>Node9</title>
<g id="a_node10"><a xlink:href="visibility__end_8h_source.html" target="_top" xlink:title="odp/visibility_end.h">
<polygon fill="#ffffff" stroke="#000000" points="222,-.5 222,-19.5 334,-19.5 334,-.5 222,-.5"/>
<text text-anchor="middle" x="278" y="-7.5" font-family="Helvetica,sans-Serif" font-size="10.00" fill="#000000">odp/visibility_end.h</text>
</a>
</g>
</g>
<!-- Node0&#45;&gt;Node9 -->
<g id="edge82" class="edge">
<title>Node0&#45;&gt;Node9</title>
<path fill="none" stroke="#191970" d="M1459.8648,-815.1215C1216.356,-809.7751 0,-779.3003 0,-704 0,-704 0,-704 0,-122 0,-75.4215 135.9658,-39.2144 217.723,-21.6532"/>
<polygon fill="#191970" stroke="#191970" points="218.5962,-25.0461 227.6563,-19.5538 217.1487,-18.1974 218.5962,-25.0461"/>
</g>
<!-- Node10 -->
<g id="node11" class="node">
<title>Node10</title>
<g id="a_node11"><a xlink:href="api_2packet__io_8h.html" target="_top" xlink:title="ODP Packet IO. ">
<polygon fill="#ffffff" stroke="#000000" points="1307,-750.5 1307,-769.5 1419,-769.5 1419,-750.5 1307,-750.5"/>
<text text-anchor="middle" x="1363" y="-757.5" font-family="Helvetica,sans-Serif" font-size="10.00" fill="#000000">odp/api/packet_io.h</text>
</a>
</g>
</g>
<!-- Node0&#45;&gt;Node10 -->
<g id="edge13" class="edge">
<title>Node0&#45;&gt;Node10</title>
<path fill="none" stroke="#191970" d="M1478.105,-806.3733C1455.4918,-797.2629 1421.3458,-783.5062 1396.1127,-773.3404"/>
<polygon fill="#191970" stroke="#191970" points="1397.1666,-769.9917 1386.5831,-769.5011 1394.5507,-776.4845 1397.1666,-769.9917"/>
</g>
<!-- Node3 -->
<g id="node4" class="node">
<title>Node3</title>
<polygon fill="#ffffff" stroke="#bfbfbf" points="1461,-174 1461,-193 1591,-193 1591,-174 1461,-174"/>
<text text-anchor="middle" x="1526" y="-181" font-family="Helvetica,sans-Serif" font-size="10.00" fill="#000000">odp/api/abi/std_types.h</text>
</g>
<!-- Node2&#45;&gt;Node3 -->
<g id="edge3" class="edge">
<title>Node2&#45;&gt;Node3</title>
<path fill="none" stroke="#191970" d="M1516.7188,-235.3906C1518.2435,-226.8657 1520.5198,-214.1392 1522.4364,-203.4235"/>
<polygon fill="#191970" stroke="#191970" points="1525.9416,-203.7049 1524.257,-193.2449 1519.0509,-202.4724 1525.9416,-203.7049"/>
</g>
<!-- Node4 -->
<g id="node5" class="node">
<title>Node4</title>
<g id="a_node5"><a xlink:href="api_2spec_2std__types_8h.html" target="_top" xlink:title="Standard C language types and definitions for ODP. ">
<polygon fill="#ffffff" stroke="#000000" points="1305.5,-174 1305.5,-193 1442.5,-193 1442.5,-174 1305.5,-174"/>
<text text-anchor="middle" x="1374" y="-181" font-family="Helvetica,sans-Serif" font-size="10.00" fill="#000000">odp/api/spec/std_types.h</text>
</a>
</g>
</g>
<!-- Node2&#45;&gt;Node4 -->
<g id="edge4" class="edge">
<title>Node2&#45;&gt;Node4</title>
<path fill="none" stroke="#191970" d="M1492.9688,-235.3906C1469.3769,-225.1005 1431.7499,-208.6888 1405.1367,-197.0809"/>
<polygon fill="#191970" stroke="#191970" points="1406.4419,-193.8318 1395.8765,-193.0419 1403.6433,-200.248 1406.4419,-193.8318"/>
</g>
<!-- Node4&#45;&gt;Node1 -->
<g id="edge5" class="edge">
<title>Node4&#45;&gt;Node1</title>
<path fill="none" stroke="#191970" d="M1382.5641,-173.9155C1402.1633,-150.8152 1446.2612,-91.3649 1415,-56 1395.4159,-33.8451 1216.1202,-19.9617 1113.7728,-13.7725"/>
<polygon fill="#191970" stroke="#191970" points="1113.6999,-10.2621 1103.5097,-13.162 1113.2842,-17.2497 1113.6999,-10.2621"/>
</g>
<!-- Node5 -->
<g id="node6" class="node">
<title>Node5</title>
<polygon fill="#ffffff" stroke="#bfbfbf" points="1462.5,-112.5 1462.5,-131.5 1515.5,-131.5 1515.5,-112.5 1462.5,-112.5"/>
<text text-anchor="middle" x="1489" y="-119.5" font-family="Helvetica,sans-Serif" font-size="10.00" fill="#000000">stdint.h</text>
</g>
<!-- Node4&#45;&gt;Node5 -->
<g id="edge6" class="edge">
<title>Node4&#45;&gt;Node5</title>
<path fill="none" stroke="#191970" d="M1391.9688,-173.8906C1410.7884,-163.8262 1440.5585,-147.9057 1462.1641,-136.3514"/>
<polygon fill="#191970" stroke="#191970" points="1463.9898,-139.3442 1471.1574,-131.5419 1460.6886,-133.1714 1463.9898,-139.3442"/>
</g>
<!-- Node6 -->
<g id="node7" class="node">
<title>Node6</title>
<g id="a_node7"><a xlink:href="api_2align_8h.html" target="_top" xlink:title="ODP alignments. ">
<polygon fill="#ffffff" stroke="#000000" points="1307.5,-112.5 1307.5,-131.5 1396.5,-131.5 1396.5,-112.5 1307.5,-112.5"/>
<text text-anchor="middle" x="1352" y="-119.5" font-family="Helvetica,sans-Serif" font-size="10.00" fill="#000000">odp/api/align.h</text>
</a>
</g>
</g>
<!-- Node4&#45;&gt;Node6 -->
<g id="edge7" class="edge">
<title>Node4&#45;&gt;Node6</title>
<path fill="none" stroke="#191970" d="M1370.5625,-173.8906C1367.4487,-165.1862 1362.768,-152.1015 1358.886,-141.2494"/>
<polygon fill="#191970" stroke="#191970" points="1362.1497,-139.9817 1355.486,-131.7449 1355.5588,-142.3394 1362.1497,-139.9817"/>
</g>
<!-- Node4&#45;&gt;Node9 -->
<g id="edge12" class="edge">
<title>Node4&#45;&gt;Node9</title>
<path fill="none" stroke="#191970" d="M1347.8683,-173.9258C1279.9146,-149.4899 1091.6346,-84.7204 929,-56 818.1068,-36.4169 486.9346,-19.5116 344.42,-12.9323"/>
<polygon fill="#191970" stroke="#191970" points="344.2315,-9.4201 334.0815,-12.4579 343.9106,-16.4127 344.2315,-9.4201"/>
</g>
<!-- Node7 -->
<g id="node8" class="node">
<title>Node7</title>
<polygon fill="#ffffff" stroke="#bfbfbf" points="1298.5,-56.5 1298.5,-75.5 1405.5,-75.5 1405.5,-56.5 1298.5,-56.5"/>
<text text-anchor="middle" x="1352" y="-63.5" font-family="Helvetica,sans-Serif" font-size="10.00" fill="#000000">odp/api/abi/align.h</text>
</g>
<!-- Node6&#45;&gt;Node7 -->
<g id="edge8" class="edge">
<title>Node6&#45;&gt;Node7</title>
<path fill="none" stroke="#191970" d="M1352,-112.2455C1352,-104.9382 1352,-94.6944 1352,-85.7046"/>
<polygon fill="#191970" stroke="#191970" points="1355.5001,-85.6426 1352,-75.6427 1348.5001,-85.6427 1355.5001,-85.6426"/>
</g>
<!-- Node8 -->
<g id="node9" class="node">
<title>Node8</title>
<g id="a_node9"><a xlink:href="api_2spec_2align_8h.html" target="_top" xlink:title="ODP alignments. ">
<polygon fill="#ffffff" stroke="#000000" points="1128,-56.5 1128,-75.5 1242,-75.5 1242,-56.5 1128,-56.5"/>
<text text-anchor="middle" x="1185" y="-63.5" font-family="Helvetica,sans-Serif" font-size="10.00" fill="#000000">odp/api/spec/align.h</text>
</a>
</g>
</g>
<!-- Node6&#45;&gt;Node8 -->
<g id="edge9" class="edge">
<title>Node6&#45;&gt;Node8</title>
<path fill="none" stroke="#191970" d="M1323.2917,-112.3733C1295.6423,-103.1016 1253.6424,-89.0178 1223.1834,-78.804"/>
<polygon fill="#191970" stroke="#191970" points="1223.9276,-75.3621 1213.3337,-75.5011 1221.7021,-81.9989 1223.9276,-75.3621"/>
</g>
<!-- Node8&#45;&gt;Node1 -->
<g id="edge10" class="edge">
<title>Node8&#45;&gt;Node1</title>
<path fill="none" stroke="#191970" d="M1160.5893,-56.3733C1137.3858,-47.2226 1102.2962,-33.3844 1076.4858,-23.2057"/>
<polygon fill="#191970" stroke="#191970" points="1077.6789,-19.9139 1067.0921,-19.5011 1075.1108,-26.4258 1077.6789,-19.9139"/>
</g>
<!-- Node8&#45;&gt;Node9 -->
<g id="edge11" class="edge">
<title>Node8&#45;&gt;Node9</title>
<path fill="none" stroke="#191970" d="M1127.9195,-62.4757C967.7779,-52.5883 514.8553,-24.6239 344.176,-14.0858"/>
<polygon fill="#191970" stroke="#191970" points="344.2708,-10.5851 334.0741,-13.4621 343.8394,-17.5718 344.2708,-10.5851"/>
</g>
<!-- Node10&#45;&gt;Node2 -->
<g id="edge14" class="edge">
<title>Node10&#45;&gt;Node2</title>
<path fill="none" stroke="#191970" d="M1374.9582,-750.3307C1395.4117,-733.333 1437.557,-696.2564 1465,-658 1516.4399,-586.291 1553,-568.251 1553,-480 1553,-480 1553,-480 1553,-368 1553,-329.6461 1535.9248,-287.4423 1524.6666,-263.7843"/>
<polygon fill="#191970" stroke="#191970" points="1527.6861,-261.9938 1520.1248,-254.5723 1521.4077,-265.0892 1527.6861,-261.9938"/>
</g>
<!-- Node11 -->
<g id="node12" class="node">
<title>Node11</title>
<polygon fill="#ffffff" stroke="#bfbfbf" points="1383,-358.5 1383,-377.5 1487,-377.5 1487,-358.5 1383,-358.5"/>
<text text-anchor="middle" x="1435" y="-365.5" font-family="Helvetica,sans-Serif" font-size="10.00" fill="#000000">odp/api/abi/pool.h</text>
</g>
<!-- Node10&#45;&gt;Node11 -->
<g id="edge15" class="edge">
<title>Node10&#45;&gt;Node11</title>
<path fill="none" stroke="#191970" d="M1369.5188,-750.1324C1378.0724,-737.2053 1393.5745,-713.8476 1407,-694 1437.8055,-648.4584 1477,-646.9819 1477,-592 1477,-592 1477,-592 1477,-480 1477,-445.2434 1459.0481,-408.0613 1446.6174,-386.4811"/>
<polygon fill="#191970" stroke="#191970" points="1449.5177,-384.5116 1441.3789,-377.7285 1443.5113,-388.1065 1449.5177,-384.5116"/>
</g>
<!-- Node12 -->
<g id="node13" class="node">
<title>Node12</title>
<polygon fill="#ffffff" stroke="#bfbfbf" points="1449,-694.5 1449,-713.5 1595,-713.5 1595,-694.5 1449,-694.5"/>
<text text-anchor="middle" x="1522" y="-701.5" font-family="Helvetica,sans-Serif" font-size="10.00" fill="#000000">odp/api/abi/classification.h</text>
</g>
<!-- Node10&#45;&gt;Node12 -->
<g id="edge16" class="edge">
<title>Node10&#45;&gt;Node12</title>
<path fill="none" stroke="#191970" d="M1390.3331,-750.3733C1416.5434,-741.1419 1456.2984,-727.1402 1485.2668,-716.9375"/>
<polygon fill="#191970" stroke="#191970" points="1486.7542,-720.1244 1495.0236,-713.5011 1484.4288,-713.5219 1486.7542,-720.1244"/>
</g>
<!-- Node13 -->
<g id="node14" class="node">
<title>Node13</title>
<polygon fill="#ffffff" stroke="#bfbfbf" points="457,-358.5 457,-377.5 573,-377.5 573,-358.5 457,-358.5"/>
<text text-anchor="middle" x="515" y="-365.5" font-family="Helvetica,sans-Serif" font-size="10.00" fill="#000000">odp/api/abi/packet.h</text>
</g>
<!-- Node10&#45;&gt;Node13 -->
<g id="edge17" class="edge">
<title>Node10&#45;&gt;Node13</title>
<path fill="none" stroke="#191970" d="M1306.7504,-758.9723C1119.3186,-755.3181 517.0443,-741.6661 325,-714 222.1482,-699.1831 162.077,-739.8056 98,-658 -14.5956,-514.2518 327.7809,-413.3142 462.7784,-379.9795"/>
<polygon fill="#191970" stroke="#191970" points="463.6279,-383.3749 472.5133,-377.6043 461.9687,-376.5744 463.6279,-383.3749"/>
</g>
<!-- Node14 -->
<g id="node15" class="node">
<title>Node14</title>
<polygon fill="#ffffff" stroke="#bfbfbf" points="1103,-358.5 1103,-377.5 1233,-377.5 1233,-358.5 1103,-358.5"/>
<text text-anchor="middle" x="1168" y="-365.5" font-family="Helvetica,sans-Serif" font-size="10.00" fill="#000000">odp/api/abi/packet_io.h</text>
</g>
<!-- Node10&#45;&gt;Node14 -->
<g id="edge18" class="edge">
<title>Node10&#45;&gt;Node14</title>
<path fill="none" stroke="#191970" d="M1353.9375,-750.3829C1337.625,-732.0212 1305,-690.0423 1305,-648 1305,-648 1305,-648 1305,-592 1305,-503.001 1225.3193,-419.4685 1187.4923,-384.8274"/>
<polygon fill="#191970" stroke="#191970" points="1189.4632,-381.8937 1179.6805,-377.8254 1184.791,-387.1063 1189.4632,-381.8937"/>
</g>
<!-- Node15 -->
<g id="node16" class="node">
<title>Node15</title>
<polygon fill="#ffffff" stroke="#bfbfbf" points="1251.5,-358.5 1251.5,-377.5 1364.5,-377.5 1364.5,-358.5 1251.5,-358.5"/>
<text text-anchor="middle" x="1308" y="-365.5" font-family="Helvetica,sans-Serif" font-size="10.00" fill="#000000">odp/api/abi/queue.h</text>
</g>
<!-- Node10&#45;&gt;Node15 -->
<g id="edge19" class="edge">
<title>Node10&#45;&gt;Node15</title>
<path fill="none" stroke="#191970" d="M1360.0489,-750.2168C1354.4856,-730.8801 1343,-686.3189 1343,-648 1343,-648 1343,-648 1343,-592 1343,-515.694 1322.9285,-426.5003 1313.185,-387.6974"/>
<polygon fill="#191970" stroke="#191970" points="1316.5058,-386.5569 1310.6307,-377.7403 1309.7254,-388.2964 1316.5058,-386.5569"/>
</g>
<!-- Node16 -->
<g id="node17" class="node">
<title>Node16</title>
<g id="a_node17"><a xlink:href="api_2spec_2packet__io_8h.html" target="_top" xlink:title="ODP Packet IO. ">
<polygon fill="#ffffff" stroke="#000000" points="334.5,-694.5 334.5,-713.5 471.5,-713.5 471.5,-694.5 334.5,-694.5"/>
<text text-anchor="middle" x="403" y="-701.5" font-family="Helvetica,sans-Serif" font-size="10.00" fill="#000000">odp/api/spec/packet_io.h</text>
</a>
</g>
</g>
<!-- Node10&#45;&gt;Node16 -->
<g id="edge20" class="edge">
<title>Node10&#45;&gt;Node16</title>
<path fill="none" stroke="#191970" d="M1306.8848,-756.7266C1143.95,-747.2221 670.4621,-719.602 481.8647,-708.6004"/>
<polygon fill="#191970" stroke="#191970" points="481.9347,-705.0987 471.7479,-708.0103 481.527,-712.0868 481.9347,-705.0987"/>
</g>
<!-- Node16&#45;&gt;Node1 -->
<g id="edge21" class="edge">
<title>Node16&#45;&gt;Node1</title>
<path fill="none" stroke="#191970" d="M471.7771,-701.3163C627.5875,-694.9645 1003.6646,-678.0305 1129,-658 1226.9311,-642.3491 1250.8087,-633.0395 1345,-602 1475.4739,-559.0041 1629,-617.3758 1629,-480 1629,-480 1629,-480 1629,-122 1629,-70.1088 1269.918,-30.8279 1113.9291,-16.212"/>
<polygon fill="#191970" stroke="#191970" points="1113.786,-12.6838 1103.5051,-15.2438 1113.1385,-19.6538 1113.786,-12.6838"/>
</g>
<!-- Node16&#45;&gt;Node9 -->
<g id="edge81" class="edge">
<title>Node16&#45;&gt;Node9</title>
<path fill="none" stroke="#191970" d="M334.2116,-698.3329C249.0254,-690.6053 113.2156,-675.6825 98,-658 -60.7931,-473.462 81.3753,-347.7842 142,-112 148.7874,-85.6022 147.4683,-75.0112 167,-56 183.0576,-40.3704 205.1838,-29.758 225.4582,-22.7044"/>
<polygon fill="#191970" stroke="#191970" points="226.804,-25.9471 235.2277,-19.5212 224.6353,-19.2915 226.804,-25.9471"/>
</g>
<!-- Node17 -->
<g id="node18" class="node">
<title>Node17</title>
<g id="a_node18"><a xlink:href="deprecated_8h.html" target="_top" xlink:title="Control deprecated API definitions. ">
<polygon fill="#ffffff" stroke="#000000" points="294.5,-112.5 294.5,-131.5 413.5,-131.5 413.5,-112.5 294.5,-112.5"/>
<text text-anchor="middle" x="354" y="-119.5" font-family="Helvetica,sans-Serif" font-size="10.00" fill="#000000">odp/api/deprecated.h</text>
</a>
</g>
</g>
<!-- Node16&#45;&gt;Node17 -->
<g id="edge22" class="edge">
<title>Node16&#45;&gt;Node17</title>
<path fill="none" stroke="#191970" d="M379.1633,-694.3669C362.7969,-686.6788 341.6458,-674.4651 328,-658 256.9988,-572.3293 239,-535.2683 239,-424 239,-424 239,-424 239,-306.5 239,-273.6194 236.5513,-259.9217 258,-235 284.2293,-204.5236 316.2074,-230.6562 341,-199 353.6329,-182.8698 355.881,-158.9501 355.6028,-142.0589"/>
<polygon fill="#191970" stroke="#191970" points="359.0796,-141.4903 355.1031,-131.67 352.0876,-141.8266 359.0796,-141.4903"/>
</g>
<!-- Node19 -->
<g id="node20" class="node">
<title>Node19</title>
<g id="a_node20"><a xlink:href="packet__io__stats_8h.html" target="_top" xlink:title="ODP packet IO stats. ">
<polygon fill="#ffffff" stroke="#000000" points="107.5,-638.5 107.5,-657.5 248.5,-657.5 248.5,-638.5 107.5,-638.5"/>
<text text-anchor="middle" x="178" y="-645.5" font-family="Helvetica,sans-Serif" font-size="10.00" fill="#000000">odp/api/packet_io_stats.h</text>
</a>
</g>
</g>
<!-- Node16&#45;&gt;Node19 -->
<g id="edge26" class="edge">
<title>Node16&#45;&gt;Node19</title>
<path fill="none" stroke="#191970" d="M364.5768,-694.4369C326.3125,-684.9133 267.4663,-670.2672 226.1151,-659.9753"/>
<polygon fill="#191970" stroke="#191970" points="226.8141,-656.5426 216.2647,-657.5237 225.1234,-663.3353 226.8141,-656.5426"/>
</g>
<!-- Node21 -->
<g id="node22" class="node">
<title>Node21</title>
<g id="a_node22"><a xlink:href="api_2queue_8h.html" target="_top" xlink:title="ODP queue. ">
<polygon fill="#ffffff" stroke="#000000" points="1024.5,-638.5 1024.5,-657.5 1119.5,-657.5 1119.5,-638.5 1024.5,-638.5"/>
<text text-anchor="middle" x="1072" y="-645.5" font-family="Helvetica,sans-Serif" font-size="10.00" fill="#000000">odp/api/queue.h</text>
</a>
</g>
</g>
<!-- Node16&#45;&gt;Node21 -->
<g id="edge31" class="edge">
<title>Node16&#45;&gt;Node21</title>
<path fill="none" stroke="#191970" d="M471.7626,-698.2441C603.921,-687.1815 891.1762,-663.1362 1014.1956,-652.8386"/>
<polygon fill="#191970" stroke="#191970" points="1014.5011,-656.3254 1024.1742,-652.0034 1013.9171,-649.3498 1014.5011,-656.3254"/>
</g>
<!-- Node27 -->
<g id="node28" class="node">
<title>Node27</title>
<g id="a_node28"><a xlink:href="api_2packet_8h.html" target="_top" xlink:title="ODP packet descriptor. ">
<polygon fill="#ffffff" stroke="#000000" points="946,-414.5 946,-433.5 1044,-433.5 1044,-414.5 946,-414.5"/>
<text text-anchor="middle" x="995" y="-421.5" font-family="Helvetica,sans-Serif" font-size="10.00" fill="#000000">odp/api/packet.h</text>
</a>
</g>
</g>
<!-- Node16&#45;&gt;Node27 -->
<g id="edge80" class="edge">
<title>Node16&#45;&gt;Node27</title>
<path fill="none" stroke="#191970" d="M471.5111,-695.9828C610.1734,-678.826 911,-636.4789 911,-592 911,-592 911,-592 911,-536 911,-494.9075 947.6365,-459.2426 972.5189,-439.7588"/>
<polygon fill="#191970" stroke="#191970" points="974.8679,-442.3713 980.7505,-433.5596 970.6569,-436.7795 974.8679,-442.3713"/>
</g>
<!-- Node29 -->
<g id="node30" class="node">
<title>Node29</title>
<g id="a_node30"><a xlink:href="api_2time_8h.html" target="_top" xlink:title="ODP time. ">
<polygon fill="#ffffff" stroke="#000000" points="331.5,-297 331.5,-316 418.5,-316 418.5,-297 331.5,-297"/>
<text text-anchor="middle" x="375" y="-304" font-family="Helvetica,sans-Serif" font-size="10.00" fill="#000000">odp/api/time.h</text>
</a>
</g>
</g>
<!-- Node16&#45;&gt;Node29 -->
<g id="edge79" class="edge">
<title>Node16&#45;&gt;Node29</title>
<path fill="none" stroke="#191970" d="M387.6716,-694.3315C362.459,-677.0999 315,-638.4895 315,-592 315,-592 315,-592 315,-424 315,-384.7716 341.8542,-345.4419 359.6313,-323.7039"/>
<polygon fill="#191970" stroke="#191970" points="362.3499,-325.9096 366.1468,-316.0184 357.0104,-321.3829 362.3499,-325.9096"/>
</g>
<!-- Node38 -->
<g id="node39" class="node">
<title>Node38</title>
<g id="a_node39"><a xlink:href="reassembly_8h.html" target="_top" xlink:title="ODP REASSEMBLY API &#45; platform specific header. ">
<polygon fill="#ffffff" stroke="#000000" points="343,-582.5 343,-601.5 463,-601.5 463,-582.5 343,-582.5"/>
<text text-anchor="middle" x="403" y="-589.5" font-family="Helvetica,sans-Serif" font-size="10.00" fill="#000000">odp/api/reassembly.h</text>
</a>
</g>
</g>
<!-- Node16&#45;&gt;Node38 -->
<g id="edge75" class="edge">
<title>Node16&#45;&gt;Node38</title>
<path fill="none" stroke="#191970" d="M403,-694.4509C403,-676.184 403,-635.9553 403,-611.6976"/>
<polygon fill="#191970" stroke="#191970" points="406.5001,-611.5249 403,-601.5249 399.5001,-611.5249 406.5001,-611.5249"/>
</g>
<!-- Node18 -->
<g id="node19" class="node">
<title>Node18</title>
<g id="a_node19"><a xlink:href="spec_2deprecated_8h.html" target="_top" xlink:title="Macro for deprecated API definitions. ">
<polygon fill="#ffffff" stroke="#000000" points="256.5,-56.5 256.5,-75.5 401.5,-75.5 401.5,-56.5 256.5,-56.5"/>
<text text-anchor="middle" x="329" y="-63.5" font-family="Helvetica,sans-Serif" font-size="10.00" fill="#000000">odp/api/spec/deprecated.h</text>
</a>
</g>
</g>
<!-- Node17&#45;&gt;Node18 -->
<g id="edge23" class="edge">
<title>Node17&#45;&gt;Node18</title>
<path fill="none" stroke="#191970" d="M349.6453,-112.2455C346.2756,-104.6973 341.507,-94.0158 337.4017,-84.8197"/>
<polygon fill="#191970" stroke="#191970" points="340.5773,-83.3473 333.3048,-75.6427 334.1853,-86.2009 340.5773,-83.3473"/>
</g>
<!-- Node18&#45;&gt;Node1 -->
<g id="edge24" class="edge">
<title>Node18&#45;&gt;Node1</title>
<path fill="none" stroke="#191970" d="M401.7059,-60.1602C418.8547,-58.7892 437.0716,-57.3382 454,-56 641.153,-41.2057 861.7812,-24.0515 972.3432,-15.4748"/>
<polygon fill="#191970" stroke="#191970" points="972.6724,-18.9599 982.3717,-14.697 972.131,-11.9809 972.6724,-18.9599"/>
</g>
<!-- Node18&#45;&gt;Node9 -->
<g id="edge25" class="edge">
<title>Node18&#45;&gt;Node9</title>
<path fill="none" stroke="#191970" d="M320.1165,-56.2455C312.8034,-48.2155 302.2609,-36.6394 293.5533,-27.0781"/>
<polygon fill="#191970" stroke="#191970" points="296.1028,-24.6795 286.7817,-19.6427 290.9273,-29.3928 296.1028,-24.6795"/>
</g>
<!-- Node20 -->
<g id="node21" class="node">
<title>Node20</title>
<g id="a_node21"><a xlink:href="spec_2packet__io__stats_8h.html" target="_top" xlink:title="ODP Packet IO statistics. ">
<polygon fill="#ffffff" stroke="#000000" points="218,-168.5 218,-198.5 332,-198.5 332,-168.5 218,-168.5"/>
<text text-anchor="start" x="226" y="-186.5" font-family="Helvetica,sans-Serif" font-size="10.00" fill="#000000">odp/api/spec/packet</text>
<text text-anchor="middle" x="275" y="-175.5" font-family="Helvetica,sans-Serif" font-size="10.00" fill="#000000">_io_stats.h</text>
</a>
</g>
</g>
<!-- Node19&#45;&gt;Node20 -->
<g id="edge27" class="edge">
<title>Node19&#45;&gt;Node20</title>
<path fill="none" stroke="#191970" d="M181.3937,-638.2503C187.7916,-618.9723 201,-574.5094 201,-536 201,-536 201,-536 201,-306.5 201,-272.9798 207.5585,-263.6252 225,-235 231.5196,-224.3 240.631,-214.0606 249.2925,-205.5706"/>
<polygon fill="#191970" stroke="#191970" points="251.8254,-207.9932 256.7119,-198.5924 247.0296,-202.8941 251.8254,-207.9932"/>
</g>
<!-- Node20&#45;&gt;Node1 -->
<g id="edge28" class="edge">
<title>Node20&#45;&gt;Node1</title>
<path fill="none" stroke="#191970" d="M272.6929,-168.4205C271.1507,-152.4483 271.4413,-127.45 285,-112 288.8584,-107.6034 482.2408,-57.0238 488,-56 660.0424,-25.4163 865.7855,-15.0888 971.897,-11.6597"/>
<polygon fill="#191970" stroke="#191970" points="972.2751,-15.1497 982.1611,-11.3396 972.0568,-8.1531 972.2751,-15.1497"/>
</g>
<!-- Node20&#45;&gt;Node9 -->
<g id="edge30" class="edge">
<title>Node20&#45;&gt;Node9</title>
<path fill="none" stroke="#191970" d="M266.7101,-168.3805C254.6115,-144.2993 234.8163,-95.8802 247,-56 250.1409,-45.7192 256.4366,-35.6582 262.5388,-27.5799"/>
<polygon fill="#191970" stroke="#191970" points="265.363,-29.6535 268.9259,-19.6757 259.9184,-25.2539 265.363,-29.6535"/>
</g>
<!-- Node20&#45;&gt;Node17 -->
<g id="edge29" class="edge">
<title>Node20&#45;&gt;Node17</title>
<path fill="none" stroke="#191970" d="M294.5281,-168.2977C306.2937,-159.1384 321.2675,-147.4816 333.2465,-138.1562"/>
<polygon fill="#191970" stroke="#191970" points="335.6103,-140.7516 341.3511,-131.8469 331.3102,-135.228 335.6103,-140.7516"/>
</g>
<!-- Node21&#45;&gt;Node2 -->
<g id="edge32" class="edge">
<title>Node21&#45;&gt;Node2</title>
<path fill="none" stroke="#191970" d="M1119.8297,-640.3337C1234.3797,-620.6264 1515,-563.7968 1515,-480 1515,-480 1515,-480 1515,-368 1515,-331.4994 1515,-288.906 1515,-264.6285"/>
<polygon fill="#191970" stroke="#191970" points="1518.5001,-264.5691 1515,-254.5691 1511.5001,-264.5692 1518.5001,-264.5691"/>
</g>
<!-- Node21&#45;&gt;Node11 -->
<g id="edge36" class="edge">
<title>Node21&#45;&gt;Node11</title>
<path fill="none" stroke="#191970" d="M1085.1267,-638.1788C1097.5055,-628.8989 1116.561,-614.5662 1133,-602 1239.4084,-520.6598 1365.8518,-422.0468 1414.516,-384.0201"/>
<polygon fill="#191970" stroke="#191970" points="1416.9518,-386.5585 1422.6752,-377.6426 1412.6409,-381.0434 1416.9518,-386.5585"/>
</g>
<!-- Node21&#45;&gt;Node15 -->
<g id="edge34" class="edge">
<title>Node21&#45;&gt;Node15</title>
<path fill="none" stroke="#191970" d="M1080.1237,-638.3618C1114.5198,-597.5528 1248.449,-438.6537 1293.2836,-385.4602"/>
<polygon fill="#191970" stroke="#191970" points="1296.142,-387.4997 1299.9105,-377.5977 1290.7896,-382.9883 1296.142,-387.4997"/>
</g>
<!-- Node22 -->
<g id="node23" class="node">
<title>Node22</title>
<polygon fill="#ffffff" stroke="#bfbfbf" points="809,-358.5 809,-377.5 919,-377.5 919,-358.5 809,-358.5"/>
<text text-anchor="middle" x="864" y="-365.5" font-family="Helvetica,sans-Serif" font-size="10.00" fill="#000000">odp/api/abi/event.h</text>
</g>
<!-- Node21&#45;&gt;Node22 -->
<g id="edge33" class="edge">
<title>Node21&#45;&gt;Node22</title>
<path fill="none" stroke="#191970" d="M1064.8402,-638.3618C1034.5874,-597.6369 916.972,-439.3084 877.2158,-385.7905"/>
<polygon fill="#191970" stroke="#191970" points="879.9026,-383.538 871.1297,-377.5977 874.2834,-387.7123 879.9026,-383.538"/>
</g>
<!-- Node23 -->
<g id="node24" class="node">
<title>Node23</title>
<polygon fill="#ffffff" stroke="#bfbfbf" points="975,-358.5 975,-377.5 1085,-377.5 1085,-358.5 975,-358.5"/>
<text text-anchor="middle" x="1030" y="-365.5" font-family="Helvetica,sans-Serif" font-size="10.00" fill="#000000">odp/api/abi/buffer.h</text>
</g>
<!-- Node21&#45;&gt;Node23 -->
<g id="edge35" class="edge">
<title>Node21&#45;&gt;Node23</title>
<path fill="none" stroke="#191970" d="M1072,-638.4116C1072,-619.0538 1072,-573.9167 1072,-536 1072,-536 1072,-536 1072,-480 1072,-445.2434 1054.0481,-408.0613 1041.6174,-386.4811"/>
<polygon fill="#191970" stroke="#191970" points="1044.5177,-384.5116 1036.3789,-377.7285 1038.5113,-388.1065 1044.5177,-384.5116"/>
</g>
<!-- Node24 -->
<g id="node25" class="node">
<title>Node24</title>
<g id="a_node25"><a xlink:href="api_2spec_2queue_8h.html" target="_top" xlink:title="ODP queue. ">
<polygon fill="#ffffff" stroke="#000000" points="703,-582.5 703,-601.5 823,-601.5 823,-582.5 703,-582.5"/>
<text text-anchor="middle" x="763" y="-589.5" font-family="Helvetica,sans-Serif" font-size="10.00" fill="#000000">odp/api/spec/queue.h</text>
</a>
</g>
</g>
<!-- Node21&#45;&gt;Node24 -->
<g id="edge37" class="edge">
<title>Node21&#45;&gt;Node24</title>
<path fill="none" stroke="#191970" d="M1024.3959,-639.3727C971.025,-629.7003 884.2735,-613.9784 825.4846,-603.3241"/>
<polygon fill="#191970" stroke="#191970" points="826.0381,-599.8674 815.5742,-601.528 824.7897,-606.7552 826.0381,-599.8674"/>
</g>
<!-- Node24&#45;&gt;Node1 -->
<g id="edge38" class="edge">
<title>Node24&#45;&gt;Node1</title>
<path fill="none" stroke="#191970" d="M763.1577,-582.4997C764.0091,-542.9362 769.2559,-391.7503 800,-358 843.5545,-310.1866 881.058,-346.2914 941,-322 1104.011,-255.9401 1180.6464,-237.2044 1251,-76 1254.5555,-67.8532 1256.5656,-62.9309 1251,-56 1233.8685,-34.6658 1167.0548,-22.6263 1113.7131,-16.264"/>
<polygon fill="#191970" stroke="#191970" points="1113.9178,-12.7647 1103.5844,-15.1037 1113.121,-19.7192 1113.9178,-12.7647"/>
</g>
<!-- Node24&#45;&gt;Node9 -->
<g id="edge74" class="edge">
<title>Node24&#45;&gt;Node9</title>
<path fill="none" stroke="#191970" d="M702.9488,-586.4561C630.2812,-579.0615 512.7216,-564.7009 473,-546 336.8209,-481.8871 316.4261,-436.7317 219,-322 141.8547,-231.1515 109.4491,-148.1787 185,-56 197.3319,-40.954 215.8107,-30.4161 233.0553,-23.2604"/>
<polygon fill="#191970" stroke="#191970" points="234.3953,-26.4948 242.4617,-19.6258 231.8723,-19.9653 234.3953,-26.4948"/>
</g>
<!-- Node25 -->
<g id="node26" class="node">
<title>Node25</title>
<g id="a_node26"><a xlink:href="api_2event_8h.html" target="_top" xlink:title="ODP event. ">
<polygon fill="#ffffff" stroke="#000000" points="791,-526.5 791,-545.5 883,-545.5 883,-526.5 791,-526.5"/>
<text text-anchor="middle" x="837" y="-533.5" font-family="Helvetica,sans-Serif" font-size="10.00" fill="#000000">odp/api/event.h</text>
</a>
</g>
</g>
<!-- Node24&#45;&gt;Node25 -->
<g id="edge39" class="edge">
<title>Node24&#45;&gt;Node25</title>
<path fill="none" stroke="#191970" d="M775.8898,-582.2455C786.9254,-573.8943 803.0292,-561.7076 815.9353,-551.9408"/>
<polygon fill="#191970" stroke="#191970" points="818.3959,-554.4681 824.2579,-545.6427 814.1717,-548.8862 818.3959,-554.4681"/>
</g>
<!-- Node32 -->
<g id="node33" class="node">
<title>Node32</title>
<g id="a_node33"><a xlink:href="queue__types_8h.html" target="_top" xlink:title="ODP queue types. ">
<polygon fill="#ffffff" stroke="#000000" points="475.5,-291.5 475.5,-321.5 586.5,-321.5 586.5,-291.5 475.5,-291.5"/>
<text text-anchor="start" x="483.5" y="-309.5" font-family="Helvetica,sans-Serif" font-size="10.00" fill="#000000">odp/api/spec/queue</text>
<text text-anchor="middle" x="531" y="-298.5" font-family="Helvetica,sans-Serif" font-size="10.00" fill="#000000">_types.h</text>
</a>
</g>
</g>
<!-- Node24&#45;&gt;Node32 -->
<g id="edge61" class="edge">
<title>Node24&#45;&gt;Node32</title>
<path fill="none" stroke="#191970" d="M702.9017,-584.3838C606.7411,-570.4979 429,-537.1076 429,-480 429,-480 429,-480 429,-424 429,-393.4754 429.5786,-382.3393 448,-358 457.8224,-345.0221 471.946,-334.5366 485.7651,-326.4988"/>
<polygon fill="#191970" stroke="#191970" points="487.6692,-329.4464 494.7539,-321.5687 484.303,-323.3089 487.6692,-329.4464"/>
</g>
<!-- Node25&#45;&gt;Node22 -->
<g id="edge40" class="edge">
<title>Node25&#45;&gt;Node22</title>
<path fill="none" stroke="#191970" d="M838.529,-526.4862C842.7971,-499.9293 854.9092,-424.5651 860.7591,-388.1655"/>
<polygon fill="#191970" stroke="#191970" points="864.2893,-388.2566 862.4205,-377.8279 857.378,-387.1458 864.2893,-388.2566"/>
</g>
<!-- Node26 -->
<g id="node27" class="node">
<title>Node26</title>
<g id="a_node27"><a xlink:href="api_2spec_2event_8h.html" target="_top" xlink:title="ODP event. ">
<polygon fill="#ffffff" stroke="#000000" points="635,-470.5 635,-489.5 753,-489.5 753,-470.5 635,-470.5"/>
<text text-anchor="middle" x="694" y="-477.5" font-family="Helvetica,sans-Serif" font-size="10.00" fill="#000000">odp/api/spec/event.h</text>
</a>
</g>
</g>
<!-- Node25&#45;&gt;Node26 -->
<g id="edge41" class="edge">
<title>Node25&#45;&gt;Node26</title>
<path fill="none" stroke="#191970" d="M812.4174,-526.3733C789.0504,-517.2226 753.7138,-503.3844 727.7216,-493.2057"/>
<polygon fill="#191970" stroke="#191970" points="728.8495,-489.8886 718.2618,-489.5011 726.297,-496.4066 728.8495,-489.8886"/>
</g>
<!-- Node26&#45;&gt;Node1 -->
<g id="edge42" class="edge">
<title>Node26&#45;&gt;Node1</title>
<path fill="none" stroke="#191970" d="M697.0029,-470.4299C704.7125,-447.4401 727.4285,-388.7359 767,-358 811.3113,-323.5826 835.6726,-342.2458 888,-322 951.9596,-297.2536 970.8707,-294.4044 1027,-255 1064.1695,-228.9059 1100,-228.9144 1100,-183.5 1100,-183.5 1100,-183.5 1100,-122 1100,-85.1826 1075.2325,-48.2377 1058.3499,-27.3313"/>
<polygon fill="#191970" stroke="#191970" points="1061.0131,-25.06 1051.9063,-19.6456 1055.6489,-29.5574 1061.0131,-25.06"/>
</g>
<!-- Node26&#45;&gt;Node9 -->
<g id="edge60" class="edge">
<title>Node26&#45;&gt;Node9</title>
<path fill="none" stroke="#191970" d="M641.6097,-470.4794C555.451,-452.8502 381.3173,-408.7531 260,-322 178.3658,-263.624 154.6455,-209.8375 177,-112 183.1546,-85.0635 185.5339,-76.5538 204,-56 215.8592,-42.8001 232.3876,-32.0387 246.8162,-24.2525"/>
<polygon fill="#191970" stroke="#191970" points="248.6313,-27.2549 255.9244,-19.5699 245.4306,-21.0295 248.6313,-27.2549"/>
</g>
<!-- Node26&#45;&gt;Node27 -->
<g id="edge43" class="edge">
<title>Node26&#45;&gt;Node27</title>
<path fill="none" stroke="#191970" d="M745.4017,-470.4369C798.1972,-460.6145 880.2816,-445.343 935.7695,-435.0196"/>
<polygon fill="#191970" stroke="#191970" points="936.6167,-438.4222 945.8078,-433.152 935.3363,-431.5402 936.6167,-438.4222"/>
</g>
<!-- Node27&#45;&gt;Node2 -->
<g id="edge44" class="edge">
<title>Node27&#45;&gt;Node2</title>
<path fill="none" stroke="#191970" d="M984.6438,-414.1616C971.443,-400.4309 951.9244,-375.2679 966,-358 996.4783,-320.6095 1309.1123,-273.3476 1448.5226,-253.9386"/>
<polygon fill="#191970" stroke="#191970" points="1449.2314,-257.3739 1458.6563,-252.5344 1448.2705,-250.4402 1449.2314,-257.3739"/>
</g>
<!-- Node27&#45;&gt;Node11 -->
<g id="edge50" class="edge">
<title>Node27&#45;&gt;Node11</title>
<path fill="none" stroke="#191970" d="M1044.1468,-418.6976C1114.5914,-410.9512 1248.584,-395.6745 1372.7167,-378.1375"/>
<polygon fill="#191970" stroke="#191970" points="1373.3704,-381.5799 1382.7786,-376.7079 1372.3856,-374.6495 1373.3704,-381.5799"/>
</g>
<!-- Node27&#45;&gt;Node13 -->
<g id="edge47" class="edge">
<title>Node27&#45;&gt;Node13</title>
<path fill="none" stroke="#191970" d="M945.7831,-419.0647C870.3377,-411.3762 721.3052,-395.7038 583.5403,-378.0285"/>
<polygon fill="#191970" stroke="#191970" points="583.5856,-374.5055 573.2201,-376.6979 582.6904,-381.448 583.5856,-374.5055"/>
</g>
<!-- Node27&#45;&gt;Node14 -->
<g id="edge46" class="edge">
<title>Node27&#45;&gt;Node14</title>
<path fill="none" stroke="#191970" d="M1024.7398,-414.3733C1053.507,-405.0613 1097.27,-390.8953 1128.8556,-380.671"/>
<polygon fill="#191970" stroke="#191970" points="1130.2122,-383.9107 1138.6483,-377.5011 1128.0564,-377.251 1130.2122,-383.9107"/>
</g>
<!-- Node27&#45;&gt;Node15 -->
<g id="edge48" class="edge">
<title>Node27&#45;&gt;Node15</title>
<path fill="none" stroke="#191970" d="M1044.2506,-415.1884C1098.4442,-405.4924 1185.6979,-389.8815 1244.874,-379.2941"/>
<polygon fill="#191970" stroke="#191970" points="1245.6233,-382.7157 1254.8505,-377.5092 1244.3904,-375.8251 1245.6233,-382.7157"/>
</g>
<!-- Node27&#45;&gt;Node22 -->
<g id="edge45" class="edge">
<title>Node27&#45;&gt;Node22</title>
<path fill="none" stroke="#191970" d="M972.4803,-414.3733C951.2628,-405.3032 919.2724,-391.6279 895.5231,-381.4755"/>
<polygon fill="#191970" stroke="#191970" points="896.7967,-378.2136 886.2258,-377.5011 894.0452,-384.6502 896.7967,-378.2136"/>
</g>
<!-- Node27&#45;&gt;Node23 -->
<g id="edge49" class="edge">
<title>Node27&#45;&gt;Node23</title>
<path fill="none" stroke="#191970" d="M1001.0965,-414.2455C1005.9145,-406.5367 1012.7751,-395.5598 1018.6032,-386.2348"/>
<polygon fill="#191970" stroke="#191970" points="1021.6413,-387.9777 1023.9733,-377.6427 1015.7053,-384.2677 1021.6413,-387.9777"/>
</g>
<!-- Node28 -->
<g id="node29" class="node">
<title>Node28</title>
<g id="a_node29"><a xlink:href="api_2spec_2packet_8h.html" target="_top" xlink:title="ODP packet descriptor. ">
<polygon fill="#ffffff" stroke="#000000" points="591.5,-358.5 591.5,-377.5 714.5,-377.5 714.5,-358.5 591.5,-358.5"/>
<text text-anchor="middle" x="653" y="-365.5" font-family="Helvetica,sans-Serif" font-size="10.00" fill="#000000">odp/api/spec/packet.h</text>
</a>
</g>
</g>
<!-- Node27&#45;&gt;Node28 -->
<g id="edge51" class="edge">
<title>Node27&#45;&gt;Node28</title>
<path fill="none" stroke="#191970" d="M945.9997,-415.9766C886.971,-406.311 787.4719,-390.0188 721.0258,-379.1387"/>
<polygon fill="#191970" stroke="#191970" points="721.4982,-375.6696 711.064,-377.5076 720.367,-382.5776 721.4982,-375.6696"/>
</g>
<!-- Node28&#45;&gt;Node1 -->
<g id="edge52" class="edge">
<title>Node28&#45;&gt;Node1</title>
<path fill="none" stroke="#191970" d="M695.2297,-358.4568C799.7285,-333.6239 1062,-263.3447 1062,-183.5 1062,-183.5 1062,-183.5 1062,-122 1062,-89.2688 1054.0148,-51.9052 1048.3978,-29.6716"/>
<polygon fill="#191970" stroke="#191970" points="1051.7289,-28.5763 1045.8035,-19.7934 1044.9585,-30.3545 1051.7289,-28.5763"/>
</g>
<!-- Node28&#45;&gt;Node9 -->
<g id="edge59" class="edge">
<title>Node28&#45;&gt;Node9</title>
<path fill="none" stroke="#191970" d="M591.4276,-359.3189C588.2393,-358.8722 585.0821,-358.4304 582,-358 466.4632,-341.8649 427.1627,-372.4965 322,-322 250.2972,-287.5701 223.4523,-272.058 192,-199 166.3215,-139.3535 181.8678,-107.0538 222,-56 231.0803,-44.4486 243.5296,-33.8637 254.3846,-25.7673"/>
<polygon fill="#191970" stroke="#191970" points="256.5672,-28.509 262.6535,-19.8367 252.4875,-22.8208 256.5672,-28.509"/>
</g>
<!-- Node28&#45;&gt;Node29 -->
<g id="edge53" class="edge">
<title>Node28&#45;&gt;Node29</title>
<path fill="none" stroke="#191970" d="M609.8675,-358.4581C560.8672,-347.6181 480.8767,-329.9224 428.0861,-318.2439"/>
<polygon fill="#191970" stroke="#191970" points="428.7536,-314.807 418.2337,-316.0643 427.2416,-321.6417 428.7536,-314.807"/>
</g>
<!-- Node29&#45;&gt;Node2 -->
<g id="edge54" class="edge">
<title>Node29&#45;&gt;Node2</title>
<path fill="none" stroke="#191970" d="M418.8369,-297.9834C434.0328,-295.3326 451.2147,-292.6698 467,-291 658.6989,-270.7221 1249.9919,-252.5256 1448.9193,-246.8344"/>
<polygon fill="#191970" stroke="#191970" points="1449.0393,-250.3325 1458.9355,-246.549 1448.8398,-243.3354 1449.0393,-250.3325"/>
</g>
<!-- Node30 -->
<g id="node31" class="node">
<title>Node30</title>
<polygon fill="#ffffff" stroke="#bfbfbf" points="267.5,-235.5 267.5,-254.5 372.5,-254.5 372.5,-235.5 267.5,-235.5"/>
<text text-anchor="middle" x="320" y="-242.5" font-family="Helvetica,sans-Serif" font-size="10.00" fill="#000000">odp/api/abi/time.h</text>
</g>
<!-- Node29&#45;&gt;Node30 -->
<g id="edge55" class="edge">
<title>Node29&#45;&gt;Node30</title>
<path fill="none" stroke="#191970" d="M366.4063,-296.8906C358.1403,-287.6478 345.4574,-273.466 335.4383,-262.2628"/>
<polygon fill="#191970" stroke="#191970" points="337.99,-259.8657 328.7149,-254.7449 332.7722,-264.5321 337.99,-259.8657"/>
</g>
<!-- Node31 -->
<g id="node32" class="node">
<title>Node31</title>
<g id="a_node32"><a xlink:href="api_2spec_2time_8h.html" target="_top" xlink:title="ODP time. ">
<polygon fill="#ffffff" stroke="#000000" points="496.5,-56.5 496.5,-75.5 609.5,-75.5 609.5,-56.5 496.5,-56.5"/>
<text text-anchor="middle" x="553" y="-63.5" font-family="Helvetica,sans-Serif" font-size="10.00" fill="#000000">odp/api/spec/time.h</text>
</a>
</g>
</g>
<!-- Node29&#45;&gt;Node31 -->
<g id="edge56" class="edge">
<title>Node29&#45;&gt;Node31</title>
<path fill="none" stroke="#191970" d="M380.4432,-296.6381C396.9725,-267.0947 448.8375,-177.3192 504,-112 512.967,-101.3819 524.1972,-90.6865 533.6435,-82.2842"/>
<polygon fill="#191970" stroke="#191970" points="536.1365,-84.7545 541.3838,-75.5503 531.542,-79.4733 536.1365,-84.7545"/>
</g>
<!-- Node31&#45;&gt;Node1 -->
<g id="edge57" class="edge">
<title>Node31&#45;&gt;Node1</title>
<path fill="none" stroke="#191970" d="M609.5035,-57.2782C612.7144,-56.8326 615.897,-56.4032 619,-56 743.0049,-39.8863 887.9262,-25.0135 972.1981,-16.7572"/>
<polygon fill="#191970" stroke="#191970" points="972.5565,-20.2389 982.169,-15.7834 971.8761,-13.272 972.5565,-20.2389"/>
</g>
<!-- Node31&#45;&gt;Node9 -->
<g id="edge58" class="edge">
<title>Node31&#45;&gt;Node9</title>
<path fill="none" stroke="#191970" d="M506.0383,-56.4369C458.5787,-46.7724 385.2134,-31.8326 334.5777,-21.5213"/>
<polygon fill="#191970" stroke="#191970" points="335.2653,-18.0895 324.768,-19.5237 333.8685,-24.9488 335.2653,-18.0895"/>
</g>
<!-- Node32&#45;&gt;Node1 -->
<g id="edge62" class="edge">
<title>Node32&#45;&gt;Node1</title>
<path fill="none" stroke="#191970" d="M586.595,-304.332C715.5271,-297.7933 1024,-272.8166 1024,-183.5 1024,-183.5 1024,-183.5 1024,-122 1024,-89.2688 1031.9852,-51.9052 1037.6022,-29.6716"/>
<polygon fill="#191970" stroke="#191970" points="1041.0415,-30.3545 1040.1965,-19.7934 1034.2711,-28.5763 1041.0415,-30.3545"/>
</g>
<!-- Node32&#45;&gt;Node9 -->
<g id="edge73" class="edge">
<title>Node32&#45;&gt;Node9</title>
<path fill="none" stroke="#191970" d="M504.4429,-291.4443C475.0778,-275.3732 425.9635,-250.1787 381,-235 307.0017,-210.0198 258.245,-259.6192 209,-199 165.7726,-145.7884 229.3831,-63.0786 261.4221,-27.3773"/>
<polygon fill="#191970" stroke="#191970" points="264.2554,-29.4669 268.4476,-19.7367 259.1026,-24.7288 264.2554,-29.4669"/>
</g>
<!-- Node32&#45;&gt;Node17 -->
<g id="edge72" class="edge">
<title>Node32&#45;&gt;Node17</title>
<path fill="none" stroke="#191970" d="M516.5153,-291.4016C483.8161,-257.3168 404.4639,-174.6022 370.1991,-138.8855"/>
<polygon fill="#191970" stroke="#191970" points="372.6867,-136.4227 363.2381,-131.6295 367.6353,-141.2688 372.6867,-136.4227"/>
</g>
<!-- Node33 -->
<g id="node34" class="node">
<title>Node33</title>
<g id="a_node34"><a xlink:href="api_2schedule__types_8h.html" target="_top" xlink:title="ODP schedule. ">
<polygon fill="#ffffff" stroke="#000000" points="637,-235.5 637,-254.5 777,-254.5 777,-235.5 637,-235.5"/>
<text text-anchor="middle" x="707" y="-242.5" font-family="Helvetica,sans-Serif" font-size="10.00" fill="#000000">odp/api/schedule_types.h</text>
</a>
</g>
</g>
<!-- Node32&#45;&gt;Node33 -->
<g id="edge63" class="edge">
<title>Node32&#45;&gt;Node33</title>
<path fill="none" stroke="#191970" d="M574.0544,-291.4554C603.4205,-281.194 641.9145,-267.7429 669.9195,-257.9571"/>
<polygon fill="#191970" stroke="#191970" points="671.4406,-261.1332 679.7262,-254.5303 669.1314,-254.525 671.4406,-261.1332"/>
</g>
<!-- Node34 -->
<g id="node35" class="node">
<title>Node34</title>
<polygon fill="#ffffff" stroke="#bfbfbf" points="787.5,-168.5 787.5,-198.5 904.5,-198.5 904.5,-168.5 787.5,-168.5"/>
<text text-anchor="start" x="795.5" y="-186.5" font-family="Helvetica,sans-Serif" font-size="10.00" fill="#000000">odp/api/abi/schedule</text>
<text text-anchor="middle" x="846" y="-175.5" font-family="Helvetica,sans-Serif" font-size="10.00" fill="#000000">_types.h</text>
</g>
<!-- Node33&#45;&gt;Node34 -->
<g id="edge64" class="edge">
<title>Node33&#45;&gt;Node34</title>
<path fill="none" stroke="#191970" d="M728.7188,-235.3906C748.4016,-226.682 777.9944,-213.5888 802.5288,-202.7336"/>
<polygon fill="#191970" stroke="#191970" points="804.268,-205.7915 811.9968,-198.5446 801.4357,-199.3901 804.268,-205.7915"/>
</g>
<!-- Node35 -->
<g id="node36" class="node">
<title>Node35</title>
<g id="a_node36"><a xlink:href="api_2spec_2schedule__types_8h.html" target="_top" xlink:title="ODP schedule types. ">
<polygon fill="#ffffff" stroke="#000000" points="644.5,-168.5 644.5,-198.5 769.5,-198.5 769.5,-168.5 644.5,-168.5"/>
<text text-anchor="start" x="652.5" y="-186.5" font-family="Helvetica,sans-Serif" font-size="10.00" fill="#000000">odp/api/spec/schedule</text>
<text text-anchor="middle" x="707" y="-175.5" font-family="Helvetica,sans-Serif" font-size="10.00" fill="#000000">_types.h</text>
</a>
</g>
</g>
<!-- Node33&#45;&gt;Node35 -->
<g id="edge65" class="edge">
<title>Node33&#45;&gt;Node35</title>
<path fill="none" stroke="#191970" d="M707,-235.3906C707,-228.2234 707,-218.0862 707,-208.671"/>
<polygon fill="#191970" stroke="#191970" points="710.5001,-208.5446 707,-198.5446 703.5001,-208.5446 710.5001,-208.5446"/>
</g>
<!-- Node35&#45;&gt;Node1 -->
<g id="edge66" class="edge">
<title>Node35&#45;&gt;Node1</title>
<path fill="none" stroke="#191970" d="M752.5576,-168.442C779.1439,-159.0857 813.045,-146.1652 842,-132 909.6066,-98.9258 984.0913,-50.2101 1020.4784,-25.5393"/>
<polygon fill="#191970" stroke="#191970" points="1022.5912,-28.3349 1028.8812,-19.8093 1018.6474,-22.5516 1022.5912,-28.3349"/>
</g>
<!-- Node35&#45;&gt;Node9 -->
<g id="edge71" class="edge">
<title>Node35&#45;&gt;Node9</title>
<path fill="none" stroke="#191970" d="M673.9089,-168.3901C619.3848,-143.6987 507.03,-93.6805 410,-56 379.0078,-43.9645 343.3837,-31.6369 316.961,-22.7766"/>
<polygon fill="#191970" stroke="#191970" points="317.9073,-19.4027 307.3136,-19.5584 315.6922,-26.043 317.9073,-19.4027"/>
</g>
<!-- Node36 -->
<g id="node37" class="node">
<title>Node36</title>
<g id="a_node37"><a xlink:href="support_8h.html" target="_top" xlink:title="ODP support API &#45; platform specific header. ">
<polygon fill="#ffffff" stroke="#000000" points="731.5,-112.5 731.5,-131.5 832.5,-131.5 832.5,-112.5 731.5,-112.5"/>
<text text-anchor="middle" x="782" y="-119.5" font-family="Helvetica,sans-Serif" font-size="10.00" fill="#000000">odp/api/support.h</text>
</a>
</g>
</g>
<!-- Node35&#45;&gt;Node36 -->
<g id="edge67" class="edge">
<title>Node35&#45;&gt;Node36</title>
<path fill="none" stroke="#191970" d="M725.5393,-168.2977C736.6008,-159.2274 750.6491,-147.7077 761.9653,-138.4285"/>
<polygon fill="#191970" stroke="#191970" points="764.4781,-140.8942 769.9916,-131.8469 760.0396,-135.4813 764.4781,-140.8942"/>
</g>
<!-- Node37 -->
<g id="node38" class="node">
<title>Node37</title>
<g id="a_node38"><a xlink:href="spec_2support_8h.html" target="_top" xlink:title="ODP support API. ">
<polygon fill="#ffffff" stroke="#000000" points="792.5,-56.5 792.5,-75.5 919.5,-75.5 919.5,-56.5 792.5,-56.5"/>
<text text-anchor="middle" x="856" y="-63.5" font-family="Helvetica,sans-Serif" font-size="10.00" fill="#000000">odp/api/spec/support.h</text>
</a>
</g>
</g>
<!-- Node36&#45;&gt;Node37 -->
<g id="edge68" class="edge">
<title>Node36&#45;&gt;Node37</title>
<path fill="none" stroke="#191970" d="M794.8898,-112.2455C805.9254,-103.8943 822.0292,-91.7076 834.9353,-81.9408"/>
<polygon fill="#191970" stroke="#191970" points="837.3959,-84.4681 843.2579,-75.6427 833.1717,-78.8862 837.3959,-84.4681"/>
</g>
<!-- Node37&#45;&gt;Node1 -->
<g id="edge69" class="edge">
<title>Node37&#45;&gt;Node1</title>
<path fill="none" stroke="#191970" d="M888.1464,-56.3733C919.5109,-46.9807 967.3665,-32.6496 1001.5716,-22.4064"/>
<polygon fill="#191970" stroke="#191970" points="1002.6975,-25.7229 1011.273,-19.5011 1000.6893,-19.0171 1002.6975,-25.7229"/>
</g>
<!-- Node37&#45;&gt;Node9 -->
<g id="edge70" class="edge">
<title>Node37&#45;&gt;Node9</title>
<path fill="none" stroke="#191970" d="M792.3201,-57.1038C789.1703,-56.718 786.0503,-56.3477 783,-56 626.0251,-38.1082 440.9639,-22.6957 344.3363,-15.079"/>
<polygon fill="#191970" stroke="#191970" points="344.375,-11.5713 334.1317,-14.2777 343.827,-18.5498 344.375,-11.5713"/>
</g>
<!-- Node39 -->
<g id="node40" class="node">
<title>Node39</title>
<g id="a_node40"><a xlink:href="spec_2reassembly_8h.html" target="_top" xlink:title="ODP REASSEMBLY API. ">
<polygon fill="#ffffff" stroke="#000000" points="628,-56.5 628,-75.5 774,-75.5 774,-56.5 628,-56.5"/>
<text text-anchor="middle" x="701" y="-63.5" font-family="Helvetica,sans-Serif" font-size="10.00" fill="#000000">odp/api/spec/reassembly.h</text>
</a>
</g>
</g>
<!-- Node38&#45;&gt;Node39 -->
<g id="edge76" class="edge">
<title>Node38&#45;&gt;Node39</title>
<path fill="none" stroke="#191970" d="M402.3781,-582.1881C400.6508,-549.1561 397.9082,-439.5052 431,-358 483.7754,-228.0139 622.8659,-120.4185 678.0072,-81.5576"/>
<polygon fill="#191970" stroke="#191970" points="680.1962,-84.2984 686.4065,-75.7145 676.1987,-78.5521 680.1962,-84.2984"/>
</g>
<!-- Node39&#45;&gt;Node1 -->
<g id="edge77" class="edge">
<title>Node39&#45;&gt;Node1</title>
<path fill="none" stroke="#191970" d="M759.4033,-56.4369C819.0406,-46.6717 911.5698,-31.5207 974.5965,-21.2006"/>
<polygon fill="#191970" stroke="#191970" points="975.5346,-24.5937 984.8376,-19.5237 974.4034,-17.6857 975.5346,-24.5937"/>
</g>
<!-- Node39&#45;&gt;Node9 -->
<g id="edge78" class="edge">
<title>Node39&#45;&gt;Node9</title>
<path fill="none" stroke="#191970" d="M628.7643,-56.4369C548.935,-45.8685 421.4559,-28.9918 344.1514,-18.7576"/>
<polygon fill="#191970" stroke="#191970" points="344.4242,-15.2633 334.0513,-17.4205 343.5054,-22.2027 344.4242,-15.2633"/>
</g>
</g>
</svg>
