<?xml version="1.0" encoding="UTF-8" standalone="no"?>
<!DOCTYPE svg PUBLIC "-//W3C//DTD SVG 1.1//EN"
 "http://www.w3.org/Graphics/SVG/1.1/DTD/svg11.dtd">
<!-- Generated by graphviz version 2.40.1 (20161225.0304)
 -->
<!-- Title: odp_api.h Pages: 1 -->
<svg width="4717pt" height="196pt"
 viewBox="0.00 0.00 4716.50 196.00" xmlns="http://www.w3.org/2000/svg" xmlns:xlink="http://www.w3.org/1999/xlink">
<g id="graph0" class="graph" transform="scale(1 1) rotate(0) translate(4 192)">
<title>odp_api.h</title>
<polygon fill="#ffffff" stroke="transparent" points="-4,4 -4,-192 4712.5,-192 4712.5,4 -4,4"/>
<!-- Node0 -->
<g id="node1" class="node">
<title>Node0</title>
<polygon fill="#bfbfbf" stroke="#000000" points="2243.5,-168.5 2243.5,-187.5 2307.5,-187.5 2307.5,-168.5 2243.5,-168.5"/>
<text text-anchor="middle" x="2275.5" y="-175.5" font-family="Helvetica,sans-Serif" font-size="10.00" fill="#000000">odp_api.h</text>
</g>
<!-- Node1 -->
<g id="node2" class="node">
<title>Node1</title>
<g id="a_node2"><a xlink:href="deprecated_8h.html" target="_top" xlink:title="Control deprecated API definitions. ">
<polygon fill="#ffffff" stroke="#000000" points="24,-112.5 24,-131.5 143,-131.5 143,-112.5 24,-112.5"/>
<text text-anchor="middle" x="83.5" y="-119.5" font-family="Helvetica,sans-Serif" font-size="10.00" fill="#000000">odp/api/deprecated.h</text>
</a>
</g>
</g>
<!-- Node0&#45;&gt;Node1 -->
<g id="edge1" class="edge">
<title>Node0&#45;&gt;Node1</title>
<path fill="none" stroke="#191970" d="M2243.4882,-177.7614C2012.0841,-175.9679 592.2359,-163.7893 162.5,-132 159.5918,-131.7849 156.6265,-131.5373 153.6332,-131.2641"/>
<polygon fill="#191970" stroke="#191970" points="153.688,-127.7524 143.3909,-130.2463 152.9958,-134.7181 153.688,-127.7524"/>
</g>
<!-- Node5 -->
<g id="node4" class="node">
<title>Node5</title>
<g id="a_node4"><a xlink:href="api_2version_8h.html" target="_top" xlink:title="ODP version. ">
<polygon fill="#ffffff" stroke="#000000" points="172,-112.5 172,-131.5 273,-131.5 273,-112.5 172,-112.5"/>
<text text-anchor="middle" x="222.5" y="-119.5" font-family="Helvetica,sans-Serif" font-size="10.00" fill="#000000">odp/api/version.h</text>
</a>
</g>
</g>
<!-- Node0&#45;&gt;Node5 -->
<g id="edge3" class="edge">
<title>Node0&#45;&gt;Node5</title>
<path fill="none" stroke="#191970" d="M2243.2524,-177.8268C2019.0691,-176.5371 690.0764,-167.4746 287.5,-132 286.1885,-131.8844 284.8633,-131.759 283.5282,-131.6248"/>
<polygon fill="#191970" stroke="#191970" points="283.4973,-128.0987 273.1651,-130.4432 282.7042,-135.0536 283.4973,-128.0987"/>
</g>
<!-- Node8 -->
<g id="node7" class="node">
<title>Node8</title>
<g id="a_node7"><a xlink:href="api_2std__types_8h.html" target="_top" xlink:title="Standard C language types and definitions for ODP. ">
<polygon fill="#ffffff" stroke="#ff0000" points="2369.5,-.5 2369.5,-19.5 2481.5,-19.5 2481.5,-.5 2369.5,-.5"/>
<text text-anchor="middle" x="2425.5" y="-7.5" font-family="Helvetica,sans-Serif" font-size="10.00" fill="#000000">odp/api/std_types.h</text>
</a>
</g>
</g>
<!-- Node0&#45;&gt;Node8 -->
<g id="edge6" class="edge">
<title>Node0&#45;&gt;Node8</title>
<path fill="none" stroke="#191970" d="M2307.7193,-177.4519C2412.3188,-175.3429 2737.4554,-166.0761 2768.5,-132 2850.8053,-41.6576 2613.0863,-18.188 2491.8334,-12.1116"/>
<polygon fill="#191970" stroke="#191970" points="2491.6936,-8.6011 2481.539,-11.6234 2491.362,-15.5933 2491.6936,-8.6011"/>
</g>
<!-- Node12 -->
<g id="node8" class="node">
<title>Node12</title>
<g id="a_node8"><a xlink:href="api_2align_8h.html" target="_top" xlink:title="ODP alignments. ">
<polygon fill="#ffffff" stroke="#ff0000" points="330,-112.5 330,-131.5 419,-131.5 419,-112.5 330,-112.5"/>
<text text-anchor="middle" x="374.5" y="-119.5" font-family="Helvetica,sans-Serif" font-size="10.00" fill="#000000">odp/api/align.h</text>
</a>
</g>
</g>
<!-- Node0&#45;&gt;Node12 -->
<g id="edge7" class="edge">
<title>Node0&#45;&gt;Node12</title>
<path fill="none" stroke="#191970" d="M2243.4744,-177.9113C2030.9944,-177.2174 821.4277,-171.6047 429.4763,-132.0292"/>
<polygon fill="#191970" stroke="#191970" points="429.5518,-128.5183 419.2441,-130.9684 428.8299,-135.481 429.5518,-128.5183"/>
</g>
<!-- Node15 -->
<g id="node9" class="node">
<title>Node15</title>
<g id="a_node9"><a xlink:href="api_2hash_8h.html" target="_top" xlink:title="ODP Hash function. ">
<polygon fill="#ffffff" stroke="#ff0000" points="436.5,-112.5 436.5,-131.5 524.5,-131.5 524.5,-112.5 436.5,-112.5"/>
<text text-anchor="middle" x="480.5" y="-119.5" font-family="Helvetica,sans-Serif" font-size="10.00" fill="#000000">odp/api/hash.h</text>
</a>
</g>
</g>
<!-- Node0&#45;&gt;Node15 -->
<g id="edge8" class="edge">
<title>Node0&#45;&gt;Node15</title>
<path fill="none" stroke="#191970" d="M2243.3332,-177.8546C2037.7267,-176.82 904.6968,-169.5227 534.8555,-131.9446"/>
<polygon fill="#191970" stroke="#191970" points="534.9772,-128.4383 524.6678,-130.8809 534.2503,-135.4005 534.9772,-128.4383"/>
</g>
<!-- Node18 -->
<g id="node10" class="node">
<title>Node18</title>
<g id="a_node10"><a xlink:href="chksum_8h.html" target="_top" xlink:title="ODP checksum functions. ">
<polygon fill="#ffffff" stroke="#ff0000" points="543,-112.5 543,-131.5 646,-131.5 646,-112.5 543,-112.5"/>
<text text-anchor="middle" x="594.5" y="-119.5" font-family="Helvetica,sans-Serif" font-size="10.00" fill="#000000">odp/api/chksum.h</text>
</a>
</g>
</g>
<!-- Node0&#45;&gt;Node18 -->
<g id="edge9" class="edge">
<title>Node0&#45;&gt;Node18</title>
<path fill="none" stroke="#191970" d="M2243.3812,-177.6763C2046.5498,-175.6044 1000.7558,-163.312 656.0148,-131.8801"/>
<polygon fill="#191970" stroke="#191970" points="656.3041,-128.3919 646.0214,-130.9445 655.6516,-135.3615 656.3041,-128.3919"/>
</g>
<!-- Node20 -->
<g id="node11" class="node">
<title>Node20</title>
<g id="a_node11"><a xlink:href="api_2comp_8h.html" target="_top" xlink:title="ODP crypto. ">
<polygon fill="#ffffff" stroke="#ff0000" points="664.5,-112.5 664.5,-131.5 756.5,-131.5 756.5,-112.5 664.5,-112.5"/>
<text text-anchor="middle" x="710.5" y="-119.5" font-family="Helvetica,sans-Serif" font-size="10.00" fill="#000000">odp/api/comp.h</text>
</a>
</g>
</g>
<!-- Node0&#45;&gt;Node20 -->
<g id="edge10" class="edge">
<title>Node0&#45;&gt;Node20</title>
<path fill="none" stroke="#191970" d="M2243.4211,-177.676C2054.7974,-175.6732 1087.6859,-164.032 766.8622,-131.9578"/>
<polygon fill="#191970" stroke="#191970" points="766.9471,-128.4481 756.6413,-130.9057 766.2303,-135.4113 766.9471,-128.4481"/>
</g>
<!-- Node36 -->
<g id="node12" class="node">
<title>Node36</title>
<g id="a_node12"><a xlink:href="hints_8h.html" target="_top" xlink:title="ODP compiler hints. ">
<polygon fill="#ffffff" stroke="#ff0000" points="775,-112.5 775,-131.5 864,-131.5 864,-112.5 775,-112.5"/>
<text text-anchor="middle" x="819.5" y="-119.5" font-family="Helvetica,sans-Serif" font-size="10.00" fill="#000000">odp/api/hints.h</text>
</a>
</g>
</g>
<!-- Node0&#45;&gt;Node36 -->
<g id="edge11" class="edge">
<title>Node0&#45;&gt;Node36</title>
<path fill="none" stroke="#191970" d="M2243.3471,-177.6181C2062.7265,-175.3722 1172.1496,-162.9436 874.58,-132.0501"/>
<polygon fill="#191970" stroke="#191970" points="874.5628,-128.5283 864.2468,-130.9433 873.8172,-135.4885 874.5628,-128.5283"/>
</g>
<!-- Node38 -->
<g id="node13" class="node">
<title>Node38</title>
<g id="a_node13"><a xlink:href="api_2debug_8h.html" target="_top" xlink:title="ODP debug. ">
<polygon fill="#ffffff" stroke="#ff0000" points="882,-112.5 882,-131.5 977,-131.5 977,-112.5 882,-112.5"/>
<text text-anchor="middle" x="929.5" y="-119.5" font-family="Helvetica,sans-Serif" font-size="10.00" fill="#000000">odp/api/debug.h</text>
</a>
</g>
</g>
<!-- Node0&#45;&gt;Node38 -->
<g id="edge12" class="edge">
<title>Node0&#45;&gt;Node38</title>
<path fill="none" stroke="#191970" d="M2243.4258,-177.4707C2071.9523,-174.5487 1261.3244,-159.5512 987.3919,-132.0375"/>
<polygon fill="#191970" stroke="#191970" points="987.4011,-128.5198 977.0935,-130.9699 986.6792,-135.4825 987.4011,-128.5198"/>
</g>
<!-- Node41 -->
<g id="node14" class="node">
<title>Node41</title>
<g id="a_node14"><a xlink:href="api_2byteorder_8h.html" target="_top" xlink:title="ODP byteorder. ">
<polygon fill="#ffffff" stroke="#ff0000" points="995,-112.5 995,-131.5 1106,-131.5 1106,-112.5 995,-112.5"/>
<text text-anchor="middle" x="1050.5" y="-119.5" font-family="Helvetica,sans-Serif" font-size="10.00" fill="#000000">odp/api/byteorder.h</text>
</a>
</g>
</g>
<!-- Node0&#45;&gt;Node41 -->
<g id="edge13" class="edge">
<title>Node0&#45;&gt;Node41</title>
<path fill="none" stroke="#191970" d="M2243.3944,-177.1655C2080.8408,-172.8726 1347.4571,-152.6763 1120.5,-132 1119.1934,-131.881 1117.8739,-131.7544 1116.5448,-131.6213"/>
<polygon fill="#191970" stroke="#191970" points="1116.5475,-128.1004 1106.2242,-130.4837 1115.7805,-135.0583 1116.5475,-128.1004"/>
</g>
<!-- Node44 -->
<g id="node15" class="node">
<title>Node44</title>
<g id="a_node15"><a xlink:href="api_2cpu_8h.html" target="_top" xlink:title="ODP CPU. ">
<polygon fill="#ffffff" stroke="#ff0000" points="1162.5,-112.5 1162.5,-131.5 1244.5,-131.5 1244.5,-112.5 1162.5,-112.5"/>
<text text-anchor="middle" x="1203.5" y="-119.5" font-family="Helvetica,sans-Serif" font-size="10.00" fill="#000000">odp/api/cpu.h</text>
</a>
</g>
</g>
<!-- Node0&#45;&gt;Node44 -->
<g id="edge14" class="edge">
<title>Node0&#45;&gt;Node44</title>
<path fill="none" stroke="#191970" d="M2243.4339,-177.198C2094.975,-173.3882 1472.7885,-156.3334 1254.6893,-131.7805"/>
<polygon fill="#191970" stroke="#191970" points="1254.9506,-128.2873 1244.6126,-130.6057 1254.1399,-135.2403 1254.9506,-128.2873"/>
</g>
<!-- Node46 -->
<g id="node16" class="node">
<title>Node46</title>
<g id="a_node16"><a xlink:href="api_2thread_8h.html" target="_top" xlink:title="ODP thread API. ">
<polygon fill="#ffffff" stroke="#ff0000" points="1121.5,-56.5 1121.5,-75.5 1217.5,-75.5 1217.5,-56.5 1121.5,-56.5"/>
<text text-anchor="middle" x="1169.5" y="-63.5" font-family="Helvetica,sans-Serif" font-size="10.00" fill="#000000">odp/api/thread.h</text>
</a>
</g>
</g>
<!-- Node0&#45;&gt;Node46 -->
<g id="edge26" class="edge">
<title>Node0&#45;&gt;Node46</title>
<path fill="none" stroke="#191970" d="M2243.4591,-177.9214C2064.2008,-177.3283 1192.2496,-172.3708 1153.5,-132 1141.4447,-119.4404 1148.6188,-99.4124 1156.8505,-84.7095"/>
<polygon fill="#191970" stroke="#191970" points="1159.9787,-86.3035 1162.2211,-75.9487 1154.0108,-82.645 1159.9787,-86.3035"/>
</g>
<!-- Node51 -->
<g id="node17" class="node">
<title>Node51</title>
<g id="a_node17"><a xlink:href="api_2cpumask_8h.html" target="_top" xlink:title="ODP CPU masks and enumeration. ">
<polygon fill="#ffffff" stroke="#ff0000" points="1263,-112.5 1263,-131.5 1372,-131.5 1372,-112.5 1263,-112.5"/>
<text text-anchor="middle" x="1317.5" y="-119.5" font-family="Helvetica,sans-Serif" font-size="10.00" fill="#000000">odp/api/cpumask.h</text>
</a>
</g>
</g>
<!-- Node0&#45;&gt;Node51 -->
<g id="edge16" class="edge">
<title>Node0&#45;&gt;Node51</title>
<path fill="none" stroke="#191970" d="M2243.1276,-177.4028C2126.9588,-175.0306 1720.2635,-164.7504 1386.5,-132 1385.0318,-131.8559 1383.5471,-131.7029 1382.0506,-131.5421"/>
<polygon fill="#191970" stroke="#191970" points="1382.3938,-128.0586 1372.0566,-130.3807 1381.5857,-135.0118 1382.3938,-128.0586"/>
</g>
<!-- Node54 -->
<g id="node18" class="node">
<title>Node54</title>
<g id="a_node18"><a xlink:href="api_2barrier_8h.html" target="_top" xlink:title="ODP execution barriers. ">
<polygon fill="#ffffff" stroke="#ff0000" points="2393.5,-112.5 2393.5,-131.5 2489.5,-131.5 2489.5,-112.5 2393.5,-112.5"/>
<text text-anchor="middle" x="2441.5" y="-119.5" font-family="Helvetica,sans-Serif" font-size="10.00" fill="#000000">odp/api/barrier.h</text>
</a>
</g>
</g>
<!-- Node0&#45;&gt;Node54 -->
<g id="edge17" class="edge">
<title>Node0&#45;&gt;Node54</title>
<path fill="none" stroke="#191970" d="M2304.0364,-168.3733C2331.5202,-159.1016 2373.2686,-145.0178 2403.5452,-134.804"/>
<polygon fill="#191970" stroke="#191970" points="2404.9794,-138.0141 2413.336,-131.5011 2402.7418,-131.3813 2404.9794,-138.0141"/>
</g>
<!-- Node55 -->
<g id="node19" class="node">
<title>Node55</title>
<g id="a_node19"><a xlink:href="api_2atomic_8h.html" target="_top" xlink:title="ODP atomic operations. ">
<polygon fill="#ffffff" stroke="#ff0000" points="2273.5,-56.5 2273.5,-75.5 2371.5,-75.5 2371.5,-56.5 2273.5,-56.5"/>
<text text-anchor="middle" x="2322.5" y="-63.5" font-family="Helvetica,sans-Serif" font-size="10.00" fill="#000000">odp/api/atomic.h</text>
</a>
</g>
</g>
<!-- Node0&#45;&gt;Node55 -->
<g id="edge21" class="edge">
<title>Node0&#45;&gt;Node55</title>
<path fill="none" stroke="#191970" d="M2267.4588,-168.1833C2257.6294,-154.9092 2243.4695,-130.7422 2253.5,-112 2260.9515,-98.0767 2274.6849,-87.6399 2287.949,-80.258"/>
<polygon fill="#191970" stroke="#191970" points="2289.6726,-83.3075 2296.9738,-75.6302 2286.4785,-77.0787 2289.6726,-83.3075"/>
</g>
<!-- Node61 -->
<g id="node20" class="node">
<title>Node61</title>
<g id="a_node20"><a xlink:href="api_2spinlock_8h.html" target="_top" xlink:title="ODP spinlock. ">
<polygon fill="#ffffff" stroke="#ff0000" points="1467,-112.5 1467,-131.5 1572,-131.5 1572,-112.5 1467,-112.5"/>
<text text-anchor="middle" x="1519.5" y="-119.5" font-family="Helvetica,sans-Serif" font-size="10.00" fill="#000000">odp/api/spinlock.h</text>
</a>
</g>
</g>
<!-- Node0&#45;&gt;Node61 -->
<g id="edge20" class="edge">
<title>Node0&#45;&gt;Node61</title>
<path fill="none" stroke="#191970" d="M2243.2348,-176.9374C2145.4034,-173.4878 1843.3585,-161.1624 1582.2697,-131.9818"/>
<polygon fill="#191970" stroke="#191970" points="1582.5483,-128.4911 1572.2189,-130.8478 1581.7634,-135.447 1582.5483,-128.4911"/>
</g>
<!-- Node64 -->
<g id="node21" class="node">
<title>Node64</title>
<g id="a_node21"><a xlink:href="feature_8h.html" target="_top" xlink:title="ODP features. ">
<polygon fill="#ffffff" stroke="#ff0000" points="1590.5,-112.5 1590.5,-131.5 1690.5,-131.5 1690.5,-112.5 1590.5,-112.5"/>
<text text-anchor="middle" x="1640.5" y="-119.5" font-family="Helvetica,sans-Serif" font-size="10.00" fill="#000000">odp/api/feature.h</text>
</a>
</g>
</g>
<!-- Node0&#45;&gt;Node64 -->
<g id="edge22" class="edge">
<title>Node0&#45;&gt;Node64</title>
<path fill="none" stroke="#191970" d="M2243.2375,-176.4239C2156.9607,-171.9964 1913.5846,-158.1153 1700.7775,-132.0624"/>
<polygon fill="#191970" stroke="#191970" points="1701.0216,-128.566 1690.6677,-130.8125 1700.1627,-135.5131 1701.0216,-128.566"/>
</g>
<!-- Node66 -->
<g id="node22" class="node">
<title>Node66</title>
<g id="a_node22"><a xlink:href="api_2init_8h.html" target="_top" xlink:title="ODP initialization. ">
<polygon fill="#ffffff" stroke="#ff0000" points="1708.5,-112.5 1708.5,-131.5 1788.5,-131.5 1788.5,-112.5 1708.5,-112.5"/>
<text text-anchor="middle" x="1748.5" y="-119.5" font-family="Helvetica,sans-Serif" font-size="10.00" fill="#000000">odp/api/init.h</text>
</a>
</g>
</g>
<!-- Node0&#45;&gt;Node66 -->
<g id="edge23" class="edge">
<title>Node0&#45;&gt;Node66</title>
<path fill="none" stroke="#191970" d="M2243.2604,-176.0223C2166.1238,-171.0446 1964.9563,-156.6073 1798.5,-132 1798.3987,-131.985 1798.2974,-131.97 1798.1959,-131.9549"/>
<polygon fill="#191970" stroke="#191970" points="1798.9878,-128.5379 1788.5547,-130.3821 1797.8607,-135.4466 1798.9878,-128.5379"/>
</g>
<!-- Node69 -->
<g id="node23" class="node">
<title>Node69</title>
<g id="a_node23"><a xlink:href="system__info_8h.html" target="_top" xlink:title="ODP system information. ">
<polygon fill="#ffffff" stroke="#ff0000" points="2816,-56.5 2816,-75.5 2941,-75.5 2941,-56.5 2816,-56.5"/>
<text text-anchor="middle" x="2878.5" y="-63.5" font-family="Helvetica,sans-Serif" font-size="10.00" fill="#000000">odp/api/system_info.h</text>
</a>
</g>
</g>
<!-- Node0&#45;&gt;Node69 -->
<g id="edge24" class="edge">
<title>Node0&#45;&gt;Node69</title>
<path fill="none" stroke="#191970" d="M2307.7637,-177.0137C2439.1906,-172.8424 2928.2993,-155.7651 2950.5,-132 2968.4138,-112.8238 2938.3587,-92.7136 2911.7835,-79.8061"/>
<polygon fill="#191970" stroke="#191970" points="2913.1576,-76.5854 2902.613,-75.5543 2910.2131,-82.936 2913.1576,-76.5854"/>
</g>
<!-- Node71 -->
<g id="node24" class="node">
<title>Node71</title>
<g id="a_node24"><a xlink:href="api_2shared__memory_8h.html" target="_top" xlink:title="ODP shared memory. ">
<polygon fill="#ffffff" stroke="#ff0000" points="1920,-112.5 1920,-131.5 2063,-131.5 2063,-112.5 1920,-112.5"/>
<text text-anchor="middle" x="1991.5" y="-119.5" font-family="Helvetica,sans-Serif" font-size="10.00" fill="#000000">odp/api/shared_memory.h</text>
</a>
</g>
</g>
<!-- Node0&#45;&gt;Node71 -->
<g id="edge27" class="edge">
<title>Node0&#45;&gt;Node71</title>
<path fill="none" stroke="#191970" d="M2243.4736,-171.6849C2196.5061,-162.4237 2108.1798,-145.0073 2049.5837,-133.4531"/>
<polygon fill="#191970" stroke="#191970" points="2050.2146,-130.0102 2039.7263,-131.5094 2048.8603,-136.878 2050.2146,-130.0102"/>
</g>
<!-- Node73 -->
<g id="node25" class="node">
<title>Node73</title>
<g id="a_node25"><a xlink:href="api_2buffer_8h.html" target="_top" xlink:title="ODP buffer descriptor. ">
<polygon fill="#ffffff" stroke="#ff0000" points="2959.5,-56.5 2959.5,-75.5 3051.5,-75.5 3051.5,-56.5 2959.5,-56.5"/>
<text text-anchor="middle" x="3005.5" y="-63.5" font-family="Helvetica,sans-Serif" font-size="10.00" fill="#000000">odp/api/buffer.h</text>
</a>
</g>
</g>
<!-- Node0&#45;&gt;Node73 -->
<g id="edge28" class="edge">
<title>Node0&#45;&gt;Node73</title>
<path fill="none" stroke="#191970" d="M2307.5446,-177.6083C2436.061,-175.8032 2909.9308,-166.8216 2966.5,-132 2983.4445,-121.5697 2993.8988,-100.8132 2999.6646,-85.3483"/>
<polygon fill="#191970" stroke="#191970" points="3003.0463,-86.2733 3002.9293,-75.6791 2996.4142,-84.0339 3003.0463,-86.2733"/>
</g>
<!-- Node75 -->
<g id="node26" class="node">
<title>Node75</title>
<g id="a_node26"><a xlink:href="api_2pool_8h.html" target="_top" xlink:title="ODP pool. ">
<polygon fill="#ffffff" stroke="#ff0000" points="2119.5,-112.5 2119.5,-131.5 2205.5,-131.5 2205.5,-112.5 2119.5,-112.5"/>
<text text-anchor="middle" x="2162.5" y="-119.5" font-family="Helvetica,sans-Serif" font-size="10.00" fill="#000000">odp/api/pool.h</text>
</a>
</g>
</g>
<!-- Node0&#45;&gt;Node75 -->
<g id="edge30" class="edge">
<title>Node0&#45;&gt;Node75</title>
<path fill="none" stroke="#191970" d="M2256.0746,-168.3733C2238.0979,-159.4644 2211.1559,-146.1127 2190.791,-136.0203"/>
<polygon fill="#191970" stroke="#191970" points="2192.1861,-132.8055 2181.6719,-131.5011 2189.0778,-139.0776 2192.1861,-132.8055"/>
</g>
<!-- Node77 -->
<g id="node27" class="node">
<title>Node77</title>
<g id="a_node27"><a xlink:href="api_2queue_8h.html" target="_top" xlink:title="ODP queue. ">
<polygon fill="#ffffff" stroke="#ff0000" points="1807,-56.5 1807,-75.5 1902,-75.5 1902,-56.5 1807,-56.5"/>
<text text-anchor="middle" x="1854.5" y="-63.5" font-family="Helvetica,sans-Serif" font-size="10.00" fill="#000000">odp/api/queue.h</text>
</a>
</g>
</g>
<!-- Node0&#45;&gt;Node77 -->
<g id="edge31" class="edge">
<title>Node0&#45;&gt;Node77</title>
<path fill="none" stroke="#191970" d="M2243.1751,-177.4076C2094.9049,-174.536 1485.9169,-161.004 1458.5,-132 1452.3938,-125.5404 1452.5883,-118.6381 1458.5,-112 1480.6065,-87.177 1692.5246,-73.7057 1796.9358,-68.5273"/>
<polygon fill="#191970" stroke="#191970" points="1797.1798,-72.0197 1806.9978,-68.0375 1796.8394,-65.028 1797.1798,-72.0197"/>
</g>
<!-- Node85 -->
<g id="node28" class="node">
<title>Node85</title>
<g id="a_node28"><a xlink:href="api_2ticketlock_8h.html" target="_top" xlink:title="ODP ticketlock. ">
<polygon fill="#ffffff" stroke="#ff0000" points="2262,-112.5 2262,-131.5 2375,-131.5 2375,-112.5 2262,-112.5"/>
<text text-anchor="middle" x="2318.5" y="-119.5" font-family="Helvetica,sans-Serif" font-size="10.00" fill="#000000">odp/api/ticketlock.h</text>
</a>
</g>
</g>
<!-- Node0&#45;&gt;Node85 -->
<g id="edge33" class="edge">
<title>Node0&#45;&gt;Node85</title>
<path fill="none" stroke="#191970" d="M2282.99,-168.2455C2289.0326,-160.3761 2297.6903,-149.101 2304.9441,-139.6542"/>
<polygon fill="#191970" stroke="#191970" points="2307.7815,-141.7058 2311.0958,-131.6427 2302.2295,-137.4426 2307.7815,-141.7058"/>
</g>
<!-- Node33 -->
<g id="node29" class="node">
<title>Node33</title>
<g id="a_node29"><a xlink:href="api_2time_8h.html" target="_top" xlink:title="ODP time. ">
<polygon fill="#ffffff" stroke="#ff0000" points="3070,-56.5 3070,-75.5 3157,-75.5 3157,-56.5 3070,-56.5"/>
<text text-anchor="middle" x="3113.5" y="-63.5" font-family="Helvetica,sans-Serif" font-size="10.00" fill="#000000">odp/api/time.h</text>
</a>
</g>
</g>
<!-- Node0&#45;&gt;Node33 -->
<g id="edge34" class="edge">
<title>Node0&#45;&gt;Node33</title>
<path fill="none" stroke="#191970" d="M2307.734,-177.7238C2429.1545,-176.4058 2858.659,-169.1609 2989.5,-132 3027.9836,-121.0701 3068.0635,-97.0472 3091.8919,-81.199"/>
<polygon fill="#191970" stroke="#191970" points="3093.8802,-84.0796 3100.1915,-75.5697 3089.9509,-78.2865 3093.8802,-84.0796"/>
</g>
<!-- Node88 -->
<g id="node30" class="node">
<title>Node88</title>
<g id="a_node30"><a xlink:href="api_2timer_8h.html" target="_top" xlink:title="ODP timer service. ">
<polygon fill="#ffffff" stroke="#ff0000" points="712.5,-56.5 712.5,-75.5 802.5,-75.5 802.5,-56.5 712.5,-56.5"/>
<text text-anchor="middle" x="757.5" y="-63.5" font-family="Helvetica,sans-Serif" font-size="10.00" fill="#000000">odp/api/timer.h</text>
</a>
</g>
</g>
<!-- Node0&#45;&gt;Node88 -->
<g id="edge36" class="edge">
<title>Node0&#45;&gt;Node88</title>
<path fill="none" stroke="#191970" d="M2243.4121,-177.863C1992.6212,-176.7188 355.5463,-167.8806 320.5,-132 314.289,-125.6411 314.5527,-118.6062 320.5,-112 345.6194,-84.0976 590.5068,-71.907 702.3222,-67.7635"/>
<polygon fill="#191970" stroke="#191970" points="702.5278,-71.2584 712.3945,-67.3987 702.2744,-64.263 702.5278,-71.2584"/>
</g>
<!-- Node91 -->
<g id="node31" class="node">
<title>Node91</title>
<g id="a_node31"><a xlink:href="api_2schedule_8h.html" target="_top" xlink:title="ODP schedule. ">
<polygon fill="#ffffff" stroke="#ff0000" points="2545.5,-112.5 2545.5,-131.5 2653.5,-131.5 2653.5,-112.5 2545.5,-112.5"/>
<text text-anchor="middle" x="2599.5" y="-119.5" font-family="Helvetica,sans-Serif" font-size="10.00" fill="#000000">odp/api/schedule.h</text>
</a>
</g>
</g>
<!-- Node0&#45;&gt;Node91 -->
<g id="edge38" class="edge">
<title>Node0&#45;&gt;Node91</title>
<path fill="none" stroke="#191970" d="M2307.7509,-172.4258C2360.5806,-163.2947 2466.538,-144.9811 2535.1723,-133.1184"/>
<polygon fill="#191970" stroke="#191970" points="2536.1772,-136.4967 2545.435,-131.3446 2534.985,-129.5989 2536.1772,-136.4967"/>
</g>
<!-- Node97 -->
<g id="node32" class="node">
<title>Node97</title>
<g id="a_node32"><a xlink:href="api_2sync_8h.html" target="_top" xlink:title="ODP synchronisation. ">
<polygon fill="#ffffff" stroke="#ff0000" points="2672,-112.5 2672,-131.5 2759,-131.5 2759,-112.5 2672,-112.5"/>
<text text-anchor="middle" x="2715.5" y="-119.5" font-family="Helvetica,sans-Serif" font-size="10.00" fill="#000000">odp/api/sync.h</text>
</a>
</g>
</g>
<!-- Node0&#45;&gt;Node97 -->
<g id="edge39" class="edge">
<title>Node0&#45;&gt;Node97</title>
<path fill="none" stroke="#191970" d="M2307.7098,-174.9215C2372.6466,-168.554 2524.1028,-152.8892 2661.9664,-131.9902"/>
<polygon fill="#191970" stroke="#191970" points="2662.5115,-135.4476 2671.8677,-130.4765 2661.4536,-128.528 2662.5115,-135.4476"/>
</g>
<!-- Node27 -->
<g id="node33" class="node">
<title>Node27</title>
<g id="a_node33"><a xlink:href="api_2packet_8h.html" target="_top" xlink:title="ODP packet descriptor. ">
<polygon fill="#ffffff" stroke="#ff0000" points="1521.5,-56.5 1521.5,-75.5 1619.5,-75.5 1619.5,-56.5 1521.5,-56.5"/>
<text text-anchor="middle" x="1570.5" y="-63.5" font-family="Helvetica,sans-Serif" font-size="10.00" fill="#000000">odp/api/packet.h</text>
</a>
</g>
</g>
<!-- Node0&#45;&gt;Node27 -->
<g id="edge40" class="edge">
<title>Node0&#45;&gt;Node27</title>
<path fill="none" stroke="#191970" d="M2243.3179,-177.4308C2094.2879,-174.6413 1477.2578,-161.3466 1449.5,-132 1425.1437,-106.2496 1469.4832,-88.2019 1511.1762,-77.5642"/>
<polygon fill="#191970" stroke="#191970" points="1512.2253,-80.9112 1521.1158,-75.1485 1510.5721,-74.1092 1512.2253,-80.9112"/>
</g>
<!-- Node100 -->
<g id="node34" class="node">
<title>Node100</title>
<g id="a_node34"><a xlink:href="api_2packet__flags_8h.html" target="_top" xlink:title="ODP packet flags. ">
<polygon fill="#ffffff" stroke="#ff0000" points="2815.5,-112.5 2815.5,-131.5 2941.5,-131.5 2941.5,-112.5 2815.5,-112.5"/>
<text text-anchor="middle" x="2878.5" y="-119.5" font-family="Helvetica,sans-Serif" font-size="10.00" fill="#000000">odp/api/packet_flags.h</text>
</a>
</g>
</g>
<!-- Node0&#45;&gt;Node100 -->
<g id="edge42" class="edge">
<title>Node0&#45;&gt;Node100</title>
<path fill="none" stroke="#191970" d="M2307.5664,-175.6664C2389.7658,-169.5823 2614.6793,-152.2912 2801.5,-132 2802.7815,-131.8608 2804.0747,-131.7181 2805.377,-131.5722"/>
<polygon fill="#191970" stroke="#191970" points="2805.9624,-135.0279 2815.4936,-130.4012 2805.1574,-128.0744 2805.9624,-135.0279"/>
</g>
<!-- Node103 -->
<g id="node35" class="node">
<title>Node103</title>
<g id="a_node35"><a xlink:href="api_2packet__io_8h.html" target="_top" xlink:title="ODP Packet IO. ">
<polygon fill="#ffffff" stroke="#ff0000" points="2090.5,-56.5 2090.5,-75.5 2202.5,-75.5 2202.5,-56.5 2090.5,-56.5"/>
<text text-anchor="middle" x="2146.5" y="-63.5" font-family="Helvetica,sans-Serif" font-size="10.00" fill="#000000">odp/api/packet_io.h</text>
</a>
</g>
</g>
<!-- Node0&#45;&gt;Node103 -->
<g id="edge43" class="edge">
<title>Node0&#45;&gt;Node103</title>
<path fill="none" stroke="#191970" d="M2243.3389,-173.6616C2200.0245,-167.084 2126.506,-153.0787 2110.5,-132 2098.7119,-116.476 2112.9293,-96.6031 2126.822,-82.7386"/>
<polygon fill="#191970" stroke="#191970" points="2129.4186,-85.1027 2134.3396,-75.7201 2124.6416,-79.986 2129.4186,-85.1027"/>
</g>
<!-- Node110 -->
<g id="node36" class="node">
<title>Node110</title>
<g id="a_node36"><a xlink:href="api_2crypto_8h.html" target="_top" xlink:title="ODP crypto. ">
<polygon fill="#ffffff" stroke="#ff0000" points="1807,-112.5 1807,-131.5 1902,-131.5 1902,-112.5 1807,-112.5"/>
<text text-anchor="middle" x="1854.5" y="-119.5" font-family="Helvetica,sans-Serif" font-size="10.00" fill="#000000">odp/api/crypto.h</text>
</a>
</g>
</g>
<!-- Node0&#45;&gt;Node110 -->
<g id="edge45" class="edge">
<title>Node0&#45;&gt;Node110</title>
<path fill="none" stroke="#191970" d="M2243.2917,-174.4553C2181.3379,-167.5237 2041.053,-151.2811 1912.1108,-132.0298"/>
<polygon fill="#191970" stroke="#191970" points="1912.467,-128.5441 1902.0579,-130.5192 1911.4267,-135.4664 1912.467,-128.5441"/>
</g>
<!-- Node113 -->
<g id="node37" class="node">
<title>Node113</title>
<g id="a_node37"><a xlink:href="api_2classification_8h.html" target="_top" xlink:title="ODP classification descriptor. ">
<polygon fill="#ffffff" stroke="#ff0000" points="2453.5,-56.5 2453.5,-75.5 2581.5,-75.5 2581.5,-56.5 2453.5,-56.5"/>
<text text-anchor="middle" x="2517.5" y="-63.5" font-family="Helvetica,sans-Serif" font-size="10.00" fill="#000000">odp/api/classification.h</text>
</a>
</g>
</g>
<!-- Node0&#45;&gt;Node113 -->
<g id="edge48" class="edge">
<title>Node0&#45;&gt;Node113</title>
<path fill="none" stroke="#191970" d="M2307.6963,-175.4121C2362.6042,-170.3577 2471.0896,-157.3802 2498.5,-132 2511.1889,-120.2509 2515.5987,-100.6312 2517.0375,-85.8297"/>
<polygon fill="#191970" stroke="#191970" points="2520.5424,-85.8516 2517.6466,-75.6602 2513.5549,-85.433 2520.5424,-85.8516"/>
</g>
<!-- Node117 -->
<g id="node38" class="node">
<title>Node117</title>
<g id="a_node38"><a xlink:href="api_2rwlock_8h.html" target="_top" xlink:title="ODP RW Locks. ">
<polygon fill="#ffffff" stroke="#ff0000" points="3074,-112.5 3074,-131.5 3171,-131.5 3171,-112.5 3074,-112.5"/>
<text text-anchor="middle" x="3122.5" y="-119.5" font-family="Helvetica,sans-Serif" font-size="10.00" fill="#000000">odp/api/rwlock.h</text>
</a>
</g>
</g>
<!-- Node0&#45;&gt;Node117 -->
<g id="edge50" class="edge">
<title>Node0&#45;&gt;Node117</title>
<path fill="none" stroke="#191970" d="M2307.7066,-177.251C2414.8158,-174.5167 2768.7439,-163.5277 3059.5,-132 3060.8005,-131.859 3062.1152,-131.7097 3063.4399,-131.5532"/>
<polygon fill="#191970" stroke="#191970" points="3064.2533,-134.9774 3073.7248,-130.2297 3063.3598,-128.0347 3064.2533,-134.9774"/>
</g>
<!-- Node79 -->
<g id="node39" class="node">
<title>Node79</title>
<g id="a_node39"><a xlink:href="api_2event_8h.html" target="_top" xlink:title="ODP event. ">
<polygon fill="#ffffff" stroke="#ff0000" points="3189.5,-112.5 3189.5,-131.5 3281.5,-131.5 3281.5,-112.5 3189.5,-112.5"/>
<text text-anchor="middle" x="3235.5" y="-119.5" font-family="Helvetica,sans-Serif" font-size="10.00" fill="#000000">odp/api/event.h</text>
</a>
</g>
</g>
<!-- Node0&#45;&gt;Node79 -->
<g id="edge51" class="edge">
<title>Node0&#45;&gt;Node79</title>
<path fill="none" stroke="#191970" d="M2307.5793,-176.9262C2445.1472,-172.2372 2986.5533,-152.9029 3179.3418,-131.9624"/>
<polygon fill="#191970" stroke="#191970" points="3179.8049,-135.4325 3189.3511,-130.8369 3179.0226,-128.4763 3179.8049,-135.4325"/>
</g>
<!-- Node120 -->
<g id="node40" class="node">
<title>Node120</title>
<g id="a_node40"><a xlink:href="random_8h.html" target="_top" xlink:title="ODP random number API. ">
<polygon fill="#ffffff" stroke="#ff0000" points="3299.5,-112.5 3299.5,-131.5 3401.5,-131.5 3401.5,-112.5 3299.5,-112.5"/>
<text text-anchor="middle" x="3350.5" y="-119.5" font-family="Helvetica,sans-Serif" font-size="10.00" fill="#000000">odp/api/random.h</text>
</a>
</g>
</g>
<!-- Node0&#45;&gt;Node120 -->
<g id="edge52" class="edge">
<title>Node0&#45;&gt;Node120</title>
<path fill="none" stroke="#191970" d="M2307.8648,-177.0566C2456.2855,-172.6514 3073.4415,-153.4549 3289.5113,-131.9538"/>
<polygon fill="#191970" stroke="#191970" points="3289.9038,-135.432 3299.4937,-130.9283 3289.1884,-128.4687 3289.9038,-135.432"/>
</g>
<!-- Node122 -->
<g id="node41" class="node">
<title>Node122</title>
<g id="a_node41"><a xlink:href="api_2errno_8h.html" target="_top" xlink:title="ODP errno API. ">
<polygon fill="#ffffff" stroke="#ff0000" points="3419.5,-112.5 3419.5,-131.5 3509.5,-131.5 3509.5,-112.5 3419.5,-112.5"/>
<text text-anchor="middle" x="3464.5" y="-119.5" font-family="Helvetica,sans-Serif" font-size="10.00" fill="#000000">odp/api/errno.h</text>
</a>
</g>
</g>
<!-- Node0&#45;&gt;Node122 -->
<g id="edge53" class="edge">
<title>Node0&#45;&gt;Node122</title>
<path fill="none" stroke="#191970" d="M2307.5973,-177.3185C2466.2028,-173.8578 3167.9161,-157.4351 3409.3738,-131.9358"/>
<polygon fill="#191970" stroke="#191970" points="3409.9294,-135.396 3419.4905,-130.8314 3409.1697,-128.4373 3409.9294,-135.396"/>
</g>
<!-- Node94 -->
<g id="node42" class="node">
<title>Node94</title>
<g id="a_node42"><a xlink:href="api_2thrmask_8h.html" target="_top" xlink:title="ODP thread masks. ">
<polygon fill="#ffffff" stroke="#ff0000" points="3528,-112.5 3528,-131.5 3633,-131.5 3633,-112.5 3528,-112.5"/>
<text text-anchor="middle" x="3580.5" y="-119.5" font-family="Helvetica,sans-Serif" font-size="10.00" fill="#000000">odp/api/thrmask.h</text>
</a>
</g>
</g>
<!-- Node0&#45;&gt;Node94 -->
<g id="edge54" class="edge">
<title>Node0&#45;&gt;Node94</title>
<path fill="none" stroke="#191970" d="M2307.5047,-177.3496C2475.048,-173.8644 3253.1336,-156.6686 3517.8382,-131.912"/>
<polygon fill="#191970" stroke="#191970" points="3518.174,-135.3959 3527.7923,-130.9532 3517.5028,-128.4282 3518.174,-135.3959"/>
</g>
<!-- Node125 -->
<g id="node43" class="node">
<title>Node125</title>
<g id="a_node43"><a xlink:href="api_2traffic__mngr_8h.html" target="_top" xlink:title="ODP Traffic manager. ">
<polygon fill="#ffffff" stroke="#ff0000" points="3651,-112.5 3651,-131.5 3774,-131.5 3774,-112.5 3651,-112.5"/>
<text text-anchor="middle" x="3712.5" y="-119.5" font-family="Helvetica,sans-Serif" font-size="10.00" fill="#000000">odp/api/traffic_mngr.h</text>
</a>
</g>
</g>
<!-- Node0&#45;&gt;Node125 -->
<g id="edge55" class="edge">
<title>Node0&#45;&gt;Node125</title>
<path fill="none" stroke="#191970" d="M2307.6858,-177.3911C2485.5585,-173.9551 3350.4547,-156.3053 3640.6277,-132.0629"/>
<polygon fill="#191970" stroke="#191970" points="3641.0416,-135.5403 3650.7055,-131.1978 3640.4428,-128.566 3641.0416,-135.5403"/>
</g>
<!-- Node128 -->
<g id="node44" class="node">
<title>Node128</title>
<g id="a_node44"><a xlink:href="api_2spinlock__recursive_8h.html" target="_top" xlink:title="ODP resursive spinlock. ">
<polygon fill="#ffffff" stroke="#ff0000" points="3792,-112.5 3792,-131.5 3947,-131.5 3947,-112.5 3792,-112.5"/>
<text text-anchor="middle" x="3869.5" y="-119.5" font-family="Helvetica,sans-Serif" font-size="10.00" fill="#000000">odp/api/spinlock_recursive.h</text>
</a>
</g>
</g>
<!-- Node0&#45;&gt;Node128 -->
<g id="edge56" class="edge">
<title>Node0&#45;&gt;Node128</title>
<path fill="none" stroke="#191970" d="M2307.5115,-177.3961C2495.7425,-173.7892 3460.8933,-154.5116 3781.4981,-132.078"/>
<polygon fill="#191970" stroke="#191970" points="3781.9883,-135.5519 3791.7125,-131.3461 3781.4879,-128.5698 3781.9883,-135.5519"/>
</g>
<!-- Node131 -->
<g id="node45" class="node">
<title>Node131</title>
<g id="a_node45"><a xlink:href="api_2rwlock__recursive_8h.html" target="_top" xlink:title="ODP resursive read/write lock. ">
<polygon fill="#ffffff" stroke="#ff0000" points="3965,-112.5 3965,-131.5 4112,-131.5 4112,-112.5 3965,-112.5"/>
<text text-anchor="middle" x="4038.5" y="-119.5" font-family="Helvetica,sans-Serif" font-size="10.00" fill="#000000">odp/api/rwlock_recursive.h</text>
</a>
</g>
</g>
<!-- Node0&#45;&gt;Node131 -->
<g id="edge57" class="edge">
<title>Node0&#45;&gt;Node131</title>
<path fill="none" stroke="#191970" d="M2307.8185,-177.5311C2509.4589,-174.5438 3597.59,-157.5005 3954.6809,-132.0585"/>
<polygon fill="#191970" stroke="#191970" points="3955.056,-135.5405 3964.775,-131.3225 3954.5469,-128.5591 3955.056,-135.5405"/>
</g>
<!-- Node134 -->
<g id="node46" class="node">
<title>Node134</title>
<g id="a_node46"><a xlink:href="api_2std__clib_8h_source.html" target="_top" xlink:title="odp/api/std_clib.h">
<polygon fill="#ffffff" stroke="#ff0000" points="4130.5,-112.5 4130.5,-131.5 4232.5,-131.5 4232.5,-112.5 4130.5,-112.5"/>
<text text-anchor="middle" x="4181.5" y="-119.5" font-family="Helvetica,sans-Serif" font-size="10.00" fill="#000000">odp/api/std_clib.h</text>
</a>
</g>
</g>
<!-- Node0&#45;&gt;Node134 -->
<g id="edge58" class="edge">
<title>Node0&#45;&gt;Node134</title>
<path fill="none" stroke="#191970" d="M2307.8264,-177.8153C2520.9771,-176.5046 3727.8237,-167.635 4119.9381,-131.9947"/>
<polygon fill="#191970" stroke="#191970" points="4120.5434,-135.4535 4130.1753,-131.0403 4119.8935,-128.4837 4120.5434,-135.4535"/>
</g>
<!-- Node25 -->
<g id="node47" class="node">
<title>Node25</title>
<g id="a_node47"><a xlink:href="support_8h.html" target="_top" xlink:title="ODP support API &#45; platform specific header. ">
<polygon fill="#ffffff" stroke="#ff0000" points="4251,-112.5 4251,-131.5 4352,-131.5 4352,-112.5 4251,-112.5"/>
<text text-anchor="middle" x="4301.5" y="-119.5" font-family="Helvetica,sans-Serif" font-size="10.00" fill="#000000">odp/api/support.h</text>
</a>
</g>
</g>
<!-- Node0&#45;&gt;Node25 -->
<g id="edge59" class="edge">
<title>Node0&#45;&gt;Node25</title>
<path fill="none" stroke="#191970" d="M2307.7518,-177.8723C2528.7408,-176.904 3822.7301,-169.7183 4240.8145,-131.8919"/>
<polygon fill="#191970" stroke="#191970" points="4241.1928,-135.3719 4250.8272,-130.9641 4240.5469,-128.4018 4241.1928,-135.3719"/>
</g>
<!-- Node137 -->
<g id="node48" class="node">
<title>Node137</title>
<g id="a_node48"><a xlink:href="api_2ipsec_8h.html" target="_top" xlink:title="ODP IPSEC API &#45; platform specific header. ">
<polygon fill="#ffffff" stroke="#ff0000" points="4370.5,-112.5 4370.5,-131.5 4460.5,-131.5 4460.5,-112.5 4370.5,-112.5"/>
<text text-anchor="middle" x="4415.5" y="-119.5" font-family="Helvetica,sans-Serif" font-size="10.00" fill="#000000">odp/api/ipsec.h</text>
</a>
</g>
</g>
<!-- Node0&#45;&gt;Node137 -->
<g id="edge60" class="edge">
<title>Node0&#45;&gt;Node137</title>
<path fill="none" stroke="#191970" d="M2307.8136,-177.6023C2551.9799,-174.5566 4104.0452,-154.4657 4360.2663,-131.8694"/>
<polygon fill="#191970" stroke="#191970" points="4360.8745,-135.3274 4370.4973,-130.8942 4360.2103,-128.359 4360.8745,-135.3274"/>
</g>
<!-- Node142 -->
<g id="node49" class="node">
<title>Node142</title>
<g id="a_node49"><a xlink:href="api_2stash_8h.html" target="_top" xlink:title="ODP stash. ">
<polygon fill="#ffffff" stroke="#ff0000" points="4479,-112.5 4479,-131.5 4570,-131.5 4570,-112.5 4479,-112.5"/>
<text text-anchor="middle" x="4524.5" y="-119.5" font-family="Helvetica,sans-Serif" font-size="10.00" fill="#000000">odp/api/stash.h</text>
</a>
</g>
</g>
<!-- Node0&#45;&gt;Node142 -->
<g id="edge61" class="edge">
<title>Node0&#45;&gt;Node142</title>
<path fill="none" stroke="#191970" d="M2307.8493,-177.633C2559.5063,-174.7377 4201.2614,-155.1073 4468.9733,-131.7917"/>
<polygon fill="#191970" stroke="#191970" points="4469.3311,-135.2736 4478.9606,-130.8553 4468.6776,-128.3042 4469.3311,-135.2736"/>
</g>
<!-- Node108 -->
<g id="node50" class="node">
<title>Node108</title>
<g id="a_node50"><a xlink:href="reassembly_8h.html" target="_top" xlink:title="ODP REASSEMBLY API &#45; platform specific header. ">
<polygon fill="#ffffff" stroke="#ff0000" points="4588.5,-112.5 4588.5,-131.5 4708.5,-131.5 4708.5,-112.5 4588.5,-112.5"/>
<text text-anchor="middle" x="4648.5" y="-119.5" font-family="Helvetica,sans-Serif" font-size="10.00" fill="#000000">odp/api/reassembly.h</text>
</a>
</g>
</g>
<!-- Node0&#45;&gt;Node108 -->
<g id="edge62" class="edge">
<title>Node0&#45;&gt;Node108</title>
<path fill="none" stroke="#191970" d="M2307.6454,-177.9066C2549.5613,-177.1227 4088.2456,-170.6899 4578.3685,-131.971"/>
<polygon fill="#191970" stroke="#191970" points="4578.653,-135.4596 4588.3392,-131.1669 4578.0902,-128.4822 4578.653,-135.4596"/>
</g>
<!-- Node2 -->
<g id="node3" class="node">
<title>Node2</title>
<g id="a_node3"><a xlink:href="spec_2deprecated_8h.html" target="_top" xlink:title="Macro for deprecated API definitions. ">
<polygon fill="#ffffff" stroke="#ff0000" points="0,-56.5 0,-75.5 145,-75.5 145,-56.5 0,-56.5"/>
<text text-anchor="middle" x="72.5" y="-63.5" font-family="Helvetica,sans-Serif" font-size="10.00" fill="#000000">odp/api/spec/deprecated.h</text>
</a>
</g>
</g>
<!-- Node1&#45;&gt;Node2 -->
<g id="edge2" class="edge">
<title>Node1&#45;&gt;Node2</title>
<path fill="none" stroke="#191970" d="M81.5839,-112.2455C80.1486,-104.9382 78.1364,-94.6944 76.3705,-85.7046"/>
<polygon fill="#191970" stroke="#191970" points="79.756,-84.7805 74.3941,-75.6427 72.8873,-86.1298 79.756,-84.7805"/>
</g>
<!-- Node6 -->
<g id="node5" class="node">
<title>Node6</title>
<polygon fill="#ffffff" stroke="#bfbfbf" points="163,-56.5 163,-75.5 282,-75.5 282,-56.5 163,-56.5"/>
<text text-anchor="middle" x="222.5" y="-63.5" font-family="Helvetica,sans-Serif" font-size="10.00" fill="#000000">odp/api/abi/version.h</text>
</g>
<!-- Node5&#45;&gt;Node6 -->
<g id="edge4" class="edge">
<title>Node5&#45;&gt;Node6</title>
<path fill="none" stroke="#191970" d="M222.5,-112.2455C222.5,-104.9382 222.5,-94.6944 222.5,-85.7046"/>
<polygon fill="#191970" stroke="#191970" points="226.0001,-85.6426 222.5,-75.6427 219.0001,-85.6427 226.0001,-85.6426"/>
</g>
<!-- Node7 -->
<g id="node6" class="node">
<title>Node7</title>
<g id="a_node6"><a xlink:href="api_2spec_2version_8h.html" target="_top" xlink:title="ODP version. ">
<polygon fill="#ffffff" stroke="#ff0000" points="300.5,-56.5 300.5,-75.5 426.5,-75.5 426.5,-56.5 300.5,-56.5"/>
<text text-anchor="middle" x="363.5" y="-63.5" font-family="Helvetica,sans-Serif" font-size="10.00" fill="#000000">odp/api/spec/version.h</text>
</a>
</g>
</g>
<!-- Node5&#45;&gt;Node7 -->
<g id="edge5" class="edge">
<title>Node5&#45;&gt;Node7</title>
<path fill="none" stroke="#191970" d="M246.7388,-112.3733C269.7789,-103.2226 304.6214,-89.3844 330.2501,-79.2057"/>
<polygon fill="#191970" stroke="#191970" points="331.5756,-82.4452 339.5775,-75.5011 328.9918,-75.9395 331.5756,-82.4452"/>
</g>
<!-- Node44&#45;&gt;Node46 -->
<g id="edge15" class="edge">
<title>Node44&#45;&gt;Node46</title>
<path fill="none" stroke="#191970" d="M1197.5777,-112.2455C1192.8973,-104.5367 1186.2327,-93.5598 1180.5711,-84.2348"/>
<polygon fill="#191970" stroke="#191970" points="1183.5361,-82.3741 1175.3545,-75.6427 1177.5525,-86.007 1183.5361,-82.3741"/>
</g>
<!-- Node54&#45;&gt;Node8 -->
<g id="edge18" class="edge">
<title>Node54&#45;&gt;Node8</title>
<path fill="none" stroke="#191970" d="M2440.1358,-112.4509C2437.5263,-94.184 2431.7793,-53.9553 2428.3139,-29.6976"/>
<polygon fill="#191970" stroke="#191970" points="2431.7398,-28.9294 2426.8607,-19.5249 2424.8102,-29.9194 2431.7398,-28.9294"/>
</g>
<!-- Node54&#45;&gt;Node55 -->
<g id="edge19" class="edge">
<title>Node54&#45;&gt;Node55</title>
<path fill="none" stroke="#191970" d="M2421.0432,-112.3733C2402.0262,-103.4241 2373.4825,-89.9917 2352.0024,-79.8835"/>
<polygon fill="#191970" stroke="#191970" points="2353.2284,-76.5923 2342.6899,-75.5011 2350.2478,-82.926 2353.2284,-76.5923"/>
</g>
<!-- Node69&#45;&gt;Node8 -->
<g id="edge25" class="edge">
<title>Node69&#45;&gt;Node8</title>
<path fill="none" stroke="#191970" d="M2815.89,-57.8294C2811.0214,-57.2061 2806.181,-56.5903 2801.5,-56 2693.069,-42.3265 2566.9679,-27.0209 2491.831,-17.9643"/>
<polygon fill="#191970" stroke="#191970" points="2491.9211,-14.4499 2481.5742,-16.7286 2491.0838,-21.3997 2491.9211,-14.4499"/>
</g>
<!-- Node73&#45;&gt;Node8 -->
<g id="edge29" class="edge">
<title>Node73&#45;&gt;Node8</title>
<path fill="none" stroke="#191970" d="M2959.3356,-57.2867C2956.3502,-56.8222 2953.3856,-56.3879 2950.5,-56 2786.2875,-33.9256 2591.6901,-20.0632 2491.8672,-13.8407"/>
<polygon fill="#191970" stroke="#191970" points="2491.8275,-10.3317 2481.6308,-13.2087 2491.3961,-17.3184 2491.8275,-10.3317"/>
</g>
<!-- Node77&#45;&gt;Node8 -->
<g id="edge32" class="edge">
<title>Node77&#45;&gt;Node8</title>
<path fill="none" stroke="#191970" d="M1902.0585,-60.5074C1915.4564,-59.0005 1930.0451,-57.3978 1943.5,-56 2091.9865,-40.5737 2266.4184,-24.4131 2359.3391,-15.9608"/>
<polygon fill="#191970" stroke="#191970" points="2359.7976,-19.4337 2369.4399,-15.0432 2359.1642,-12.4624 2359.7976,-19.4337"/>
</g>
<!-- Node33&#45;&gt;Node8 -->
<g id="edge35" class="edge">
<title>Node33&#45;&gt;Node8</title>
<path fill="none" stroke="#191970" d="M3069.8904,-57.3634C3066.7191,-56.8608 3063.5642,-56.3987 3060.5,-56 2854.0905,-29.1404 2607.7418,-16.9055 2491.9063,-12.3136"/>
<polygon fill="#191970" stroke="#191970" points="2491.9084,-8.8111 2481.7795,-11.9185 2491.6354,-15.8057 2491.9084,-8.8111"/>
</g>
<!-- Node88&#45;&gt;Node8 -->
<g id="edge37" class="edge">
<title>Node88&#45;&gt;Node8</title>
<path fill="none" stroke="#191970" d="M802.5465,-64.4876C1033.3684,-56.7382 2083.3936,-21.4856 2359.0574,-12.2307"/>
<polygon fill="#191970" stroke="#191970" points="2359.4269,-15.7203 2369.3038,-11.8867 2359.192,-8.7243 2359.4269,-15.7203"/>
</g>
<!-- Node27&#45;&gt;Node8 -->
<g id="edge41" class="edge">
<title>Node27&#45;&gt;Node8</title>
<path fill="none" stroke="#191970" d="M1619.5394,-62.7881C1764.9063,-53.267 2193.6426,-25.186 2359.2091,-14.3419"/>
<polygon fill="#191970" stroke="#191970" points="2359.5076,-17.8299 2369.2575,-13.6837 2359.0501,-10.8449 2359.5076,-17.8299"/>
</g>
<!-- Node103&#45;&gt;Node8 -->
<g id="edge44" class="edge">
<title>Node103&#45;&gt;Node8</title>
<path fill="none" stroke="#191970" d="M2194.1448,-56.4369C2242.2947,-46.7724 2316.7271,-31.8326 2368.0993,-21.5213"/>
<polygon fill="#191970" stroke="#191970" points="2368.9361,-24.9232 2378.0517,-19.5237 2367.5585,-18.0601 2368.9361,-24.9232"/>
</g>
<!-- Node110&#45;&gt;Node8 -->
<g id="edge46" class="edge">
<title>Node110&#45;&gt;Node8</title>
<path fill="none" stroke="#191970" d="M1882.4664,-112.3918C1924.9745,-98.1261 2008.614,-71.3782 2081.5,-56 2177.1674,-35.8151 2289.7684,-22.7371 2359.3981,-15.8664"/>
<polygon fill="#191970" stroke="#191970" points="2359.7384,-19.3499 2369.3523,-14.8976 2359.0603,-12.3828 2359.7384,-19.3499"/>
</g>
<!-- Node110&#45;&gt;Node77 -->
<g id="edge47" class="edge">
<title>Node110&#45;&gt;Node77</title>
<path fill="none" stroke="#191970" d="M1854.5,-112.2455C1854.5,-104.9382 1854.5,-94.6944 1854.5,-85.7046"/>
<polygon fill="#191970" stroke="#191970" points="1858.0001,-85.6426 1854.5,-75.6427 1851.0001,-85.6427 1858.0001,-85.6426"/>
</g>
<!-- Node113&#45;&gt;Node8 -->
<g id="edge49" class="edge">
<title>Node113&#45;&gt;Node8</title>
<path fill="none" stroke="#191970" d="M2501.4748,-56.2455C2487.3592,-47.6534 2466.5737,-35.0014 2450.3101,-25.1018"/>
<polygon fill="#191970" stroke="#191970" points="2451.7034,-21.8525 2441.3415,-19.6427 2448.0637,-27.8319 2451.7034,-21.8525"/>
</g>
</g>
</svg>
