<?xml version="1.0" encoding="UTF-8" standalone="no"?>
<!DOCTYPE svg PUBLIC "-//W3C//DTD SVG 1.1//EN"
 "http://www.w3.org/Graphics/SVG/1.1/DTD/svg11.dtd">
<!-- Generated by graphviz version 2.40.1 (20161225.0304)
 -->
<!-- Title: odp.h Pages: 1 -->
<svg width="5034pt" height="252pt"
 viewBox="0.00 0.00 5033.50 252.00" xmlns="http://www.w3.org/2000/svg" xmlns:xlink="http://www.w3.org/1999/xlink">
<g id="graph0" class="graph" transform="scale(1 1) rotate(0) translate(4 248)">
<title>odp.h</title>
<polygon fill="#ffffff" stroke="transparent" points="-4,4 -4,-248 5029.5,-248 5029.5,4 -4,4"/>
<!-- Node0 -->
<g id="node1" class="node">
<title>Node0</title>
<polygon fill="#bfbfbf" stroke="#000000" points="2125.5,-224.5 2125.5,-243.5 2169.5,-243.5 2169.5,-224.5 2125.5,-224.5"/>
<text text-anchor="middle" x="2147.5" y="-231.5" font-family="Helvetica,sans-Serif" font-size="10.00" fill="#000000">odp.h</text>
</g>
<!-- Node1 -->
<g id="node2" class="node">
<title>Node1</title>
<g id="a_node2"><a xlink:href="odp__api_8h.html" target="_top" xlink:title="The OpenDataPlane API. ">
<polygon fill="#ffffff" stroke="#000000" points="2115.5,-168.5 2115.5,-187.5 2179.5,-187.5 2179.5,-168.5 2115.5,-168.5"/>
<text text-anchor="middle" x="2147.5" y="-175.5" font-family="Helvetica,sans-Serif" font-size="10.00" fill="#000000">odp_api.h</text>
</a>
</g>
</g>
<!-- Node0&#45;&gt;Node1 -->
<g id="edge1" class="edge">
<title>Node0&#45;&gt;Node1</title>
<path fill="none" stroke="#191970" d="M2147.5,-224.2455C2147.5,-216.9382 2147.5,-206.6944 2147.5,-197.7046"/>
<polygon fill="#191970" stroke="#191970" points="2151.0001,-197.6426 2147.5,-187.6427 2144.0001,-197.6427 2151.0001,-197.6426"/>
</g>
<!-- Node2 -->
<g id="node3" class="node">
<title>Node2</title>
<g id="a_node3"><a xlink:href="deprecated_8h.html" target="_top" xlink:title="Control deprecated API definitions. ">
<polygon fill="#ffffff" stroke="#000000" points="47,-112.5 47,-131.5 166,-131.5 166,-112.5 47,-112.5"/>
<text text-anchor="middle" x="106.5" y="-119.5" font-family="Helvetica,sans-Serif" font-size="10.00" fill="#000000">odp/api/deprecated.h</text>
</a>
</g>
</g>
<!-- Node1&#45;&gt;Node2 -->
<g id="edge2" class="edge">
<title>Node1&#45;&gt;Node2</title>
<path fill="none" stroke="#191970" d="M2115.3284,-177.6982C1893.0965,-175.5453 583.0297,-161.7416 185.5,-132 182.592,-131.7824 179.6268,-131.5328 176.6337,-131.2579"/>
<polygon fill="#191970" stroke="#191970" points="176.6899,-127.7462 166.3917,-130.2357 175.9947,-134.7116 176.6899,-127.7462"/>
</g>
<!-- Node6 -->
<g id="node5" class="node">
<title>Node6</title>
<g id="a_node5"><a xlink:href="api_2version_8h.html" target="_top" xlink:title="ODP version. ">
<polygon fill="#ffffff" stroke="#ff0000" points="195,-112.5 195,-131.5 296,-131.5 296,-112.5 195,-112.5"/>
<text text-anchor="middle" x="245.5" y="-119.5" font-family="Helvetica,sans-Serif" font-size="10.00" fill="#000000">odp/api/version.h</text>
</a>
</g>
</g>
<!-- Node1&#45;&gt;Node6 -->
<g id="edge4" class="edge">
<title>Node1&#45;&gt;Node6</title>
<path fill="none" stroke="#191970" d="M2115.412,-177.5724C1903.269,-174.6876 699.8288,-157.4096 333.5,-132 324.6955,-131.3893 315.4153,-130.5497 306.3153,-129.6146"/>
<polygon fill="#191970" stroke="#191970" points="306.4687,-126.1111 296.1527,-128.5254 305.7227,-133.0713 306.4687,-126.1111"/>
</g>
<!-- Node9 -->
<g id="node7" class="node">
<title>Node9</title>
<g id="a_node7"><a xlink:href="api_2std__types_8h.html" target="_top" xlink:title="Standard C language types and definitions for ODP. ">
<polygon fill="#ffffff" stroke="#ff0000" points="781.5,-.5 781.5,-19.5 893.5,-19.5 893.5,-.5 781.5,-.5"/>
<text text-anchor="middle" x="837.5" y="-7.5" font-family="Helvetica,sans-Serif" font-size="10.00" fill="#000000">odp/api/std_types.h</text>
</a>
</g>
</g>
<!-- Node1&#45;&gt;Node9 -->
<g id="edge6" class="edge">
<title>Node1&#45;&gt;Node9</title>
<path fill="none" stroke="#191970" d="M2115.47,-177.6882C1952.5396,-175.9491 1222.1519,-166.2573 1189.5,-132 1165.8568,-107.1943 1225.1659,-81.7017 1202.5,-56 1192.7362,-44.9285 1006.668,-25.8534 904.066,-16.1118"/>
<polygon fill="#191970" stroke="#191970" points="904.0856,-12.5982 893.8007,-15.1419 903.4271,-19.5671 904.0856,-12.5982"/>
</g>
<!-- Node13 -->
<g id="node8" class="node">
<title>Node13</title>
<g id="a_node8"><a xlink:href="api_2align_8h.html" target="_top" xlink:title="ODP alignments. ">
<polygon fill="#ffffff" stroke="#ff0000" points="1217,-112.5 1217,-131.5 1306,-131.5 1306,-112.5 1217,-112.5"/>
<text text-anchor="middle" x="1261.5" y="-119.5" font-family="Helvetica,sans-Serif" font-size="10.00" fill="#000000">odp/api/align.h</text>
</a>
</g>
</g>
<!-- Node1&#45;&gt;Node13 -->
<g id="edge7" class="edge">
<title>Node1&#45;&gt;Node13</title>
<path fill="none" stroke="#191970" d="M2115.2048,-177.7395C2004.897,-176.5293 1632.8221,-169.8117 1316.5384,-132.1112"/>
<polygon fill="#191970" stroke="#191970" points="1316.602,-128.5936 1306.2551,-130.872 1315.7645,-135.5433 1316.602,-128.5936"/>
</g>
<!-- Node16 -->
<g id="node9" class="node">
<title>Node16</title>
<g id="a_node9"><a xlink:href="api_2hash_8h.html" target="_top" xlink:title="ODP Hash function. ">
<polygon fill="#ffffff" stroke="#ff0000" points="1323.5,-112.5 1323.5,-131.5 1411.5,-131.5 1411.5,-112.5 1323.5,-112.5"/>
<text text-anchor="middle" x="1367.5" y="-119.5" font-family="Helvetica,sans-Serif" font-size="10.00" fill="#000000">odp/api/hash.h</text>
</a>
</g>
</g>
<!-- Node1&#45;&gt;Node16 -->
<g id="edge8" class="edge">
<title>Node1&#45;&gt;Node16</title>
<path fill="none" stroke="#191970" d="M2115.4795,-177.3815C2014.8179,-175.1401 1695.7004,-165.7737 1421.8148,-132.0206"/>
<polygon fill="#191970" stroke="#191970" points="1422.0382,-128.5214 1411.6821,-130.758 1421.1726,-135.4677 1422.0382,-128.5214"/>
</g>
<!-- Node19 -->
<g id="node10" class="node">
<title>Node19</title>
<g id="a_node10"><a xlink:href="chksum_8h.html" target="_top" xlink:title="ODP checksum functions. ">
<polygon fill="#ffffff" stroke="#ff0000" points="1430,-112.5 1430,-131.5 1533,-131.5 1533,-112.5 1430,-112.5"/>
<text text-anchor="middle" x="1481.5" y="-119.5" font-family="Helvetica,sans-Serif" font-size="10.00" fill="#000000">odp/api/chksum.h</text>
</a>
</g>
</g>
<!-- Node1&#45;&gt;Node19 -->
<g id="edge9" class="edge">
<title>Node1&#45;&gt;Node19</title>
<path fill="none" stroke="#191970" d="M2115.2663,-176.5339C2026.068,-172.268 1768.2735,-158.526 1543.0619,-131.9643"/>
<polygon fill="#191970" stroke="#191970" points="1543.3837,-128.478 1533.04,-130.7712 1542.5561,-135.4289 1543.3837,-128.478"/>
</g>
<!-- Node21 -->
<g id="node11" class="node">
<title>Node21</title>
<g id="a_node11"><a xlink:href="api_2comp_8h.html" target="_top" xlink:title="ODP crypto. ">
<polygon fill="#ffffff" stroke="#ff0000" points="1551.5,-112.5 1551.5,-131.5 1643.5,-131.5 1643.5,-112.5 1551.5,-112.5"/>
<text text-anchor="middle" x="1597.5" y="-119.5" font-family="Helvetica,sans-Serif" font-size="10.00" fill="#000000">odp/api/comp.h</text>
</a>
</g>
</g>
<!-- Node1&#45;&gt;Node21 -->
<g id="edge10" class="edge">
<title>Node1&#45;&gt;Node21</title>
<path fill="none" stroke="#191970" d="M2115.2476,-175.9808C2037.5743,-170.9094 1833.8344,-156.3669 1653.5908,-132.0478"/>
<polygon fill="#191970" stroke="#191970" points="1654.0478,-128.5778 1643.6668,-130.6955 1653.1026,-135.5137 1654.0478,-128.5778"/>
</g>
<!-- Node37 -->
<g id="node12" class="node">
<title>Node37</title>
<g id="a_node12"><a xlink:href="hints_8h.html" target="_top" xlink:title="ODP compiler hints. ">
<polygon fill="#ffffff" stroke="#ff0000" points="1662,-112.5 1662,-131.5 1751,-131.5 1751,-112.5 1662,-112.5"/>
<text text-anchor="middle" x="1706.5" y="-119.5" font-family="Helvetica,sans-Serif" font-size="10.00" fill="#000000">odp/api/hints.h</text>
</a>
</g>
</g>
<!-- Node1&#45;&gt;Node37 -->
<g id="edge11" class="edge">
<title>Node1&#45;&gt;Node37</title>
<path fill="none" stroke="#191970" d="M2115.4614,-174.9516C2050.5652,-168.616 1898.7357,-152.9777 1761.5524,-132.2391"/>
<polygon fill="#191970" stroke="#191970" points="1761.6959,-128.7206 1751.2825,-130.6727 1760.6404,-135.6406 1761.6959,-128.7206"/>
</g>
<!-- Node39 -->
<g id="node13" class="node">
<title>Node39</title>
<g id="a_node13"><a xlink:href="api_2debug_8h.html" target="_top" xlink:title="ODP debug. ">
<polygon fill="#ffffff" stroke="#ff0000" points="1769,-112.5 1769,-131.5 1864,-131.5 1864,-112.5 1769,-112.5"/>
<text text-anchor="middle" x="1816.5" y="-119.5" font-family="Helvetica,sans-Serif" font-size="10.00" fill="#000000">odp/api/debug.h</text>
</a>
</g>
</g>
<!-- Node1&#45;&gt;Node39 -->
<g id="edge12" class="edge">
<title>Node1&#45;&gt;Node39</title>
<path fill="none" stroke="#191970" d="M2115.3044,-172.7321C2065.6893,-164.5884 1967.2909,-148.3365 1874.032,-132.2527"/>
<polygon fill="#191970" stroke="#191970" points="1874.6025,-128.7994 1864.1526,-130.5461 1873.4109,-135.6973 1874.6025,-128.7994"/>
</g>
<!-- Node42 -->
<g id="node14" class="node">
<title>Node42</title>
<g id="a_node14"><a xlink:href="api_2byteorder_8h.html" target="_top" xlink:title="ODP byteorder. ">
<polygon fill="#ffffff" stroke="#ff0000" points="1882,-112.5 1882,-131.5 1993,-131.5 1993,-112.5 1882,-112.5"/>
<text text-anchor="middle" x="1937.5" y="-119.5" font-family="Helvetica,sans-Serif" font-size="10.00" fill="#000000">odp/api/byteorder.h</text>
</a>
</g>
</g>
<!-- Node1&#45;&gt;Node42 -->
<g id="edge13" class="edge">
<title>Node1&#45;&gt;Node42</title>
<path fill="none" stroke="#191970" d="M2115.1477,-169.3727C2079.8285,-159.9543 2022.9992,-144.7998 1983.1508,-134.1736"/>
<polygon fill="#191970" stroke="#191970" points="1983.9734,-130.7707 1973.4092,-131.5758 1982.1697,-137.5343 1983.9734,-130.7707"/>
</g>
<!-- Node45 -->
<g id="node15" class="node">
<title>Node45</title>
<g id="a_node15"><a xlink:href="api_2cpu_8h.html" target="_top" xlink:title="ODP CPU. ">
<polygon fill="#ffffff" stroke="#ff0000" points="2049.5,-112.5 2049.5,-131.5 2131.5,-131.5 2131.5,-112.5 2049.5,-112.5"/>
<text text-anchor="middle" x="2090.5" y="-119.5" font-family="Helvetica,sans-Serif" font-size="10.00" fill="#000000">odp/api/cpu.h</text>
</a>
</g>
</g>
<!-- Node1&#45;&gt;Node45 -->
<g id="edge14" class="edge">
<title>Node1&#45;&gt;Node45</title>
<path fill="none" stroke="#191970" d="M2137.5714,-168.2455C2129.3162,-160.1352 2117.3791,-148.4075 2107.5918,-138.7919"/>
<polygon fill="#191970" stroke="#191970" points="2109.9011,-136.1542 2100.3149,-131.6427 2104.9954,-141.1476 2109.9011,-136.1542"/>
</g>
<!-- Node47 -->
<g id="node16" class="node">
<title>Node47</title>
<g id="a_node16"><a xlink:href="api_2thread_8h.html" target="_top" xlink:title="ODP thread API. ">
<polygon fill="#ffffff" stroke="#ff0000" points="2007.5,-56.5 2007.5,-75.5 2103.5,-75.5 2103.5,-56.5 2007.5,-56.5"/>
<text text-anchor="middle" x="2055.5" y="-63.5" font-family="Helvetica,sans-Serif" font-size="10.00" fill="#000000">odp/api/thread.h</text>
</a>
</g>
</g>
<!-- Node1&#45;&gt;Node47 -->
<g id="edge26" class="edge">
<title>Node1&#45;&gt;Node47</title>
<path fill="none" stroke="#191970" d="M2115.4794,-173.7441C2090.375,-168.5395 2057.0155,-157.0772 2040.5,-132 2031.1528,-117.8073 2037.1543,-98.5862 2044.1454,-84.5479"/>
<polygon fill="#191970" stroke="#191970" points="2047.2139,-86.2314 2048.9671,-75.7826 2041.0806,-82.8576 2047.2139,-86.2314"/>
</g>
<!-- Node52 -->
<g id="node17" class="node">
<title>Node52</title>
<g id="a_node17"><a xlink:href="api_2cpumask_8h.html" target="_top" xlink:title="ODP CPU masks and enumeration. ">
<polygon fill="#ffffff" stroke="#ff0000" points="2150,-112.5 2150,-131.5 2259,-131.5 2259,-112.5 2150,-112.5"/>
<text text-anchor="middle" x="2204.5" y="-119.5" font-family="Helvetica,sans-Serif" font-size="10.00" fill="#000000">odp/api/cpumask.h</text>
</a>
</g>
</g>
<!-- Node1&#45;&gt;Node52 -->
<g id="edge16" class="edge">
<title>Node1&#45;&gt;Node52</title>
<path fill="none" stroke="#191970" d="M2157.4286,-168.2455C2165.6838,-160.1352 2177.6209,-148.4075 2187.4082,-138.7919"/>
<polygon fill="#191970" stroke="#191970" points="2190.0046,-141.1476 2194.6851,-131.6427 2185.0989,-136.1542 2190.0046,-141.1476"/>
</g>
<!-- Node55 -->
<g id="node18" class="node">
<title>Node55</title>
<g id="a_node18"><a xlink:href="api_2barrier_8h.html" target="_top" xlink:title="ODP execution barriers. ">
<polygon fill="#ffffff" stroke="#ff0000" points="950.5,-112.5 950.5,-131.5 1046.5,-131.5 1046.5,-112.5 950.5,-112.5"/>
<text text-anchor="middle" x="998.5" y="-119.5" font-family="Helvetica,sans-Serif" font-size="10.00" fill="#000000">odp/api/barrier.h</text>
</a>
</g>
</g>
<!-- Node1&#45;&gt;Node55 -->
<g id="edge17" class="edge">
<title>Node1&#45;&gt;Node55</title>
<path fill="none" stroke="#191970" d="M2115.485,-177.1545C1958.9465,-172.9423 1273.0841,-153.5664 1060.5,-132 1059.3881,-131.8872 1058.2659,-131.7674 1057.136,-131.6414"/>
<polygon fill="#191970" stroke="#191970" points="1057.1836,-128.1203 1046.8277,-130.3579 1056.3187,-135.0667 1057.1836,-128.1203"/>
</g>
<!-- Node56 -->
<g id="node19" class="node">
<title>Node56</title>
<g id="a_node19"><a xlink:href="api_2atomic_8h.html" target="_top" xlink:title="ODP atomic operations. ">
<polygon fill="#ffffff" stroke="#ff0000" points="911.5,-56.5 911.5,-75.5 1009.5,-75.5 1009.5,-56.5 911.5,-56.5"/>
<text text-anchor="middle" x="960.5" y="-63.5" font-family="Helvetica,sans-Serif" font-size="10.00" fill="#000000">odp/api/atomic.h</text>
</a>
</g>
</g>
<!-- Node1&#45;&gt;Node56 -->
<g id="edge21" class="edge">
<title>Node1&#45;&gt;Node56</title>
<path fill="none" stroke="#191970" d="M2115.2286,-177.3811C1925.464,-173.6679 962.456,-153.7706 941.5,-132 929.1739,-119.1948 937.644,-98.925 946.8712,-84.225"/>
<polygon fill="#191970" stroke="#191970" points="949.7989,-86.1439 952.5351,-75.9084 944.0132,-82.2036 949.7989,-86.1439"/>
</g>
<!-- Node62 -->
<g id="node20" class="node">
<title>Node62</title>
<g id="a_node20"><a xlink:href="api_2spinlock_8h.html" target="_top" xlink:title="ODP spinlock. ">
<polygon fill="#ffffff" stroke="#ff0000" points="2277,-112.5 2277,-131.5 2382,-131.5 2382,-112.5 2277,-112.5"/>
<text text-anchor="middle" x="2329.5" y="-119.5" font-family="Helvetica,sans-Serif" font-size="10.00" fill="#000000">odp/api/spinlock.h</text>
</a>
</g>
</g>
<!-- Node1&#45;&gt;Node62 -->
<g id="edge20" class="edge">
<title>Node1&#45;&gt;Node62</title>
<path fill="none" stroke="#191970" d="M2178.7869,-168.3733C2209.1818,-159.021 2255.4893,-144.7725 2288.75,-134.5385"/>
<polygon fill="#191970" stroke="#191970" points="2290.0929,-137.7873 2298.6214,-131.5011 2288.0342,-131.0968 2290.0929,-137.7873"/>
</g>
<!-- Node65 -->
<g id="node21" class="node">
<title>Node65</title>
<g id="a_node21"><a xlink:href="feature_8h.html" target="_top" xlink:title="ODP features. ">
<polygon fill="#ffffff" stroke="#ff0000" points="2400.5,-112.5 2400.5,-131.5 2500.5,-131.5 2500.5,-112.5 2400.5,-112.5"/>
<text text-anchor="middle" x="2450.5" y="-119.5" font-family="Helvetica,sans-Serif" font-size="10.00" fill="#000000">odp/api/feature.h</text>
</a>
</g>
</g>
<!-- Node1&#45;&gt;Node65 -->
<g id="edge22" class="edge">
<title>Node1&#45;&gt;Node65</title>
<path fill="none" stroke="#191970" d="M2179.6394,-172.06C2229.7336,-162.8017 2327.2427,-144.7802 2390.5767,-133.0749"/>
<polygon fill="#191970" stroke="#191970" points="2391.2382,-136.512 2400.4355,-131.2528 2389.9659,-129.6286 2391.2382,-136.512"/>
</g>
<!-- Node67 -->
<g id="node22" class="node">
<title>Node67</title>
<g id="a_node22"><a xlink:href="api_2init_8h.html" target="_top" xlink:title="ODP initialization. ">
<polygon fill="#ffffff" stroke="#ff0000" points="2518.5,-112.5 2518.5,-131.5 2598.5,-131.5 2598.5,-112.5 2518.5,-112.5"/>
<text text-anchor="middle" x="2558.5" y="-119.5" font-family="Helvetica,sans-Serif" font-size="10.00" fill="#000000">odp/api/init.h</text>
</a>
</g>
</g>
<!-- Node1&#45;&gt;Node67 -->
<g id="edge23" class="edge">
<title>Node1&#45;&gt;Node67</title>
<path fill="none" stroke="#191970" d="M2179.5773,-174.7404C2241.2693,-168.2958 2380.9132,-152.859 2508.4893,-132.0672"/>
<polygon fill="#191970" stroke="#191970" points="2509.1347,-135.5081 2518.434,-130.4313 2507.9984,-128.6009 2509.1347,-135.5081"/>
</g>
<!-- Node70 -->
<g id="node23" class="node">
<title>Node70</title>
<g id="a_node23"><a xlink:href="system__info_8h.html" target="_top" xlink:title="ODP system information. ">
<polygon fill="#ffffff" stroke="#ff0000" points="1250,-56.5 1250,-75.5 1375,-75.5 1375,-56.5 1250,-56.5"/>
<text text-anchor="middle" x="1312.5" y="-63.5" font-family="Helvetica,sans-Serif" font-size="10.00" fill="#000000">odp/api/system_info.h</text>
</a>
</g>
</g>
<!-- Node1&#45;&gt;Node70 -->
<g id="edge24" class="edge">
<title>Node1&#45;&gt;Node70</title>
<path fill="none" stroke="#191970" d="M2115.2702,-177.6691C1952.9844,-175.8492 1231.7677,-165.8714 1199.5,-132 1176.2412,-107.5852 1217.9355,-89.2955 1257.0849,-78.2352"/>
<polygon fill="#191970" stroke="#191970" points="1258.1969,-81.5605 1266.9422,-75.5797 1256.376,-74.8015 1258.1969,-81.5605"/>
</g>
<!-- Node72 -->
<g id="node24" class="node">
<title>Node72</title>
<g id="a_node24"><a xlink:href="api_2shared__memory_8h.html" target="_top" xlink:title="ODP shared memory. ">
<polygon fill="#ffffff" stroke="#ff0000" points="2617,-112.5 2617,-131.5 2760,-131.5 2760,-112.5 2617,-112.5"/>
<text text-anchor="middle" x="2688.5" y="-119.5" font-family="Helvetica,sans-Serif" font-size="10.00" fill="#000000">odp/api/shared_memory.h</text>
</a>
</g>
</g>
<!-- Node1&#45;&gt;Node72 -->
<g id="edge27" class="edge">
<title>Node1&#45;&gt;Node72</title>
<path fill="none" stroke="#191970" d="M2179.5939,-175.0486C2253.0922,-168.2344 2439.5049,-150.6379 2606.9725,-132.0364"/>
<polygon fill="#191970" stroke="#191970" points="2607.4062,-135.5099 2616.9569,-130.9237 2606.6308,-128.5529 2607.4062,-135.5099"/>
</g>
<!-- Node74 -->
<g id="node25" class="node">
<title>Node74</title>
<g id="a_node25"><a xlink:href="api_2buffer_8h.html" target="_top" xlink:title="ODP buffer descriptor. ">
<polygon fill="#ffffff" stroke="#ff0000" points="1393.5,-56.5 1393.5,-75.5 1485.5,-75.5 1485.5,-56.5 1393.5,-56.5"/>
<text text-anchor="middle" x="1439.5" y="-63.5" font-family="Helvetica,sans-Serif" font-size="10.00" fill="#000000">odp/api/buffer.h</text>
</a>
</g>
</g>
<!-- Node1&#45;&gt;Node74 -->
<g id="edge28" class="edge">
<title>Node1&#45;&gt;Node74</title>
<path fill="none" stroke="#191970" d="M2115.2757,-177.6554C1953.8375,-175.7751 1239.4716,-165.5744 1207.5,-132 1201.3701,-125.5628 1201.8588,-118.8695 1207.5,-112 1210.3195,-108.5666 1315.4144,-88.7419 1383.1733,-76.2643"/>
<polygon fill="#191970" stroke="#191970" points="1384.0919,-79.6541 1393.2944,-74.4039 1382.8264,-72.7695 1384.0919,-79.6541"/>
</g>
<!-- Node76 -->
<g id="node26" class="node">
<title>Node76</title>
<g id="a_node26"><a xlink:href="api_2pool_8h.html" target="_top" xlink:title="ODP pool. ">
<polygon fill="#ffffff" stroke="#ff0000" points="2778.5,-112.5 2778.5,-131.5 2864.5,-131.5 2864.5,-112.5 2778.5,-112.5"/>
<text text-anchor="middle" x="2821.5" y="-119.5" font-family="Helvetica,sans-Serif" font-size="10.00" fill="#000000">odp/api/pool.h</text>
</a>
</g>
</g>
<!-- Node1&#45;&gt;Node76 -->
<g id="edge30" class="edge">
<title>Node1&#45;&gt;Node76</title>
<path fill="none" stroke="#191970" d="M2179.6816,-176.9395C2270.5917,-173.6643 2537.1952,-162.133 2768.4886,-131.992"/>
<polygon fill="#191970" stroke="#191970" points="2768.9757,-135.4581 2778.4327,-130.6816 2768.0611,-128.5181 2768.9757,-135.4581"/>
</g>
<!-- Node78 -->
<g id="node27" class="node">
<title>Node78</title>
<g id="a_node27"><a xlink:href="api_2queue_8h.html" target="_top" xlink:title="ODP queue. ">
<polygon fill="#ffffff" stroke="#ff0000" points="300,-56.5 300,-75.5 395,-75.5 395,-56.5 300,-56.5"/>
<text text-anchor="middle" x="347.5" y="-63.5" font-family="Helvetica,sans-Serif" font-size="10.00" fill="#000000">odp/api/queue.h</text>
</a>
</g>
</g>
<!-- Node1&#45;&gt;Node78 -->
<g id="edge31" class="edge">
<title>Node1&#45;&gt;Node78</title>
<path fill="none" stroke="#191970" d="M2115.3826,-177.6943C1877.8832,-175.3711 402.4972,-159.8316 366.5,-132 352.5332,-121.2014 348.3666,-100.8162 347.336,-85.5459"/>
<polygon fill="#191970" stroke="#191970" points="350.8344,-85.4347 347.0445,-75.5409 343.8373,-85.6386 350.8344,-85.4347"/>
</g>
<!-- Node86 -->
<g id="node28" class="node">
<title>Node86</title>
<g id="a_node28"><a xlink:href="api_2ticketlock_8h.html" target="_top" xlink:title="ODP ticketlock. ">
<polygon fill="#ffffff" stroke="#ff0000" points="2883,-112.5 2883,-131.5 2996,-131.5 2996,-112.5 2883,-112.5"/>
<text text-anchor="middle" x="2939.5" y="-119.5" font-family="Helvetica,sans-Serif" font-size="10.00" fill="#000000">odp/api/ticketlock.h</text>
</a>
</g>
</g>
<!-- Node1&#45;&gt;Node86 -->
<g id="edge33" class="edge">
<title>Node1&#45;&gt;Node86</title>
<path fill="none" stroke="#191970" d="M2179.7876,-176.9578C2280.5705,-173.4927 2598.4504,-160.9593 2872.5189,-132.0142"/>
<polygon fill="#191970" stroke="#191970" points="2873.0863,-135.4736 2882.6591,-130.9335 2872.3445,-128.513 2873.0863,-135.4736"/>
</g>
<!-- Node34 -->
<g id="node29" class="node">
<title>Node34</title>
<g id="a_node29"><a xlink:href="api_2time_8h.html" target="_top" xlink:title="ODP time. ">
<polygon fill="#ffffff" stroke="#ff0000" points="452,-56.5 452,-75.5 539,-75.5 539,-56.5 452,-56.5"/>
<text text-anchor="middle" x="495.5" y="-63.5" font-family="Helvetica,sans-Serif" font-size="10.00" fill="#000000">odp/api/time.h</text>
</a>
</g>
</g>
<!-- Node1&#45;&gt;Node34 -->
<g id="edge34" class="edge">
<title>Node1&#45;&gt;Node34</title>
<path fill="none" stroke="#191970" d="M2115.2153,-177.4221C1917.1668,-173.8146 870.4482,-153.8315 729.5,-132 657.5637,-120.8578 576.3552,-94.7757 531.0131,-78.9391"/>
<polygon fill="#191970" stroke="#191970" points="531.9552,-75.56 521.3604,-75.5326 529.6257,-82.1611 531.9552,-75.56"/>
</g>
<!-- Node89 -->
<g id="node30" class="node">
<title>Node89</title>
<g id="a_node30"><a xlink:href="api_2timer_8h.html" target="_top" xlink:title="ODP timer service. ">
<polygon fill="#ffffff" stroke="#ff0000" points="557.5,-56.5 557.5,-75.5 647.5,-75.5 647.5,-56.5 557.5,-56.5"/>
<text text-anchor="middle" x="602.5" y="-63.5" font-family="Helvetica,sans-Serif" font-size="10.00" fill="#000000">odp/api/timer.h</text>
</a>
</g>
</g>
<!-- Node1&#45;&gt;Node89 -->
<g id="edge36" class="edge">
<title>Node1&#45;&gt;Node89</title>
<path fill="none" stroke="#191970" d="M2115.3575,-177.3982C1924.8917,-173.7643 948.1007,-154.1638 816.5,-132 750.7973,-120.9346 677.1625,-95.1082 635.6577,-79.2419"/>
<polygon fill="#191970" stroke="#191970" points="636.6583,-75.8763 626.069,-75.5342 634.1337,-82.4052 636.6583,-75.8763"/>
</g>
<!-- Node92 -->
<g id="node31" class="node">
<title>Node92</title>
<g id="a_node31"><a xlink:href="api_2schedule_8h.html" target="_top" xlink:title="ODP schedule. ">
<polygon fill="#ffffff" stroke="#ff0000" points="3014.5,-112.5 3014.5,-131.5 3122.5,-131.5 3122.5,-112.5 3014.5,-112.5"/>
<text text-anchor="middle" x="3068.5" y="-119.5" font-family="Helvetica,sans-Serif" font-size="10.00" fill="#000000">odp/api/schedule.h</text>
</a>
</g>
</g>
<!-- Node1&#45;&gt;Node92 -->
<g id="edge38" class="edge">
<title>Node1&#45;&gt;Node92</title>
<path fill="none" stroke="#191970" d="M2179.5387,-177.4813C2291.5771,-175.4151 2676.3358,-166.1972 3004.0835,-132.0468"/>
<polygon fill="#191970" stroke="#191970" points="3004.6723,-135.5043 3014.2513,-130.9773 3003.94,-128.5427 3004.6723,-135.5043"/>
</g>
<!-- Node98 -->
<g id="node32" class="node">
<title>Node98</title>
<g id="a_node32"><a xlink:href="api_2sync_8h.html" target="_top" xlink:title="ODP synchronisation. ">
<polygon fill="#ffffff" stroke="#ff0000" points="3141,-112.5 3141,-131.5 3228,-131.5 3228,-112.5 3141,-112.5"/>
<text text-anchor="middle" x="3184.5" y="-119.5" font-family="Helvetica,sans-Serif" font-size="10.00" fill="#000000">odp/api/sync.h</text>
</a>
</g>
</g>
<!-- Node1&#45;&gt;Node98 -->
<g id="edge39" class="edge">
<title>Node1&#45;&gt;Node98</title>
<path fill="none" stroke="#191970" d="M2179.8681,-177.0964C2325.4519,-172.9402 2921.1996,-154.9268 3130.9122,-131.8632"/>
<polygon fill="#191970" stroke="#191970" points="3131.3615,-135.3347 3140.9015,-130.726 3130.5697,-128.3797 3131.3615,-135.3347"/>
</g>
<!-- Node28 -->
<g id="node33" class="node">
<title>Node28</title>
<g id="a_node33"><a xlink:href="api_2packet_8h.html" target="_top" xlink:title="ODP packet descriptor. ">
<polygon fill="#ffffff" stroke="#ff0000" points="665.5,-56.5 665.5,-75.5 763.5,-75.5 763.5,-56.5 665.5,-56.5"/>
<text text-anchor="middle" x="714.5" y="-63.5" font-family="Helvetica,sans-Serif" font-size="10.00" fill="#000000">odp/api/packet.h</text>
</a>
</g>
</g>
<!-- Node1&#45;&gt;Node28 -->
<g id="edge40" class="edge">
<title>Node1&#45;&gt;Node28</title>
<path fill="none" stroke="#191970" d="M2115.2942,-177.4496C1930.7894,-174.213 1011.837,-156.9416 888.5,-132 835.0346,-121.188 776.4095,-95.9305 742.6852,-79.984"/>
<polygon fill="#191970" stroke="#191970" points="743.9852,-76.7258 733.4551,-75.5567 740.9578,-83.0373 743.9852,-76.7258"/>
</g>
<!-- Node101 -->
<g id="node34" class="node">
<title>Node101</title>
<g id="a_node34"><a xlink:href="api_2packet__flags_8h.html" target="_top" xlink:title="ODP packet flags. ">
<polygon fill="#ffffff" stroke="#ff0000" points="3246.5,-112.5 3246.5,-131.5 3372.5,-131.5 3372.5,-112.5 3246.5,-112.5"/>
<text text-anchor="middle" x="3309.5" y="-119.5" font-family="Helvetica,sans-Serif" font-size="10.00" fill="#000000">odp/api/packet_flags.h</text>
</a>
</g>
</g>
<!-- Node1&#45;&gt;Node101 -->
<g id="edge42" class="edge">
<title>Node1&#45;&gt;Node101</title>
<path fill="none" stroke="#191970" d="M2179.6744,-177.7674C2310.1528,-176.5886 2812.6767,-169.7676 3236.3306,-132.0208"/>
<polygon fill="#191970" stroke="#191970" points="3236.6764,-135.5039 3246.3232,-131.1234 3236.0502,-128.532 3236.6764,-135.5039"/>
</g>
<!-- Node104 -->
<g id="node35" class="node">
<title>Node104</title>
<g id="a_node35"><a xlink:href="api_2packet__io_8h.html" target="_top" xlink:title="ODP Packet IO. ">
<polygon fill="#ffffff" stroke="#ff0000" points="781.5,-56.5 781.5,-75.5 893.5,-75.5 893.5,-56.5 781.5,-56.5"/>
<text text-anchor="middle" x="837.5" y="-63.5" font-family="Helvetica,sans-Serif" font-size="10.00" fill="#000000">odp/api/packet_io.h</text>
</a>
</g>
</g>
<!-- Node1&#45;&gt;Node104 -->
<g id="edge43" class="edge">
<title>Node1&#45;&gt;Node104</title>
<path fill="none" stroke="#191970" d="M2115.3931,-177.8703C1934.4927,-176.9956 1046.4921,-170.744 931.5,-132 901.4573,-121.8778 872.4756,-98.8731 854.8239,-82.8907"/>
<polygon fill="#191970" stroke="#191970" points="856.8128,-79.9595 847.1137,-75.6961 852.0372,-85.0774 856.8128,-79.9595"/>
</g>
<!-- Node111 -->
<g id="node36" class="node">
<title>Node111</title>
<g id="a_node36"><a xlink:href="api_2crypto_8h.html" target="_top" xlink:title="ODP crypto. ">
<polygon fill="#ffffff" stroke="#ff0000" points="376,-112.5 376,-131.5 471,-131.5 471,-112.5 376,-112.5"/>
<text text-anchor="middle" x="423.5" y="-119.5" font-family="Helvetica,sans-Serif" font-size="10.00" fill="#000000">odp/api/crypto.h</text>
</a>
</g>
</g>
<!-- Node1&#45;&gt;Node111 -->
<g id="edge45" class="edge">
<title>Node1&#45;&gt;Node111</title>
<path fill="none" stroke="#191970" d="M2115.2439,-177.6282C1950.098,-175.6071 1182.6532,-164.7985 555.5,-132 531.1092,-130.7244 504.2211,-128.7846 481.1125,-126.9518"/>
<polygon fill="#191970" stroke="#191970" points="481.3708,-123.4614 471.1222,-126.1477 480.8091,-130.4388 481.3708,-123.4614"/>
</g>
<!-- Node114 -->
<g id="node37" class="node">
<title>Node114</title>
<g id="a_node37"><a xlink:href="api_2classification_8h.html" target="_top" xlink:title="ODP classification descriptor. ">
<polygon fill="#ffffff" stroke="#ff0000" points="1065.5,-56.5 1065.5,-75.5 1193.5,-75.5 1193.5,-56.5 1065.5,-56.5"/>
<text text-anchor="middle" x="1129.5" y="-63.5" font-family="Helvetica,sans-Serif" font-size="10.00" fill="#000000">odp/api/classification.h</text>
</a>
</g>
</g>
<!-- Node1&#45;&gt;Node114 -->
<g id="edge48" class="edge">
<title>Node1&#45;&gt;Node114</title>
<path fill="none" stroke="#191970" d="M2115.3158,-177.8256C1942.8522,-176.7371 1134.5214,-169.6357 1098.5,-132 1085.206,-118.1103 1098.5964,-97.4717 1111.6885,-82.9806"/>
<polygon fill="#191970" stroke="#191970" points="1114.3399,-85.2732 1118.7598,-75.6443 1109.2999,-80.4153 1114.3399,-85.2732"/>
</g>
<!-- Node118 -->
<g id="node38" class="node">
<title>Node118</title>
<g id="a_node38"><a xlink:href="api_2rwlock_8h.html" target="_top" xlink:title="ODP RW Locks. ">
<polygon fill="#ffffff" stroke="#ff0000" points="3391,-112.5 3391,-131.5 3488,-131.5 3488,-112.5 3391,-112.5"/>
<text text-anchor="middle" x="3439.5" y="-119.5" font-family="Helvetica,sans-Serif" font-size="10.00" fill="#000000">odp/api/rwlock.h</text>
</a>
</g>
</g>
<!-- Node1&#45;&gt;Node118 -->
<g id="edge50" class="edge">
<title>Node1&#45;&gt;Node118</title>
<path fill="none" stroke="#191970" d="M2179.5551,-177.3855C2346.4076,-174.0999 3117.5754,-157.8222 3380.5656,-131.9195"/>
<polygon fill="#191970" stroke="#191970" points="3381.2364,-135.3694 3390.8313,-130.8762 3380.5286,-128.4053 3381.2364,-135.3694"/>
</g>
<!-- Node80 -->
<g id="node39" class="node">
<title>Node80</title>
<g id="a_node39"><a xlink:href="api_2event_8h.html" target="_top" xlink:title="ODP event. ">
<polygon fill="#ffffff" stroke="#ff0000" points="3506.5,-112.5 3506.5,-131.5 3598.5,-131.5 3598.5,-112.5 3506.5,-112.5"/>
<text text-anchor="middle" x="3552.5" y="-119.5" font-family="Helvetica,sans-Serif" font-size="10.00" fill="#000000">odp/api/event.h</text>
</a>
</g>
</g>
<!-- Node1&#45;&gt;Node80 -->
<g id="edge51" class="edge">
<title>Node1&#45;&gt;Node80</title>
<path fill="none" stroke="#191970" d="M2179.5928,-177.5425C2355.9912,-174.9324 3209.7399,-161.0428 3496.4013,-131.9354"/>
<polygon fill="#191970" stroke="#191970" points="3496.776,-135.4153 3506.3574,-130.8935 3496.0474,-128.4534 3496.776,-135.4153"/>
</g>
<!-- Node121 -->
<g id="node40" class="node">
<title>Node121</title>
<g id="a_node40"><a xlink:href="random_8h.html" target="_top" xlink:title="ODP random number API. ">
<polygon fill="#ffffff" stroke="#ff0000" points="3616.5,-112.5 3616.5,-131.5 3718.5,-131.5 3718.5,-112.5 3616.5,-112.5"/>
<text text-anchor="middle" x="3667.5" y="-119.5" font-family="Helvetica,sans-Serif" font-size="10.00" fill="#000000">odp/api/random.h</text>
</a>
</g>
</g>
<!-- Node1&#45;&gt;Node121 -->
<g id="edge52" class="edge">
<title>Node1&#45;&gt;Node121</title>
<path fill="none" stroke="#191970" d="M2179.7189,-177.5715C2364.8566,-175.0215 3295.5596,-160.9952 3606.1573,-131.9713"/>
<polygon fill="#191970" stroke="#191970" points="3606.8798,-135.4181 3616.4987,-130.9766 3606.2095,-128.4502 3606.8798,-135.4181"/>
</g>
<!-- Node123 -->
<g id="node41" class="node">
<title>Node123</title>
<g id="a_node41"><a xlink:href="api_2errno_8h.html" target="_top" xlink:title="ODP errno API. ">
<polygon fill="#ffffff" stroke="#ff0000" points="3736.5,-112.5 3736.5,-131.5 3826.5,-131.5 3826.5,-112.5 3736.5,-112.5"/>
<text text-anchor="middle" x="3781.5" y="-119.5" font-family="Helvetica,sans-Serif" font-size="10.00" fill="#000000">odp/api/errno.h</text>
</a>
</g>
</g>
<!-- Node1&#45;&gt;Node123 -->
<g id="edge53" class="edge">
<title>Node1&#45;&gt;Node123</title>
<path fill="none" stroke="#191970" d="M2179.7828,-177.7383C2374.0997,-176.0619 3390.6621,-165.836 3726.2844,-131.9316"/>
<polygon fill="#191970" stroke="#191970" points="3726.9103,-135.3855 3736.4948,-130.8702 3726.1864,-128.423 3726.9103,-135.3855"/>
</g>
<!-- Node95 -->
<g id="node42" class="node">
<title>Node95</title>
<g id="a_node42"><a xlink:href="api_2thrmask_8h.html" target="_top" xlink:title="ODP thread masks. ">
<polygon fill="#ffffff" stroke="#ff0000" points="3845,-112.5 3845,-131.5 3950,-131.5 3950,-112.5 3845,-112.5"/>
<text text-anchor="middle" x="3897.5" y="-119.5" font-family="Helvetica,sans-Serif" font-size="10.00" fill="#000000">odp/api/thrmask.h</text>
</a>
</g>
</g>
<!-- Node1&#45;&gt;Node95 -->
<g id="edge54" class="edge">
<title>Node1&#45;&gt;Node95</title>
<path fill="none" stroke="#191970" d="M2179.6378,-177.7071C2381.345,-175.7817 3475.4349,-164.0379 3834.6417,-131.9204"/>
<polygon fill="#191970" stroke="#191970" points="3835.1575,-135.3878 3844.7957,-130.9885 3834.5177,-128.4171 3835.1575,-135.3878"/>
</g>
<!-- Node126 -->
<g id="node43" class="node">
<title>Node126</title>
<g id="a_node43"><a xlink:href="api_2traffic__mngr_8h.html" target="_top" xlink:title="ODP Traffic manager. ">
<polygon fill="#ffffff" stroke="#ff0000" points="3968,-112.5 3968,-131.5 4091,-131.5 4091,-112.5 3968,-112.5"/>
<text text-anchor="middle" x="4029.5" y="-119.5" font-family="Helvetica,sans-Serif" font-size="10.00" fill="#000000">odp/api/traffic_mngr.h</text>
</a>
</g>
</g>
<!-- Node1&#45;&gt;Node126 -->
<g id="edge55" class="edge">
<title>Node1&#45;&gt;Node126</title>
<path fill="none" stroke="#191970" d="M2179.5622,-177.6978C2389.6707,-175.6411 3572.9177,-162.8707 3957.6629,-132.0497"/>
<polygon fill="#191970" stroke="#191970" points="3958.0276,-135.5317 3967.7079,-131.2256 3957.4552,-128.5551 3958.0276,-135.5317"/>
</g>
<!-- Node129 -->
<g id="node44" class="node">
<title>Node129</title>
<g id="a_node44"><a xlink:href="api_2spinlock__recursive_8h.html" target="_top" xlink:title="ODP resursive spinlock. ">
<polygon fill="#ffffff" stroke="#ff0000" points="4109,-112.5 4109,-131.5 4264,-131.5 4264,-112.5 4109,-112.5"/>
<text text-anchor="middle" x="4186.5" y="-119.5" font-family="Helvetica,sans-Serif" font-size="10.00" fill="#000000">odp/api/spinlock_recursive.h</text>
</a>
</g>
</g>
<!-- Node1&#45;&gt;Node129 -->
<g id="edge56" class="edge">
<title>Node1&#45;&gt;Node129</title>
<path fill="none" stroke="#191970" d="M2179.5208,-177.6511C2398.8755,-175.2007 3683.0763,-159.8748 4098.4672,-132.0712"/>
<polygon fill="#191970" stroke="#191970" points="4098.9764,-135.5446 4108.7142,-131.3704 4098.4987,-128.5609 4098.9764,-135.5446"/>
</g>
<!-- Node132 -->
<g id="node45" class="node">
<title>Node132</title>
<g id="a_node45"><a xlink:href="api_2rwlock__recursive_8h.html" target="_top" xlink:title="ODP resursive read/write lock. ">
<polygon fill="#ffffff" stroke="#ff0000" points="4282,-112.5 4282,-131.5 4429,-131.5 4429,-112.5 4282,-112.5"/>
<text text-anchor="middle" x="4355.5" y="-119.5" font-family="Helvetica,sans-Serif" font-size="10.00" fill="#000000">odp/api/rwlock_recursive.h</text>
</a>
</g>
</g>
<!-- Node1&#45;&gt;Node132 -->
<g id="edge57" class="edge">
<title>Node1&#45;&gt;Node132</title>
<path fill="none" stroke="#191970" d="M2179.7072,-177.7447C2410.7625,-175.8472 3819.4929,-163.1641 4271.6008,-132.0573"/>
<polygon fill="#191970" stroke="#191970" points="4272.0463,-135.5348 4281.7764,-131.3425 4271.5557,-128.552 4272.0463,-135.5348"/>
</g>
<!-- Node135 -->
<g id="node46" class="node">
<title>Node135</title>
<g id="a_node46"><a xlink:href="api_2std__clib_8h_source.html" target="_top" xlink:title="odp/api/std_clib.h">
<polygon fill="#ffffff" stroke="#ff0000" points="4447.5,-112.5 4447.5,-131.5 4549.5,-131.5 4549.5,-112.5 4447.5,-112.5"/>
<text text-anchor="middle" x="4498.5" y="-119.5" font-family="Helvetica,sans-Serif" font-size="10.00" fill="#000000">odp/api/std_clib.h</text>
</a>
</g>
</g>
<!-- Node1&#45;&gt;Node135 -->
<g id="edge58" class="edge">
<title>Node1&#45;&gt;Node135</title>
<path fill="none" stroke="#191970" d="M2179.6077,-177.6377C2436.805,-174.6988 4159.261,-154.3253 4437.1787,-131.922"/>
<polygon fill="#191970" stroke="#191970" points="4437.5159,-135.406 4447.1768,-131.0568 4436.9123,-128.432 4437.5159,-135.406"/>
</g>
<!-- Node26 -->
<g id="node47" class="node">
<title>Node26</title>
<g id="a_node47"><a xlink:href="support_8h.html" target="_top" xlink:title="ODP support API &#45; platform specific header. ">
<polygon fill="#ffffff" stroke="#ff0000" points="4568,-112.5 4568,-131.5 4669,-131.5 4669,-112.5 4568,-112.5"/>
<text text-anchor="middle" x="4618.5" y="-119.5" font-family="Helvetica,sans-Serif" font-size="10.00" fill="#000000">odp/api/support.h</text>
</a>
</g>
</g>
<!-- Node1&#45;&gt;Node26 -->
<g id="edge59" class="edge">
<title>Node1&#45;&gt;Node26</title>
<path fill="none" stroke="#191970" d="M2179.5753,-177.6723C2444.3275,-174.9303 4265.7239,-155.3511 4557.7102,-131.8526"/>
<polygon fill="#191970" stroke="#191970" points="4558.1665,-135.3263 4567.8287,-130.9796 4557.5648,-128.3522 4558.1665,-135.3263"/>
</g>
<!-- Node138 -->
<g id="node48" class="node">
<title>Node138</title>
<g id="a_node48"><a xlink:href="api_2ipsec_8h.html" target="_top" xlink:title="ODP IPSEC API &#45; platform specific header. ">
<polygon fill="#ffffff" stroke="#ff0000" points="4687.5,-112.5 4687.5,-131.5 4777.5,-131.5 4777.5,-112.5 4687.5,-112.5"/>
<text text-anchor="middle" x="4732.5" y="-119.5" font-family="Helvetica,sans-Serif" font-size="10.00" fill="#000000">odp/api/ipsec.h</text>
</a>
</g>
</g>
<!-- Node1&#45;&gt;Node138 -->
<g id="edge60" class="edge">
<title>Node1&#45;&gt;Node138</title>
<path fill="none" stroke="#191970" d="M2179.8548,-177.7358C2453.1447,-175.4622 4372.713,-158.6593 4677.3484,-131.8648"/>
<polygon fill="#191970" stroke="#191970" points="4677.8715,-135.3311 4687.4986,-130.9074 4677.2141,-128.362 4677.8715,-135.3311"/>
</g>
<!-- Node143 -->
<g id="node49" class="node">
<title>Node143</title>
<g id="a_node49"><a xlink:href="api_2stash_8h.html" target="_top" xlink:title="ODP stash. ">
<polygon fill="#ffffff" stroke="#ff0000" points="4796,-112.5 4796,-131.5 4887,-131.5 4887,-112.5 4796,-112.5"/>
<text text-anchor="middle" x="4841.5" y="-119.5" font-family="Helvetica,sans-Serif" font-size="10.00" fill="#000000">odp/api/stash.h</text>
</a>
</g>
</g>
<!-- Node1&#45;&gt;Node143 -->
<g id="edge61" class="edge">
<title>Node1&#45;&gt;Node143</title>
<path fill="none" stroke="#191970" d="M2179.8842,-177.7549C2459.9233,-175.5941 4469.0319,-159.2519 4785.8273,-131.8073"/>
<polygon fill="#191970" stroke="#191970" points="4786.3277,-135.276 4795.9619,-130.8678 4785.6815,-128.3059 4786.3277,-135.276"/>
</g>
<!-- Node109 -->
<g id="node50" class="node">
<title>Node109</title>
<g id="a_node50"><a xlink:href="reassembly_8h.html" target="_top" xlink:title="ODP REASSEMBLY API &#45; platform specific header. ">
<polygon fill="#ffffff" stroke="#ff0000" points="4905.5,-112.5 4905.5,-131.5 5025.5,-131.5 5025.5,-112.5 4905.5,-112.5"/>
<text text-anchor="middle" x="4965.5" y="-119.5" font-family="Helvetica,sans-Serif" font-size="10.00" fill="#000000">odp/api/reassembly.h</text>
</a>
</g>
</g>
<!-- Node1&#45;&gt;Node109 -->
<g id="edge62" class="edge">
<title>Node1&#45;&gt;Node109</title>
<path fill="none" stroke="#191970" d="M2179.8483,-177.7088C2466.3525,-175.0977 4566.8333,-155.2816 4895.2722,-131.9401"/>
<polygon fill="#191970" stroke="#191970" points="4895.6327,-135.4229 4905.3402,-131.1785 4895.1046,-128.4428 4895.6327,-135.4229"/>
</g>
<!-- Node3 -->
<g id="node4" class="node">
<title>Node3</title>
<g id="a_node4"><a xlink:href="spec_2deprecated_8h.html" target="_top" xlink:title="Macro for deprecated API definitions. ">
<polygon fill="#ffffff" stroke="#ff0000" points="0,-56.5 0,-75.5 145,-75.5 145,-56.5 0,-56.5"/>
<text text-anchor="middle" x="72.5" y="-63.5" font-family="Helvetica,sans-Serif" font-size="10.00" fill="#000000">odp/api/spec/deprecated.h</text>
</a>
</g>
</g>
<!-- Node2&#45;&gt;Node3 -->
<g id="edge3" class="edge">
<title>Node2&#45;&gt;Node3</title>
<path fill="none" stroke="#191970" d="M100.5777,-112.2455C95.8973,-104.5367 89.2327,-93.5598 83.5711,-84.2348"/>
<polygon fill="#191970" stroke="#191970" points="86.5361,-82.3741 78.3545,-75.6427 80.5525,-86.007 86.5361,-82.3741"/>
</g>
<!-- Node7 -->
<g id="node6" class="node">
<title>Node7</title>
<polygon fill="#ffffff" stroke="#bfbfbf" points="163,-56.5 163,-75.5 282,-75.5 282,-56.5 163,-56.5"/>
<text text-anchor="middle" x="222.5" y="-63.5" font-family="Helvetica,sans-Serif" font-size="10.00" fill="#000000">odp/api/abi/version.h</text>
</g>
<!-- Node6&#45;&gt;Node7 -->
<g id="edge5" class="edge">
<title>Node6&#45;&gt;Node7</title>
<path fill="none" stroke="#191970" d="M241.4937,-112.2455C238.4265,-104.7776 234.0997,-94.2427 230.3503,-85.1137"/>
<polygon fill="#191970" stroke="#191970" points="233.4972,-83.5631 226.4604,-75.6427 227.0221,-86.2226 233.4972,-83.5631"/>
</g>
<!-- Node45&#45;&gt;Node47 -->
<g id="edge15" class="edge">
<title>Node45&#45;&gt;Node47</title>
<path fill="none" stroke="#191970" d="M2084.4035,-112.2455C2079.5855,-104.5367 2072.7249,-93.5598 2066.8968,-84.2348"/>
<polygon fill="#191970" stroke="#191970" points="2069.7947,-82.2677 2061.5267,-75.6427 2063.8587,-85.9777 2069.7947,-82.2677"/>
</g>
<!-- Node55&#45;&gt;Node9 -->
<g id="edge18" class="edge">
<title>Node55&#45;&gt;Node9</title>
<path fill="none" stroke="#191970" d="M1006.5822,-112.0379C1016.8031,-98.1602 1031.5827,-72.8235 1018.5,-56 1004.222,-37.6395 949.0971,-25.4106 903.3944,-18.2075"/>
<polygon fill="#191970" stroke="#191970" points="903.9189,-14.7471 893.5061,-16.7026 902.8656,-21.6674 903.9189,-14.7471"/>
</g>
<!-- Node55&#45;&gt;Node56 -->
<g id="edge19" class="edge">
<title>Node55&#45;&gt;Node56</title>
<path fill="none" stroke="#191970" d="M991.8809,-112.2455C986.5954,-104.4564 979.0459,-93.3308 972.6762,-83.9439"/>
<polygon fill="#191970" stroke="#191970" points="975.5545,-81.9522 967.0432,-75.6427 969.7621,-85.8827 975.5545,-81.9522"/>
</g>
<!-- Node70&#45;&gt;Node9 -->
<g id="edge25" class="edge">
<title>Node70&#45;&gt;Node9</title>
<path fill="none" stroke="#191970" d="M1249.8943,-57.7945C1245.0247,-57.1792 1240.183,-56.5747 1235.5,-56 1118.8816,-41.6888 982.8809,-26.2363 903.8483,-17.3793"/>
<polygon fill="#191970" stroke="#191970" points="903.8819,-13.8613 893.5546,-16.227 903.1031,-20.8179 903.8819,-13.8613"/>
</g>
<!-- Node74&#45;&gt;Node9 -->
<g id="edge29" class="edge">
<title>Node74&#45;&gt;Node9</title>
<path fill="none" stroke="#191970" d="M1393.4078,-57.4202C1390.0603,-56.9044 1386.7314,-56.4237 1383.5,-56 1211.3819,-33.4313 1007.2112,-19.6642 904.1399,-13.6183"/>
<polygon fill="#191970" stroke="#191970" points="904.0697,-10.1084 893.8836,-13.0226 903.6638,-17.0966 904.0697,-10.1084"/>
</g>
<!-- Node78&#45;&gt;Node9 -->
<g id="edge32" class="edge">
<title>Node78&#45;&gt;Node9</title>
<path fill="none" stroke="#191970" d="M395.1898,-58.0475C400.0186,-57.3205 404.8534,-56.624 409.5,-56 537.1298,-38.8608 686.8549,-23.9536 771.1066,-16.0387"/>
<polygon fill="#191970" stroke="#191970" points="771.6702,-19.5013 781.3007,-15.0852 771.0182,-12.5318 771.6702,-19.5013"/>
</g>
<!-- Node34&#45;&gt;Node9 -->
<g id="edge35" class="edge">
<title>Node34&#45;&gt;Node9</title>
<path fill="none" stroke="#191970" d="M539.1548,-57.6607C542.3155,-57.0884 545.4556,-56.5294 548.5,-56 624.7587,-42.7396 712.6071,-28.9703 771.2415,-19.9944"/>
<polygon fill="#191970" stroke="#191970" points="772.1214,-23.4007 781.4782,-18.4306 771.0643,-16.4809 772.1214,-23.4007"/>
</g>
<!-- Node89&#45;&gt;Node9 -->
<g id="edge37" class="edge">
<title>Node89&#45;&gt;Node9</title>
<path fill="none" stroke="#191970" d="M642.6309,-56.4369C682.7649,-46.8731 744.5775,-32.1432 787.7933,-21.845"/>
<polygon fill="#191970" stroke="#191970" points="788.6183,-25.2465 797.5346,-19.5237 786.9956,-18.4372 788.6183,-25.2465"/>
</g>
<!-- Node28&#45;&gt;Node9 -->
<g id="edge41" class="edge">
<title>Node28&#45;&gt;Node9</title>
<path fill="none" stroke="#191970" d="M735.6445,-56.3733C755.3892,-47.3838 785.0698,-33.8706 807.3055,-23.7471"/>
<polygon fill="#191970" stroke="#191970" points="808.9806,-26.8302 816.6315,-19.5011 806.08,-20.4594 808.9806,-26.8302"/>
</g>
<!-- Node104&#45;&gt;Node9 -->
<g id="edge44" class="edge">
<title>Node104&#45;&gt;Node9</title>
<path fill="none" stroke="#191970" d="M837.5,-56.2455C837.5,-48.9382 837.5,-38.6944 837.5,-29.7046"/>
<polygon fill="#191970" stroke="#191970" points="841.0001,-29.6426 837.5,-19.6427 834.0001,-29.6427 841.0001,-29.6426"/>
</g>
<!-- Node111&#45;&gt;Node9 -->
<g id="edge46" class="edge">
<title>Node111&#45;&gt;Node9</title>
<path fill="none" stroke="#191970" d="M423.1956,-112.1617C423.3272,-97.4717 425.9471,-70.0335 442.5,-56 467.0265,-35.2064 665.039,-20.3161 771.0502,-13.749"/>
<polygon fill="#191970" stroke="#191970" points="771.5571,-17.2247 781.3248,-13.1208 771.1298,-10.2377 771.5571,-17.2247"/>
</g>
<!-- Node111&#45;&gt;Node78 -->
<g id="edge47" class="edge">
<title>Node111&#45;&gt;Node78</title>
<path fill="none" stroke="#191970" d="M410.2618,-112.2455C398.819,-103.814 382.0704,-91.4729 368.7525,-81.6598"/>
<polygon fill="#191970" stroke="#191970" points="370.7133,-78.757 360.5865,-75.6427 366.5609,-84.3924 370.7133,-78.757"/>
</g>
<!-- Node114&#45;&gt;Node9 -->
<g id="edge49" class="edge">
<title>Node114&#45;&gt;Node9</title>
<path fill="none" stroke="#191970" d="M1079.6352,-56.4369C1029.1367,-46.7522 951.0165,-31.7703 897.2395,-21.4569"/>
<polygon fill="#191970" stroke="#191970" points="897.6394,-17.9699 887.1591,-19.5237 896.3209,-24.8446 897.6394,-17.9699"/>
</g>
</g>
</svg>
