<?xml version="1.0" encoding="UTF-8" standalone="no"?>
<!DOCTYPE svg PUBLIC "-//W3C//DTD SVG 1.1//EN"
 "http://www.w3.org/Graphics/SVG/1.1/DTD/svg11.dtd">
<!-- Generated by graphviz version 2.40.1 (20161225.0304)
 -->
<!-- Title: deprecated.h Pages: 1 -->
<svg width="1061pt" height="700pt"
 viewBox="0.00 0.00 1060.50 700.00" xmlns="http://www.w3.org/2000/svg" xmlns:xlink="http://www.w3.org/1999/xlink">
<g id="graph0" class="graph" transform="scale(1 1) rotate(0) translate(4 696)">
<title>deprecated.h</title>
<polygon fill="#ffffff" stroke="transparent" points="-4,4 -4,-696 1056.5,-696 1056.5,4 -4,4"/>
<!-- Node3 -->
<g id="node1" class="node">
<title>Node3</title>
<polygon fill="#bfbfbf" stroke="#000000" points="782.5,-672.5 782.5,-691.5 862.5,-691.5 862.5,-672.5 782.5,-672.5"/>
<text text-anchor="middle" x="822.5" y="-679.5" font-family="Helvetica,sans-Serif" font-size="10.00" fill="#000000">deprecated.h</text>
</g>
<!-- Node4 -->
<g id="node2" class="node">
<title>Node4</title>
<g id="a_node2"><a xlink:href="deprecated_8h.html" target="_top" xlink:title="Control deprecated API definitions. ">
<polygon fill="#ffffff" stroke="#000000" points="782.5,-616.5 782.5,-635.5 862.5,-635.5 862.5,-616.5 782.5,-616.5"/>
<text text-anchor="middle" x="822.5" y="-623.5" font-family="Helvetica,sans-Serif" font-size="10.00" fill="#000000">deprecated.h</text>
</a>
</g>
</g>
<!-- Node3&#45;&gt;Node4 -->
<g id="edge1" class="edge">
<title>Node3&#45;&gt;Node4</title>
<path fill="none" stroke="#191970" d="M822.5,-662.1575C822.5,-653.155 822.5,-642.9199 822.5,-635.6427"/>
<polygon fill="#191970" stroke="#191970" points="819.0001,-662.2455 822.5,-672.2455 826.0001,-662.2456 819.0001,-662.2455"/>
</g>
<!-- Node5 -->
<g id="node3" class="node">
<title>Node5</title>
<g id="a_node3"><a xlink:href="api_2abi-default_2classification_8h_source.html" target="_top" xlink:title="classification.h">
<polygon fill="#ffffff" stroke="#000000" points="375,-448.5 375,-467.5 464,-467.5 464,-448.5 375,-448.5"/>
<text text-anchor="middle" x="419.5" y="-455.5" font-family="Helvetica,sans-Serif" font-size="10.00" fill="#000000">classification.h</text>
</a>
</g>
</g>
<!-- Node4&#45;&gt;Node5 -->
<g id="edge2" class="edge">
<title>Node4&#45;&gt;Node5</title>
<path fill="none" stroke="#191970" d="M772.2136,-615.0457C738.596,-607.0224 693.6969,-594.9449 655.5,-580 568.9508,-546.1368 472.4373,-489.9977 435.2662,-467.6294"/>
<polygon fill="#191970" stroke="#191970" points="771.7293,-618.527 782.2645,-617.4042 773.3286,-611.7121 771.7293,-618.527"/>
</g>
<!-- Node16 -->
<g id="node14" class="node">
<title>Node16</title>
<g id="a_node14"><a xlink:href="odp__api_8h.html" target="_top" xlink:title="The OpenDataPlane API. ">
<polygon fill="#ffffff" stroke="#000000" points="818.5,-56.5 818.5,-75.5 882.5,-75.5 882.5,-56.5 818.5,-56.5"/>
<text text-anchor="middle" x="850.5" y="-63.5" font-family="Helvetica,sans-Serif" font-size="10.00" fill="#000000">odp_api.h</text>
</a>
</g>
</g>
<!-- Node4&#45;&gt;Node16 -->
<g id="edge43" class="edge">
<title>Node4&#45;&gt;Node16</title>
<path fill="none" stroke="#191970" d="M872.401,-616.7447C903.6252,-609.6138 943.956,-597.8922 976.5,-580 1015.7027,-558.447 1052.5,-558.7368 1052.5,-514 1052.5,-514 1052.5,-514 1052.5,-178 1052.5,-101.2099 939.466,-76.6327 882.5075,-69.1227"/>
<polygon fill="#191970" stroke="#191970" points="871.6187,-613.333 862.6047,-618.9007 873.1233,-620.1694 871.6187,-613.333"/>
</g>
<!-- Node22 -->
<g id="node20" class="node">
<title>Node22</title>
<g id="a_node20"><a xlink:href="api_2spec_2crypto_8h.html" target="_top" xlink:title="ODP crypto. ">
<polygon fill="#ffffff" stroke="#000000" points="822.5,-504.5 822.5,-523.5 878.5,-523.5 878.5,-504.5 822.5,-504.5"/>
<text text-anchor="middle" x="850.5" y="-511.5" font-family="Helvetica,sans-Serif" font-size="10.00" fill="#000000">crypto.h</text>
</a>
</g>
</g>
<!-- Node4&#45;&gt;Node22 -->
<g id="edge25" class="edge">
<title>Node4&#45;&gt;Node22</title>
<path fill="none" stroke="#191970" d="M827.3503,-606.5987C833.4093,-582.363 843.5362,-541.8551 848.1188,-523.5249"/>
<polygon fill="#191970" stroke="#191970" points="823.9172,-605.9006 824.8873,-616.4509 830.7082,-607.5984 823.9172,-605.9006"/>
</g>
<!-- Node24 -->
<g id="node22" class="node">
<title>Node24</title>
<g id="a_node22"><a xlink:href="api_2spec_2packet__io_8h.html" target="_top" xlink:title="ODP Packet IO. ">
<polygon fill="#ffffff" stroke="#000000" points="749,-392.5 749,-411.5 822,-411.5 822,-392.5 749,-392.5"/>
<text text-anchor="middle" x="785.5" y="-399.5" font-family="Helvetica,sans-Serif" font-size="10.00" fill="#000000">packet_io.h</text>
</a>
</g>
</g>
<!-- Node4&#45;&gt;Node24 -->
<g id="edge29" class="edge">
<title>Node4&#45;&gt;Node24</title>
<path fill="none" stroke="#191970" d="M819.2645,-606.4119C811.6239,-560.1557 792.6843,-445.494 787.0839,-411.5891"/>
<polygon fill="#191970" stroke="#191970" points="815.8272,-607.0791 820.9102,-616.375 822.7336,-605.9383 815.8272,-607.0791"/>
</g>
<!-- Node25 -->
<g id="node23" class="node">
<title>Node25</title>
<g id="a_node23"><a xlink:href="spec_2packet__io__stats_8h.html" target="_top" xlink:title="ODP Packet IO statistics. ">
<polygon fill="#ffffff" stroke="#000000" points="664.5,-560.5 664.5,-579.5 766.5,-579.5 766.5,-560.5 664.5,-560.5"/>
<text text-anchor="middle" x="715.5" y="-567.5" font-family="Helvetica,sans-Serif" font-size="10.00" fill="#000000">packet_io_stats.h</text>
</a>
</g>
</g>
<!-- Node4&#45;&gt;Node25 -->
<g id="edge31" class="edge">
<title>Node4&#45;&gt;Node25</title>
<path fill="none" stroke="#191970" d="M794.9801,-611.5971C775.7983,-601.558 750.7322,-588.4393 733.9244,-579.6427"/>
<polygon fill="#191970" stroke="#191970" points="793.3791,-614.7095 803.862,-616.2455 796.625,-608.5075 793.3791,-614.7095"/>
</g>
<!-- Node27 -->
<g id="node25" class="node">
<title>Node27</title>
<g id="a_node25"><a xlink:href="queue__types_8h.html" target="_top" xlink:title="ODP queue types. ">
<polygon fill="#ffffff" stroke="#000000" points="879.5,-560.5 879.5,-579.5 967.5,-579.5 967.5,-560.5 879.5,-560.5"/>
<text text-anchor="middle" x="923.5" y="-567.5" font-family="Helvetica,sans-Serif" font-size="10.00" fill="#000000">queue_types.h</text>
</a>
</g>
</g>
<!-- Node4&#45;&gt;Node27 -->
<g id="edge34" class="edge">
<title>Node4&#45;&gt;Node27</title>
<path fill="none" stroke="#191970" d="M848.9719,-611.3225C867.0125,-601.3198 890.3877,-588.3593 906.1087,-579.6427"/>
<polygon fill="#191970" stroke="#191970" points="847.1413,-608.3354 840.0929,-616.2455 850.5357,-614.4574 847.1413,-608.3354"/>
</g>
<!-- Node6 -->
<g id="node4" class="node">
<title>Node6</title>
<g id="a_node4"><a xlink:href="arch_2arm32-linux_2odp_2api_2abi_2classification_8h_source.html" target="_top" xlink:title="classification.h">
<polygon fill="#ffffff" stroke="#000000" points="214,-392.5 214,-411.5 303,-411.5 303,-392.5 214,-392.5"/>
<text text-anchor="middle" x="258.5" y="-399.5" font-family="Helvetica,sans-Serif" font-size="10.00" fill="#000000">classification.h</text>
</a>
</g>
</g>
<!-- Node5&#45;&gt;Node6 -->
<g id="edge3" class="edge">
<title>Node5&#45;&gt;Node6</title>
<path fill="none" stroke="#191970" d="M382.2889,-445.057C352.8241,-434.8084 312.3459,-420.729 285.8157,-411.5011"/>
<polygon fill="#191970" stroke="#191970" points="381.2283,-448.3937 391.8231,-448.3733 383.528,-441.7822 381.2283,-448.3937"/>
</g>
<!-- Node7 -->
<g id="node5" class="node">
<title>Node7</title>
<g id="a_node5"><a xlink:href="arch_2arm64-linux_2odp_2api_2abi_2classification_8h_source.html" target="_top" xlink:title="classification.h">
<polygon fill="#ffffff" stroke="#000000" points="428,-392.5 428,-411.5 517,-411.5 517,-392.5 428,-392.5"/>
<text text-anchor="middle" x="472.5" y="-399.5" font-family="Helvetica,sans-Serif" font-size="10.00" fill="#000000">classification.h</text>
</a>
</g>
</g>
<!-- Node5&#45;&gt;Node7 -->
<g id="edge4" class="edge">
<title>Node5&#45;&gt;Node7</title>
<path fill="none" stroke="#191970" d="M435.7896,-440.7884C444.8562,-431.2085 455.8054,-419.6396 463.3739,-411.6427"/>
<polygon fill="#191970" stroke="#191970" points="433.0637,-438.5767 428.7319,-448.2455 438.1478,-443.3884 433.0637,-438.5767"/>
</g>
<!-- Node8 -->
<g id="node6" class="node">
<title>Node8</title>
<g id="a_node6"><a xlink:href="arch_2default-linux_2odp_2api_2abi_2classification_8h_source.html" target="_top" xlink:title="classification.h">
<polygon fill="#ffffff" stroke="#000000" points="535,-392.5 535,-411.5 624,-411.5 624,-392.5 535,-392.5"/>
<text text-anchor="middle" x="579.5" y="-399.5" font-family="Helvetica,sans-Serif" font-size="10.00" fill="#000000">classification.h</text>
</a>
</g>
</g>
<!-- Node5&#45;&gt;Node8 -->
<g id="edge5" class="edge">
<title>Node5&#45;&gt;Node8</title>
<path fill="none" stroke="#191970" d="M456.4799,-445.057C485.7618,-434.8084 525.9885,-420.729 552.3539,-411.5011"/>
<polygon fill="#191970" stroke="#191970" points="455.2873,-441.7662 447.005,-448.3733 457.5998,-448.3732 455.2873,-441.7662"/>
</g>
<!-- Node9 -->
<g id="node7" class="node">
<title>Node9</title>
<g id="a_node7"><a xlink:href="arch_2mips64-linux_2odp_2api_2abi_2classification_8h_source.html" target="_top" xlink:title="classification.h">
<polygon fill="#ffffff" stroke="#000000" points="642,-392.5 642,-411.5 731,-411.5 731,-392.5 642,-392.5"/>
<text text-anchor="middle" x="686.5" y="-399.5" font-family="Helvetica,sans-Serif" font-size="10.00" fill="#000000">classification.h</text>
</a>
</g>
</g>
<!-- Node5&#45;&gt;Node9 -->
<g id="edge6" class="edge">
<title>Node5&#45;&gt;Node9</title>
<path fill="none" stroke="#191970" d="M474.0724,-446.5541C523.5173,-436.1836 595.5,-421.0862 641.6644,-411.4037"/>
<polygon fill="#191970" stroke="#191970" points="473.2584,-443.1486 464.1898,-448.6269 474.6953,-449.9995 473.2584,-443.1486"/>
</g>
<!-- Node10 -->
<g id="node8" class="node">
<title>Node10</title>
<g id="a_node8"><a xlink:href="arch_2power64-linux_2odp_2api_2abi_2classification_8h_source.html" target="_top" xlink:title="classification.h">
<polygon fill="#ffffff" stroke="#000000" points="0,-392.5 0,-411.5 89,-411.5 89,-392.5 0,-392.5"/>
<text text-anchor="middle" x="44.5" y="-399.5" font-family="Helvetica,sans-Serif" font-size="10.00" fill="#000000">classification.h</text>
</a>
</g>
</g>
<!-- Node5&#45;&gt;Node10 -->
<g id="edge7" class="edge">
<title>Node5&#45;&gt;Node10</title>
<path fill="none" stroke="#191970" d="M364.5791,-450.9127C300.3933,-442.4543 191.0401,-427.4981 97.5,-412 94.7287,-411.5408 91.879,-411.052 89.0075,-410.5466"/>
<polygon fill="#191970" stroke="#191970" points="364.4977,-454.432 374.8683,-452.2639 365.4092,-447.4916 364.4977,-454.432"/>
</g>
<!-- Node11 -->
<g id="node9" class="node">
<title>Node11</title>
<g id="a_node9"><a xlink:href="arch_2x86__32-linux_2odp_2api_2abi_2classification_8h_source.html" target="_top" xlink:title="classification.h">
<polygon fill="#ffffff" stroke="#000000" points="107,-392.5 107,-411.5 196,-411.5 196,-392.5 107,-392.5"/>
<text text-anchor="middle" x="151.5" y="-399.5" font-family="Helvetica,sans-Serif" font-size="10.00" fill="#000000">classification.h</text>
</a>
</g>
</g>
<!-- Node5&#45;&gt;Node11 -->
<g id="edge8" class="edge">
<title>Node5&#45;&gt;Node11</title>
<path fill="none" stroke="#191970" d="M365.0023,-446.6124C315.2425,-436.2148 242.572,-421.03 196.1621,-411.3324"/>
<polygon fill="#191970" stroke="#191970" points="364.4399,-450.0704 374.9444,-448.6899 365.8717,-443.2184 364.4399,-450.0704"/>
</g>
<!-- Node12 -->
<g id="node10" class="node">
<title>Node12</title>
<g id="a_node10"><a xlink:href="arch_2x86__64-linux_2odp_2api_2abi_2classification_8h_source.html" target="_top" xlink:title="classification.h">
<polygon fill="#ffffff" stroke="#000000" points="321,-392.5 321,-411.5 410,-411.5 410,-392.5 321,-392.5"/>
<text text-anchor="middle" x="365.5" y="-399.5" font-family="Helvetica,sans-Serif" font-size="10.00" fill="#000000">classification.h</text>
</a>
</g>
</g>
<!-- Node5&#45;&gt;Node12 -->
<g id="edge9" class="edge">
<title>Node5&#45;&gt;Node12</title>
<path fill="none" stroke="#191970" d="M402.9031,-440.7884C393.6653,-431.2085 382.5096,-419.6396 374.7983,-411.6427"/>
<polygon fill="#191970" stroke="#191970" points="400.6331,-443.4766 410.0939,-448.2455 405.672,-438.6176 400.6331,-443.4766"/>
</g>
<!-- Node13 -->
<g id="node11" class="node">
<title>Node13</title>
<g id="a_node11"><a xlink:href="api_2classification_8h.html" target="_top" xlink:title="ODP classification descriptor. ">
<polygon fill="#ffffff" stroke="#000000" points="555,-224.5 555,-243.5 644,-243.5 644,-224.5 555,-224.5"/>
<text text-anchor="middle" x="599.5" y="-231.5" font-family="Helvetica,sans-Serif" font-size="10.00" fill="#000000">classification.h</text>
</a>
</g>
</g>
<!-- Node12&#45;&gt;Node13 -->
<g id="edge10" class="edge">
<title>Node12&#45;&gt;Node13</title>
<path fill="none" stroke="#191970" d="M387.1003,-386.4921C434.6683,-352.3407 547.3176,-271.4643 586.104,-243.6177"/>
<polygon fill="#191970" stroke="#191970" points="384.8333,-383.811 378.7513,-392.4862 388.9158,-389.4973 384.8333,-383.811"/>
</g>
<!-- Node18 -->
<g id="node16" class="node">
<title>Node18</title>
<g id="a_node16"><a xlink:href="api_2packet__io_8h.html" target="_top" xlink:title="ODP Packet IO. ">
<polygon fill="#ffffff" stroke="#000000" points="671,-336.5 671,-355.5 744,-355.5 744,-336.5 671,-336.5"/>
<text text-anchor="middle" x="707.5" y="-343.5" font-family="Helvetica,sans-Serif" font-size="10.00" fill="#000000">packet_io.h</text>
</a>
</g>
</g>
<!-- Node12&#45;&gt;Node18 -->
<g id="edge16" class="edge">
<title>Node12&#45;&gt;Node18</title>
<path fill="none" stroke="#191970" d="M419.9095,-391.7887C516.1431,-375.1613 617.8765,-359.4986 670.9473,-351.4747"/>
<polygon fill="#191970" stroke="#191970" points="419.2708,-388.3472 410.0162,-393.505 420.4673,-395.2442 419.2708,-388.3472"/>
</g>
<!-- Node14 -->
<g id="node12" class="node">
<title>Node14</title>
<g id="a_node12"><a xlink:href="api_2spec_2ipsec_8h.html" target="_top" xlink:title="ODP IPSEC API. ">
<polygon fill="#ffffff" stroke="#000000" points="695,-168.5 695,-187.5 746,-187.5 746,-168.5 695,-168.5"/>
<text text-anchor="middle" x="720.5" y="-175.5" font-family="Helvetica,sans-Serif" font-size="10.00" fill="#000000">ipsec.h</text>
</a>
</g>
</g>
<!-- Node13&#45;&gt;Node14 -->
<g id="edge11" class="edge">
<title>Node13&#45;&gt;Node14</title>
<path fill="none" stroke="#191970" d="M629.5104,-220.1109C651.4525,-209.9559 680.6388,-196.4482 699.9708,-187.5011"/>
<polygon fill="#191970" stroke="#191970" points="627.9058,-216.9968 620.3006,-224.3733 630.8459,-223.3494 627.9058,-216.9968"/>
</g>
<!-- Node13&#45;&gt;Node16 -->
<g id="edge15" class="edge">
<title>Node13&#45;&gt;Node16</title>
<path fill="none" stroke="#191970" d="M607.6594,-215.2377C620.35,-188.2812 647.3826,-138.8875 685.5,-112 725.7179,-83.6309 782.8958,-72.7168 818.2961,-68.5456"/>
<polygon fill="#191970" stroke="#191970" points="604.457,-213.8248 603.5046,-224.3768 610.8294,-216.7219 604.457,-213.8248"/>
</g>
<!-- Node15 -->
<g id="node13" class="node">
<title>Node15</title>
<g id="a_node13"><a xlink:href="api_2ipsec_8h.html" target="_top" xlink:title="ODP IPSEC API &#45; platform specific header. ">
<polygon fill="#ffffff" stroke="#000000" points="695,-112.5 695,-131.5 746,-131.5 746,-112.5 695,-112.5"/>
<text text-anchor="middle" x="720.5" y="-119.5" font-family="Helvetica,sans-Serif" font-size="10.00" fill="#000000">ipsec.h</text>
</a>
</g>
</g>
<!-- Node14&#45;&gt;Node15 -->
<g id="edge12" class="edge">
<title>Node14&#45;&gt;Node15</title>
<path fill="none" stroke="#191970" d="M720.5,-158.1575C720.5,-149.155 720.5,-138.9199 720.5,-131.6427"/>
<polygon fill="#191970" stroke="#191970" points="717.0001,-158.2455 720.5,-168.2455 724.0001,-158.2456 717.0001,-158.2455"/>
</g>
<!-- Node15&#45;&gt;Node16 -->
<g id="edge13" class="edge">
<title>Node15&#45;&gt;Node16</title>
<path fill="none" stroke="#191970" d="M752.1102,-108.3833C775.7535,-98.1985 807.4876,-84.5284 828.4438,-75.5011"/>
<polygon fill="#191970" stroke="#191970" points="750.6472,-105.2025 742.8478,-112.3733 753.4166,-111.6314 750.6472,-105.2025"/>
</g>
<!-- Node17 -->
<g id="node15" class="node">
<title>Node17</title>
<g id="a_node15"><a xlink:href="odp_8h.html" target="_top" xlink:title="WARNING: THIS FILE IS DEPRECATED AND WILL BE REMOVED!!! ODP APPLICATIONS SHOULD NOW INCLUDE odp_api...">
<polygon fill="#ffffff" stroke="#000000" points="828.5,-.5 828.5,-19.5 872.5,-19.5 872.5,-.5 828.5,-.5"/>
<text text-anchor="middle" x="850.5" y="-7.5" font-family="Helvetica,sans-Serif" font-size="10.00" fill="#000000">odp.h</text>
</a>
</g>
</g>
<!-- Node16&#45;&gt;Node17 -->
<g id="edge14" class="edge">
<title>Node16&#45;&gt;Node17</title>
<path fill="none" stroke="#191970" d="M850.5,-46.1575C850.5,-37.155 850.5,-26.9199 850.5,-19.6427"/>
<polygon fill="#191970" stroke="#191970" points="847.0001,-46.2455 850.5,-56.2455 854.0001,-46.2456 847.0001,-46.2455"/>
</g>
<!-- Node18&#45;&gt;Node14 -->
<g id="edge19" class="edge">
<title>Node18&#45;&gt;Node14</title>
<path fill="none" stroke="#191970" d="M699.309,-327.0595C696.2034,-318.8981 693.045,-309.1449 691.5,-300 685.873,-266.6942 682.1248,-256.4506 691.5,-224 695.4829,-210.214 704.9597,-196.5821 712.0023,-187.7814"/>
<polygon fill="#191970" stroke="#191970" points="696.0873,-328.4287 703.089,-336.3802 702.5742,-325.7979 696.0873,-328.4287"/>
</g>
<!-- Node18&#45;&gt;Node16 -->
<g id="edge24" class="edge">
<title>Node18&#45;&gt;Node16</title>
<path fill="none" stroke="#191970" d="M747.5631,-332.5462C763.8872,-325.2381 781.6634,-314.6383 793.5,-300 812.6929,-276.2642 812.5,-264.5246 812.5,-234 812.5,-234 812.5,-234 812.5,-178 812.5,-138.1657 834.3226,-94.3859 844.893,-75.5166"/>
<polygon fill="#191970" stroke="#191970" points="746.0493,-329.3855 738.1754,-336.4744 748.7514,-335.843 746.0493,-329.3855"/>
</g>
<!-- Node19 -->
<g id="node17" class="node">
<title>Node19</title>
<g id="a_node17"><a xlink:href="api_2spec_2classification_8h.html" target="_top" xlink:title="ODP classification descriptor. ">
<polygon fill="#ffffff" stroke="#000000" points="555,-280.5 555,-299.5 644,-299.5 644,-280.5 555,-280.5"/>
<text text-anchor="middle" x="599.5" y="-287.5" font-family="Helvetica,sans-Serif" font-size="10.00" fill="#000000">classification.h</text>
</a>
</g>
</g>
<!-- Node18&#45;&gt;Node19 -->
<g id="edge17" class="edge">
<title>Node18&#45;&gt;Node19</title>
<path fill="none" stroke="#191970" d="M679.7229,-331.5971C660.3618,-321.558 635.0615,-308.4393 618.0966,-299.6427"/>
<polygon fill="#191970" stroke="#191970" points="678.1992,-334.7495 688.6878,-336.2455 681.4214,-328.5352 678.1992,-334.7495"/>
</g>
<!-- Node20 -->
<g id="node18" class="node">
<title>Node20</title>
<g id="a_node18"><a xlink:href="api_2spec_2traffic__mngr_8h.html" target="_top" xlink:title="Copyright (c) 2015&#45;2018, Linaro Limited All rights reserved. ">
<polygon fill="#ffffff" stroke="#000000" points="700.5,-280.5 700.5,-299.5 784.5,-299.5 784.5,-280.5 700.5,-280.5"/>
<text text-anchor="middle" x="742.5" y="-287.5" font-family="Helvetica,sans-Serif" font-size="10.00" fill="#000000">traffic_mngr.h</text>
</a>
</g>
</g>
<!-- Node18&#45;&gt;Node20 -->
<g id="edge20" class="edge">
<title>Node18&#45;&gt;Node20</title>
<path fill="none" stroke="#191970" d="M718.9815,-327.6296C724.8196,-318.2887 731.6752,-307.3197 736.4733,-299.6427"/>
<polygon fill="#191970" stroke="#191970" points="715.9286,-325.9105 713.5965,-336.2455 721.8646,-329.6206 715.9286,-325.9105"/>
</g>
<!-- Node19&#45;&gt;Node13 -->
<g id="edge18" class="edge">
<title>Node19&#45;&gt;Node13</title>
<path fill="none" stroke="#191970" d="M599.5,-270.1575C599.5,-261.155 599.5,-250.9199 599.5,-243.6427"/>
<polygon fill="#191970" stroke="#191970" points="596.0001,-270.2455 599.5,-280.2455 603.0001,-270.2456 596.0001,-270.2455"/>
</g>
<!-- Node21 -->
<g id="node19" class="node">
<title>Node21</title>
<g id="a_node19"><a xlink:href="api_2traffic__mngr_8h.html" target="_top" xlink:title="ODP Traffic manager. ">
<polygon fill="#ffffff" stroke="#000000" points="700.5,-224.5 700.5,-243.5 784.5,-243.5 784.5,-224.5 700.5,-224.5"/>
<text text-anchor="middle" x="742.5" y="-231.5" font-family="Helvetica,sans-Serif" font-size="10.00" fill="#000000">traffic_mngr.h</text>
</a>
</g>
</g>
<!-- Node20&#45;&gt;Node21 -->
<g id="edge21" class="edge">
<title>Node20&#45;&gt;Node21</title>
<path fill="none" stroke="#191970" d="M742.5,-270.1575C742.5,-261.155 742.5,-250.9199 742.5,-243.6427"/>
<polygon fill="#191970" stroke="#191970" points="739.0001,-270.2455 742.5,-280.2455 746.0001,-270.2456 739.0001,-270.2455"/>
</g>
<!-- Node21&#45;&gt;Node14 -->
<g id="edge22" class="edge">
<title>Node21&#45;&gt;Node14</title>
<path fill="none" stroke="#191970" d="M734.9372,-214.7493C731.3454,-205.6064 727.2099,-195.0798 724.2882,-187.6427"/>
<polygon fill="#191970" stroke="#191970" points="731.7537,-216.2178 738.6679,-224.2455 738.2689,-213.6582 731.7537,-216.2178"/>
</g>
<!-- Node21&#45;&gt;Node16 -->
<g id="edge23" class="edge">
<title>Node21&#45;&gt;Node16</title>
<path fill="none" stroke="#191970" d="M748.5856,-214.5856C757.1048,-189.3345 774.3035,-144.6047 798.5,-112 809.2745,-97.4814 825.2754,-84.184 836.6789,-75.6612"/>
<polygon fill="#191970" stroke="#191970" points="745.1534,-213.8212 745.3792,-224.4136 751.8082,-215.9924 745.1534,-213.8212"/>
</g>
<!-- Node23 -->
<g id="node21" class="node">
<title>Node23</title>
<g id="a_node21"><a xlink:href="api_2crypto_8h.html" target="_top" xlink:title="ODP crypto. ">
<polygon fill="#ffffff" stroke="#000000" points="832.5,-336.5 832.5,-355.5 888.5,-355.5 888.5,-336.5 832.5,-336.5"/>
<text text-anchor="middle" x="860.5" y="-343.5" font-family="Helvetica,sans-Serif" font-size="10.00" fill="#000000">crypto.h</text>
</a>
</g>
</g>
<!-- Node22&#45;&gt;Node23 -->
<g id="edge26" class="edge">
<title>Node22&#45;&gt;Node23</title>
<path fill="none" stroke="#191970" d="M851.675,-494.2601C853.8234,-458.1669 858.3116,-382.7656 859.915,-355.8279"/>
<polygon fill="#191970" stroke="#191970" points="848.1668,-494.2959 851.0663,-504.4862 855.1544,-494.7119 848.1668,-494.2959"/>
</g>
<!-- Node23&#45;&gt;Node14 -->
<g id="edge27" class="edge">
<title>Node23&#45;&gt;Node14</title>
<path fill="none" stroke="#191970" d="M853.6156,-327.0641C843.546,-301.3612 822.7655,-255.0785 793.5,-224 778.6092,-208.1867 757.1673,-195.5294 741.3727,-187.526"/>
<polygon fill="#191970" stroke="#191970" points="850.3454,-328.3116 857.162,-336.4224 856.8912,-325.831 850.3454,-328.3116"/>
</g>
<!-- Node23&#45;&gt;Node16 -->
<g id="edge28" class="edge">
<title>Node23&#45;&gt;Node16</title>
<path fill="none" stroke="#191970" d="M868.3415,-326.8271C876.6246,-304.8089 888.5,-267.4152 888.5,-234 888.5,-234 888.5,-234 888.5,-178 888.5,-138.1657 866.6774,-94.3859 856.107,-75.5166"/>
<polygon fill="#191970" stroke="#191970" points="865.0132,-325.7281 864.6315,-336.3161 871.5326,-328.2771 865.0132,-325.7281"/>
</g>
<!-- Node24&#45;&gt;Node18 -->
<g id="edge30" class="edge">
<title>Node24&#45;&gt;Node18</title>
<path fill="none" stroke="#191970" d="M763.5064,-386.2097C749.8071,-376.3743 732.6264,-364.0394 720.9309,-355.6427"/>
<polygon fill="#191970" stroke="#191970" points="761.7489,-389.2566 771.9134,-392.2455 765.8314,-383.5703 761.7489,-389.2566"/>
</g>
<!-- Node26 -->
<g id="node24" class="node">
<title>Node26</title>
<g id="a_node24"><a xlink:href="packet__io__stats_8h.html" target="_top" xlink:title="ODP packet IO stats. ">
<polygon fill="#ffffff" stroke="#000000" points="664.5,-504.5 664.5,-523.5 766.5,-523.5 766.5,-504.5 664.5,-504.5"/>
<text text-anchor="middle" x="715.5" y="-511.5" font-family="Helvetica,sans-Serif" font-size="10.00" fill="#000000">packet_io_stats.h</text>
</a>
</g>
</g>
<!-- Node25&#45;&gt;Node26 -->
<g id="edge32" class="edge">
<title>Node25&#45;&gt;Node26</title>
<path fill="none" stroke="#191970" d="M715.5,-550.1575C715.5,-541.155 715.5,-530.9199 715.5,-523.6427"/>
<polygon fill="#191970" stroke="#191970" points="712.0001,-550.2455 715.5,-560.2455 719.0001,-550.2456 712.0001,-550.2455"/>
</g>
<!-- Node26&#45;&gt;Node24 -->
<g id="edge33" class="edge">
<title>Node26&#45;&gt;Node24</title>
<path fill="none" stroke="#191970" d="M726.8171,-495.8927C741.8563,-471.8299 767.8842,-430.1853 779.5469,-411.5249"/>
<polygon fill="#191970" stroke="#191970" points="723.8002,-494.1159 721.4682,-504.4509 729.7362,-497.826 723.8002,-494.1159"/>
</g>
<!-- Node28 -->
<g id="node26" class="node">
<title>Node28</title>
<g id="a_node26"><a xlink:href="api_2spec_2queue_8h.html" target="_top" xlink:title="ODP queue. ">
<polygon fill="#ffffff" stroke="#000000" points="896.5,-504.5 896.5,-523.5 952.5,-523.5 952.5,-504.5 896.5,-504.5"/>
<text text-anchor="middle" x="924.5" y="-511.5" font-family="Helvetica,sans-Serif" font-size="10.00" fill="#000000">queue.h</text>
</a>
</g>
</g>
<!-- Node27&#45;&gt;Node28 -->
<g id="edge35" class="edge">
<title>Node27&#45;&gt;Node28</title>
<path fill="none" stroke="#191970" d="M923.8543,-550.1575C924.0151,-541.155 924.1979,-530.9199 924.3278,-523.6427"/>
<polygon fill="#191970" stroke="#191970" points="920.3534,-550.1846 923.6742,-560.2455 927.3523,-550.3097 920.3534,-550.1846"/>
</g>
<!-- Node29 -->
<g id="node27" class="node">
<title>Node29</title>
<g id="a_node27"><a xlink:href="api_2queue_8h.html" target="_top" xlink:title="ODP queue. ">
<polygon fill="#ffffff" stroke="#000000" points="896.5,-448.5 896.5,-467.5 952.5,-467.5 952.5,-448.5 896.5,-448.5"/>
<text text-anchor="middle" x="924.5" y="-455.5" font-family="Helvetica,sans-Serif" font-size="10.00" fill="#000000">queue.h</text>
</a>
</g>
</g>
<!-- Node28&#45;&gt;Node29 -->
<g id="edge36" class="edge">
<title>Node28&#45;&gt;Node29</title>
<path fill="none" stroke="#191970" d="M924.5,-494.1575C924.5,-485.155 924.5,-474.9199 924.5,-467.6427"/>
<polygon fill="#191970" stroke="#191970" points="921.0001,-494.2455 924.5,-504.2455 928.0001,-494.2456 921.0001,-494.2455"/>
</g>
<!-- Node29&#45;&gt;Node16 -->
<g id="edge42" class="edge">
<title>Node29&#45;&gt;Node16</title>
<path fill="none" stroke="#191970" d="M925.0672,-438.1971C925.6585,-415.8164 926.5,-378.2936 926.5,-346 926.5,-346 926.5,-346 926.5,-178 926.5,-133.3528 884.636,-93.2845 863.0499,-75.5918"/>
<polygon fill="#191970" stroke="#191970" points="921.5626,-438.3203 924.7866,-448.4127 928.5599,-438.5126 921.5626,-438.3203"/>
</g>
<!-- Node29&#45;&gt;Node23 -->
<g id="edge37" class="edge">
<title>Node29&#45;&gt;Node23</title>
<path fill="none" stroke="#191970" d="M913.9699,-439.5723C900.1925,-415.4618 876.5587,-374.1028 865.9428,-355.5249"/>
<polygon fill="#191970" stroke="#191970" points="911.0431,-441.505 919.0434,-448.4509 917.1208,-438.032 911.0431,-441.505"/>
</g>
<!-- Node29&#45;&gt;Node24 -->
<g id="edge38" class="edge">
<title>Node29&#45;&gt;Node24</title>
<path fill="none" stroke="#191970" d="M891.0379,-444.5189C865.7231,-434.3201 831.5897,-420.5685 809.0831,-411.5011"/>
<polygon fill="#191970" stroke="#191970" points="890.0216,-447.8827 900.605,-448.3733 892.6374,-441.3899 890.0216,-447.8827"/>
</g>
<!-- Node30 -->
<g id="node28" class="node">
<title>Node30</title>
<g id="a_node28"><a xlink:href="api_2spec_2schedule_8h.html" target="_top" xlink:title="ODP schedule. ">
<polygon fill="#ffffff" stroke="#000000" points="955,-392.5 955,-411.5 1024,-411.5 1024,-392.5 955,-392.5"/>
<text text-anchor="middle" x="989.5" y="-399.5" font-family="Helvetica,sans-Serif" font-size="10.00" fill="#000000">schedule.h</text>
</a>
</g>
</g>
<!-- Node29&#45;&gt;Node30 -->
<g id="edge39" class="edge">
<title>Node29&#45;&gt;Node30</title>
<path fill="none" stroke="#191970" d="M943.4835,-441.645C954.7879,-431.9058 968.747,-419.8795 978.3076,-411.6427"/>
<polygon fill="#191970" stroke="#191970" points="941.1138,-439.0668 935.8221,-448.2455 945.6827,-444.3701 941.1138,-439.0668"/>
</g>
<!-- Node31 -->
<g id="node29" class="node">
<title>Node31</title>
<g id="a_node29"><a xlink:href="api_2schedule_8h.html" target="_top" xlink:title="ODP schedule. ">
<polygon fill="#ffffff" stroke="#000000" points="955,-168.5 955,-187.5 1024,-187.5 1024,-168.5 955,-168.5"/>
<text text-anchor="middle" x="989.5" y="-175.5" font-family="Helvetica,sans-Serif" font-size="10.00" fill="#000000">schedule.h</text>
</a>
</g>
</g>
<!-- Node30&#45;&gt;Node31 -->
<g id="edge40" class="edge">
<title>Node30&#45;&gt;Node31</title>
<path fill="none" stroke="#191970" d="M989.5,-382.1177C989.5,-335.6713 989.5,-221.4223 989.5,-187.5891"/>
<polygon fill="#191970" stroke="#191970" points="986.0001,-382.375 989.5,-392.375 993.0001,-382.375 986.0001,-382.375"/>
</g>
<!-- Node31&#45;&gt;Node16 -->
<g id="edge41" class="edge">
<title>Node31&#45;&gt;Node16</title>
<path fill="none" stroke="#191970" d="M978.9888,-159.4439C970.1526,-145.101 956.4319,-125.4828 940.5,-112 921.3455,-95.7899 895.5077,-83.3363 876.4299,-75.5005"/>
<polygon fill="#191970" stroke="#191970" points="976.1825,-161.5737 984.2929,-168.3907 982.2038,-158.0038 976.1825,-161.5737"/>
</g>
</g>
</svg>
