<?xml version="1.0" encoding="UTF-8" standalone="no"?>
<!DOCTYPE svg PUBLIC "-//W3C//DTD SVG 1.1//EN"
 "http://www.w3.org/Graphics/SVG/1.1/DTD/svg11.dtd">
<!-- Generated by graphviz version 2.40.1 (20161225.0304)
 -->
<!-- Title: hints.h Pages: 1 -->
<svg width="456pt" height="252pt"
 viewBox="0.00 0.00 456.00 252.00" xmlns="http://www.w3.org/2000/svg" xmlns:xlink="http://www.w3.org/1999/xlink">
<g id="graph0" class="graph" transform="scale(1 1) rotate(0) translate(4 248)">
<title>hints.h</title>
<polygon fill="#ffffff" stroke="transparent" points="-4,4 -4,-248 452,-248 452,4 -4,4"/>
<!-- Node4 -->
<g id="node1" class="node">
<title>Node4</title>
<polygon fill="#bfbfbf" stroke="#000000" points="218,-224.5 218,-243.5 268,-243.5 268,-224.5 218,-224.5"/>
<text text-anchor="middle" x="243" y="-231.5" font-family="Helvetica,sans-Serif" font-size="10.00" fill="#000000">hints.h</text>
</g>
<!-- Node5 -->
<g id="node2" class="node">
<title>Node5</title>
<g id="a_node2"><a xlink:href="spec_2init_8h.html" target="_top" xlink:title="init.h">
<polygon fill="#ffffff" stroke="#000000" points="90.5,-168.5 90.5,-187.5 131.5,-187.5 131.5,-168.5 90.5,-168.5"/>
<text text-anchor="middle" x="111" y="-175.5" font-family="Helvetica,sans-Serif" font-size="10.00" fill="#000000">init.h</text>
</a>
</g>
</g>
<!-- Node4&#45;&gt;Node5 -->
<g id="edge1" class="edge">
<title>Node4&#45;&gt;Node5</title>
<path fill="none" stroke="#191970" d="M210.9907,-220.4203C186.313,-209.951 152.9153,-195.7823 131.6601,-186.7649"/>
<polygon fill="#191970" stroke="#191970" points="209.7356,-223.6897 220.3084,-224.3733 212.4695,-217.2457 209.7356,-223.6897"/>
</g>
<!-- Node10 -->
<g id="node7" class="node">
<title>Node10</title>
<g id="a_node7"><a xlink:href="cpu__inlines_8h_source.html" target="_top" xlink:title="cpu_inlines.h">
<polygon fill="#ffffff" stroke="#000000" points="150,-168.5 150,-187.5 230,-187.5 230,-168.5 150,-168.5"/>
<text text-anchor="middle" x="190" y="-175.5" font-family="Helvetica,sans-Serif" font-size="10.00" fill="#000000">cpu_inlines.h</text>
</a>
</g>
</g>
<!-- Node4&#45;&gt;Node10 -->
<g id="edge6" class="edge">
<title>Node4&#45;&gt;Node10</title>
<path fill="none" stroke="#191970" d="M226.7104,-216.7884C217.6438,-207.2085 206.6946,-195.6396 199.1261,-187.6427"/>
<polygon fill="#191970" stroke="#191970" points="224.3522,-219.3884 233.7681,-224.2455 229.4363,-214.5767 224.3522,-219.3884"/>
</g>
<!-- Node11 -->
<g id="node8" class="node">
<title>Node11</title>
<g id="a_node8"><a xlink:href="packet__inlines_8h.html" target="_top" xlink:title="ODP packet inline functions. ">
<polygon fill="#ffffff" stroke="#000000" points="248,-168.5 248,-187.5 344,-187.5 344,-168.5 248,-168.5"/>
<text text-anchor="middle" x="296" y="-175.5" font-family="Helvetica,sans-Serif" font-size="10.00" fill="#000000">packet_inlines.h</text>
</a>
</g>
</g>
<!-- Node4&#45;&gt;Node11 -->
<g id="edge7" class="edge">
<title>Node4&#45;&gt;Node11</title>
<path fill="none" stroke="#191970" d="M259.2896,-216.7884C268.3562,-207.2085 279.3054,-195.6396 286.8739,-187.6427"/>
<polygon fill="#191970" stroke="#191970" points="256.5637,-214.5767 252.2319,-224.2455 261.6478,-219.3884 256.5637,-214.5767"/>
</g>
<!-- Node12 -->
<g id="node9" class="node">
<title>Node12</title>
<g id="a_node9"><a xlink:href="time__inlines_8h_source.html" target="_top" xlink:title="time_inlines.h">
<polygon fill="#ffffff" stroke="#000000" points="362,-168.5 362,-187.5 448,-187.5 448,-168.5 362,-168.5"/>
<text text-anchor="middle" x="405" y="-175.5" font-family="Helvetica,sans-Serif" font-size="10.00" fill="#000000">time_inlines.h</text>
</a>
</g>
</g>
<!-- Node4&#45;&gt;Node12 -->
<g id="edge8" class="edge">
<title>Node4&#45;&gt;Node12</title>
<path fill="none" stroke="#191970" d="M277.8984,-221.9363C307.691,-211.6377 349.9579,-197.0269 377.4271,-187.5314"/>
<polygon fill="#191970" stroke="#191970" points="276.6202,-218.6749 268.3125,-225.25 278.9073,-225.2908 276.6202,-218.6749"/>
</g>
<!-- Node6 -->
<g id="node3" class="node">
<title>Node6</title>
<g id="a_node3"><a xlink:href="init_8h.html" target="_top" xlink:title="ODP initialization. ">
<polygon fill="#ffffff" stroke="#000000" points="90.5,-112.5 90.5,-131.5 131.5,-131.5 131.5,-112.5 90.5,-112.5"/>
<text text-anchor="middle" x="111" y="-119.5" font-family="Helvetica,sans-Serif" font-size="10.00" fill="#000000">init.h</text>
</a>
</g>
</g>
<!-- Node5&#45;&gt;Node6 -->
<g id="edge2" class="edge">
<title>Node5&#45;&gt;Node6</title>
<path fill="none" stroke="#191970" d="M111,-158.1575C111,-149.155 111,-138.9199 111,-131.6427"/>
<polygon fill="#191970" stroke="#191970" points="107.5001,-158.2455 111,-168.2455 114.5001,-158.2456 107.5001,-158.2455"/>
</g>
<!-- Node7 -->
<g id="node4" class="node">
<title>Node7</title>
<g id="a_node4"><a xlink:href="spec_2shared__memory_8h.html" target="_top" xlink:title="ODP shared memory. ">
<polygon fill="#ffffff" stroke="#000000" points="0,-56.5 0,-75.5 104,-75.5 104,-56.5 0,-56.5"/>
<text text-anchor="middle" x="52" y="-63.5" font-family="Helvetica,sans-Serif" font-size="10.00" fill="#000000">shared_memory.h</text>
</a>
</g>
</g>
<!-- Node6&#45;&gt;Node7 -->
<g id="edge3" class="edge">
<title>Node6&#45;&gt;Node7</title>
<path fill="none" stroke="#191970" d="M93.4693,-105.3607C83.2623,-95.6727 70.7531,-83.7995 62.1592,-75.6427"/>
<polygon fill="#191970" stroke="#191970" points="91.0604,-107.8998 100.723,-112.2455 95.8794,-102.8227 91.0604,-107.8998"/>
</g>
<!-- Node9 -->
<g id="node6" class="node">
<title>Node9</title>
<g id="a_node6"><a xlink:href="thread__inlines_8h_source.html" target="_top" xlink:title="thread_inlines.h">
<polygon fill="#ffffff" stroke="#000000" points="122.5,-56.5 122.5,-75.5 217.5,-75.5 217.5,-56.5 122.5,-56.5"/>
<text text-anchor="middle" x="170" y="-63.5" font-family="Helvetica,sans-Serif" font-size="10.00" fill="#000000">thread_inlines.h</text>
</a>
</g>
</g>
<!-- Node6&#45;&gt;Node9 -->
<g id="edge5" class="edge">
<title>Node6&#45;&gt;Node9</title>
<path fill="none" stroke="#191970" d="M128.5307,-105.3607C138.7377,-95.6727 151.2469,-83.7995 159.8408,-75.6427"/>
<polygon fill="#191970" stroke="#191970" points="126.1206,-102.8227 121.277,-112.2455 130.9396,-107.8998 126.1206,-102.8227"/>
</g>
<!-- Node8 -->
<g id="node5" class="node">
<title>Node8</title>
<g id="a_node5"><a xlink:href="shared__memory_8h.html" target="_top" xlink:title="ODP shared memory. ">
<polygon fill="#ffffff" stroke="#000000" points="0,-.5 0,-19.5 104,-19.5 104,-.5 0,-.5"/>
<text text-anchor="middle" x="52" y="-7.5" font-family="Helvetica,sans-Serif" font-size="10.00" fill="#000000">shared_memory.h</text>
</a>
</g>
</g>
<!-- Node7&#45;&gt;Node8 -->
<g id="edge4" class="edge">
<title>Node7&#45;&gt;Node8</title>
<path fill="none" stroke="#191970" d="M52,-46.1575C52,-37.155 52,-26.9199 52,-19.6427"/>
<polygon fill="#191970" stroke="#191970" points="48.5001,-46.2455 52,-56.2455 55.5001,-46.2456 48.5001,-46.2455"/>
</g>
</g>
</svg>
