<?xml version="1.0" encoding="UTF-8" standalone="no"?>
<!DOCTYPE svg PUBLIC "-//W3C//DTD SVG 1.1//EN"
 "http://www.w3.org/Graphics/SVG/1.1/DTD/svg11.dtd">
<!-- Generated by graphviz version 2.40.1 (20161225.0304)
 -->
<!-- Title: packet_inlines.h Pages: 1 -->
<svg width="1828pt" height="453pt"
 viewBox="0.00 0.00 1827.50 453.00" xmlns="http://www.w3.org/2000/svg" xmlns:xlink="http://www.w3.org/1999/xlink">
<g id="graph0" class="graph" transform="scale(1 1) rotate(0) translate(4 449)">
<title>packet_inlines.h</title>
<polygon fill="#ffffff" stroke="transparent" points="-4,4 -4,-449 1823.5,-449 1823.5,4 -4,4"/>
<!-- Node0 -->
<g id="node1" class="node">
<title>Node0</title>
<polygon fill="#bfbfbf" stroke="#000000" points="1000.5,-425.5 1000.5,-444.5 1096.5,-444.5 1096.5,-425.5 1000.5,-425.5"/>
<text text-anchor="middle" x="1048.5" y="-432.5" font-family="Helvetica,sans-Serif" font-size="10.00" fill="#000000">packet_inlines.h</text>
</g>
<!-- Node1 -->
<g id="node2" class="node">
<title>Node1</title>
<polygon fill="#ffffff" stroke="#bfbfbf" points="381.5,-364 381.5,-383 497.5,-383 497.5,-364 381.5,-364"/>
<text text-anchor="middle" x="439.5" y="-371" font-family="Helvetica,sans-Serif" font-size="10.00" fill="#000000">odp/api/abi/packet.h</text>
</g>
<!-- Node0&#45;&gt;Node1 -->
<g id="edge1" class="edge">
<title>Node0&#45;&gt;Node1</title>
<path fill="none" stroke="#191970" d="M1000.4893,-432.9289C906.2882,-428.4152 690.7911,-415.8675 511.5,-389 504.2843,-387.9187 496.7081,-386.5493 489.2906,-385.0741"/>
<polygon fill="#191970" stroke="#191970" points="489.8245,-381.6105 479.323,-383.0137 488.4075,-388.4656 489.8245,-381.6105"/>
</g>
<!-- Node2 -->
<g id="node3" class="node">
<title>Node2</title>
<g id="a_node3"><a xlink:href="pool_8h.html" target="_top" xlink:title="ODP pool. ">
<polygon fill="#ffffff" stroke="#000000" points="553.5,-364 553.5,-383 639.5,-383 639.5,-364 553.5,-364"/>
<text text-anchor="middle" x="596.5" y="-371" font-family="Helvetica,sans-Serif" font-size="10.00" fill="#000000">odp/api/pool.h</text>
</a>
</g>
</g>
<!-- Node0&#45;&gt;Node2 -->
<g id="edge2" class="edge">
<title>Node0&#45;&gt;Node2</title>
<path fill="none" stroke="#191970" d="M1000.3391,-428.7084C933.7956,-419.9814 809.99,-403.6226 704.5,-389 686.6197,-386.5215 667.0856,-383.7404 649.6066,-381.2254"/>
<polygon fill="#191970" stroke="#191970" points="649.978,-377.7428 639.5808,-379.7797 648.9789,-384.6712 649.978,-377.7428"/>
</g>
<!-- Node5 -->
<g id="node6" class="node">
<title>Node5</title>
<polygon fill="#ffffff" stroke="#bfbfbf" points="641.5,-297 641.5,-316 751.5,-316 751.5,-297 641.5,-297"/>
<text text-anchor="middle" x="696.5" y="-304" font-family="Helvetica,sans-Serif" font-size="10.00" fill="#000000">odp/api/abi/event.h</text>
</g>
<!-- Node0&#45;&gt;Node5 -->
<g id="edge32" class="edge">
<title>Node0&#45;&gt;Node5</title>
<path fill="none" stroke="#191970" d="M1000.2316,-431.2346C930.2524,-425.0958 804.6989,-411.3244 765.5,-389 738.85,-373.8224 717.9934,-344.1594 706.4665,-324.8466"/>
<polygon fill="#191970" stroke="#191970" points="709.4451,-323.0046 701.4402,-316.064 703.3697,-326.4817 709.4451,-323.0046"/>
</g>
<!-- Node16 -->
<g id="node17" class="node">
<title>Node16</title>
<polygon fill="#ffffff" stroke="#bfbfbf" points="845.5,-364 845.5,-383 975.5,-383 975.5,-364 845.5,-364"/>
<text text-anchor="middle" x="910.5" y="-371" font-family="Helvetica,sans-Serif" font-size="10.00" fill="#000000">odp/api/abi/packet_io.h</text>
</g>
<!-- Node0&#45;&gt;Node16 -->
<g id="edge20" class="edge">
<title>Node0&#45;&gt;Node16</title>
<path fill="none" stroke="#191970" d="M1026.9375,-425.3906C1003.9488,-415.1457 967.344,-398.8326 941.3176,-387.2339"/>
<polygon fill="#191970" stroke="#191970" points="942.4698,-383.9156 931.9111,-383.0419 939.6204,-390.3095 942.4698,-383.9156"/>
</g>
<!-- Node17 -->
<g id="node18" class="node">
<title>Node17</title>
<g id="a_node18"><a xlink:href="hints_8h.html" target="_top" xlink:title="ODP compiler hints. ">
<polygon fill="#ffffff" stroke="#000000" points="735,-168.5 735,-187.5 824,-187.5 824,-168.5 735,-168.5"/>
<text text-anchor="middle" x="779.5" y="-175.5" font-family="Helvetica,sans-Serif" font-size="10.00" fill="#000000">odp/api/hints.h</text>
</a>
</g>
</g>
<!-- Node0&#45;&gt;Node17 -->
<g id="edge21" class="edge">
<title>Node0&#45;&gt;Node17</title>
<path fill="none" stroke="#191970" d="M1000.1664,-430.3277C945.0685,-424.0307 859.6289,-410.9966 836.5,-389 782.2129,-337.3707 777.7584,-239.8734 778.5612,-197.9682"/>
<polygon fill="#191970" stroke="#191970" points="782.0678,-197.8143 778.89,-187.7073 775.0714,-197.5901 782.0678,-197.8143"/>
</g>
<!-- Node19 -->
<g id="node20" class="node">
<title>Node19</title>
<g id="a_node20"><a xlink:href="time_8h.html" target="_top" xlink:title="ODP time. ">
<polygon fill="#ffffff" stroke="#000000" points="136,-297 136,-316 223,-316 223,-297 136,-297"/>
<text text-anchor="middle" x="179.5" y="-304" font-family="Helvetica,sans-Serif" font-size="10.00" fill="#000000">odp/api/time.h</text>
</a>
</g>
</g>
<!-- Node0&#45;&gt;Node19 -->
<g id="edge25" class="edge">
<title>Node0&#45;&gt;Node19</title>
<path fill="none" stroke="#191970" d="M1000.4343,-434.174C890.9855,-431.7239 626.3524,-422.4218 544.5,-389 524.3214,-380.7607 526.4625,-366.7499 506.5,-358 402.8797,-312.5815 365.9512,-341.4582 254.5,-322 247.6359,-320.8016 240.4391,-319.4443 233.3335,-318.0434"/>
<polygon fill="#191970" stroke="#191970" points="233.5313,-314.5132 223.0375,-315.9731 232.1513,-321.3758 233.5313,-314.5132"/>
</g>
<!-- Node22 -->
<g id="node23" class="node">
<title>Node22</title>
<polygon fill="#ffffff" stroke="#bfbfbf" points="993.5,-364 993.5,-383 1103.5,-383 1103.5,-364 993.5,-364"/>
<text text-anchor="middle" x="1048.5" y="-371" font-family="Helvetica,sans-Serif" font-size="10.00" fill="#000000">odp/api/abi/buffer.h</text>
</g>
<!-- Node0&#45;&gt;Node22 -->
<g id="edge31" class="edge">
<title>Node0&#45;&gt;Node22</title>
<path fill="none" stroke="#191970" d="M1048.5,-425.3906C1048.5,-416.8657 1048.5,-404.1392 1048.5,-393.4235"/>
<polygon fill="#191970" stroke="#191970" points="1052.0001,-393.2448 1048.5,-383.2449 1045.0001,-393.2449 1052.0001,-393.2448"/>
</g>
<!-- Node23 -->
<g id="node24" class="node">
<title>Node23</title>
<g id="a_node24"><a xlink:href="packet__inline__types_8h.html" target="_top" xlink:title="ODP packet descriptor. ">
<polygon fill="#ffffff" stroke="#000000" points="641.5,-224.5 641.5,-254.5 751.5,-254.5 751.5,-224.5 641.5,-224.5"/>
<text text-anchor="start" x="649.5" y="-242.5" font-family="Helvetica,sans-Serif" font-size="10.00" fill="#000000">odp/api/plat/packet</text>
<text text-anchor="middle" x="696.5" y="-231.5" font-family="Helvetica,sans-Serif" font-size="10.00" fill="#000000">_inline_types.h</text>
</a>
</g>
</g>
<!-- Node0&#45;&gt;Node23 -->
<g id="edge33" class="edge">
<title>Node0&#45;&gt;Node23</title>
<path fill="none" stroke="#191970" d="M1000.0574,-428.4104C946.2004,-420.4083 863.2631,-405.8694 836.5,-389 789.8717,-359.6091 799.1229,-330.323 760.5,-291 749.8849,-280.1925 737.0606,-269.4874 725.6878,-260.6603"/>
<polygon fill="#191970" stroke="#191970" points="727.792,-257.8634 717.7155,-254.5901 723.5514,-263.4328 727.792,-257.8634"/>
</g>
<!-- Node24 -->
<g id="node25" class="node">
<title>Node24</title>
<g id="a_node25"><a xlink:href="pool__inline__types_8h.html" target="_top" xlink:title="ODP packet descriptor. ">
<polygon fill="#ffffff" stroke="#000000" points="1122,-358.5 1122,-388.5 1253,-388.5 1253,-358.5 1122,-358.5"/>
<text text-anchor="start" x="1130" y="-376.5" font-family="Helvetica,sans-Serif" font-size="10.00" fill="#000000">odp/api/plat/pool_inline</text>
<text text-anchor="middle" x="1187.5" y="-365.5" font-family="Helvetica,sans-Serif" font-size="10.00" fill="#000000">_types.h</text>
</a>
</g>
</g>
<!-- Node0&#45;&gt;Node24 -->
<g id="edge35" class="edge">
<title>Node0&#45;&gt;Node24</title>
<path fill="none" stroke="#191970" d="M1070.2188,-425.3906C1089.9016,-416.682 1119.4944,-403.5888 1144.0288,-392.7336"/>
<polygon fill="#191970" stroke="#191970" points="1145.768,-395.7915 1153.4968,-388.5446 1142.9357,-389.3901 1145.768,-395.7915"/>
</g>
<!-- Node25 -->
<g id="node26" class="node">
<title>Node25</title>
<g id="a_node26"><a xlink:href="pktio__inlines_8h_source.html" target="_top" xlink:title="odp/api/plat/pktio\l_inlines.h">
<polygon fill="#ffffff" stroke="#000000" points="1271.5,-358.5 1271.5,-388.5 1373.5,-388.5 1373.5,-358.5 1271.5,-358.5"/>
<text text-anchor="start" x="1279.5" y="-376.5" font-family="Helvetica,sans-Serif" font-size="10.00" fill="#000000">odp/api/plat/pktio</text>
<text text-anchor="middle" x="1322.5" y="-365.5" font-family="Helvetica,sans-Serif" font-size="10.00" fill="#000000">_inlines.h</text>
</a>
</g>
</g>
<!-- Node0&#45;&gt;Node25 -->
<g id="edge36" class="edge">
<title>Node0&#45;&gt;Node25</title>
<path fill="none" stroke="#191970" d="M1095.8011,-425.4141C1137.0416,-416.9255 1198.7079,-403.9193 1261.4041,-389.2093"/>
<polygon fill="#191970" stroke="#191970" points="1262.543,-392.5367 1271.4723,-386.8342 1260.9358,-385.7237 1262.543,-392.5367"/>
</g>
<!-- Node26 -->
<g id="node27" class="node">
<title>Node26</title>
<polygon fill="#ffffff" stroke="#bfbfbf" points="1392,-364 1392,-383 1445,-383 1445,-364 1392,-364"/>
<text text-anchor="middle" x="1418.5" y="-371" font-family="Helvetica,sans-Serif" font-size="10.00" fill="#000000">string.h</text>
</g>
<!-- Node0&#45;&gt;Node26 -->
<g id="edge37" class="edge">
<title>Node0&#45;&gt;Node26</title>
<path fill="none" stroke="#191970" d="M1096.6121,-432.45C1162.2654,-428.0549 1283.1197,-416.6879 1382.5,-389 1384.8229,-388.3528 1387.1926,-387.5878 1389.5515,-386.75"/>
<polygon fill="#191970" stroke="#191970" points="1391.0202,-389.9333 1399.0411,-383.0112 1388.4542,-383.4205 1391.0202,-389.9333"/>
</g>
<!-- Node27 -->
<g id="node28" class="node">
<title>Node27</title>
<polygon fill="#ffffff" stroke="#bfbfbf" points="1463.5,-364 1463.5,-383 1535.5,-383 1535.5,-364 1463.5,-364"/>
<text text-anchor="middle" x="1499.5" y="-371" font-family="Helvetica,sans-Serif" font-size="10.00" fill="#000000">sys/types.h</text>
</g>
<!-- Node0&#45;&gt;Node27 -->
<g id="edge38" class="edge">
<title>Node0&#45;&gt;Node27</title>
<path fill="none" stroke="#191970" d="M1096.5688,-432.9587C1173.146,-428.9485 1327.1867,-417.7731 1454.5,-389 1458.0966,-388.1872 1461.8067,-387.1867 1465.4815,-386.0888"/>
<polygon fill="#191970" stroke="#191970" points="1466.5776,-389.4128 1475.0238,-383.0166 1464.4324,-382.7497 1466.5776,-389.4128"/>
</g>
<!-- Node28 -->
<g id="node29" class="node">
<title>Node28</title>
<polygon fill="#ffffff" stroke="#bfbfbf" points="1553.5,-364 1553.5,-383 1627.5,-383 1627.5,-364 1553.5,-364"/>
<text text-anchor="middle" x="1590.5" y="-371" font-family="Helvetica,sans-Serif" font-size="10.00" fill="#000000">rte_config.h</text>
</g>
<!-- Node0&#45;&gt;Node28 -->
<g id="edge39" class="edge">
<title>Node0&#45;&gt;Node28</title>
<path fill="none" stroke="#191970" d="M1096.5877,-434.2383C1185.8254,-432.0114 1382.6961,-423.2746 1544.5,-389 1548.179,-388.2207 1551.9732,-387.2421 1555.7306,-386.1573"/>
<polygon fill="#191970" stroke="#191970" points="1556.9894,-389.4308 1565.4863,-383.1021 1554.8973,-382.7507 1556.9894,-389.4308"/>
</g>
<!-- Node29 -->
<g id="node30" class="node">
<title>Node29</title>
<polygon fill="#ffffff" stroke="#bfbfbf" points="1646,-364 1646,-383 1715,-383 1715,-364 1646,-364"/>
<text text-anchor="middle" x="1680.5" y="-371" font-family="Helvetica,sans-Serif" font-size="10.00" fill="#000000">rte_mbuf.h</text>
</g>
<!-- Node0&#45;&gt;Node29 -->
<g id="edge40" class="edge">
<title>Node0&#45;&gt;Node29</title>
<path fill="none" stroke="#191970" d="M1096.5418,-432.8565C1217.762,-427.1889 1533.6902,-410.7396 1636.5,-389 1640.1202,-388.2345 1643.8496,-387.2485 1647.534,-386.1452"/>
<polygon fill="#191970" stroke="#191970" points="1648.661,-389.4591 1657.0756,-383.0213 1646.4829,-382.8066 1648.661,-389.4591"/>
</g>
<!-- Node30 -->
<g id="node31" class="node">
<title>Node30</title>
<polygon fill="#ffffff" stroke="#bfbfbf" points="1733.5,-364 1733.5,-383 1819.5,-383 1819.5,-364 1733.5,-364"/>
<text text-anchor="middle" x="1776.5" y="-371" font-family="Helvetica,sans-Serif" font-size="10.00" fill="#000000">rte_memcpy.h</text>
</g>
<!-- Node0&#45;&gt;Node30 -->
<g id="edge41" class="edge">
<title>Node0&#45;&gt;Node30</title>
<path fill="none" stroke="#191970" d="M1096.7376,-433.1092C1230.4103,-427.6479 1603.6788,-410.8382 1724.5,-389 1729.2335,-388.1444 1734.1476,-387.0135 1738.9818,-385.7511"/>
<polygon fill="#191970" stroke="#191970" points="1740.0269,-389.0931 1748.7092,-383.0212 1738.1354,-382.3534 1740.0269,-389.0931"/>
</g>
<!-- Node3 -->
<g id="node4" class="node">
<title>Node3</title>
<polygon fill="#ffffff" stroke="#bfbfbf" points="389.5,-297 389.5,-316 493.5,-316 493.5,-297 389.5,-297"/>
<text text-anchor="middle" x="441.5" y="-304" font-family="Helvetica,sans-Serif" font-size="10.00" fill="#000000">odp/api/abi/pool.h</text>
</g>
<!-- Node2&#45;&gt;Node3 -->
<g id="edge3" class="edge">
<title>Node2&#45;&gt;Node3</title>
<path fill="none" stroke="#191970" d="M574.2923,-363.9005C547.7043,-352.4077 502.9998,-333.0838 472.8886,-320.068"/>
<polygon fill="#191970" stroke="#191970" points="474.2344,-316.8368 463.6665,-316.0817 471.4569,-323.2622 474.2344,-316.8368"/>
</g>
<!-- Node4 -->
<g id="node5" class="node">
<title>Node4</title>
<polygon fill="#ffffff" stroke="#bfbfbf" points="264,-291.5 264,-321.5 371,-321.5 371,-291.5 264,-291.5"/>
<text text-anchor="start" x="272" y="-309.5" font-family="Helvetica,sans-Serif" font-size="10.00" fill="#000000">odp/api/abi/shared</text>
<text text-anchor="middle" x="317.5" y="-298.5" font-family="Helvetica,sans-Serif" font-size="10.00" fill="#000000">_memory.h</text>
</g>
<!-- Node2&#45;&gt;Node4 -->
<g id="edge4" class="edge">
<title>Node2&#45;&gt;Node4</title>
<path fill="none" stroke="#191970" d="M562.5032,-363.9992C554.9461,-361.9588 546.9634,-359.8588 539.5,-358 472.2133,-341.2422 452.6733,-338.8423 381.0685,-322.1031"/>
<polygon fill="#191970" stroke="#191970" points="381.6356,-318.641 371.0999,-319.7591 380.0333,-325.4552 381.6356,-318.641"/>
</g>
<!-- Node2&#45;&gt;Node5 -->
<g id="edge5" class="edge">
<title>Node2&#45;&gt;Node5</title>
<path fill="none" stroke="#191970" d="M610.8276,-363.9005C627.2385,-352.9052 654.3475,-334.7422 673.6751,-321.7927"/>
<polygon fill="#191970" stroke="#191970" points="675.8395,-324.5556 682.199,-316.0817 671.9431,-318.7402 675.8395,-324.5556"/>
</g>
<!-- Node6 -->
<g id="node7" class="node">
<title>Node6</title>
<g id="a_node7"><a xlink:href="spec_2pool_8h.html" target="_top" xlink:title="ODP pool. ">
<polygon fill="#ffffff" stroke="#000000" points="512,-297 512,-316 623,-316 623,-297 512,-297"/>
<text text-anchor="middle" x="567.5" y="-304" font-family="Helvetica,sans-Serif" font-size="10.00" fill="#000000">odp/api/spec/pool.h</text>
</a>
</g>
</g>
<!-- Node2&#45;&gt;Node6 -->
<g id="edge6" class="edge">
<title>Node2&#45;&gt;Node6</title>
<path fill="none" stroke="#191970" d="M592.345,-363.9005C588.0381,-353.95 581.1903,-338.1292 575.7735,-325.6147"/>
<polygon fill="#191970" stroke="#191970" points="578.8316,-323.8686 571.6473,-316.0817 572.4075,-326.6492 578.8316,-323.8686"/>
</g>
<!-- Node7 -->
<g id="node8" class="node">
<title>Node7</title>
<polygon fill="#ffffff" stroke="#bfbfbf" points="553,-.5 553,-19.5 674,-19.5 674,-.5 553,-.5"/>
<text text-anchor="middle" x="613.5" y="-7.5" font-family="Helvetica,sans-Serif" font-size="10.00" fill="#000000">odp/visibility_begin.h</text>
</g>
<!-- Node6&#45;&gt;Node7 -->
<g id="edge7" class="edge">
<title>Node6&#45;&gt;Node7</title>
<path fill="none" stroke="#191970" d="M574.9168,-296.6939C586.7945,-281.0807 610.9419,-249.7086 632.5,-224 689.1331,-156.4634 733.1081,-158.3592 764.5,-76 767.6659,-67.694 769.7909,-63.1427 764.5,-56 753.7274,-41.4569 713.8748,-29.6755 677.8172,-21.6774"/>
<polygon fill="#191970" stroke="#191970" points="678.2869,-18.1986 667.7751,-19.5227 676.8183,-25.0428 678.2869,-18.1986"/>
</g>
<!-- Node8 -->
<g id="node9" class="node">
<title>Node8</title>
<g id="a_node9"><a xlink:href="std__types_8h.html" target="_top" xlink:title="Standard C language types and definitions for ODP. ">
<polygon fill="#ffffff" stroke="#000000" points="407.5,-230 407.5,-249 519.5,-249 519.5,-230 407.5,-230"/>
<text text-anchor="middle" x="463.5" y="-237" font-family="Helvetica,sans-Serif" font-size="10.00" fill="#000000">odp/api/std_types.h</text>
</a>
</g>
</g>
<!-- Node6&#45;&gt;Node8 -->
<g id="edge8" class="edge">
<title>Node6&#45;&gt;Node8</title>
<path fill="none" stroke="#191970" d="M552.5993,-296.9005C535.4547,-285.8554 507.0832,-267.5776 486.9655,-254.6172"/>
<polygon fill="#191970" stroke="#191970" points="488.6751,-251.5552 478.373,-249.0817 484.884,-257.4397 488.6751,-251.5552"/>
</g>
<!-- Node15 -->
<g id="node16" class="node">
<title>Node15</title>
<polygon fill="#ffffff" stroke="#bfbfbf" points="261.5,-.5 261.5,-19.5 373.5,-19.5 373.5,-.5 261.5,-.5"/>
<text text-anchor="middle" x="317.5" y="-7.5" font-family="Helvetica,sans-Serif" font-size="10.00" fill="#000000">odp/visibility_end.h</text>
</g>
<!-- Node6&#45;&gt;Node15 -->
<g id="edge19" class="edge">
<title>Node6&#45;&gt;Node15</title>
<path fill="none" stroke="#191970" d="M530.5666,-296.9177C488.1979,-285.634 421.5995,-266.9225 398.5,-255 282.7714,-195.2683 223.9462,-192.88 166.5,-76 147.6097,-37.5657 202.4363,-21.5128 251.2313,-14.8082"/>
<polygon fill="#191970" stroke="#191970" points="251.7204,-18.2743 261.2043,-13.5513 250.8451,-11.3292 251.7204,-18.2743"/>
</g>
<!-- Node9 -->
<g id="node10" class="node">
<title>Node9</title>
<polygon fill="#ffffff" stroke="#bfbfbf" points="333.5,-168.5 333.5,-187.5 463.5,-187.5 463.5,-168.5 333.5,-168.5"/>
<text text-anchor="middle" x="398.5" y="-175.5" font-family="Helvetica,sans-Serif" font-size="10.00" fill="#000000">odp/api/abi/std_types.h</text>
</g>
<!-- Node8&#45;&gt;Node9 -->
<g id="edge9" class="edge">
<title>Node8&#45;&gt;Node9</title>
<path fill="none" stroke="#191970" d="M453.3438,-229.8906C443.4801,-220.5581 428.2945,-206.1902 416.4013,-194.9374"/>
<polygon fill="#191970" stroke="#191970" points="418.4689,-192.0753 408.7994,-187.7449 413.6579,-197.1601 418.4689,-192.0753"/>
</g>
<!-- Node10 -->
<g id="node11" class="node">
<title>Node10</title>
<g id="a_node11"><a xlink:href="spec_2std__types_8h.html" target="_top" xlink:title="Standard C language types and definitions for ODP. ">
<polygon fill="#ffffff" stroke="#000000" points="482,-168.5 482,-187.5 619,-187.5 619,-168.5 482,-168.5"/>
<text text-anchor="middle" x="550.5" y="-175.5" font-family="Helvetica,sans-Serif" font-size="10.00" fill="#000000">odp/api/spec/std_types.h</text>
</a>
</g>
</g>
<!-- Node8&#45;&gt;Node10 -->
<g id="edge10" class="edge">
<title>Node8&#45;&gt;Node10</title>
<path fill="none" stroke="#191970" d="M477.0938,-229.8906C490.8843,-220.1421 512.4472,-204.8994 528.641,-193.4521"/>
<polygon fill="#191970" stroke="#191970" points="530.8563,-196.1723 537.0017,-187.5419 526.8156,-190.4563 530.8563,-196.1723"/>
</g>
<!-- Node10&#45;&gt;Node7 -->
<g id="edge11" class="edge">
<title>Node10&#45;&gt;Node7</title>
<path fill="none" stroke="#191970" d="M558.7285,-168.4021C565.9613,-159.5065 576.2775,-145.6284 582.5,-132 598.1637,-97.6939 606.7964,-54.2009 610.7595,-29.496"/>
<polygon fill="#191970" stroke="#191970" points="614.2262,-29.9785 612.2602,-19.5677 607.3048,-28.9322 614.2262,-29.9785"/>
</g>
<!-- Node11 -->
<g id="node12" class="node">
<title>Node11</title>
<polygon fill="#ffffff" stroke="#bfbfbf" points="642,-112.5 642,-131.5 695,-131.5 695,-112.5 642,-112.5"/>
<text text-anchor="middle" x="668.5" y="-119.5" font-family="Helvetica,sans-Serif" font-size="10.00" fill="#000000">stdint.h</text>
</g>
<!-- Node10&#45;&gt;Node11 -->
<g id="edge12" class="edge">
<title>Node10&#45;&gt;Node11</title>
<path fill="none" stroke="#191970" d="M570.7849,-168.3733C589.6421,-159.4241 617.946,-145.9917 639.2455,-135.8835"/>
<polygon fill="#191970" stroke="#191970" points="640.9461,-138.9506 648.4798,-131.5011 637.9449,-132.6266 640.9461,-138.9506"/>
</g>
<!-- Node12 -->
<g id="node13" class="node">
<title>Node12</title>
<g id="a_node13"><a xlink:href="align_8h.html" target="_top" xlink:title="ODP alignments. ">
<polygon fill="#ffffff" stroke="#000000" points="484,-112.5 484,-131.5 573,-131.5 573,-112.5 484,-112.5"/>
<text text-anchor="middle" x="528.5" y="-119.5" font-family="Helvetica,sans-Serif" font-size="10.00" fill="#000000">odp/api/align.h</text>
</a>
</g>
</g>
<!-- Node10&#45;&gt;Node12 -->
<g id="edge13" class="edge">
<title>Node10&#45;&gt;Node12</title>
<path fill="none" stroke="#191970" d="M546.6679,-168.2455C543.7341,-160.7776 539.5953,-150.2427 536.009,-141.1137"/>
<polygon fill="#191970" stroke="#191970" points="539.2024,-139.6704 532.2882,-131.6427 532.6871,-142.23 539.2024,-139.6704"/>
</g>
<!-- Node10&#45;&gt;Node15 -->
<g id="edge18" class="edge">
<title>Node10&#45;&gt;Node15</title>
<path fill="none" stroke="#191970" d="M507.336,-168.428C459.1472,-155.5353 382.0908,-127.9608 337.5,-76 326.4256,-63.0952 321.4833,-44.1941 319.2776,-29.9226"/>
<polygon fill="#191970" stroke="#191970" points="322.7128,-29.1767 318.0306,-19.6727 315.764,-30.0222 322.7128,-29.1767"/>
</g>
<!-- Node13 -->
<g id="node14" class="node">
<title>Node13</title>
<polygon fill="#ffffff" stroke="#bfbfbf" points="346,-56.5 346,-75.5 453,-75.5 453,-56.5 346,-56.5"/>
<text text-anchor="middle" x="399.5" y="-63.5" font-family="Helvetica,sans-Serif" font-size="10.00" fill="#000000">odp/api/abi/align.h</text>
</g>
<!-- Node12&#45;&gt;Node13 -->
<g id="edge14" class="edge">
<title>Node12&#45;&gt;Node13</title>
<path fill="none" stroke="#191970" d="M506.3241,-112.3733C485.5234,-103.3435 454.2083,-89.7494 430.8542,-79.6111"/>
<polygon fill="#191970" stroke="#191970" points="431.9532,-76.2727 421.3865,-75.5011 429.1657,-82.6938 431.9532,-76.2727"/>
</g>
<!-- Node14 -->
<g id="node15" class="node">
<title>Node14</title>
<g id="a_node15"><a xlink:href="spec_2align_8h.html" target="_top" xlink:title="ODP alignments. ">
<polygon fill="#ffffff" stroke="#000000" points="471.5,-56.5 471.5,-75.5 585.5,-75.5 585.5,-56.5 471.5,-56.5"/>
<text text-anchor="middle" x="528.5" y="-63.5" font-family="Helvetica,sans-Serif" font-size="10.00" fill="#000000">odp/api/spec/align.h</text>
</a>
</g>
</g>
<!-- Node12&#45;&gt;Node14 -->
<g id="edge15" class="edge">
<title>Node12&#45;&gt;Node14</title>
<path fill="none" stroke="#191970" d="M528.5,-112.2455C528.5,-104.9382 528.5,-94.6944 528.5,-85.7046"/>
<polygon fill="#191970" stroke="#191970" points="532.0001,-85.6426 528.5,-75.6427 525.0001,-85.6427 532.0001,-85.6426"/>
</g>
<!-- Node14&#45;&gt;Node7 -->
<g id="edge16" class="edge">
<title>Node14&#45;&gt;Node7</title>
<path fill="none" stroke="#191970" d="M543.3059,-56.2455C556.2256,-47.7337 575.1931,-35.2375 590.1552,-25.3801"/>
<polygon fill="#191970" stroke="#191970" points="592.4387,-28.067 598.8638,-19.6427 588.5876,-22.2216 592.4387,-28.067"/>
</g>
<!-- Node14&#45;&gt;Node15 -->
<g id="edge17" class="edge">
<title>Node14&#45;&gt;Node15</title>
<path fill="none" stroke="#191970" d="M492.2278,-56.3733C456.5342,-46.9001 401.9121,-32.4032 363.2549,-22.1435"/>
<polygon fill="#191970" stroke="#191970" points="363.8621,-18.6835 353.2989,-19.5011 362.0664,-25.4493 363.8621,-18.6835"/>
</g>
<!-- Node18 -->
<g id="node19" class="node">
<title>Node18</title>
<g id="a_node19"><a xlink:href="spec_2hints_8h.html" target="_top" xlink:title="ODP compiler hints. ">
<polygon fill="#ffffff" stroke="#000000" points="641.5,-56.5 641.5,-75.5 755.5,-75.5 755.5,-56.5 641.5,-56.5"/>
<text text-anchor="middle" x="698.5" y="-63.5" font-family="Helvetica,sans-Serif" font-size="10.00" fill="#000000">odp/api/spec/hints.h</text>
</a>
</g>
</g>
<!-- Node17&#45;&gt;Node18 -->
<g id="edge22" class="edge">
<title>Node17&#45;&gt;Node18</title>
<path fill="none" stroke="#191970" d="M772.594,-168.4509C759.0244,-149.688 728.6976,-107.7548 711.3428,-83.758"/>
<polygon fill="#191970" stroke="#191970" points="714.0848,-81.5768 705.3885,-75.5249 708.4127,-85.679 714.0848,-81.5768"/>
</g>
<!-- Node18&#45;&gt;Node7 -->
<g id="edge23" class="edge">
<title>Node18&#45;&gt;Node7</title>
<path fill="none" stroke="#191970" d="M683.6941,-56.2455C670.7744,-47.7337 651.8069,-35.2375 636.8448,-25.3801"/>
<polygon fill="#191970" stroke="#191970" points="638.4124,-22.2216 628.1362,-19.6427 634.5613,-28.067 638.4124,-22.2216"/>
</g>
<!-- Node18&#45;&gt;Node15 -->
<g id="edge24" class="edge">
<title>Node18&#45;&gt;Node15</title>
<path fill="none" stroke="#191970" d="M641.4605,-57.6162C572.4642,-47.4751 456.5289,-30.4347 383.6711,-19.7259"/>
<polygon fill="#191970" stroke="#191970" points="384.0886,-16.2498 373.6859,-18.2583 383.0706,-23.1754 384.0886,-16.2498"/>
</g>
<!-- Node19&#45;&gt;Node8 -->
<g id="edge26" class="edge">
<title>Node19&#45;&gt;Node8</title>
<path fill="none" stroke="#191970" d="M219.8887,-296.9717C270.6352,-284.9998 357.74,-264.4504 412.8825,-251.4415"/>
<polygon fill="#191970" stroke="#191970" points="413.8617,-254.8066 422.7908,-249.1039 412.2544,-247.9936 413.8617,-254.8066"/>
</g>
<!-- Node20 -->
<g id="node21" class="node">
<title>Node20</title>
<polygon fill="#ffffff" stroke="#bfbfbf" points="0,-230 0,-249 105,-249 105,-230 0,-230"/>
<text text-anchor="middle" x="52.5" y="-237" font-family="Helvetica,sans-Serif" font-size="10.00" fill="#000000">odp/api/abi/time.h</text>
</g>
<!-- Node19&#45;&gt;Node20 -->
<g id="edge27" class="edge">
<title>Node19&#45;&gt;Node20</title>
<path fill="none" stroke="#191970" d="M161.304,-296.9005C139.8962,-285.6067 104.1542,-266.7506 79.5107,-253.7497"/>
<polygon fill="#191970" stroke="#191970" points="81.1401,-250.6522 70.6622,-249.0817 77.8738,-256.8434 81.1401,-250.6522"/>
</g>
<!-- Node21 -->
<g id="node22" class="node">
<title>Node21</title>
<g id="a_node22"><a xlink:href="spec_2time_8h.html" target="_top" xlink:title="ODP time. ">
<polygon fill="#ffffff" stroke="#000000" points="176,-56.5 176,-75.5 289,-75.5 289,-56.5 176,-56.5"/>
<text text-anchor="middle" x="232.5" y="-63.5" font-family="Helvetica,sans-Serif" font-size="10.00" fill="#000000">odp/api/spec/time.h</text>
</a>
</g>
</g>
<!-- Node19&#45;&gt;Node21 -->
<g id="edge28" class="edge">
<title>Node19&#45;&gt;Node21</title>
<path fill="none" stroke="#191970" d="M173.8548,-296.6346C168.4329,-286.5474 160.6189,-270.2403 157.5,-255 154.7377,-241.502 154.4718,-237.4409 157.5,-224 169.6715,-169.9753 202.5673,-112.7339 220.4803,-84.2801"/>
<polygon fill="#191970" stroke="#191970" points="223.4787,-86.0879 225.9291,-75.7803 217.5857,-82.3101 223.4787,-86.0879"/>
</g>
<!-- Node21&#45;&gt;Node7 -->
<g id="edge29" class="edge">
<title>Node21&#45;&gt;Node7</title>
<path fill="none" stroke="#191970" d="M289.1281,-57.6767C356.6402,-47.7537 469.5109,-31.1637 542.7187,-20.4036"/>
<polygon fill="#191970" stroke="#191970" points="543.3918,-23.8423 552.7765,-18.9252 542.3738,-16.9167 543.3918,-23.8423"/>
</g>
<!-- Node21&#45;&gt;Node15 -->
<g id="edge30" class="edge">
<title>Node21&#45;&gt;Node15</title>
<path fill="none" stroke="#191970" d="M247.3059,-56.2455C260.2256,-47.7337 279.1931,-35.2375 294.1552,-25.3801"/>
<polygon fill="#191970" stroke="#191970" points="296.4387,-28.067 302.8638,-19.6427 292.5876,-22.2216 296.4387,-28.067"/>
</g>
<!-- Node23&#45;&gt;Node11 -->
<g id="edge34" class="edge">
<title>Node23&#45;&gt;Node11</title>
<path fill="none" stroke="#191970" d="M692.8395,-224.1389C687.7719,-202.873 678.6206,-164.4702 673.0981,-141.2956"/>
<polygon fill="#191970" stroke="#191970" points="676.5008,-140.4757 670.778,-131.5595 669.6915,-142.0985 676.5008,-140.4757"/>
</g>
</g>
</svg>
