<?xml version="1.0" encoding="UTF-8" standalone="no"?>
<!DOCTYPE svg PUBLIC "-//W3C//DTD SVG 1.1//EN"
 "http://www.w3.org/Graphics/SVG/1.1/DTD/svg11.dtd">
<!-- Generated by graphviz version 2.40.1 (20161225.0304)
 -->
<!-- Title: packet_io_stats.h Pages: 1 -->
<svg width="277pt" height="263pt"
 viewBox="0.00 0.00 276.50 263.00" xmlns="http://www.w3.org/2000/svg" xmlns:xlink="http://www.w3.org/1999/xlink">
<g id="graph0" class="graph" transform="scale(1 1) rotate(0) translate(4 259)">
<title>packet_io_stats.h</title>
<polygon fill="#ffffff" stroke="transparent" points="-4,4 -4,-259 272.5,-259 272.5,4 -4,4"/>
<!-- Node0 -->
<g id="node1" class="node">
<title>Node0</title>
<polygon fill="#bfbfbf" stroke="#000000" points="77.5,-235.5 77.5,-254.5 179.5,-254.5 179.5,-235.5 77.5,-235.5"/>
<text text-anchor="middle" x="128.5" y="-242.5" font-family="Helvetica,sans-Serif" font-size="10.00" fill="#000000">packet_io_stats.h</text>
</g>
<!-- Node1 -->
<g id="node2" class="node">
<title>Node1</title>
<g id="a_node2"><a xlink:href="spec_2packet__io__stats_8h.html" target="_top" xlink:title="ODP Packet IO statistics. ">
<polygon fill="#ffffff" stroke="#000000" points="71.5,-168.5 71.5,-198.5 185.5,-198.5 185.5,-168.5 71.5,-168.5"/>
<text text-anchor="start" x="79.5" y="-186.5" font-family="Helvetica,sans-Serif" font-size="10.00" fill="#000000">odp/api/spec/packet</text>
<text text-anchor="middle" x="128.5" y="-175.5" font-family="Helvetica,sans-Serif" font-size="10.00" fill="#000000">_io_stats.h</text>
</a>
</g>
</g>
<!-- Node0&#45;&gt;Node1 -->
<g id="edge1" class="edge">
<title>Node0&#45;&gt;Node1</title>
<path fill="none" stroke="#191970" d="M128.5,-235.3906C128.5,-228.2234 128.5,-218.0862 128.5,-208.671"/>
<polygon fill="#191970" stroke="#191970" points="132.0001,-208.5446 128.5,-198.5446 125.0001,-208.5446 132.0001,-208.5446"/>
</g>
<!-- Node2 -->
<g id="node3" class="node">
<title>Node2</title>
<polygon fill="#ffffff" stroke="#bfbfbf" points="0,-.5 0,-19.5 121,-19.5 121,-.5 0,-.5"/>
<text text-anchor="middle" x="60.5" y="-7.5" font-family="Helvetica,sans-Serif" font-size="10.00" fill="#000000">odp/visibility_begin.h</text>
</g>
<!-- Node1&#45;&gt;Node2 -->
<g id="edge2" class="edge">
<title>Node1&#45;&gt;Node2</title>
<path fill="none" stroke="#191970" d="M99.7764,-168.4884C85.615,-159.6774 69.4767,-147.2655 59.5,-132 40.7528,-103.3144 41.4563,-89.8952 46.5,-56 47.8327,-47.0439 50.5494,-37.419 53.2381,-29.3"/>
<polygon fill="#191970" stroke="#191970" points="56.6067,-30.272 56.6376,-19.6772 50.0064,-27.9402 56.6067,-30.272"/>
</g>
<!-- Node3 -->
<g id="node4" class="node">
<title>Node3</title>
<g id="a_node4"><a xlink:href="deprecated_8h.html" target="_top" xlink:title="Control deprecated API definitions. ">
<polygon fill="#ffffff" stroke="#000000" points="69,-112.5 69,-131.5 188,-131.5 188,-112.5 69,-112.5"/>
<text text-anchor="middle" x="128.5" y="-119.5" font-family="Helvetica,sans-Serif" font-size="10.00" fill="#000000">odp/api/deprecated.h</text>
</a>
</g>
</g>
<!-- Node1&#45;&gt;Node3 -->
<g id="edge3" class="edge">
<title>Node1&#45;&gt;Node3</title>
<path fill="none" stroke="#191970" d="M128.5,-168.2977C128.5,-160.3834 128.5,-150.6043 128.5,-142.0759"/>
<polygon fill="#191970" stroke="#191970" points="132.0001,-141.8469 128.5,-131.8469 125.0001,-141.847 132.0001,-141.8469"/>
</g>
<!-- Node5 -->
<g id="node6" class="node">
<title>Node5</title>
<polygon fill="#ffffff" stroke="#bfbfbf" points="156.5,-.5 156.5,-19.5 268.5,-19.5 268.5,-.5 156.5,-.5"/>
<text text-anchor="middle" x="212.5" y="-7.5" font-family="Helvetica,sans-Serif" font-size="10.00" fill="#000000">odp/visibility_end.h</text>
</g>
<!-- Node1&#45;&gt;Node5 -->
<g id="edge7" class="edge">
<title>Node1&#45;&gt;Node5</title>
<path fill="none" stroke="#191970" d="M156.8082,-168.4004C170.7646,-159.5652 186.6691,-147.1584 196.5,-132 216.7507,-100.7754 216.8487,-55.5473 214.8446,-29.837"/>
<polygon fill="#191970" stroke="#191970" points="218.3218,-29.4305 213.8754,-19.8138 211.3543,-30.1043 218.3218,-29.4305"/>
</g>
<!-- Node4 -->
<g id="node5" class="node">
<title>Node4</title>
<g id="a_node5"><a xlink:href="spec_2deprecated_8h.html" target="_top" xlink:title="Macro for deprecated API definitions. ">
<polygon fill="#ffffff" stroke="#000000" points="56,-56.5 56,-75.5 201,-75.5 201,-56.5 56,-56.5"/>
<text text-anchor="middle" x="128.5" y="-63.5" font-family="Helvetica,sans-Serif" font-size="10.00" fill="#000000">odp/api/spec/deprecated.h</text>
</a>
</g>
</g>
<!-- Node3&#45;&gt;Node4 -->
<g id="edge4" class="edge">
<title>Node3&#45;&gt;Node4</title>
<path fill="none" stroke="#191970" d="M128.5,-112.2455C128.5,-104.9382 128.5,-94.6944 128.5,-85.7046"/>
<polygon fill="#191970" stroke="#191970" points="132.0001,-85.6426 128.5,-75.6427 125.0001,-85.6427 132.0001,-85.6426"/>
</g>
<!-- Node4&#45;&gt;Node2 -->
<g id="edge5" class="edge">
<title>Node4&#45;&gt;Node2</title>
<path fill="none" stroke="#191970" d="M116.6553,-56.2455C106.612,-47.9746 92.0005,-35.9416 80.1996,-26.2232"/>
<polygon fill="#191970" stroke="#191970" points="82.1533,-23.298 72.209,-19.6427 77.7033,-28.7015 82.1533,-23.298"/>
</g>
<!-- Node4&#45;&gt;Node5 -->
<g id="edge6" class="edge">
<title>Node4&#45;&gt;Node5</title>
<path fill="none" stroke="#191970" d="M143.1317,-56.2455C155.8994,-47.7337 174.6438,-35.2375 189.4299,-25.3801"/>
<polygon fill="#191970" stroke="#191970" points="191.6569,-28.1019 198.036,-19.6427 187.774,-22.2775 191.6569,-28.1019"/>
</g>
</g>
</svg>
