<?xml version="1.0" encoding="UTF-8" standalone="no"?>
<!DOCTYPE svg PUBLIC "-//W3C//DTD SVG 1.1//EN"
 "http://www.w3.org/Graphics/SVG/1.1/DTD/svg11.dtd">
<!-- Generated by graphviz version 2.40.1 (20161225.0304)
 -->
<!-- Title: packet_flag_inlines.h Pages: 1 -->
<svg width="252pt" height="151pt"
 viewBox="0.00 0.00 252.00 151.00" xmlns="http://www.w3.org/2000/svg" xmlns:xlink="http://www.w3.org/1999/xlink">
<g id="graph0" class="graph" transform="scale(1 1) rotate(0) translate(4 147)">
<title>packet_flag_inlines.h</title>
<polygon fill="#ffffff" stroke="transparent" points="-4,4 -4,-147 248,-147 248,4 -4,4"/>
<!-- Node0 -->
<g id="node1" class="node">
<title>Node0</title>
<polygon fill="#bfbfbf" stroke="#000000" points="63.5,-123.5 63.5,-142.5 182.5,-142.5 182.5,-123.5 63.5,-123.5"/>
<text text-anchor="middle" x="123" y="-130.5" font-family="Helvetica,sans-Serif" font-size="10.00" fill="#000000">packet_flag_inlines.h</text>
</g>
<!-- Node1 -->
<g id="node2" class="node">
<title>Node1</title>
<polygon fill="#ffffff" stroke="#bfbfbf" points="0,-62 0,-81 116,-81 116,-62 0,-62"/>
<text text-anchor="middle" x="58" y="-69" font-family="Helvetica,sans-Serif" font-size="10.00" fill="#000000">odp/api/abi/packet.h</text>
</g>
<!-- Node0&#45;&gt;Node1 -->
<g id="edge1" class="edge">
<title>Node0&#45;&gt;Node1</title>
<path fill="none" stroke="#191970" d="M112.8438,-123.3906C102.9801,-114.0581 87.7945,-99.6902 75.9013,-88.4374"/>
<polygon fill="#191970" stroke="#191970" points="77.9689,-85.5753 68.2994,-81.2449 73.1579,-90.6601 77.9689,-85.5753"/>
</g>
<!-- Node2 -->
<g id="node3" class="node">
<title>Node2</title>
<g id="a_node3"><a xlink:href="packet__inline__types_8h.html" target="_top" xlink:title="ODP packet descriptor. ">
<polygon fill="#ffffff" stroke="#000000" points="134,-56.5 134,-86.5 244,-86.5 244,-56.5 134,-56.5"/>
<text text-anchor="start" x="142" y="-74.5" font-family="Helvetica,sans-Serif" font-size="10.00" fill="#000000">odp/api/plat/packet</text>
<text text-anchor="middle" x="189" y="-63.5" font-family="Helvetica,sans-Serif" font-size="10.00" fill="#000000">_inline_types.h</text>
</a>
</g>
</g>
<!-- Node0&#45;&gt;Node2 -->
<g id="edge2" class="edge">
<title>Node0&#45;&gt;Node2</title>
<path fill="none" stroke="#191970" d="M133.3125,-123.3906C141.914,-115.3756 154.5012,-103.6466 165.5334,-93.3666"/>
<polygon fill="#191970" stroke="#191970" points="167.9245,-95.9225 172.8546,-86.5446 163.1524,-90.8012 167.9245,-95.9225"/>
</g>
<!-- Node3 -->
<g id="node4" class="node">
<title>Node3</title>
<polygon fill="#ffffff" stroke="#bfbfbf" points="162.5,-.5 162.5,-19.5 215.5,-19.5 215.5,-.5 162.5,-.5"/>
<text text-anchor="middle" x="189" y="-7.5" font-family="Helvetica,sans-Serif" font-size="10.00" fill="#000000">stdint.h</text>
</g>
<!-- Node2&#45;&gt;Node3 -->
<g id="edge3" class="edge">
<title>Node2&#45;&gt;Node3</title>
<path fill="none" stroke="#191970" d="M189,-56.2977C189,-48.3834 189,-38.6043 189,-30.0759"/>
<polygon fill="#191970" stroke="#191970" points="192.5001,-29.8469 189,-19.8469 185.5001,-29.847 192.5001,-29.8469"/>
</g>
</g>
</svg>
