<?xml version="1.0" encoding="UTF-8" standalone="no"?>
<!DOCTYPE svg PUBLIC "-//W3C//DTD SVG 1.1//EN"
 "http://www.w3.org/Graphics/SVG/1.1/DTD/svg11.dtd">
<!-- Generated by graphviz version 2.40.1 (20161225.0304)
 -->
<!-- Title: packet_io.h Pages: 1 -->
<svg width="1754pt" height="778pt"
 viewBox="0.00 0.00 1754.00 778.00" xmlns="http://www.w3.org/2000/svg" xmlns:xlink="http://www.w3.org/1999/xlink">
<g id="graph0" class="graph" transform="scale(1 1) rotate(0) translate(4 774)">
<title>packet_io.h</title>
<polygon fill="#ffffff" stroke="transparent" points="-4,4 -4,-774 1750,-774 1750,4 -4,4"/>
<!-- Node0 -->
<g id="node1" class="node">
<title>Node0</title>
<polygon fill="#bfbfbf" stroke="#000000" points="244.5,-750.5 244.5,-769.5 317.5,-769.5 317.5,-750.5 244.5,-750.5"/>
<text text-anchor="middle" x="281" y="-757.5" font-family="Helvetica,sans-Serif" font-size="10.00" fill="#000000">packet_io.h</text>
</g>
<!-- Node1 -->
<g id="node2" class="node">
<title>Node1</title>
<g id="a_node2"><a xlink:href="std__types_8h.html" target="_top" xlink:title="Standard C language types and definitions for ODP. ">
<polygon fill="#ffffff" stroke="#000000" points="366,-235.5 366,-254.5 478,-254.5 478,-235.5 366,-235.5"/>
<text text-anchor="middle" x="422" y="-242.5" font-family="Helvetica,sans-Serif" font-size="10.00" fill="#000000">odp/api/std_types.h</text>
</a>
</g>
</g>
<!-- Node0&#45;&gt;Node1 -->
<g id="edge1" class="edge">
<title>Node0&#45;&gt;Node1</title>
<path fill="none" stroke="#191970" d="M244.2753,-754.7326C194.518,-747.0513 108.9168,-731.743 83,-714 53.7049,-693.9441 38,-683.5027 38,-648 38,-648 38,-648 38,-368 38,-302.0677 245.9084,-266.5681 355.7597,-252.4129"/>
<polygon fill="#191970" stroke="#191970" points="356.27,-255.8764 365.7519,-251.1494 355.3917,-248.9317 356.27,-255.8764"/>
</g>
<!-- Node10 -->
<g id="node11" class="node">
<title>Node10</title>
<polygon fill="#ffffff" stroke="#bfbfbf" points="424,-358.5 424,-377.5 528,-377.5 528,-358.5 424,-358.5"/>
<text text-anchor="middle" x="476" y="-365.5" font-family="Helvetica,sans-Serif" font-size="10.00" fill="#000000">odp/api/abi/pool.h</text>
</g>
<!-- Node0&#45;&gt;Node10 -->
<g id="edge12" class="edge">
<title>Node0&#45;&gt;Node10</title>
<path fill="none" stroke="#191970" d="M286.607,-750.4834C297.1774,-731.6141 319,-687.8343 319,-648 319,-648 319,-648 319,-536 319,-462.0202 401.2729,-407.1111 446.704,-382.4299"/>
<polygon fill="#191970" stroke="#191970" points="448.5896,-385.3922 455.7964,-377.626 445.3196,-379.2029 448.5896,-385.3922"/>
</g>
<!-- Node11 -->
<g id="node12" class="node">
<title>Node11</title>
<polygon fill="#ffffff" stroke="#bfbfbf" points="107,-694.5 107,-713.5 253,-713.5 253,-694.5 107,-694.5"/>
<text text-anchor="middle" x="180" y="-701.5" font-family="Helvetica,sans-Serif" font-size="10.00" fill="#000000">odp/api/abi/classification.h</text>
</g>
<!-- Node0&#45;&gt;Node11 -->
<g id="edge13" class="edge">
<title>Node0&#45;&gt;Node11</title>
<path fill="none" stroke="#191970" d="M263.4071,-750.2455C247.621,-741.4928 224.2361,-728.527 206.2413,-718.5496"/>
<polygon fill="#191970" stroke="#191970" points="207.8341,-715.4308 197.3913,-713.6427 204.4397,-721.5528 207.8341,-715.4308"/>
</g>
<!-- Node12 -->
<g id="node13" class="node">
<title>Node12</title>
<polygon fill="#ffffff" stroke="#bfbfbf" points="66,-358.5 66,-377.5 182,-377.5 182,-358.5 66,-358.5"/>
<text text-anchor="middle" x="124" y="-365.5" font-family="Helvetica,sans-Serif" font-size="10.00" fill="#000000">odp/api/abi/packet.h</text>
</g>
<!-- Node0&#45;&gt;Node12 -->
<g id="edge14" class="edge">
<title>Node0&#45;&gt;Node12</title>
<path fill="none" stroke="#191970" d="M244.1593,-756.0427C196.0294,-750.0259 115.7769,-736.7984 98,-714 19.7151,-613.6016 88.4101,-443.1535 114.757,-386.7455"/>
<polygon fill="#191970" stroke="#191970" points="117.9821,-388.1141 119.1388,-377.5826 111.667,-385.0942 117.9821,-388.1141"/>
</g>
<!-- Node13 -->
<g id="node14" class="node">
<title>Node13</title>
<polygon fill="#ffffff" stroke="#bfbfbf" points="276,-358.5 276,-377.5 406,-377.5 406,-358.5 276,-358.5"/>
<text text-anchor="middle" x="341" y="-365.5" font-family="Helvetica,sans-Serif" font-size="10.00" fill="#000000">odp/api/abi/packet_io.h</text>
</g>
<!-- Node0&#45;&gt;Node13 -->
<g id="edge15" class="edge">
<title>Node0&#45;&gt;Node13</title>
<path fill="none" stroke="#191970" d="M281,-750.4116C281,-731.0538 281,-685.9167 281,-648 281,-648 281,-648 281,-480 281,-442.7757 307.0711,-405.9604 324.8422,-385.1895"/>
<polygon fill="#191970" stroke="#191970" points="327.5973,-387.3582 331.625,-377.5588 322.3654,-382.7077 327.5973,-387.3582"/>
</g>
<!-- Node14 -->
<g id="node15" class="node">
<title>Node14</title>
<polygon fill="#ffffff" stroke="#bfbfbf" points="725.5,-358.5 725.5,-377.5 838.5,-377.5 838.5,-358.5 725.5,-358.5"/>
<text text-anchor="middle" x="782" y="-365.5" font-family="Helvetica,sans-Serif" font-size="10.00" fill="#000000">odp/api/abi/queue.h</text>
</g>
<!-- Node0&#45;&gt;Node14 -->
<g id="edge16" class="edge">
<title>Node0&#45;&gt;Node14</title>
<path fill="none" stroke="#191970" d="M293.3843,-750.3101C360.184,-698.0437 677.6149,-449.6746 761.5839,-383.9743"/>
<polygon fill="#191970" stroke="#191970" points="763.8811,-386.6209 769.6001,-377.7021 759.5675,-381.1079 763.8811,-386.6209"/>
</g>
<!-- Node15 -->
<g id="node16" class="node">
<title>Node15</title>
<g id="a_node16"><a xlink:href="spec_2packet__io_8h.html" target="_top" xlink:title="ODP Packet IO. ">
<polygon fill="#ffffff" stroke="#000000" points="730.5,-694.5 730.5,-713.5 867.5,-713.5 867.5,-694.5 730.5,-694.5"/>
<text text-anchor="middle" x="799" y="-701.5" font-family="Helvetica,sans-Serif" font-size="10.00" fill="#000000">odp/api/spec/packet_io.h</text>
</a>
</g>
</g>
<!-- Node0&#45;&gt;Node15 -->
<g id="edge17" class="edge">
<title>Node0&#45;&gt;Node15</title>
<path fill="none" stroke="#191970" d="M317.838,-756.0175C401.4139,-746.9823 606.9241,-724.765 720.4589,-712.4909"/>
<polygon fill="#191970" stroke="#191970" points="720.9156,-715.962 730.4815,-711.4074 720.1632,-709.0026 720.9156,-715.962"/>
</g>
<!-- Node2 -->
<g id="node3" class="node">
<title>Node2</title>
<polygon fill="#ffffff" stroke="#bfbfbf" points="490,-174 490,-193 620,-193 620,-174 490,-174"/>
<text text-anchor="middle" x="555" y="-181" font-family="Helvetica,sans-Serif" font-size="10.00" fill="#000000">odp/api/abi/std_types.h</text>
</g>
<!-- Node1&#45;&gt;Node2 -->
<g id="edge2" class="edge">
<title>Node1&#45;&gt;Node2</title>
<path fill="none" stroke="#191970" d="M442.7813,-235.3906C464.8394,-225.1908 499.905,-208.9763 524.9669,-197.3875"/>
<polygon fill="#191970" stroke="#191970" points="526.7571,-200.4158 534.3647,-193.0419 523.8191,-194.0622 526.7571,-200.4158"/>
</g>
<!-- Node3 -->
<g id="node4" class="node">
<title>Node3</title>
<g id="a_node4"><a xlink:href="spec_2std__types_8h.html" target="_top" xlink:title="Standard C language types and definitions for ODP. ">
<polygon fill="#ffffff" stroke="#000000" points="334.5,-174 334.5,-193 471.5,-193 471.5,-174 334.5,-174"/>
<text text-anchor="middle" x="403" y="-181" font-family="Helvetica,sans-Serif" font-size="10.00" fill="#000000">odp/api/spec/std_types.h</text>
</a>
</g>
</g>
<!-- Node1&#45;&gt;Node3 -->
<g id="edge3" class="edge">
<title>Node1&#45;&gt;Node3</title>
<path fill="none" stroke="#191970" d="M419.0313,-235.3906C416.3698,-226.776 412.3829,-213.8708 409.0509,-203.0858"/>
<polygon fill="#191970" stroke="#191970" points="412.3065,-201.7661 406.0106,-193.2449 405.6184,-203.8324 412.3065,-201.7661"/>
</g>
<!-- Node4 -->
<g id="node5" class="node">
<title>Node4</title>
<polygon fill="#ffffff" stroke="#bfbfbf" points="1331.5,-.5 1331.5,-19.5 1452.5,-19.5 1452.5,-.5 1331.5,-.5"/>
<text text-anchor="middle" x="1392" y="-7.5" font-family="Helvetica,sans-Serif" font-size="10.00" fill="#000000">odp/visibility_begin.h</text>
</g>
<!-- Node3&#45;&gt;Node4 -->
<g id="edge4" class="edge">
<title>Node3&#45;&gt;Node4</title>
<path fill="none" stroke="#191970" d="M449.7377,-173.9733C571.228,-149.1607 889.0872,-83.9122 911,-76 928.9509,-69.5184 930.7335,-61.5301 949,-56 1016.7503,-35.489 1214.1949,-20.7872 1321.1605,-14.0769"/>
<polygon fill="#191970" stroke="#191970" points="1321.4582,-17.5652 1331.2222,-13.4525 1321.0246,-10.5787 1321.4582,-17.5652"/>
</g>
<!-- Node5 -->
<g id="node6" class="node">
<title>Node5</title>
<polygon fill="#ffffff" stroke="#bfbfbf" points="377.5,-112.5 377.5,-131.5 430.5,-131.5 430.5,-112.5 377.5,-112.5"/>
<text text-anchor="middle" x="404" y="-119.5" font-family="Helvetica,sans-Serif" font-size="10.00" fill="#000000">stdint.h</text>
</g>
<!-- Node3&#45;&gt;Node5 -->
<g id="edge5" class="edge">
<title>Node3&#45;&gt;Node5</title>
<path fill="none" stroke="#191970" d="M403.1563,-173.8906C403.2949,-165.3657 403.5018,-152.6392 403.676,-141.9235"/>
<polygon fill="#191970" stroke="#191970" points="407.1784,-141.8005 403.8415,-131.7449 400.1793,-141.6866 407.1784,-141.8005"/>
</g>
<!-- Node6 -->
<g id="node7" class="node">
<title>Node6</title>
<g id="a_node7"><a xlink:href="align_8h.html" target="_top" xlink:title="ODP alignments. ">
<polygon fill="#ffffff" stroke="#000000" points="525.5,-112.5 525.5,-131.5 614.5,-131.5 614.5,-112.5 525.5,-112.5"/>
<text text-anchor="middle" x="570" y="-119.5" font-family="Helvetica,sans-Serif" font-size="10.00" fill="#000000">odp/api/align.h</text>
</a>
</g>
</g>
<!-- Node3&#45;&gt;Node6 -->
<g id="edge6" class="edge">
<title>Node3&#45;&gt;Node6</title>
<path fill="none" stroke="#191970" d="M429.0938,-173.8906C457.4036,-163.4652 502.7768,-146.7559 534.3592,-135.1252"/>
<polygon fill="#191970" stroke="#191970" points="535.9151,-138.2821 544.0895,-131.5419 533.496,-131.7133 535.9151,-138.2821"/>
</g>
<!-- Node9 -->
<g id="node10" class="node">
<title>Node9</title>
<polygon fill="#ffffff" stroke="#bfbfbf" points="657,-.5 657,-19.5 769,-19.5 769,-.5 657,-.5"/>
<text text-anchor="middle" x="713" y="-7.5" font-family="Helvetica,sans-Serif" font-size="10.00" fill="#000000">odp/visibility_end.h</text>
</g>
<!-- Node3&#45;&gt;Node9 -->
<g id="edge11" class="edge">
<title>Node3&#45;&gt;Node9</title>
<path fill="none" stroke="#191970" d="M393.7477,-173.8141C385.1775,-164.1164 373.0224,-148.3252 368,-132 362.0846,-112.7719 366.289,-63.9311 374,-56 392.6813,-36.7856 553.5206,-21.7999 646.785,-14.6308"/>
<polygon fill="#191970" stroke="#191970" points="647.2711,-18.1041 656.9777,-13.8577 646.7416,-11.1241 647.2711,-18.1041"/>
</g>
<!-- Node7 -->
<g id="node8" class="node">
<title>Node7</title>
<polygon fill="#ffffff" stroke="#bfbfbf" points="454.5,-56.5 454.5,-75.5 561.5,-75.5 561.5,-56.5 454.5,-56.5"/>
<text text-anchor="middle" x="508" y="-63.5" font-family="Helvetica,sans-Serif" font-size="10.00" fill="#000000">odp/api/abi/align.h</text>
</g>
<!-- Node6&#45;&gt;Node7 -->
<g id="edge7" class="edge">
<title>Node6&#45;&gt;Node7</title>
<path fill="none" stroke="#191970" d="M559.2004,-112.2455C550.1322,-104.0549 536.9794,-92.1749 526.2755,-82.5069"/>
<polygon fill="#191970" stroke="#191970" points="528.4429,-79.7482 518.6758,-75.6427 523.7509,-84.9429 528.4429,-79.7482"/>
</g>
<!-- Node8 -->
<g id="node9" class="node">
<title>Node8</title>
<g id="a_node9"><a xlink:href="spec_2align_8h.html" target="_top" xlink:title="ODP alignments. ">
<polygon fill="#ffffff" stroke="#000000" points="656,-56.5 656,-75.5 770,-75.5 770,-56.5 656,-56.5"/>
<text text-anchor="middle" x="713" y="-63.5" font-family="Helvetica,sans-Serif" font-size="10.00" fill="#000000">odp/api/spec/align.h</text>
</a>
</g>
</g>
<!-- Node6&#45;&gt;Node8 -->
<g id="edge8" class="edge">
<title>Node6&#45;&gt;Node8</title>
<path fill="none" stroke="#191970" d="M594.5826,-112.3733C617.9496,-103.2226 653.2862,-89.3844 679.2784,-79.2057"/>
<polygon fill="#191970" stroke="#191970" points="680.703,-82.4066 688.7382,-75.5011 678.1505,-75.8886 680.703,-82.4066"/>
</g>
<!-- Node8&#45;&gt;Node4 -->
<g id="edge9" class="edge">
<title>Node8&#45;&gt;Node4</title>
<path fill="none" stroke="#191970" d="M770.346,-57.1591C773.609,-56.7439 776.8443,-56.3536 780,-56 975.5481,-34.0875 1207.4511,-19.8513 1321.4924,-13.6196"/>
<polygon fill="#191970" stroke="#191970" points="1321.696,-17.1138 1331.4917,-13.0772 1321.3168,-10.1241 1321.696,-17.1138"/>
</g>
<!-- Node8&#45;&gt;Node9 -->
<g id="edge10" class="edge">
<title>Node8&#45;&gt;Node9</title>
<path fill="none" stroke="#191970" d="M713,-56.2455C713,-48.9382 713,-38.6944 713,-29.7046"/>
<polygon fill="#191970" stroke="#191970" points="716.5001,-29.6426 713,-19.6427 709.5001,-29.6427 716.5001,-29.6426"/>
</g>
<!-- Node15&#45;&gt;Node4 -->
<g id="edge18" class="edge">
<title>Node15&#45;&gt;Node4</title>
<path fill="none" stroke="#191970" d="M867.6017,-703.2058C1061.7205,-700.5688 1605.589,-690.3486 1679,-658 1717.2501,-641.145 1746,-633.799 1746,-592 1746,-592 1746,-592 1746,-122 1746,-81.4482 1718.9182,-74.8235 1683,-56 1645.7348,-36.4706 1536.1911,-23.0449 1462.6543,-15.9431"/>
<polygon fill="#191970" stroke="#191970" points="1462.8139,-12.4426 1452.5282,-14.983 1462.1531,-19.4113 1462.8139,-12.4426"/>
</g>
<!-- Node15&#45;&gt;Node9 -->
<g id="edge78" class="edge">
<title>Node15&#45;&gt;Node9</title>
<path fill="none" stroke="#191970" d="M733.5651,-694.4769C690.1168,-687.0869 632.2329,-675.1781 583,-658 309.7574,-562.6616 0,-657.3975 0,-368 0,-368 0,-368 0,-122 0,-56.9251 469.501,-23.7126 646.5293,-13.5026"/>
<polygon fill="#191970" stroke="#191970" points="646.9699,-16.9832 656.7544,-12.9197 646.5714,-9.9946 646.9699,-16.9832"/>
</g>
<!-- Node16 -->
<g id="node17" class="node">
<title>Node16</title>
<g id="a_node17"><a xlink:href="deprecated_8h.html" target="_top" xlink:title="Control deprecated API definitions. ">
<polygon fill="#ffffff" stroke="#000000" points="1446.5,-112.5 1446.5,-131.5 1565.5,-131.5 1565.5,-112.5 1446.5,-112.5"/>
<text text-anchor="middle" x="1506" y="-119.5" font-family="Helvetica,sans-Serif" font-size="10.00" fill="#000000">odp/api/deprecated.h</text>
</a>
</g>
</g>
<!-- Node15&#45;&gt;Node16 -->
<g id="edge19" class="edge">
<title>Node15&#45;&gt;Node16</title>
<path fill="none" stroke="#191970" d="M867.8118,-700.174C1044.433,-689.439 1500,-655.5867 1500,-592 1500,-592 1500,-592 1500,-245 1500,-208.456 1502.6749,-165.8771 1504.4527,-141.6142"/>
<polygon fill="#191970" stroke="#191970" points="1507.9487,-141.7976 1505.2156,-131.5614 1500.9688,-141.2678 1507.9487,-141.7976"/>
</g>
<!-- Node18 -->
<g id="node19" class="node">
<title>Node18</title>
<g id="a_node19"><a xlink:href="packet__io__stats_8h.html" target="_top" xlink:title="ODP packet IO stats. ">
<polygon fill="#ffffff" stroke="#000000" points="1528.5,-638.5 1528.5,-657.5 1669.5,-657.5 1669.5,-638.5 1528.5,-638.5"/>
<text text-anchor="middle" x="1599" y="-645.5" font-family="Helvetica,sans-Serif" font-size="10.00" fill="#000000">odp/api/packet_io_stats.h</text>
</a>
</g>
</g>
<!-- Node15&#45;&gt;Node18 -->
<g id="edge23" class="edge">
<title>Node15&#45;&gt;Node18</title>
<path fill="none" stroke="#191970" d="M867.6155,-700.7947C995.1024,-694.5705 1277.0842,-679.5421 1514,-658 1515.2902,-657.8827 1516.5911,-657.7618 1517.9004,-657.6376"/>
<polygon fill="#191970" stroke="#191970" points="1518.4624,-661.0991 1528.0681,-656.629 1517.7714,-654.1333 1518.4624,-661.0991"/>
</g>
<!-- Node20 -->
<g id="node21" class="node">
<title>Node20</title>
<g id="a_node21"><a xlink:href="queue_8h.html" target="_top" xlink:title="ODP queue. ">
<polygon fill="#ffffff" stroke="#000000" points="751.5,-638.5 751.5,-657.5 846.5,-657.5 846.5,-638.5 751.5,-638.5"/>
<text text-anchor="middle" x="799" y="-645.5" font-family="Helvetica,sans-Serif" font-size="10.00" fill="#000000">odp/api/queue.h</text>
</a>
</g>
</g>
<!-- Node15&#45;&gt;Node20 -->
<g id="edge28" class="edge">
<title>Node15&#45;&gt;Node20</title>
<path fill="none" stroke="#191970" d="M799,-694.2455C799,-686.9382 799,-676.6944 799,-667.7046"/>
<polygon fill="#191970" stroke="#191970" points="802.5001,-667.6426 799,-657.6427 795.5001,-667.6427 802.5001,-667.6426"/>
</g>
<!-- Node26 -->
<g id="node27" class="node">
<title>Node26</title>
<g id="a_node27"><a xlink:href="packet_8h.html" target="_top" xlink:title="ODP packet descriptor. ">
<polygon fill="#ffffff" stroke="#000000" points="537,-414.5 537,-433.5 635,-433.5 635,-414.5 537,-414.5"/>
<text text-anchor="middle" x="586" y="-421.5" font-family="Helvetica,sans-Serif" font-size="10.00" fill="#000000">odp/api/packet.h</text>
</a>
</g>
</g>
<!-- Node15&#45;&gt;Node26 -->
<g id="edge77" class="edge">
<title>Node15&#45;&gt;Node26</title>
<path fill="none" stroke="#191970" d="M760.037,-694.3825C713.8309,-680.3709 643,-649.5125 643,-592 643,-592 643,-592 643,-536 643,-499.1826 618.2325,-462.2377 601.3499,-441.3313"/>
<polygon fill="#191970" stroke="#191970" points="604.0131,-439.06 594.9063,-433.6456 598.6489,-443.5574 604.0131,-439.06"/>
</g>
<!-- Node28 -->
<g id="node29" class="node">
<title>Node28</title>
<g id="a_node29"><a xlink:href="time_8h.html" target="_top" xlink:title="ODP time. ">
<polygon fill="#ffffff" stroke="#000000" points="532.5,-297 532.5,-316 619.5,-316 619.5,-297 532.5,-297"/>
<text text-anchor="middle" x="576" y="-304" font-family="Helvetica,sans-Serif" font-size="10.00" fill="#000000">odp/api/time.h</text>
</a>
</g>
</g>
<!-- Node15&#45;&gt;Node28 -->
<g id="edge76" class="edge">
<title>Node15&#45;&gt;Node28</title>
<path fill="none" stroke="#191970" d="M756.8333,-694.4104C648.9545,-667.2435 364.5816,-578.3764 267,-378 263.1082,-370.0084 261.2544,-364.7824 267,-358 283.3036,-338.7543 438.2431,-320.3575 522.3297,-311.6858"/>
<polygon fill="#191970" stroke="#191970" points="522.873,-315.1487 532.4663,-310.6521 522.1628,-308.1848 522.873,-315.1487"/>
</g>
<!-- Node37 -->
<g id="node38" class="node">
<title>Node37</title>
<g id="a_node38"><a xlink:href="reassembly_8h.html" target="_top" xlink:title="ODP REASSEMBLY API &#45; platform specific header. ">
<polygon fill="#ffffff" stroke="#000000" points="1246,-582.5 1246,-601.5 1366,-601.5 1366,-582.5 1246,-582.5"/>
<text text-anchor="middle" x="1306" y="-589.5" font-family="Helvetica,sans-Serif" font-size="10.00" fill="#000000">odp/api/reassembly.h</text>
</a>
</g>
</g>
<!-- Node15&#45;&gt;Node37 -->
<g id="edge72" class="edge">
<title>Node15&#45;&gt;Node37</title>
<path fill="none" stroke="#191970" d="M842.2265,-694.4509C934.8327,-673.9936 1152.1258,-625.9919 1252.92,-603.7258"/>
<polygon fill="#191970" stroke="#191970" points="1253.8733,-607.0996 1262.8829,-601.5249 1252.3633,-600.2644 1253.8733,-607.0996"/>
</g>
<!-- Node17 -->
<g id="node18" class="node">
<title>Node17</title>
<g id="a_node18"><a xlink:href="spec_2deprecated_8h.html" target="_top" xlink:title="Macro for deprecated API definitions. ">
<polygon fill="#ffffff" stroke="#000000" points="1458.5,-56.5 1458.5,-75.5 1603.5,-75.5 1603.5,-56.5 1458.5,-56.5"/>
<text text-anchor="middle" x="1531" y="-63.5" font-family="Helvetica,sans-Serif" font-size="10.00" fill="#000000">odp/api/spec/deprecated.h</text>
</a>
</g>
</g>
<!-- Node16&#45;&gt;Node17 -->
<g id="edge20" class="edge">
<title>Node16&#45;&gt;Node17</title>
<path fill="none" stroke="#191970" d="M1510.3547,-112.2455C1513.7244,-104.6973 1518.493,-94.0158 1522.5983,-84.8197"/>
<polygon fill="#191970" stroke="#191970" points="1525.8147,-86.2009 1526.6952,-75.6427 1519.4227,-83.3473 1525.8147,-86.2009"/>
</g>
<!-- Node17&#45;&gt;Node4 -->
<g id="edge21" class="edge">
<title>Node17&#45;&gt;Node4</title>
<path fill="none" stroke="#191970" d="M1507.105,-56.3733C1484.4918,-47.2629 1450.3458,-33.5062 1425.1127,-23.3404"/>
<polygon fill="#191970" stroke="#191970" points="1426.1666,-19.9917 1415.5831,-19.5011 1423.5507,-26.4845 1426.1666,-19.9917"/>
</g>
<!-- Node17&#45;&gt;Node9 -->
<g id="edge22" class="edge">
<title>Node17&#45;&gt;Node9</title>
<path fill="none" stroke="#191970" d="M1458.408,-61.0304C1301.0272,-50.2561 930.4222,-24.8847 779.1025,-14.5254"/>
<polygon fill="#191970" stroke="#191970" points="779.2401,-11.0267 769.0244,-13.8354 778.762,-18.0103 779.2401,-11.0267"/>
</g>
<!-- Node19 -->
<g id="node20" class="node">
<title>Node19</title>
<g id="a_node20"><a xlink:href="spec_2packet__io__stats_8h.html" target="_top" xlink:title="ODP Packet IO statistics. ">
<polygon fill="#ffffff" stroke="#000000" points="1528,-168.5 1528,-198.5 1642,-198.5 1642,-168.5 1528,-168.5"/>
<text text-anchor="start" x="1536" y="-186.5" font-family="Helvetica,sans-Serif" font-size="10.00" fill="#000000">odp/api/spec/packet</text>
<text text-anchor="middle" x="1585" y="-175.5" font-family="Helvetica,sans-Serif" font-size="10.00" fill="#000000">_io_stats.h</text>
</a>
</g>
</g>
<!-- Node18&#45;&gt;Node19 -->
<g id="edge24" class="edge">
<title>Node18&#45;&gt;Node19</title>
<path fill="none" stroke="#191970" d="M1597.9971,-638.4242C1596.0615,-619.0891 1592,-573.9907 1592,-536 1592,-536 1592,-536 1592,-306.5 1592,-272.5905 1589.3153,-233.5074 1587.2712,-208.6637"/>
<polygon fill="#191970" stroke="#191970" points="1590.7529,-208.2996 1586.4166,-198.6329 1583.7782,-208.8939 1590.7529,-208.2996"/>
</g>
<!-- Node19&#45;&gt;Node4 -->
<g id="edge25" class="edge">
<title>Node19&#45;&gt;Node4</title>
<path fill="none" stroke="#191970" d="M1595.5675,-168.2879C1612.1809,-142.3218 1639.8829,-89.0546 1613,-56 1594.2509,-32.9466 1520.1667,-21.064 1462.8834,-15.2072"/>
<polygon fill="#191970" stroke="#191970" points="1463.056,-11.7075 1452.7625,-14.2163 1462.3739,-18.6742 1463.056,-11.7075"/>
</g>
<!-- Node19&#45;&gt;Node9 -->
<g id="edge27" class="edge">
<title>Node19&#45;&gt;Node9</title>
<path fill="none" stroke="#191970" d="M1587.7763,-168.2346C1589.7857,-151.8588 1589.9542,-126.2856 1575,-112 1512.8661,-52.644 1273.8388,-94.8363 1190,-76 1164.6222,-70.2983 1160.3333,-61.8962 1135,-56 1011.3148,-27.2129 862.9426,-16.3381 779.1537,-12.3044"/>
<polygon fill="#191970" stroke="#191970" points="779.1643,-8.8012 769.013,-11.8346 778.8402,-15.7937 779.1643,-8.8012"/>
</g>
<!-- Node19&#45;&gt;Node16 -->
<g id="edge26" class="edge">
<title>Node19&#45;&gt;Node16</title>
<path fill="none" stroke="#191970" d="M1565.4719,-168.2977C1553.7063,-159.1384 1538.7325,-147.4816 1526.7535,-138.1562"/>
<polygon fill="#191970" stroke="#191970" points="1528.6898,-135.228 1518.6489,-131.8469 1524.3897,-140.7516 1528.6898,-135.228"/>
</g>
<!-- Node20&#45;&gt;Node1 -->
<g id="edge29" class="edge">
<title>Node20&#45;&gt;Node1</title>
<path fill="none" stroke="#191970" d="M751.3095,-644.4007C700.6601,-639.3712 618.9669,-627.7683 553,-602 422.0563,-550.8501 377.2054,-540.1166 285,-434 261.6775,-407.1587 243.5526,-389.5259 260,-358 286.2466,-307.6912 346.2494,-275.2068 385.4024,-258.5239"/>
<polygon fill="#191970" stroke="#191970" points="386.9613,-261.6671 394.8741,-254.6217 384.2948,-255.1949 386.9613,-261.6671"/>
</g>
<!-- Node20&#45;&gt;Node10 -->
<g id="edge33" class="edge">
<title>Node20&#45;&gt;Node10</title>
<path fill="none" stroke="#191970" d="M751.4371,-639.7909C669.1649,-624.2289 509,-587.3404 509,-536 509,-536 509,-536 509,-480 509,-446.051 494.8765,-408.5869 485.1089,-386.7366"/>
<polygon fill="#191970" stroke="#191970" points="488.2552,-385.202 480.8693,-377.6061 481.9063,-388.1501 488.2552,-385.202"/>
</g>
<!-- Node20&#45;&gt;Node14 -->
<g id="edge31" class="edge">
<title>Node20&#45;&gt;Node14</title>
<path fill="none" stroke="#191970" d="M797.7105,-638.4324C795.2219,-619.112 790,-574.0389 790,-536 790,-536 790,-536 790,-480 790,-447.6293 786.634,-410.1294 784.2687,-387.7743"/>
<polygon fill="#191970" stroke="#191970" points="787.719,-387.1291 783.1462,-377.5719 780.761,-387.8948 787.719,-387.1291"/>
</g>
<!-- Node21 -->
<g id="node22" class="node">
<title>Node21</title>
<polygon fill="#ffffff" stroke="#bfbfbf" points="985,-358.5 985,-377.5 1095,-377.5 1095,-358.5 985,-358.5"/>
<text text-anchor="middle" x="1040" y="-365.5" font-family="Helvetica,sans-Serif" font-size="10.00" fill="#000000">odp/api/abi/event.h</text>
</g>
<!-- Node20&#45;&gt;Node21 -->
<g id="edge30" class="edge">
<title>Node20&#45;&gt;Node21</title>
<path fill="none" stroke="#191970" d="M828.076,-638.4277C867.4865,-623.4059 933,-590.2726 933,-536 933,-536 933,-536 933,-480 933,-434.7199 979.2892,-400.5518 1010.9759,-382.4668"/>
<polygon fill="#191970" stroke="#191970" points="1012.7896,-385.464 1019.8741,-377.5861 1009.4232,-379.3266 1012.7896,-385.464"/>
</g>
<!-- Node22 -->
<g id="node23" class="node">
<title>Node22</title>
<polygon fill="#ffffff" stroke="#bfbfbf" points="857,-358.5 857,-377.5 967,-377.5 967,-358.5 857,-358.5"/>
<text text-anchor="middle" x="912" y="-365.5" font-family="Helvetica,sans-Serif" font-size="10.00" fill="#000000">odp/api/abi/buffer.h</text>
</g>
<!-- Node20&#45;&gt;Node22 -->
<g id="edge32" class="edge">
<title>Node20&#45;&gt;Node22</title>
<path fill="none" stroke="#191970" d="M809.2827,-638.2781C827.374,-620.067 863,-578.7748 863,-536 863,-536 863,-536 863,-480 863,-444.3181 884.133,-407.1985 898.6419,-385.9186"/>
<polygon fill="#191970" stroke="#191970" points="901.6329,-387.7512 904.558,-377.5681 895.9211,-383.7046 901.6329,-387.7512"/>
</g>
<!-- Node23 -->
<g id="node24" class="node">
<title>Node23</title>
<g id="a_node24"><a xlink:href="spec_2queue_8h.html" target="_top" xlink:title="ODP queue. ">
<polygon fill="#ffffff" stroke="#000000" points="1101,-582.5 1101,-601.5 1221,-601.5 1221,-582.5 1101,-582.5"/>
<text text-anchor="middle" x="1161" y="-589.5" font-family="Helvetica,sans-Serif" font-size="10.00" fill="#000000">odp/api/spec/queue.h</text>
</a>
</g>
</g>
<!-- Node20&#45;&gt;Node23 -->
<g id="edge34" class="edge">
<title>Node20&#45;&gt;Node23</title>
<path fill="none" stroke="#191970" d="M846.6974,-640.6214C909.1332,-630.9628 1019.0553,-613.9583 1090.9517,-602.8362"/>
<polygon fill="#191970" stroke="#191970" points="1091.488,-606.295 1100.8354,-601.3072 1090.4178,-599.3772 1091.488,-606.295"/>
</g>
<!-- Node23&#45;&gt;Node4 -->
<g id="edge35" class="edge">
<title>Node23&#45;&gt;Node4</title>
<path fill="none" stroke="#191970" d="M1221.1033,-582.9876C1363.199,-557.9304 1708,-473.5784 1708,-245 1708,-245 1708,-245 1708,-122 1708,-83.8166 1686.0362,-75.1465 1653,-56 1621.4479,-37.7136 1528.8959,-24.436 1462.9863,-16.9756"/>
<polygon fill="#191970" stroke="#191970" points="1462.9755,-13.453 1452.6504,-15.8283 1462.2032,-20.4102 1462.9755,-13.453"/>
</g>
<!-- Node23&#45;&gt;Node9 -->
<g id="edge71" class="edge">
<title>Node23&#45;&gt;Node9</title>
<path fill="none" stroke="#191970" d="M1161,-582.4116C1161,-563.0538 1161,-517.9167 1161,-480 1161,-480 1161,-480 1161,-368 1161,-234.8904 706.2568,-190.2768 638,-76 624.9083,-54.0817 651.6669,-35.5488 676.7775,-23.7545"/>
<polygon fill="#191970" stroke="#191970" points="678.505,-26.8175 686.2342,-19.5711 675.6731,-20.4159 678.505,-26.8175"/>
</g>
<!-- Node24 -->
<g id="node25" class="node">
<title>Node24</title>
<g id="a_node25"><a xlink:href="event_8h.html" target="_top" xlink:title="ODP event. ">
<polygon fill="#ffffff" stroke="#000000" points="1028,-526.5 1028,-545.5 1120,-545.5 1120,-526.5 1028,-526.5"/>
<text text-anchor="middle" x="1074" y="-533.5" font-family="Helvetica,sans-Serif" font-size="10.00" fill="#000000">odp/api/event.h</text>
</a>
</g>
</g>
<!-- Node23&#45;&gt;Node24 -->
<g id="edge36" class="edge">
<title>Node23&#45;&gt;Node24</title>
<path fill="none" stroke="#191970" d="M1145.8458,-582.2455C1132.4973,-573.6534 1112.8414,-561.0014 1097.4617,-551.1018"/>
<polygon fill="#191970" stroke="#191970" points="1099.2836,-548.1121 1088.9806,-545.6427 1095.4949,-553.9982 1099.2836,-548.1121"/>
</g>
<!-- Node31 -->
<g id="node32" class="node">
<title>Node31</title>
<g id="a_node32"><a xlink:href="queue__types_8h.html" target="_top" xlink:title="ODP queue types. ">
<polygon fill="#ffffff" stroke="#000000" points="1227.5,-291.5 1227.5,-321.5 1338.5,-321.5 1338.5,-291.5 1227.5,-291.5"/>
<text text-anchor="start" x="1235.5" y="-309.5" font-family="Helvetica,sans-Serif" font-size="10.00" fill="#000000">odp/api/spec/queue</text>
<text text-anchor="middle" x="1283" y="-298.5" font-family="Helvetica,sans-Serif" font-size="10.00" fill="#000000">_types.h</text>
</a>
</g>
</g>
<!-- Node23&#45;&gt;Node31 -->
<g id="edge58" class="edge">
<title>Node23&#45;&gt;Node31</title>
<path fill="none" stroke="#191970" d="M1173.5499,-582.4082C1195.136,-564.7155 1237,-524.6472 1237,-480 1237,-480 1237,-480 1237,-424 1237,-389.7278 1254.1792,-353.4624 1267.5407,-330.4393"/>
<polygon fill="#191970" stroke="#191970" points="1270.6324,-332.0896 1272.7911,-321.717 1264.6351,-328.4795 1270.6324,-332.0896"/>
</g>
<!-- Node24&#45;&gt;Node21 -->
<g id="edge37" class="edge">
<title>Node24&#45;&gt;Node21</title>
<path fill="none" stroke="#191970" d="M1049.1745,-526.4395C1033.7121,-519.0336 1015.0888,-507.1213 1006,-490 987.8081,-455.7304 1010.8489,-410.7399 1026.9235,-386.09"/>
<polygon fill="#191970" stroke="#191970" points="1029.9002,-387.9372 1032.6426,-377.7034 1024.1169,-383.9933 1029.9002,-387.9372"/>
</g>
<!-- Node25 -->
<g id="node26" class="node">
<title>Node25</title>
<g id="a_node26"><a xlink:href="spec_2event_8h.html" target="_top" xlink:title="ODP event. ">
<polygon fill="#ffffff" stroke="#000000" points="1015,-470.5 1015,-489.5 1133,-489.5 1133,-470.5 1015,-470.5"/>
<text text-anchor="middle" x="1074" y="-477.5" font-family="Helvetica,sans-Serif" font-size="10.00" fill="#000000">odp/api/spec/event.h</text>
</a>
</g>
</g>
<!-- Node24&#45;&gt;Node25 -->
<g id="edge38" class="edge">
<title>Node24&#45;&gt;Node25</title>
<path fill="none" stroke="#191970" d="M1074,-526.2455C1074,-518.9382 1074,-508.6944 1074,-499.7046"/>
<polygon fill="#191970" stroke="#191970" points="1077.5001,-499.6426 1074,-489.6427 1070.5001,-499.6427 1077.5001,-499.6426"/>
</g>
<!-- Node25&#45;&gt;Node4 -->
<g id="edge39" class="edge">
<title>Node25&#45;&gt;Node4</title>
<path fill="none" stroke="#191970" d="M1133.2732,-471.7596C1255.6728,-451.1882 1534.6278,-385.1121 1651,-199 1672.2593,-165.0004 1679.934,-105.5958 1631,-56 1607.9129,-32.6006 1524.6069,-20.6525 1462.8081,-14.8795"/>
<polygon fill="#191970" stroke="#191970" points="1462.9742,-11.3804 1452.7012,-13.9718 1462.348,-18.3523 1462.9742,-11.3804"/>
</g>
<!-- Node25&#45;&gt;Node9 -->
<g id="edge57" class="edge">
<title>Node25&#45;&gt;Node9</title>
<path fill="none" stroke="#191970" d="M1081.1462,-470.255C1096.2573,-448.3551 1128.1551,-394.325 1104,-358 1043.5541,-267.1001 754.2796,-203.3527 651,-168 592.6561,-148.0288 572.1156,-159.6611 517,-132 499.0401,-122.9864 454.7674,-94.0814 446,-76 442.1218,-68.0018 440.273,-62.7981 446,-56 458.8439,-40.754 571.7633,-25.528 646.5833,-16.9813"/>
<polygon fill="#191970" stroke="#191970" points="647.3289,-20.4195 656.8735,-15.8203 646.5441,-13.4636 647.3289,-20.4195"/>
</g>
<!-- Node25&#45;&gt;Node26 -->
<g id="edge40" class="edge">
<title>Node25&#45;&gt;Node26</title>
<path fill="none" stroke="#191970" d="M1014.6495,-473.1893C920.7567,-462.4147 739.0146,-441.5591 645.2097,-430.7946"/>
<polygon fill="#191970" stroke="#191970" points="645.374,-427.2905 635.0402,-429.6276 644.5759,-434.2449 645.374,-427.2905"/>
</g>
<!-- Node26&#45;&gt;Node1 -->
<g id="edge41" class="edge">
<title>Node26&#45;&gt;Node1</title>
<path fill="none" stroke="#191970" d="M579.4674,-414.242C570.4687,-401.0344 553.4937,-376.9425 537,-358 505.2665,-321.555 464.0321,-282.8735 440.544,-261.5474"/>
<polygon fill="#191970" stroke="#191970" points="442.7901,-258.8599 433.0207,-254.76 438.1011,-264.0574 442.7901,-258.8599"/>
</g>
<!-- Node26&#45;&gt;Node10 -->
<g id="edge47" class="edge">
<title>Node26&#45;&gt;Node10</title>
<path fill="none" stroke="#191970" d="M566.8395,-414.2455C549.4889,-405.4125 523.7099,-392.2887 504.0417,-382.2758"/>
<polygon fill="#191970" stroke="#191970" points="505.4405,-379.0605 494.941,-377.6427 502.2647,-385.2986 505.4405,-379.0605"/>
</g>
<!-- Node26&#45;&gt;Node12 -->
<g id="edge44" class="edge">
<title>Node26&#45;&gt;Node12</title>
<path fill="none" stroke="#191970" d="M536.9953,-418.06C454.2034,-408.0246 286.4701,-387.6933 192.2275,-376.27"/>
<polygon fill="#191970" stroke="#191970" points="192.5745,-372.7865 182.226,-375.0577 191.7322,-379.7357 192.5745,-372.7865"/>
</g>
<!-- Node26&#45;&gt;Node13 -->
<g id="edge43" class="edge">
<title>Node26&#45;&gt;Node13</title>
<path fill="none" stroke="#191970" d="M544.1614,-414.4369C502.2315,-404.8529 437.6052,-390.0812 392.5376,-379.78"/>
<polygon fill="#191970" stroke="#191970" points="393.1946,-376.34 382.6661,-377.5237 391.6347,-383.164 393.1946,-376.34"/>
</g>
<!-- Node26&#45;&gt;Node14 -->
<g id="edge45" class="edge">
<title>Node26&#45;&gt;Node14</title>
<path fill="none" stroke="#191970" d="M619.6936,-414.3733C652.7087,-404.9404 703.1573,-390.5265 739.0386,-380.2747"/>
<polygon fill="#191970" stroke="#191970" points="740.0924,-383.6137 748.7461,-377.5011 738.1693,-376.8831 740.0924,-383.6137"/>
</g>
<!-- Node26&#45;&gt;Node21 -->
<g id="edge42" class="edge">
<title>Node26&#45;&gt;Node21</title>
<path fill="none" stroke="#191970" d="M635.021,-418.8162C707.1284,-411.0592 846.2766,-395.59 974.8365,-378.1195"/>
<polygon fill="#191970" stroke="#191970" points="975.4271,-381.5714 984.8613,-376.7501 974.4796,-374.6358 975.4271,-381.5714"/>
</g>
<!-- Node26&#45;&gt;Node22 -->
<g id="edge46" class="edge">
<title>Node26&#45;&gt;Node22</title>
<path fill="none" stroke="#191970" d="M635.1585,-415.5556C691.6037,-405.8595 784.427,-389.9144 846.8516,-379.1911"/>
<polygon fill="#191970" stroke="#191970" points="847.72,-382.5933 856.983,-377.4508 846.5348,-375.6944 847.72,-382.5933"/>
</g>
<!-- Node27 -->
<g id="node28" class="node">
<title>Node27</title>
<g id="a_node28"><a xlink:href="spec_2packet_8h.html" target="_top" xlink:title="ODP packet descriptor. ">
<polygon fill="#ffffff" stroke="#000000" points="584.5,-358.5 584.5,-377.5 707.5,-377.5 707.5,-358.5 584.5,-358.5"/>
<text text-anchor="middle" x="646" y="-365.5" font-family="Helvetica,sans-Serif" font-size="10.00" fill="#000000">odp/api/spec/packet.h</text>
</a>
</g>
</g>
<!-- Node26&#45;&gt;Node27 -->
<g id="edge48" class="edge">
<title>Node26&#45;&gt;Node27</title>
<path fill="none" stroke="#191970" d="M596.4512,-414.2455C605.2269,-406.0549 617.9554,-394.1749 628.314,-384.5069"/>
<polygon fill="#191970" stroke="#191970" points="630.7461,-387.0246 635.6686,-377.6427 625.9699,-381.9072 630.7461,-387.0246"/>
</g>
<!-- Node27&#45;&gt;Node4 -->
<g id="edge49" class="edge">
<title>Node27&#45;&gt;Node4</title>
<path fill="none" stroke="#191970" d="M707.6802,-359.2516C879.1194,-334.8067 1349.5591,-266.7998 1361,-255 1421.3812,-192.7246 1405.6852,-75.8594 1396.4475,-29.586"/>
<polygon fill="#191970" stroke="#191970" points="1399.8388,-28.7062 1394.3404,-19.6498 1392.9911,-30.1583 1399.8388,-28.7062"/>
</g>
<!-- Node27&#45;&gt;Node9 -->
<g id="edge56" class="edge">
<title>Node27&#45;&gt;Node9</title>
<path fill="none" stroke="#191970" d="M648.6885,-358.1952C656.7722,-326.364 677.4351,-224.7032 629,-168 585.5927,-117.1829 543.039,-161.3579 483,-132 441.4743,-111.6947 381.8844,-91.0677 412,-56 427.1,-38.4171 562.7663,-23.3372 646.7264,-15.5824"/>
<polygon fill="#191970" stroke="#191970" points="647.0567,-19.0669 656.6975,-14.6733 646.421,-12.0958 647.0567,-19.0669"/>
</g>
<!-- Node27&#45;&gt;Node28 -->
<g id="edge50" class="edge">
<title>Node27&#45;&gt;Node28</title>
<path fill="none" stroke="#191970" d="M635.0625,-358.3906C624.338,-348.9683 607.7713,-334.4134 594.9099,-323.1137"/>
<polygon fill="#191970" stroke="#191970" points="596.9143,-320.2158 587.0917,-316.2449 592.2941,-325.4745 596.9143,-320.2158"/>
</g>
<!-- Node28&#45;&gt;Node1 -->
<g id="edge51" class="edge">
<title>Node28&#45;&gt;Node1</title>
<path fill="none" stroke="#191970" d="M551.9375,-296.8906C525.9444,-286.5103 484.3522,-269.9004 455.2453,-258.2766"/>
<polygon fill="#191970" stroke="#191970" points="456.4785,-255.0003 445.8935,-254.5419 453.8823,-261.5011 456.4785,-255.0003"/>
</g>
<!-- Node29 -->
<g id="node30" class="node">
<title>Node29</title>
<polygon fill="#ffffff" stroke="#bfbfbf" points="514.5,-235.5 514.5,-254.5 619.5,-254.5 619.5,-235.5 514.5,-235.5"/>
<text text-anchor="middle" x="567" y="-242.5" font-family="Helvetica,sans-Serif" font-size="10.00" fill="#000000">odp/api/abi/time.h</text>
</g>
<!-- Node28&#45;&gt;Node29 -->
<g id="edge52" class="edge">
<title>Node28&#45;&gt;Node29</title>
<path fill="none" stroke="#191970" d="M574.5938,-296.8906C573.3462,-288.3657 571.4838,-275.6392 569.9156,-264.9235"/>
<polygon fill="#191970" stroke="#191970" points="573.3373,-264.1326 568.4261,-254.7449 566.411,-265.1463 573.3373,-264.1326"/>
</g>
<!-- Node30 -->
<g id="node31" class="node">
<title>Node30</title>
<g id="a_node31"><a xlink:href="spec_2time_8h.html" target="_top" xlink:title="ODP time. ">
<polygon fill="#ffffff" stroke="#000000" points="788.5,-56.5 788.5,-75.5 901.5,-75.5 901.5,-56.5 788.5,-56.5"/>
<text text-anchor="middle" x="845" y="-63.5" font-family="Helvetica,sans-Serif" font-size="10.00" fill="#000000">odp/api/spec/time.h</text>
</a>
</g>
</g>
<!-- Node28&#45;&gt;Node30 -->
<g id="edge53" class="edge">
<title>Node28&#45;&gt;Node30</title>
<path fill="none" stroke="#191970" d="M586.8783,-296.7742C628.0324,-259.9803 774.4911,-129.0386 826.5065,-82.5341"/>
<polygon fill="#191970" stroke="#191970" points="829.1589,-84.8577 834.2811,-75.5833 824.4933,-79.6392 829.1589,-84.8577"/>
</g>
<!-- Node30&#45;&gt;Node4 -->
<g id="edge54" class="edge">
<title>Node30&#45;&gt;Node4</title>
<path fill="none" stroke="#191970" d="M901.5524,-57.8084C906.4355,-57.1698 911.3027,-56.5575 916,-56 1059.6353,-38.9527 1228.2246,-23.8039 1321.2804,-15.8648"/>
<polygon fill="#191970" stroke="#191970" points="1321.7543,-19.3372 1331.4219,-15.0026 1321.1613,-12.3624 1321.7543,-19.3372"/>
</g>
<!-- Node30&#45;&gt;Node9 -->
<g id="edge55" class="edge">
<title>Node30&#45;&gt;Node9</title>
<path fill="none" stroke="#191970" d="M822.3084,-56.3733C800.9289,-47.3032 768.6943,-33.6279 744.7638,-23.4755"/>
<polygon fill="#191970" stroke="#191970" points="745.9683,-20.1846 735.3955,-19.5011 743.2344,-26.6287 745.9683,-20.1846"/>
</g>
<!-- Node31&#45;&gt;Node4 -->
<g id="edge59" class="edge">
<title>Node31&#45;&gt;Node4</title>
<path fill="none" stroke="#191970" d="M1338.6703,-293.6221C1359.4304,-285.9234 1381.0737,-273.8269 1394,-255 1442.488,-184.3779 1413.4474,-73.2435 1398.8525,-29.0462"/>
<polygon fill="#191970" stroke="#191970" points="1402.1461,-27.8606 1395.5885,-19.5391 1395.5254,-30.1337 1402.1461,-27.8606"/>
</g>
<!-- Node31&#45;&gt;Node9 -->
<g id="edge70" class="edge">
<title>Node31&#45;&gt;Node9</title>
<path fill="none" stroke="#191970" d="M1256.9652,-291.4759C1208.145,-263.8157 1098.9251,-204.3455 1001,-168 962.8997,-153.8588 671.8614,-108.1484 647,-76 631.9476,-56.5357 657.9713,-36.9417 681.6391,-24.2197"/>
<polygon fill="#191970" stroke="#191970" points="683.5167,-27.1912 690.8381,-19.5331 680.339,-20.954 683.5167,-27.1912"/>
</g>
<!-- Node31&#45;&gt;Node16 -->
<g id="edge69" class="edge">
<title>Node31&#45;&gt;Node16</title>
<path fill="none" stroke="#191970" d="M1338.8051,-297.2911C1369.0698,-289.9835 1405.5777,-277.1615 1432,-255 1451.1816,-238.9116 1482.5114,-173.7696 1497.4954,-141.0083"/>
<polygon fill="#191970" stroke="#191970" points="1500.8133,-142.1658 1501.7499,-131.6125 1494.4365,-139.2784 1500.8133,-142.1658"/>
</g>
<!-- Node32 -->
<g id="node33" class="node">
<title>Node32</title>
<g id="a_node33"><a xlink:href="schedule__types_8h.html" target="_top" xlink:title="ODP schedule. ">
<polygon fill="#ffffff" stroke="#000000" points="1212,-235.5 1212,-254.5 1352,-254.5 1352,-235.5 1212,-235.5"/>
<text text-anchor="middle" x="1282" y="-242.5" font-family="Helvetica,sans-Serif" font-size="10.00" fill="#000000">odp/api/schedule_types.h</text>
</a>
</g>
</g>
<!-- Node31&#45;&gt;Node32 -->
<g id="edge60" class="edge">
<title>Node31&#45;&gt;Node32</title>
<path fill="none" stroke="#191970" d="M1282.7528,-291.2977C1282.6241,-283.3834 1282.4651,-273.6043 1282.3264,-265.0759"/>
<polygon fill="#191970" stroke="#191970" points="1285.8223,-264.7887 1282.1601,-254.8469 1278.8233,-264.9025 1285.8223,-264.7887"/>
</g>
<!-- Node33 -->
<g id="node34" class="node">
<title>Node33</title>
<polygon fill="#ffffff" stroke="#bfbfbf" points="1234.5,-168.5 1234.5,-198.5 1351.5,-198.5 1351.5,-168.5 1234.5,-168.5"/>
<text text-anchor="start" x="1242.5" y="-186.5" font-family="Helvetica,sans-Serif" font-size="10.00" fill="#000000">odp/api/abi/schedule</text>
<text text-anchor="middle" x="1293" y="-175.5" font-family="Helvetica,sans-Serif" font-size="10.00" fill="#000000">_types.h</text>
</g>
<!-- Node32&#45;&gt;Node33 -->
<g id="edge61" class="edge">
<title>Node32&#45;&gt;Node33</title>
<path fill="none" stroke="#191970" d="M1283.7188,-235.3906C1285.0007,-228.2234 1286.8138,-218.0862 1288.4979,-208.671"/>
<polygon fill="#191970" stroke="#191970" points="1291.9937,-209.0046 1290.3091,-198.5446 1285.103,-207.7721 1291.9937,-209.0046"/>
</g>
<!-- Node34 -->
<g id="node35" class="node">
<title>Node34</title>
<g id="a_node35"><a xlink:href="spec_2schedule__types_8h.html" target="_top" xlink:title="ODP schedule types. ">
<polygon fill="#ffffff" stroke="#000000" points="1091.5,-168.5 1091.5,-198.5 1216.5,-198.5 1216.5,-168.5 1091.5,-168.5"/>
<text text-anchor="start" x="1099.5" y="-186.5" font-family="Helvetica,sans-Serif" font-size="10.00" fill="#000000">odp/api/spec/schedule</text>
<text text-anchor="middle" x="1154" y="-175.5" font-family="Helvetica,sans-Serif" font-size="10.00" fill="#000000">_types.h</text>
</a>
</g>
</g>
<!-- Node32&#45;&gt;Node34 -->
<g id="edge62" class="edge">
<title>Node32&#45;&gt;Node34</title>
<path fill="none" stroke="#191970" d="M1262,-235.3906C1243.955,-226.7205 1216.8648,-213.7046 1194.3312,-202.8779"/>
<polygon fill="#191970" stroke="#191970" points="1195.8417,-199.7206 1185.3123,-198.5446 1192.8101,-206.0302 1195.8417,-199.7206"/>
</g>
<!-- Node34&#45;&gt;Node4 -->
<g id="edge63" class="edge">
<title>Node34&#45;&gt;Node4</title>
<path fill="none" stroke="#191970" d="M1216.8395,-169.1998C1243.2551,-161.1611 1273.2887,-149.1952 1297,-132 1335.9253,-103.7717 1366.8874,-55.32 1381.9738,-28.7637"/>
<polygon fill="#191970" stroke="#191970" points="1385.1844,-30.1902 1386.962,-19.7456 1379.059,-26.802 1385.1844,-30.1902"/>
</g>
<!-- Node34&#45;&gt;Node9 -->
<g id="edge68" class="edge">
<title>Node34&#45;&gt;Node9</title>
<path fill="none" stroke="#191970" d="M1154.053,-168.463C1153.2581,-141.2783 1147.334,-84.1691 1113,-56 1087.7399,-35.2755 886.0146,-20.2864 779.0595,-13.7097"/>
<polygon fill="#191970" stroke="#191970" points="779.2078,-10.2123 769.0139,-13.0996 778.7833,-17.1995 779.2078,-10.2123"/>
</g>
<!-- Node35 -->
<g id="node36" class="node">
<title>Node35</title>
<g id="a_node36"><a xlink:href="support_8h.html" target="_top" xlink:title="ODP support API &#45; platform specific header. ">
<polygon fill="#ffffff" stroke="#000000" points="1186.5,-112.5 1186.5,-131.5 1287.5,-131.5 1287.5,-112.5 1186.5,-112.5"/>
<text text-anchor="middle" x="1237" y="-119.5" font-family="Helvetica,sans-Serif" font-size="10.00" fill="#000000">odp/api/support.h</text>
</a>
</g>
</g>
<!-- Node34&#45;&gt;Node35 -->
<g id="edge64" class="edge">
<title>Node34&#45;&gt;Node35</title>
<path fill="none" stroke="#191970" d="M1174.5169,-168.2977C1186.9982,-159.0495 1202.9159,-147.2551 1215.5614,-137.8853"/>
<polygon fill="#191970" stroke="#191970" points="1217.7596,-140.6126 1223.7106,-131.8469 1213.5922,-134.9882 1217.7596,-140.6126"/>
</g>
<!-- Node36 -->
<g id="node37" class="node">
<title>Node36</title>
<g id="a_node37"><a xlink:href="spec_2support_8h.html" target="_top" xlink:title="ODP support API. ">
<polygon fill="#ffffff" stroke="#000000" points="1198.5,-56.5 1198.5,-75.5 1325.5,-75.5 1325.5,-56.5 1198.5,-56.5"/>
<text text-anchor="middle" x="1262" y="-63.5" font-family="Helvetica,sans-Serif" font-size="10.00" fill="#000000">odp/api/spec/support.h</text>
</a>
</g>
</g>
<!-- Node35&#45;&gt;Node36 -->
<g id="edge65" class="edge">
<title>Node35&#45;&gt;Node36</title>
<path fill="none" stroke="#191970" d="M1241.3547,-112.2455C1244.7244,-104.6973 1249.493,-94.0158 1253.5983,-84.8197"/>
<polygon fill="#191970" stroke="#191970" points="1256.8147,-86.2009 1257.6952,-75.6427 1250.4227,-83.3473 1256.8147,-86.2009"/>
</g>
<!-- Node36&#45;&gt;Node4 -->
<g id="edge66" class="edge">
<title>Node36&#45;&gt;Node4</title>
<path fill="none" stroke="#191970" d="M1284.3478,-56.3733C1305.4033,-47.3032 1337.1495,-33.6279 1360.7175,-23.4755"/>
<polygon fill="#191970" stroke="#191970" points="1362.1444,-26.6719 1369.9438,-19.5011 1359.375,-20.243 1362.1444,-26.6719"/>
</g>
<!-- Node36&#45;&gt;Node9 -->
<g id="edge67" class="edge">
<title>Node36&#45;&gt;Node9</title>
<path fill="none" stroke="#191970" d="M1198.1682,-57.6573C1193.3757,-57.0796 1188.6125,-56.5208 1184,-56 1039.9445,-39.7349 870.7112,-24.038 779.4452,-15.8532"/>
<polygon fill="#191970" stroke="#191970" points="779.5186,-12.3459 769.2464,-14.9407 778.8947,-19.318 779.5186,-12.3459"/>
</g>
<!-- Node38 -->
<g id="node39" class="node">
<title>Node38</title>
<g id="a_node39"><a xlink:href="spec_2reassembly_8h.html" target="_top" xlink:title="ODP REASSEMBLY API. ">
<polygon fill="#ffffff" stroke="#000000" points="958,-56.5 958,-75.5 1104,-75.5 1104,-56.5 958,-56.5"/>
<text text-anchor="middle" x="1031" y="-63.5" font-family="Helvetica,sans-Serif" font-size="10.00" fill="#000000">odp/api/spec/reassembly.h</text>
</a>
</g>
</g>
<!-- Node37&#45;&gt;Node38 -->
<g id="edge73" class="edge">
<title>Node37&#45;&gt;Node38</title>
<path fill="none" stroke="#191970" d="M1303.2996,-582.497C1292.0161,-543.7859 1245.9037,-395.098 1175,-291 1142.4473,-243.2075 1114.6439,-247.399 1083,-199 1058.913,-162.1593 1043.2254,-112.45 1035.8719,-85.44"/>
<polygon fill="#191970" stroke="#191970" points="1039.2297,-84.4463 1033.3069,-75.6616 1032.4588,-86.2224 1039.2297,-84.4463"/>
</g>
<!-- Node38&#45;&gt;Node4 -->
<g id="edge74" class="edge">
<title>Node38&#45;&gt;Node4</title>
<path fill="none" stroke="#191970" d="M1092.6479,-56.4369C1156.0496,-46.6017 1254.6698,-31.3033 1321.2218,-20.9794"/>
<polygon fill="#191970" stroke="#191970" points="1321.8632,-24.4219 1331.2085,-19.4303 1320.7901,-17.5046 1321.8632,-24.4219"/>
</g>
<!-- Node38&#45;&gt;Node9 -->
<g id="edge75" class="edge">
<title>Node38&#45;&gt;Node9</title>
<path fill="none" stroke="#191970" d="M976.6952,-56.4369C921.3573,-46.6918 835.5617,-31.5832 776.9661,-21.2645"/>
<polygon fill="#191970" stroke="#191970" points="777.5363,-17.8111 767.0808,-19.5237 776.3223,-24.705 777.5363,-17.8111"/>
</g>
</g>
</svg>
