<?xml version="1.0" encoding="UTF-8" standalone="no"?>
<!DOCTYPE svg PUBLIC "-//W3C//DTD SVG 1.1//EN"
 "http://www.w3.org/Graphics/SVG/1.1/DTD/svg11.dtd">
<!-- Generated by graphviz version 2.40.1 (20161225.0304)
 -->
<!-- Title: deprecated.h Pages: 1 -->
<svg width="524pt" height="588pt"
 viewBox="0.00 0.00 523.50 588.00" xmlns="http://www.w3.org/2000/svg" xmlns:xlink="http://www.w3.org/1999/xlink">
<g id="graph0" class="graph" transform="scale(1 1) rotate(0) translate(4 584)">
<title>deprecated.h</title>
<polygon fill="#ffffff" stroke="transparent" points="-4,4 -4,-584 519.5,-584 519.5,4 -4,4"/>
<!-- Node3 -->
<g id="node1" class="node">
<title>Node3</title>
<polygon fill="#bfbfbf" stroke="#000000" points="156.5,-560.5 156.5,-579.5 236.5,-579.5 236.5,-560.5 156.5,-560.5"/>
<text text-anchor="middle" x="196.5" y="-567.5" font-family="Helvetica,sans-Serif" font-size="10.00" fill="#000000">deprecated.h</text>
</g>
<!-- Node4 -->
<g id="node2" class="node">
<title>Node4</title>
<g id="a_node2"><a xlink:href="deprecated_8h.html" target="_top" xlink:title="Control deprecated API definitions. ">
<polygon fill="#ffffff" stroke="#000000" points="156.5,-504.5 156.5,-523.5 236.5,-523.5 236.5,-504.5 156.5,-504.5"/>
<text text-anchor="middle" x="196.5" y="-511.5" font-family="Helvetica,sans-Serif" font-size="10.00" fill="#000000">deprecated.h</text>
</a>
</g>
</g>
<!-- Node3&#45;&gt;Node4 -->
<g id="edge1" class="edge">
<title>Node3&#45;&gt;Node4</title>
<path fill="none" stroke="#191970" d="M196.5,-550.1575C196.5,-541.155 196.5,-530.9199 196.5,-523.6427"/>
<polygon fill="#191970" stroke="#191970" points="193.0001,-550.2455 196.5,-560.2455 200.0001,-550.2456 193.0001,-550.2455"/>
</g>
<!-- Node5 -->
<g id="node3" class="node">
<title>Node5</title>
<g id="a_node3"><a xlink:href="abi-default_2classification_8h_source.html" target="_top" xlink:title="classification.h">
<polygon fill="#ffffff" stroke="#000000" points="0,-448.5 0,-467.5 89,-467.5 89,-448.5 0,-448.5"/>
<text text-anchor="middle" x="44.5" y="-455.5" font-family="Helvetica,sans-Serif" font-size="10.00" fill="#000000">classification.h</text>
</a>
</g>
</g>
<!-- Node4&#45;&gt;Node5 -->
<g id="edge2" class="edge">
<title>Node4&#45;&gt;Node5</title>
<path fill="none" stroke="#191970" d="M160.641,-500.7888C132.8877,-490.5639 95.1181,-476.6488 70.2888,-467.5011"/>
<polygon fill="#191970" stroke="#191970" points="159.7768,-504.2003 170.3703,-504.3733 162.1968,-497.6319 159.7768,-504.2003"/>
</g>
<!-- Node6 -->
<g id="node4" class="node">
<title>Node6</title>
<g id="a_node4"><a xlink:href="spec_2crypto_8h.html" target="_top" xlink:title="ODP crypto. ">
<polygon fill="#ffffff" stroke="#000000" points="459.5,-336.5 459.5,-355.5 515.5,-355.5 515.5,-336.5 459.5,-336.5"/>
<text text-anchor="middle" x="487.5" y="-343.5" font-family="Helvetica,sans-Serif" font-size="10.00" fill="#000000">crypto.h</text>
</a>
</g>
</g>
<!-- Node4&#45;&gt;Node6 -->
<g id="edge3" class="edge">
<title>Node4&#45;&gt;Node6</title>
<path fill="none" stroke="#191970" d="M246.5148,-510.1207C308.7474,-502.4504 413.5058,-479.6553 468.5,-412 482.0378,-395.3455 485.9314,-369.482 487.05,-355.5934"/>
<polygon fill="#191970" stroke="#191970" points="246.0684,-506.6488 236.5326,-511.2662 246.8665,-513.6032 246.0684,-506.6488"/>
</g>
<!-- Node10 -->
<g id="node8" class="node">
<title>Node10</title>
<g id="a_node8"><a xlink:href="spec_2packet__io_8h.html" target="_top" xlink:title="ODP Packet IO. ">
<polygon fill="#ffffff" stroke="#000000" points="160,-280.5 160,-299.5 233,-299.5 233,-280.5 160,-280.5"/>
<text text-anchor="middle" x="196.5" y="-287.5" font-family="Helvetica,sans-Serif" font-size="10.00" fill="#000000">packet_io.h</text>
</a>
</g>
</g>
<!-- Node4&#45;&gt;Node10 -->
<g id="edge7" class="edge">
<title>Node4&#45;&gt;Node10</title>
<path fill="none" stroke="#191970" d="M166.9407,-499.1349C155.2062,-491.5543 142.9793,-481.1319 136.5,-468 121.5542,-437.7087 127.6252,-424.591 136.5,-392 146.7022,-354.5344 174.5438,-316.7931 188.4183,-299.6041"/>
<polygon fill="#191970" stroke="#191970" points="165.3348,-502.2525 175.7148,-504.3756 168.9244,-496.2428 165.3348,-502.2525"/>
</g>
<!-- Node16 -->
<g id="node14" class="node">
<title>Node16</title>
<g id="a_node14"><a xlink:href="spec_2packet__io__stats_8h.html" target="_top" xlink:title="ODP Packet IO statistics. ">
<polygon fill="#ffffff" stroke="#000000" points="145.5,-448.5 145.5,-467.5 247.5,-467.5 247.5,-448.5 145.5,-448.5"/>
<text text-anchor="middle" x="196.5" y="-455.5" font-family="Helvetica,sans-Serif" font-size="10.00" fill="#000000">packet_io_stats.h</text>
</a>
</g>
</g>
<!-- Node4&#45;&gt;Node16 -->
<g id="edge16" class="edge">
<title>Node4&#45;&gt;Node16</title>
<path fill="none" stroke="#191970" d="M196.5,-494.1575C196.5,-485.155 196.5,-474.9199 196.5,-467.6427"/>
<polygon fill="#191970" stroke="#191970" points="193.0001,-494.2455 196.5,-504.2455 200.0001,-494.2456 193.0001,-494.2455"/>
</g>
<!-- Node18 -->
<g id="node16" class="node">
<title>Node18</title>
<g id="a_node16"><a xlink:href="queue__types_8h.html" target="_top" xlink:title="ODP queue types. ">
<polygon fill="#ffffff" stroke="#000000" points="265.5,-448.5 265.5,-467.5 353.5,-467.5 353.5,-448.5 265.5,-448.5"/>
<text text-anchor="middle" x="309.5" y="-455.5" font-family="Helvetica,sans-Serif" font-size="10.00" fill="#000000">queue_types.h</text>
</a>
</g>
</g>
<!-- Node4&#45;&gt;Node18 -->
<g id="edge19" class="edge">
<title>Node4&#45;&gt;Node18</title>
<path fill="none" stroke="#191970" d="M225.0792,-499.8368C245.5058,-489.7139 272.4362,-476.3679 290.3281,-467.5011"/>
<polygon fill="#191970" stroke="#191970" points="223.3313,-496.7968 215.9254,-504.3733 226.4396,-503.0688 223.3313,-496.7968"/>
</g>
<!-- Node7 -->
<g id="node5" class="node">
<title>Node7</title>
<g id="a_node5"><a xlink:href="crypto_8h.html" target="_top" xlink:title="ODP crypto. ">
<polygon fill="#ffffff" stroke="#000000" points="344.5,-280.5 344.5,-299.5 400.5,-299.5 400.5,-280.5 344.5,-280.5"/>
<text text-anchor="middle" x="372.5" y="-287.5" font-family="Helvetica,sans-Serif" font-size="10.00" fill="#000000">crypto.h</text>
</a>
</g>
</g>
<!-- Node6&#45;&gt;Node7 -->
<g id="edge4" class="edge">
<title>Node6&#45;&gt;Node7</title>
<path fill="none" stroke="#191970" d="M458.6967,-331.9741C437.875,-321.8348 410.3022,-308.408 392.0112,-299.5011"/>
<polygon fill="#191970" stroke="#191970" points="457.2078,-335.1419 467.7308,-336.3733 460.2724,-328.8484 457.2078,-335.1419"/>
</g>
<!-- Node8 -->
<g id="node6" class="node">
<title>Node8</title>
<g id="a_node6"><a xlink:href="spec_2ipsec_8h.html" target="_top" xlink:title="ODP IPSEC API. ">
<polygon fill="#ffffff" stroke="#000000" points="225,-56.5 225,-75.5 276,-75.5 276,-56.5 225,-56.5"/>
<text text-anchor="middle" x="250.5" y="-63.5" font-family="Helvetica,sans-Serif" font-size="10.00" fill="#000000">ipsec.h</text>
</a>
</g>
</g>
<!-- Node7&#45;&gt;Node8 -->
<g id="edge5" class="edge">
<title>Node7&#45;&gt;Node8</title>
<path fill="none" stroke="#191970" d="M376.2509,-270.3513C381.8416,-234.9891 388.2914,-159.8625 353.5,-112 335.3062,-86.9708 300.3356,-75.3147 276.2274,-70.0584"/>
<polygon fill="#191970" stroke="#191970" points="372.7771,-269.8998 374.5193,-280.3504 379.6744,-271.0943 372.7771,-269.8998"/>
</g>
<!-- Node9 -->
<g id="node7" class="node">
<title>Node9</title>
<g id="a_node7"><a xlink:href="ipsec_8h.html" target="_top" xlink:title="ODP IPSEC API &#45; platform specific header. ">
<polygon fill="#ffffff" stroke="#000000" points="225,-.5 225,-19.5 276,-19.5 276,-.5 225,-.5"/>
<text text-anchor="middle" x="250.5" y="-7.5" font-family="Helvetica,sans-Serif" font-size="10.00" fill="#000000">ipsec.h</text>
</a>
</g>
</g>
<!-- Node8&#45;&gt;Node9 -->
<g id="edge6" class="edge">
<title>Node8&#45;&gt;Node9</title>
<path fill="none" stroke="#191970" d="M250.5,-46.1575C250.5,-37.155 250.5,-26.9199 250.5,-19.6427"/>
<polygon fill="#191970" stroke="#191970" points="247.0001,-46.2455 250.5,-56.2455 254.0001,-46.2456 247.0001,-46.2455"/>
</g>
<!-- Node11 -->
<g id="node9" class="node">
<title>Node11</title>
<g id="a_node9"><a xlink:href="packet__io_8h.html" target="_top" xlink:title="ODP Packet IO. ">
<polygon fill="#ffffff" stroke="#000000" points="161,-224.5 161,-243.5 234,-243.5 234,-224.5 161,-224.5"/>
<text text-anchor="middle" x="197.5" y="-231.5" font-family="Helvetica,sans-Serif" font-size="10.00" fill="#000000">packet_io.h</text>
</a>
</g>
</g>
<!-- Node10&#45;&gt;Node11 -->
<g id="edge8" class="edge">
<title>Node10&#45;&gt;Node11</title>
<path fill="none" stroke="#191970" d="M196.8543,-270.1575C197.0151,-261.155 197.1979,-250.9199 197.3278,-243.6427"/>
<polygon fill="#191970" stroke="#191970" points="193.3534,-270.1846 196.6742,-280.2455 200.3523,-270.3097 193.3534,-270.1846"/>
</g>
<!-- Node11&#45;&gt;Node8 -->
<g id="edge12" class="edge">
<title>Node11&#45;&gt;Node8</title>
<path fill="none" stroke="#191970" d="M171.5726,-218.5977C161.1131,-210.8639 150.1889,-200.4704 144.5,-188 130.4807,-157.269 125.9698,-140.2413 144.5,-112 162.2185,-84.9959 199.5759,-73.7638 224.862,-69.1463"/>
<polygon fill="#191970" stroke="#191970" points="169.8963,-221.6918 180.1242,-224.4558 173.8523,-215.9168 169.8963,-221.6918"/>
</g>
<!-- Node12 -->
<g id="node10" class="node">
<title>Node12</title>
<g id="a_node10"><a xlink:href="spec_2classification_8h.html" target="_top" xlink:title="ODP classification descriptor. ">
<polygon fill="#ffffff" stroke="#000000" points="154,-168.5 154,-187.5 243,-187.5 243,-168.5 154,-168.5"/>
<text text-anchor="middle" x="198.5" y="-175.5" font-family="Helvetica,sans-Serif" font-size="10.00" fill="#000000">classification.h</text>
</a>
</g>
</g>
<!-- Node11&#45;&gt;Node12 -->
<g id="edge9" class="edge">
<title>Node11&#45;&gt;Node12</title>
<path fill="none" stroke="#191970" d="M197.8543,-214.1575C198.0151,-205.155 198.1979,-194.9199 198.3278,-187.6427"/>
<polygon fill="#191970" stroke="#191970" points="194.3534,-214.1846 197.6742,-224.2455 201.3523,-214.3097 194.3534,-214.1846"/>
</g>
<!-- Node14 -->
<g id="node12" class="node">
<title>Node14</title>
<g id="a_node12"><a xlink:href="spec_2traffic__mngr_8h.html" target="_top" xlink:title="Copyright (c) 2015&#45;2018, Linaro Limited All rights reserved. ">
<polygon fill="#ffffff" stroke="#000000" points="260.5,-168.5 260.5,-187.5 344.5,-187.5 344.5,-168.5 260.5,-168.5"/>
<text text-anchor="middle" x="302.5" y="-175.5" font-family="Helvetica,sans-Serif" font-size="10.00" fill="#000000">traffic_mngr.h</text>
</a>
</g>
</g>
<!-- Node11&#45;&gt;Node14 -->
<g id="edge13" class="edge">
<title>Node11&#45;&gt;Node14</title>
<path fill="none" stroke="#191970" d="M224.7625,-219.46C243.5522,-209.4388 268.0013,-196.3993 284.42,-187.6427"/>
<polygon fill="#191970" stroke="#191970" points="222.9661,-216.4514 215.7896,-224.2455 226.2602,-222.6278 222.9661,-216.4514"/>
</g>
<!-- Node13 -->
<g id="node11" class="node">
<title>Node13</title>
<g id="a_node11"><a xlink:href="classification_8h.html" target="_top" xlink:title="ODP classification descriptor. ">
<polygon fill="#ffffff" stroke="#000000" points="154,-112.5 154,-131.5 243,-131.5 243,-112.5 154,-112.5"/>
<text text-anchor="middle" x="198.5" y="-119.5" font-family="Helvetica,sans-Serif" font-size="10.00" fill="#000000">classification.h</text>
</a>
</g>
</g>
<!-- Node12&#45;&gt;Node13 -->
<g id="edge10" class="edge">
<title>Node12&#45;&gt;Node13</title>
<path fill="none" stroke="#191970" d="M198.5,-158.1575C198.5,-149.155 198.5,-138.9199 198.5,-131.6427"/>
<polygon fill="#191970" stroke="#191970" points="195.0001,-158.2455 198.5,-168.2455 202.0001,-158.2456 195.0001,-158.2455"/>
</g>
<!-- Node13&#45;&gt;Node8 -->
<g id="edge11" class="edge">
<title>Node13&#45;&gt;Node8</title>
<path fill="none" stroke="#191970" d="M214.4822,-104.7884C223.3778,-95.2085 234.1204,-83.6396 241.5461,-75.6427"/>
<polygon fill="#191970" stroke="#191970" points="211.7975,-102.536 207.5577,-112.2455 216.927,-107.2992 211.7975,-102.536"/>
</g>
<!-- Node15 -->
<g id="node13" class="node">
<title>Node15</title>
<g id="a_node13"><a xlink:href="traffic__mngr_8h.html" target="_top" xlink:title="ODP Traffic manager. ">
<polygon fill="#ffffff" stroke="#000000" points="260.5,-112.5 260.5,-131.5 344.5,-131.5 344.5,-112.5 260.5,-112.5"/>
<text text-anchor="middle" x="302.5" y="-119.5" font-family="Helvetica,sans-Serif" font-size="10.00" fill="#000000">traffic_mngr.h</text>
</a>
</g>
</g>
<!-- Node14&#45;&gt;Node15 -->
<g id="edge14" class="edge">
<title>Node14&#45;&gt;Node15</title>
<path fill="none" stroke="#191970" d="M302.5,-158.1575C302.5,-149.155 302.5,-138.9199 302.5,-131.6427"/>
<polygon fill="#191970" stroke="#191970" points="299.0001,-158.2455 302.5,-168.2455 306.0001,-158.2456 299.0001,-158.2455"/>
</g>
<!-- Node15&#45;&gt;Node8 -->
<g id="edge15" class="edge">
<title>Node15&#45;&gt;Node8</title>
<path fill="none" stroke="#191970" d="M286.5178,-104.7884C277.6222,-95.2085 266.8796,-83.6396 259.4539,-75.6427"/>
<polygon fill="#191970" stroke="#191970" points="284.073,-107.2992 293.4423,-112.2455 289.2025,-102.536 284.073,-107.2992"/>
</g>
<!-- Node17 -->
<g id="node15" class="node">
<title>Node17</title>
<g id="a_node15"><a xlink:href="packet__io__stats_8h.html" target="_top" xlink:title="ODP packet IO stats. ">
<polygon fill="#ffffff" stroke="#000000" points="145.5,-392.5 145.5,-411.5 247.5,-411.5 247.5,-392.5 145.5,-392.5"/>
<text text-anchor="middle" x="196.5" y="-399.5" font-family="Helvetica,sans-Serif" font-size="10.00" fill="#000000">packet_io_stats.h</text>
</a>
</g>
</g>
<!-- Node16&#45;&gt;Node17 -->
<g id="edge17" class="edge">
<title>Node16&#45;&gt;Node17</title>
<path fill="none" stroke="#191970" d="M196.5,-438.1575C196.5,-429.155 196.5,-418.9199 196.5,-411.6427"/>
<polygon fill="#191970" stroke="#191970" points="193.0001,-438.2455 196.5,-448.2455 200.0001,-438.2456 193.0001,-438.2455"/>
</g>
<!-- Node17&#45;&gt;Node10 -->
<g id="edge18" class="edge">
<title>Node17&#45;&gt;Node10</title>
<path fill="none" stroke="#191970" d="M196.5,-382.2702C196.5,-357.9985 196.5,-317.7725 196.5,-299.5249"/>
<polygon fill="#191970" stroke="#191970" points="193.0001,-382.4509 196.5,-392.4509 200.0001,-382.451 193.0001,-382.4509"/>
</g>
<!-- Node19 -->
<g id="node17" class="node">
<title>Node19</title>
<g id="a_node17"><a xlink:href="spec_2queue_8h.html" target="_top" xlink:title="ODP queue. ">
<polygon fill="#ffffff" stroke="#000000" points="265.5,-392.5 265.5,-411.5 321.5,-411.5 321.5,-392.5 265.5,-392.5"/>
<text text-anchor="middle" x="293.5" y="-399.5" font-family="Helvetica,sans-Serif" font-size="10.00" fill="#000000">queue.h</text>
</a>
</g>
</g>
<!-- Node18&#45;&gt;Node19 -->
<g id="edge20" class="edge">
<title>Node18&#45;&gt;Node19</title>
<path fill="none" stroke="#191970" d="M303.9154,-438.4538C301.323,-429.3803 298.3571,-418.9998 296.255,-411.6427"/>
<polygon fill="#191970" stroke="#191970" points="300.6004,-439.5919 306.713,-448.2455 307.3311,-437.6688 300.6004,-439.5919"/>
</g>
<!-- Node23 -->
<g id="node21" class="node">
<title>Node23</title>
<g id="a_node21"><a xlink:href="queue__inline__types_8h_source.html" target="_top" xlink:title="queue_inline_types.h">
<polygon fill="#ffffff" stroke="#000000" points="339.5,-392.5 339.5,-411.5 459.5,-411.5 459.5,-392.5 339.5,-392.5"/>
<text text-anchor="middle" x="399.5" y="-399.5" font-family="Helvetica,sans-Serif" font-size="10.00" fill="#000000">queue_inline_types.h</text>
</a>
</g>
</g>
<!-- Node18&#45;&gt;Node23 -->
<g id="edge26" class="edge">
<title>Node18&#45;&gt;Node23</title>
<path fill="none" stroke="#191970" d="M333.9784,-442.769C349.9266,-432.8456 370.251,-420.1994 384.0028,-411.6427"/>
<polygon fill="#191970" stroke="#191970" points="331.8183,-439.9908 325.1768,-448.2455 335.5165,-445.9342 331.8183,-439.9908"/>
</g>
<!-- Node20 -->
<g id="node18" class="node">
<title>Node20</title>
<g id="a_node18"><a xlink:href="queue_8h.html" target="_top" xlink:title="ODP queue. ">
<polygon fill="#ffffff" stroke="#000000" points="263.5,-336.5 263.5,-355.5 319.5,-355.5 319.5,-336.5 263.5,-336.5"/>
<text text-anchor="middle" x="291.5" y="-343.5" font-family="Helvetica,sans-Serif" font-size="10.00" fill="#000000">queue.h</text>
</a>
</g>
</g>
<!-- Node19&#45;&gt;Node20 -->
<g id="edge21" class="edge">
<title>Node19&#45;&gt;Node20</title>
<path fill="none" stroke="#191970" d="M292.7913,-382.1575C292.4698,-373.155 292.1043,-362.9199 291.8444,-355.6427"/>
<polygon fill="#191970" stroke="#191970" points="289.2968,-382.3769 293.1516,-392.2455 296.2924,-382.127 289.2968,-382.3769"/>
</g>
<!-- Node20&#45;&gt;Node7 -->
<g id="edge22" class="edge">
<title>Node20&#45;&gt;Node7</title>
<path fill="none" stroke="#191970" d="M313.934,-330.49C328.2254,-320.6096 346.2916,-308.1194 358.5526,-299.6427"/>
<polygon fill="#191970" stroke="#191970" points="311.8443,-327.6797 305.6091,-336.2455 315.8251,-333.4376 311.8443,-327.6797"/>
</g>
<!-- Node20&#45;&gt;Node10 -->
<g id="edge23" class="edge">
<title>Node20&#45;&gt;Node10</title>
<path fill="none" stroke="#191970" d="M266.1324,-331.0465C249.229,-321.0824 227.5096,-308.2794 212.8581,-299.6427"/>
<polygon fill="#191970" stroke="#191970" points="264.5602,-334.1825 274.9523,-336.2455 268.1149,-328.1522 264.5602,-334.1825"/>
</g>
<!-- Node21 -->
<g id="node19" class="node">
<title>Node21</title>
<g id="a_node19"><a xlink:href="spec_2schedule_8h.html" target="_top" xlink:title="ODP schedule. ">
<polygon fill="#ffffff" stroke="#000000" points="257,-280.5 257,-299.5 326,-299.5 326,-280.5 257,-280.5"/>
<text text-anchor="middle" x="291.5" y="-287.5" font-family="Helvetica,sans-Serif" font-size="10.00" fill="#000000">schedule.h</text>
</a>
</g>
</g>
<!-- Node20&#45;&gt;Node21 -->
<g id="edge24" class="edge">
<title>Node20&#45;&gt;Node21</title>
<path fill="none" stroke="#191970" d="M291.5,-326.1575C291.5,-317.155 291.5,-306.9199 291.5,-299.6427"/>
<polygon fill="#191970" stroke="#191970" points="288.0001,-326.2455 291.5,-336.2455 295.0001,-326.2456 288.0001,-326.2455"/>
</g>
<!-- Node22 -->
<g id="node20" class="node">
<title>Node22</title>
<g id="a_node20"><a xlink:href="schedule_8h.html" target="_top" xlink:title="ODP schedule. ">
<polygon fill="#ffffff" stroke="#000000" points="257,-224.5 257,-243.5 326,-243.5 326,-224.5 257,-224.5"/>
<text text-anchor="middle" x="291.5" y="-231.5" font-family="Helvetica,sans-Serif" font-size="10.00" fill="#000000">schedule.h</text>
</a>
</g>
</g>
<!-- Node21&#45;&gt;Node22 -->
<g id="edge25" class="edge">
<title>Node21&#45;&gt;Node22</title>
<path fill="none" stroke="#191970" d="M291.5,-270.1575C291.5,-261.155 291.5,-250.9199 291.5,-243.6427"/>
<polygon fill="#191970" stroke="#191970" points="288.0001,-270.2455 291.5,-280.2455 295.0001,-270.2456 288.0001,-270.2455"/>
</g>
<!-- Node24 -->
<g id="node22" class="node">
<title>Node24</title>
<g id="a_node22"><a xlink:href="queue__inlines_8h_source.html" target="_top" xlink:title="queue_inlines.h">
<polygon fill="#ffffff" stroke="#000000" points="348,-336.5 348,-355.5 441,-355.5 441,-336.5 348,-336.5"/>
<text text-anchor="middle" x="394.5" y="-343.5" font-family="Helvetica,sans-Serif" font-size="10.00" fill="#000000">queue_inlines.h</text>
</a>
</g>
</g>
<!-- Node23&#45;&gt;Node24 -->
<g id="edge27" class="edge">
<title>Node23&#45;&gt;Node24</title>
<path fill="none" stroke="#191970" d="M397.7283,-382.1575C396.9246,-373.155 396.0107,-362.9199 395.361,-355.6427"/>
<polygon fill="#191970" stroke="#191970" points="394.2535,-382.5965 398.6291,-392.2455 401.2258,-381.9739 394.2535,-382.5965"/>
</g>
</g>
</svg>
