<?xml version="1.0" encoding="UTF-8" standalone="no"?>
<!DOCTYPE svg PUBLIC "-//W3C//DTD SVG 1.1//EN"
 "http://www.w3.org/Graphics/SVG/1.1/DTD/svg11.dtd">
<!-- Generated by graphviz version 2.40.1 (20161225.0304)
 -->
<!-- Title: odp_pktio_capability_t Pages: 1 -->
<svg width="636pt" height="237pt"
 viewBox="0.00 0.00 636.00 237.00" xmlns="http://www.w3.org/2000/svg" xmlns:xlink="http://www.w3.org/1999/xlink">
<g id="graph0" class="graph" transform="scale(1 1) rotate(0) translate(4 233)">
<title>odp_pktio_capability_t</title>
<polygon fill="#ffffff" stroke="transparent" points="-4,4 -4,-233 632,-233 632,4 -4,4"/>
<!-- Node1 -->
<g id="node1" class="node">
<title>Node1</title>
<polygon fill="#bfbfbf" stroke="#000000" points="501,-133.5 501,-152.5 628,-152.5 628,-133.5 501,-133.5"/>
<text text-anchor="middle" x="564.5" y="-140.5" font-family="Helvetica,sans-Serif" font-size="10.00" fill="#000000">odp_pktio_capability_t</text>
</g>
<!-- Node2 -->
<g id="node2" class="node">
<title>Node2</title>
<g id="a_node2"><a xlink:href="unionodp__pktio__set__op__t.html" target="_top" xlink:title="Packet IO set operations. ">
<polygon fill="#ffffff" stroke="#000000" points="267,-209.5 267,-228.5 378,-228.5 378,-209.5 267,-209.5"/>
<text text-anchor="middle" x="322.5" y="-216.5" font-family="Helvetica,sans-Serif" font-size="10.00" fill="#000000">odp_pktio_set_op_t</text>
</a>
</g>
</g>
<!-- Node2&#45;&gt;Node1 -->
<g id="edge1" class="edge">
<title>Node2&#45;&gt;Node1</title>
<path fill="none" stroke="#9a32cd" stroke-dasharray="5,2" d="M384.9069,-207.3714C414.977,-200.9758 451.3058,-192.0746 483,-181 505.6964,-173.0694 530.5792,-160.929 546.8046,-152.5136"/>
<polygon fill="#9a32cd" stroke="#9a32cd" points="384.0402,-203.9767 374.9649,-209.4438 385.4687,-210.8295 384.0402,-203.9767"/>
<text text-anchor="middle" x="452.5" y="-201" font-family="Helvetica,sans-Serif" font-size="10.00" fill="#000000"> set_op</text>
</g>
<!-- Node3 -->
<g id="node3" class="node">
<title>Node3</title>
<g id="a_node3"><a xlink:href="structodp__lso__capability__t.html" target="_top" xlink:title="Large Send Offload (LSO) capabilities. ">
<polygon fill="#ffffff" stroke="#000000" points="264.5,-171.5 264.5,-190.5 380.5,-190.5 380.5,-171.5 264.5,-171.5"/>
<text text-anchor="middle" x="322.5" y="-178.5" font-family="Helvetica,sans-Serif" font-size="10.00" fill="#000000">odp_lso_capability_t</text>
</a>
</g>
</g>
<!-- Node3&#45;&gt;Node1 -->
<g id="edge2" class="edge">
<title>Node3&#45;&gt;Node1</title>
<path fill="none" stroke="#9a32cd" stroke-dasharray="5,2" d="M390.8051,-171.8209C419.3401,-167.8282 452.8154,-162.9385 483,-158 493.2227,-156.3275 504.1419,-154.4092 514.5572,-152.5158"/>
<polygon fill="#9a32cd" stroke="#9a32cd" points="389.9535,-168.4056 380.531,-173.2497 390.9178,-175.3388 389.9535,-168.4056"/>
<text text-anchor="middle" x="452.5" y="-169" font-family="Helvetica,sans-Serif" font-size="10.00" fill="#000000"> lso</text>
</g>
<!-- Node4 -->
<g id="node4" class="node">
<title>Node4</title>
<g id="a_node4"><a xlink:href="structodp__pktin__vector__capability__t.html" target="_top" xlink:title="Packet input vector capabilities. ">
<polygon fill="#ffffff" stroke="#000000" points="241,-133.5 241,-152.5 404,-152.5 404,-133.5 241,-133.5"/>
<text text-anchor="middle" x="322.5" y="-140.5" font-family="Helvetica,sans-Serif" font-size="10.00" fill="#000000">odp_pktin_vector_capability_t</text>
</a>
</g>
</g>
<!-- Node4&#45;&gt;Node1 -->
<g id="edge3" class="edge">
<title>Node4&#45;&gt;Node1</title>
<path fill="none" stroke="#9a32cd" stroke-dasharray="5,2" d="M414.2008,-143C443.0905,-143 474.3512,-143 500.842,-143"/>
<polygon fill="#9a32cd" stroke="#9a32cd" points="414.0928,-139.5001 404.0928,-143 414.0927,-146.5001 414.0928,-139.5001"/>
<text text-anchor="middle" x="452.5" y="-146" font-family="Helvetica,sans-Serif" font-size="10.00" fill="#000000"> vector</text>
</g>
<!-- Node5 -->
<g id="node5" class="node">
<title>Node5</title>
<g id="a_node5"><a xlink:href="structodp__reass__capability__t.html" target="_top" xlink:title="Reassembly capabilities. ">
<polygon fill="#ffffff" stroke="#000000" points="258.5,-95.5 258.5,-114.5 386.5,-114.5 386.5,-95.5 258.5,-95.5"/>
<text text-anchor="middle" x="322.5" y="-102.5" font-family="Helvetica,sans-Serif" font-size="10.00" fill="#000000">odp_reass_capability_t</text>
</a>
</g>
</g>
<!-- Node5&#45;&gt;Node1 -->
<g id="edge4" class="edge">
<title>Node5&#45;&gt;Node1</title>
<path fill="none" stroke="#9a32cd" stroke-dasharray="5,2" d="M396.8386,-115.0264C423.9887,-118.8534 454.9184,-123.4056 483,-128 493.2227,-129.6725 504.1419,-131.5908 514.5572,-133.4842"/>
<polygon fill="#9a32cd" stroke="#9a32cd" points="397.0208,-111.5178 386.6319,-113.5966 396.0496,-118.4502 397.0208,-111.5178"/>
<text text-anchor="middle" x="452.5" y="-131" font-family="Helvetica,sans-Serif" font-size="10.00" fill="#000000"> reassembly</text>
</g>
<!-- Node6 -->
<g id="node6" class="node">
<title>Node6</title>
<g id="a_node6"><a xlink:href="structodp__pktio__config__t.html" target="_top" xlink:title="Packet IO configuration options. ">
<polygon fill="#ffffff" stroke="#000000" points="268.5,-57.5 268.5,-76.5 376.5,-76.5 376.5,-57.5 268.5,-57.5"/>
<text text-anchor="middle" x="322.5" y="-64.5" font-family="Helvetica,sans-Serif" font-size="10.00" fill="#000000">odp_pktio_config_t</text>
</a>
</g>
</g>
<!-- Node6&#45;&gt;Node1 -->
<g id="edge5" class="edge">
<title>Node6&#45;&gt;Node1</title>
<path fill="none" stroke="#9a32cd" stroke-dasharray="5,2" d="M386.6838,-78.4285C416.4179,-84.5745 451.959,-93.1436 483,-104 506.098,-112.0784 531.3094,-124.7934 547.4813,-133.4944"/>
<polygon fill="#9a32cd" stroke="#9a32cd" points="387.3329,-74.989 376.8375,-76.4373 385.9453,-81.8501 387.3329,-74.989"/>
<text text-anchor="middle" x="452.5" y="-107" font-family="Helvetica,sans-Serif" font-size="10.00" fill="#000000"> config</text>
</g>
<!-- Node7 -->
<g id="node7" class="node">
<title>Node7</title>
<g id="a_node7"><a xlink:href="structodp__pktio__parser__config__t.html" target="_top" xlink:title="Parser configuration. ">
<polygon fill="#ffffff" stroke="#000000" points="0,-114.5 0,-133.5 144,-133.5 144,-114.5 0,-114.5"/>
<text text-anchor="middle" x="72" y="-121.5" font-family="Helvetica,sans-Serif" font-size="10.00" fill="#000000">odp_pktio_parser_config_t</text>
</a>
</g>
</g>
<!-- Node7&#45;&gt;Node6 -->
<g id="edge6" class="edge">
<title>Node7&#45;&gt;Node6</title>
<path fill="none" stroke="#9a32cd" stroke-dasharray="5,2" d="M139.7743,-112.6076C166.0126,-107.5425 196.141,-100.9183 223,-93 231.2333,-90.5727 232.7996,-88.5364 241,-86 252.3816,-82.4797 264.8337,-79.2652 276.5029,-76.5218"/>
<polygon fill="#9a32cd" stroke="#9a32cd" points="139.0983,-109.1734 129.9236,-114.472 140.4001,-116.0513 139.0983,-109.1734"/>
<text text-anchor="middle" x="192.5" y="-110" font-family="Helvetica,sans-Serif" font-size="10.00" fill="#000000"> parser</text>
</g>
<!-- Node8 -->
<g id="node8" class="node">
<title>Node8</title>
<g id="a_node8"><a xlink:href="unionodp__pktin__config__opt__t.html" target="_top" xlink:title="Packet input configuration options bit field. ">
<polygon fill="#ffffff" stroke="#000000" points="7.5,-76.5 7.5,-95.5 136.5,-95.5 136.5,-76.5 7.5,-76.5"/>
<text text-anchor="middle" x="72" y="-83.5" font-family="Helvetica,sans-Serif" font-size="10.00" fill="#000000">odp_pktin_config_opt_t</text>
</a>
</g>
</g>
<!-- Node8&#45;&gt;Node6 -->
<g id="edge7" class="edge">
<title>Node8&#45;&gt;Node6</title>
<path fill="none" stroke="#9a32cd" stroke-dasharray="5,2" d="M146.7864,-80.3276C185.874,-77.3628 232.8354,-73.8009 268.3718,-71.1055"/>
<polygon fill="#9a32cd" stroke="#9a32cd" points="146.2166,-76.8607 136.51,-81.107 146.7461,-83.8406 146.2166,-76.8607"/>
<text text-anchor="middle" x="192.5" y="-81" font-family="Helvetica,sans-Serif" font-size="10.00" fill="#000000"> pktin</text>
</g>
<!-- Node9 -->
<g id="node9" class="node">
<title>Node9</title>
<g id="a_node9"><a xlink:href="structodp__reass__config__t.html" target="_top" xlink:title="Fragment reassembly configuration. ">
<polygon fill="#ffffff" stroke="#000000" points="17,-38.5 17,-57.5 127,-57.5 127,-38.5 17,-38.5"/>
<text text-anchor="middle" x="72" y="-45.5" font-family="Helvetica,sans-Serif" font-size="10.00" fill="#000000">odp_reass_config_t</text>
</a>
</g>
</g>
<!-- Node9&#45;&gt;Node6 -->
<g id="edge8" class="edge">
<title>Node9&#45;&gt;Node6</title>
<path fill="none" stroke="#9a32cd" stroke-dasharray="5,2" d="M137.5482,-52.6673C164.0815,-54.5847 195.0046,-56.8549 223,-59 237.6875,-60.1254 253.5909,-61.3854 268.2836,-62.5666"/>
<polygon fill="#9a32cd" stroke="#9a32cd" points="137.4568,-49.1518 127.231,-51.9236 136.9534,-56.1336 137.4568,-49.1518"/>
<text text-anchor="middle" x="192.5" y="-62" font-family="Helvetica,sans-Serif" font-size="10.00" fill="#000000"> reassembly</text>
</g>
<!-- Node10 -->
<g id="node10" class="node">
<title>Node10</title>
<g id="a_node10"><a xlink:href="unionodp__pktout__config__opt__t.html" target="_top" xlink:title="Packet output configuration options bit field. ">
<polygon fill="#ffffff" stroke="#000000" points="4,-.5 4,-19.5 140,-19.5 140,-.5 4,-.5"/>
<text text-anchor="middle" x="72" y="-7.5" font-family="Helvetica,sans-Serif" font-size="10.00" fill="#000000">odp_pktout_config_opt_t</text>
</a>
</g>
</g>
<!-- Node10&#45;&gt;Node6 -->
<g id="edge9" class="edge">
<title>Node10&#45;&gt;Node6</title>
<path fill="none" stroke="#9a32cd" stroke-dasharray="5,2" d="M137.7754,-21.3821C164.3495,-26.3054 195.2415,-32.4411 223,-39 246.0529,-44.447 271.7865,-51.7211 291.3073,-57.49"/>
<polygon fill="#9a32cd" stroke="#9a32cd" points="138.2849,-17.9172 127.8176,-19.5562 137.0224,-24.8024 138.2849,-17.9172"/>
<text text-anchor="middle" x="192.5" y="-42" font-family="Helvetica,sans-Serif" font-size="10.00" fill="#000000"> pktout</text>
</g>
</g>
</svg>
